G04 #@! TF.GenerationSoftware,KiCad,Pcbnew,(5.1.9)-1*
G04 #@! TF.CreationDate,2021-03-06T13:27:10+01:00*
G04 #@! TF.ProjectId,IoT12,496f5431-322e-46b6-9963-61645f706362,rev?*
G04 #@! TF.SameCoordinates,Original*
G04 #@! TF.FileFunction,Legend,Bot*
G04 #@! TF.FilePolarity,Positive*
%FSLAX46Y46*%
G04 Gerber Fmt 4.6, Leading zero omitted, Abs format (unit mm)*
G04 Created by KiCad (PCBNEW (5.1.9)-1) date 2021-03-06 13:27:10*
%MOMM*%
%LPD*%
G01*
G04 APERTURE LIST*
%ADD10C,0.150000*%
%ADD11C,0.120000*%
%ADD12C,0.010000*%
G04 APERTURE END LIST*
D10*
X-10074380Y-18836619D02*
X-9979142Y-18789000D01*
X-9883904Y-18693761D01*
X-9741047Y-18550904D01*
X-9645809Y-18503285D01*
X-9550571Y-18503285D01*
X-9598190Y-18741380D02*
X-9502952Y-18693761D01*
X-9407714Y-18598523D01*
X-9360095Y-18408047D01*
X-9360095Y-18074714D01*
X-9407714Y-17884238D01*
X-9502952Y-17789000D01*
X-9598190Y-17741380D01*
X-9788666Y-17741380D01*
X-9883904Y-17789000D01*
X-9979142Y-17884238D01*
X-10026761Y-18074714D01*
X-10026761Y-18408047D01*
X-9979142Y-18598523D01*
X-9883904Y-18693761D01*
X-9788666Y-18741380D01*
X-9598190Y-18741380D01*
X-10455333Y-18646142D02*
X-10502952Y-18693761D01*
X-10455333Y-18741380D01*
X-10407714Y-18693761D01*
X-10455333Y-18646142D01*
X-10455333Y-18741380D01*
X-10455333Y-18122333D02*
X-10502952Y-18169952D01*
X-10455333Y-18217571D01*
X-10407714Y-18169952D01*
X-10455333Y-18122333D01*
X-10455333Y-18217571D01*
X-11693428Y-18741380D02*
X-11693428Y-17741380D01*
X-12026761Y-18074714D02*
X-12407714Y-18074714D01*
X-12169619Y-18741380D02*
X-12169619Y-17884238D01*
X-12217238Y-17789000D01*
X-12312476Y-17741380D01*
X-12407714Y-17741380D01*
X-13360095Y-18074714D02*
X-13741047Y-18074714D01*
X-13502952Y-17741380D02*
X-13502952Y-18598523D01*
X-13550571Y-18693761D01*
X-13645809Y-18741380D01*
X-13741047Y-18741380D01*
X-14074380Y-18741380D02*
X-14074380Y-17741380D01*
X-14502952Y-18741380D02*
X-14502952Y-18217571D01*
X-14455333Y-18122333D01*
X-14360095Y-18074714D01*
X-14217238Y-18074714D01*
X-14122000Y-18122333D01*
X-14074380Y-18169952D01*
X-15360095Y-18693761D02*
X-15264857Y-18741380D01*
X-15074380Y-18741380D01*
X-14979142Y-18693761D01*
X-14931523Y-18598523D01*
X-14931523Y-18217571D01*
X-14979142Y-18122333D01*
X-15074380Y-18074714D01*
X-15264857Y-18074714D01*
X-15360095Y-18122333D01*
X-15407714Y-18217571D01*
X-15407714Y-18312809D01*
X-14931523Y-18408047D01*
X-17169619Y-18646142D02*
X-17121999Y-18693761D01*
X-16979142Y-18741380D01*
X-16883904Y-18741380D01*
X-16741047Y-18693761D01*
X-16645809Y-18598523D01*
X-16598190Y-18503285D01*
X-16550571Y-18312809D01*
X-16550571Y-18169952D01*
X-16598190Y-17979476D01*
X-16645809Y-17884238D01*
X-16741047Y-17789000D01*
X-16883904Y-17741380D01*
X-16979142Y-17741380D01*
X-17121999Y-17789000D01*
X-17169619Y-17836619D01*
X-17741047Y-18741380D02*
X-17645809Y-18693761D01*
X-17598190Y-18646142D01*
X-17550571Y-18550904D01*
X-17550571Y-18265190D01*
X-17598190Y-18169952D01*
X-17645809Y-18122333D01*
X-17741047Y-18074714D01*
X-17883904Y-18074714D01*
X-17979142Y-18122333D01*
X-18026761Y-18169952D01*
X-18074380Y-18265190D01*
X-18074380Y-18550904D01*
X-18026761Y-18646142D01*
X-17979142Y-18693761D01*
X-17883904Y-18741380D01*
X-17741047Y-18741380D01*
X-18502952Y-18074714D02*
X-18502952Y-18741380D01*
X-18502952Y-18169952D02*
X-18550571Y-18122333D01*
X-18645809Y-18074714D01*
X-18788666Y-18074714D01*
X-18883904Y-18122333D01*
X-18931523Y-18217571D01*
X-18931523Y-18741380D01*
X-19264857Y-18074714D02*
X-19645809Y-18074714D01*
X-19407714Y-17741380D02*
X-19407714Y-18598523D01*
X-19455333Y-18693761D01*
X-19550571Y-18741380D01*
X-19645809Y-18741380D01*
X-19979142Y-18741380D02*
X-19979142Y-18074714D01*
X-19979142Y-17741380D02*
X-19931523Y-17789000D01*
X-19979142Y-17836619D01*
X-20026761Y-17789000D01*
X-19979142Y-17741380D01*
X-19979142Y-17836619D01*
X-20455333Y-18074714D02*
X-20455333Y-18741380D01*
X-20455333Y-18169952D02*
X-20502952Y-18122333D01*
X-20598190Y-18074714D01*
X-20741047Y-18074714D01*
X-20836285Y-18122333D01*
X-20883904Y-18217571D01*
X-20883904Y-18741380D01*
X-21788666Y-18074714D02*
X-21788666Y-18741380D01*
X-21360095Y-18074714D02*
X-21360095Y-18598523D01*
X-21407714Y-18693761D01*
X-21502952Y-18741380D01*
X-21645809Y-18741380D01*
X-21741047Y-18693761D01*
X-21788666Y-18646142D01*
X-22693428Y-18074714D02*
X-22693428Y-18741380D01*
X-22264857Y-18074714D02*
X-22264857Y-18598523D01*
X-22312476Y-18693761D01*
X-22407714Y-18741380D01*
X-22550571Y-18741380D01*
X-22645809Y-18693761D01*
X-22693428Y-18646142D01*
X-23169619Y-18741380D02*
X-23169619Y-18074714D01*
X-23169619Y-18169952D02*
X-23217238Y-18122333D01*
X-23312476Y-18074714D01*
X-23455333Y-18074714D01*
X-23550571Y-18122333D01*
X-23598190Y-18217571D01*
X-23598190Y-18741380D01*
X-23598190Y-18217571D02*
X-23645809Y-18122333D01*
X-23741047Y-18074714D01*
X-23883904Y-18074714D01*
X-23979142Y-18122333D01*
X-24026761Y-18217571D01*
X-24026761Y-18741380D01*
X-24550571Y-17741380D02*
X-24455333Y-17931857D01*
X-24931523Y-18693761D02*
X-25026761Y-18741380D01*
X-25217238Y-18741380D01*
X-25312476Y-18693761D01*
X-25360095Y-18598523D01*
X-25360095Y-18550904D01*
X-25312476Y-18455666D01*
X-25217238Y-18408047D01*
X-25074380Y-18408047D01*
X-24979142Y-18360428D01*
X-24931523Y-18265190D01*
X-24931523Y-18217571D01*
X-24979142Y-18122333D01*
X-25074380Y-18074714D01*
X-25217238Y-18074714D01*
X-25312476Y-18122333D01*
X-26407714Y-18074714D02*
X-26788666Y-18074714D01*
X-26550571Y-17741380D02*
X-26550571Y-18598523D01*
X-26598190Y-18693761D01*
X-26693428Y-18741380D01*
X-26788666Y-18741380D01*
X-27264857Y-18741380D02*
X-27169619Y-18693761D01*
X-27121999Y-18646142D01*
X-27074380Y-18550904D01*
X-27074380Y-18265190D01*
X-27121999Y-18169952D01*
X-27169619Y-18122333D01*
X-27264857Y-18074714D01*
X-27407714Y-18074714D01*
X-27502952Y-18122333D01*
X-27550571Y-18169952D01*
X-27598190Y-18265190D01*
X-27598190Y-18550904D01*
X-27550571Y-18646142D01*
X-27502952Y-18693761D01*
X-27407714Y-18741380D01*
X-27264857Y-18741380D01*
X-28169619Y-18741380D02*
X-28074380Y-18693761D01*
X-28026761Y-18598523D01*
X-28026761Y-17741380D01*
X-28979142Y-18741380D02*
X-28979142Y-17741380D01*
X-28979142Y-18693761D02*
X-28883904Y-18741380D01*
X-28693428Y-18741380D01*
X-28598190Y-18693761D01*
X-28550571Y-18646142D01*
X-28502952Y-18550904D01*
X-28502952Y-18265190D01*
X-28550571Y-18169952D01*
X-28598190Y-18122333D01*
X-28693428Y-18074714D01*
X-28883904Y-18074714D01*
X-28979142Y-18122333D01*
X-30121999Y-18074714D02*
X-30360095Y-18741380D01*
X-30598190Y-18074714D02*
X-30360095Y-18741380D01*
X-30264857Y-18979476D01*
X-30217238Y-19027095D01*
X-30121999Y-19074714D01*
X-31121999Y-18741380D02*
X-31026761Y-18693761D01*
X-30979142Y-18646142D01*
X-30931523Y-18550904D01*
X-30931523Y-18265190D01*
X-30979142Y-18169952D01*
X-31026761Y-18122333D01*
X-31121999Y-18074714D01*
X-31264857Y-18074714D01*
X-31360095Y-18122333D01*
X-31407714Y-18169952D01*
X-31455333Y-18265190D01*
X-31455333Y-18550904D01*
X-31407714Y-18646142D01*
X-31360095Y-18693761D01*
X-31264857Y-18741380D01*
X-31121999Y-18741380D01*
X-32312476Y-18074714D02*
X-32312476Y-18741380D01*
X-31883904Y-18074714D02*
X-31883904Y-18598523D01*
X-31931523Y-18693761D01*
X-32026761Y-18741380D01*
X-32169619Y-18741380D01*
X-32264857Y-18693761D01*
X-32312476Y-18646142D01*
X-33693428Y-18741380D02*
X-33598190Y-18693761D01*
X-33550571Y-18646142D01*
X-33502952Y-18550904D01*
X-33502952Y-18265190D01*
X-33550571Y-18169952D01*
X-33598190Y-18122333D01*
X-33693428Y-18074714D01*
X-33836285Y-18074714D01*
X-33931523Y-18122333D01*
X-33979142Y-18169952D01*
X-34026761Y-18265190D01*
X-34026761Y-18550904D01*
X-33979142Y-18646142D01*
X-33931523Y-18693761D01*
X-33836285Y-18741380D01*
X-33693428Y-18741380D01*
X-34455333Y-18074714D02*
X-34455333Y-18741380D01*
X-34455333Y-18169952D02*
X-34502952Y-18122333D01*
X-34598190Y-18074714D01*
X-34741047Y-18074714D01*
X-34836285Y-18122333D01*
X-34883904Y-18217571D01*
X-34883904Y-18741380D01*
X-35788666Y-18693761D02*
X-35693428Y-18741380D01*
X-35502952Y-18741380D01*
X-35407714Y-18693761D01*
X-35360095Y-18646142D01*
X-35312476Y-18550904D01*
X-35312476Y-18265190D01*
X-35360095Y-18169952D01*
X-35407714Y-18122333D01*
X-35502952Y-18074714D01*
X-35693428Y-18074714D01*
X-35788666Y-18122333D01*
X-36598190Y-18693761D02*
X-36502952Y-18741380D01*
X-36312476Y-18741380D01*
X-36217238Y-18693761D01*
X-36169619Y-18598523D01*
X-36169619Y-18217571D01*
X-36217238Y-18122333D01*
X-36312476Y-18074714D01*
X-36502952Y-18074714D01*
X-36598190Y-18122333D01*
X-36645809Y-18217571D01*
X-36645809Y-18312809D01*
X-36169619Y-18408047D01*
X-37121999Y-18693761D02*
X-37121999Y-18741380D01*
X-37074380Y-18836619D01*
X-37026761Y-18884238D01*
X-9979142Y-19724714D02*
X-10360095Y-19724714D01*
X-10122000Y-19391380D02*
X-10122000Y-20248523D01*
X-10169619Y-20343761D01*
X-10264857Y-20391380D01*
X-10360095Y-20391380D01*
X-10693428Y-20391380D02*
X-10693428Y-19391380D01*
X-11122000Y-20391380D02*
X-11122000Y-19867571D01*
X-11074380Y-19772333D01*
X-10979142Y-19724714D01*
X-10836285Y-19724714D01*
X-10741047Y-19772333D01*
X-10693428Y-19819952D01*
X-11979142Y-20343761D02*
X-11883904Y-20391380D01*
X-11693428Y-20391380D01*
X-11598190Y-20343761D01*
X-11550571Y-20248523D01*
X-11550571Y-19867571D01*
X-11598190Y-19772333D01*
X-11693428Y-19724714D01*
X-11883904Y-19724714D01*
X-11979142Y-19772333D01*
X-12026761Y-19867571D01*
X-12026761Y-19962809D01*
X-11550571Y-20058047D01*
X-12360095Y-19724714D02*
X-12598190Y-20391380D01*
X-12836285Y-19724714D02*
X-12598190Y-20391380D01*
X-12502952Y-20629476D01*
X-12455333Y-20677095D01*
X-12360095Y-20724714D01*
X-13264857Y-19391380D02*
X-13169619Y-19581857D01*
X-13598190Y-19724714D02*
X-13836285Y-20391380D01*
X-14074380Y-19724714D01*
X-14836285Y-20343761D02*
X-14741047Y-20391380D01*
X-14550571Y-20391380D01*
X-14455333Y-20343761D01*
X-14407714Y-20248523D01*
X-14407714Y-19867571D01*
X-14455333Y-19772333D01*
X-14550571Y-19724714D01*
X-14741047Y-19724714D01*
X-14836285Y-19772333D01*
X-14883904Y-19867571D01*
X-14883904Y-19962809D01*
X-14407714Y-20058047D01*
X-15931523Y-19724714D02*
X-16312476Y-19724714D01*
X-16074380Y-19391380D02*
X-16074380Y-20248523D01*
X-16122000Y-20343761D01*
X-16217238Y-20391380D01*
X-16312476Y-20391380D01*
X-16788666Y-20391380D02*
X-16693428Y-20343761D01*
X-16645809Y-20296142D01*
X-16598190Y-20200904D01*
X-16598190Y-19915190D01*
X-16645809Y-19819952D01*
X-16693428Y-19772333D01*
X-16788666Y-19724714D01*
X-16931523Y-19724714D01*
X-17026761Y-19772333D01*
X-17074380Y-19819952D01*
X-17121999Y-19915190D01*
X-17121999Y-20200904D01*
X-17074380Y-20296142D01*
X-17026761Y-20343761D01*
X-16931523Y-20391380D01*
X-16788666Y-20391380D01*
X-17693428Y-20391380D02*
X-17598190Y-20343761D01*
X-17550571Y-20248523D01*
X-17550571Y-19391380D01*
X-18502952Y-20391380D02*
X-18502952Y-19391380D01*
X-18502952Y-20343761D02*
X-18407714Y-20391380D01*
X-18217238Y-20391380D01*
X-18121999Y-20343761D01*
X-18074380Y-20296142D01*
X-18026761Y-20200904D01*
X-18026761Y-19915190D01*
X-18074380Y-19819952D01*
X-18121999Y-19772333D01*
X-18217238Y-19724714D01*
X-18407714Y-19724714D01*
X-18502952Y-19772333D01*
X-19645809Y-19724714D02*
X-19883904Y-20391380D01*
X-20121999Y-19724714D02*
X-19883904Y-20391380D01*
X-19788666Y-20629476D01*
X-19741047Y-20677095D01*
X-19645809Y-20724714D01*
X-20645809Y-20391380D02*
X-20550571Y-20343761D01*
X-20502952Y-20296142D01*
X-20455333Y-20200904D01*
X-20455333Y-19915190D01*
X-20502952Y-19819952D01*
X-20550571Y-19772333D01*
X-20645809Y-19724714D01*
X-20788666Y-19724714D01*
X-20883904Y-19772333D01*
X-20931523Y-19819952D01*
X-20979142Y-19915190D01*
X-20979142Y-20200904D01*
X-20931523Y-20296142D01*
X-20883904Y-20343761D01*
X-20788666Y-20391380D01*
X-20645809Y-20391380D01*
X-21836285Y-19724714D02*
X-21836285Y-20391380D01*
X-21407714Y-19724714D02*
X-21407714Y-20248523D01*
X-21455333Y-20343761D01*
X-21550571Y-20391380D01*
X-21693428Y-20391380D01*
X-21788666Y-20343761D01*
X-21836285Y-20296142D01*
X-23502952Y-20391380D02*
X-23502952Y-19867571D01*
X-23455333Y-19772333D01*
X-23360095Y-19724714D01*
X-23169619Y-19724714D01*
X-23074380Y-19772333D01*
X-23502952Y-20343761D02*
X-23407714Y-20391380D01*
X-23169619Y-20391380D01*
X-23074380Y-20343761D01*
X-23026761Y-20248523D01*
X-23026761Y-20153285D01*
X-23074380Y-20058047D01*
X-23169619Y-20010428D01*
X-23407714Y-20010428D01*
X-23502952Y-19962809D01*
X-24598190Y-19724714D02*
X-24979142Y-19724714D01*
X-24741047Y-19391380D02*
X-24741047Y-20248523D01*
X-24788666Y-20343761D01*
X-24883904Y-20391380D01*
X-24979142Y-20391380D01*
X-25312476Y-20391380D02*
X-25312476Y-19391380D01*
X-25741047Y-20391380D02*
X-25741047Y-19867571D01*
X-25693428Y-19772333D01*
X-25598190Y-19724714D01*
X-25455333Y-19724714D01*
X-25360095Y-19772333D01*
X-25312476Y-19819952D01*
X-26360095Y-20391380D02*
X-26264857Y-20343761D01*
X-26217238Y-20296142D01*
X-26169619Y-20200904D01*
X-26169619Y-19915190D01*
X-26217238Y-19819952D01*
X-26264857Y-19772333D01*
X-26360095Y-19724714D01*
X-26502952Y-19724714D01*
X-26598190Y-19772333D01*
X-26645809Y-19819952D01*
X-26693428Y-19915190D01*
X-26693428Y-20200904D01*
X-26645809Y-20296142D01*
X-26598190Y-20343761D01*
X-26502952Y-20391380D01*
X-26360095Y-20391380D01*
X-27550571Y-19724714D02*
X-27550571Y-20391380D01*
X-27121999Y-19724714D02*
X-27121999Y-20248523D01*
X-27169619Y-20343761D01*
X-27264857Y-20391380D01*
X-27407714Y-20391380D01*
X-27502952Y-20343761D01*
X-27550571Y-20296142D01*
X-27979142Y-20343761D02*
X-28074380Y-20391380D01*
X-28264857Y-20391380D01*
X-28360095Y-20343761D01*
X-28407714Y-20248523D01*
X-28407714Y-20200904D01*
X-28360095Y-20105666D01*
X-28264857Y-20058047D01*
X-28121999Y-20058047D01*
X-28026761Y-20010428D01*
X-27979142Y-19915190D01*
X-27979142Y-19867571D01*
X-28026761Y-19772333D01*
X-28121999Y-19724714D01*
X-28264857Y-19724714D01*
X-28360095Y-19772333D01*
X-29264857Y-20391380D02*
X-29264857Y-19867571D01*
X-29217238Y-19772333D01*
X-29121999Y-19724714D01*
X-28931523Y-19724714D01*
X-28836285Y-19772333D01*
X-29264857Y-20343761D02*
X-29169619Y-20391380D01*
X-28931523Y-20391380D01*
X-28836285Y-20343761D01*
X-28788666Y-20248523D01*
X-28788666Y-20153285D01*
X-28836285Y-20058047D01*
X-28931523Y-20010428D01*
X-29169619Y-20010428D01*
X-29264857Y-19962809D01*
X-29741047Y-19724714D02*
X-29741047Y-20391380D01*
X-29741047Y-19819952D02*
X-29788666Y-19772333D01*
X-29883904Y-19724714D01*
X-30026761Y-19724714D01*
X-30121999Y-19772333D01*
X-30169619Y-19867571D01*
X-30169619Y-20391380D01*
X-31074380Y-20391380D02*
X-31074380Y-19391380D01*
X-31074380Y-20343761D02*
X-30979142Y-20391380D01*
X-30788666Y-20391380D01*
X-30693428Y-20343761D01*
X-30645809Y-20296142D01*
X-30598190Y-20200904D01*
X-30598190Y-19915190D01*
X-30645809Y-19819952D01*
X-30693428Y-19772333D01*
X-30788666Y-19724714D01*
X-30979142Y-19724714D01*
X-31074380Y-19772333D01*
X-32169619Y-19724714D02*
X-32550571Y-19724714D01*
X-32312476Y-19391380D02*
X-32312476Y-20248523D01*
X-32360095Y-20343761D01*
X-32455333Y-20391380D01*
X-32550571Y-20391380D01*
X-32883904Y-20391380D02*
X-32883904Y-19724714D01*
X-32883904Y-19391380D02*
X-32836285Y-19439000D01*
X-32883904Y-19486619D01*
X-32931523Y-19439000D01*
X-32883904Y-19391380D01*
X-32883904Y-19486619D01*
X-33360095Y-20391380D02*
X-33360095Y-19724714D01*
X-33360095Y-19819952D02*
X-33407714Y-19772333D01*
X-33502952Y-19724714D01*
X-33645809Y-19724714D01*
X-33741047Y-19772333D01*
X-33788666Y-19867571D01*
X-33788666Y-20391380D01*
X-33788666Y-19867571D02*
X-33836285Y-19772333D01*
X-33931523Y-19724714D01*
X-34074380Y-19724714D01*
X-34169619Y-19772333D01*
X-34217238Y-19867571D01*
X-34217238Y-20391380D01*
X-35074380Y-20343761D02*
X-34979142Y-20391380D01*
X-34788666Y-20391380D01*
X-34693428Y-20343761D01*
X-34645809Y-20248523D01*
X-34645809Y-19867571D01*
X-34693428Y-19772333D01*
X-34788666Y-19724714D01*
X-34979142Y-19724714D01*
X-35074380Y-19772333D01*
X-35121999Y-19867571D01*
X-35121999Y-19962809D01*
X-34645809Y-20058047D01*
X-35502952Y-20343761D02*
X-35598190Y-20391380D01*
X-35788666Y-20391380D01*
X-35883904Y-20343761D01*
X-35931523Y-20248523D01*
X-35931523Y-20200904D01*
X-35883904Y-20105666D01*
X-35788666Y-20058047D01*
X-35645809Y-20058047D01*
X-35550571Y-20010428D01*
X-35502952Y-19915190D01*
X-35502952Y-19867571D01*
X-35550571Y-19772333D01*
X-35645809Y-19724714D01*
X-35788666Y-19724714D01*
X-35883904Y-19772333D01*
X-36360095Y-20296142D02*
X-36407714Y-20343761D01*
X-36360095Y-20391380D01*
X-36312476Y-20343761D01*
X-36360095Y-20296142D01*
X-36360095Y-20391380D01*
X-11264857Y-22041380D02*
X-11264857Y-21041380D01*
X-11502952Y-21041380D01*
X-11645809Y-21089000D01*
X-11741047Y-21184238D01*
X-11788666Y-21279476D01*
X-11836285Y-21469952D01*
X-11836285Y-21612809D01*
X-11788666Y-21803285D01*
X-11741047Y-21898523D01*
X-11645809Y-21993761D01*
X-11502952Y-22041380D01*
X-11264857Y-22041380D01*
X-12455333Y-21041380D02*
X-12645809Y-21041380D01*
X-12741047Y-21089000D01*
X-12836285Y-21184238D01*
X-12883904Y-21374714D01*
X-12883904Y-21708047D01*
X-12836285Y-21898523D01*
X-12741047Y-21993761D01*
X-12645809Y-22041380D01*
X-12455333Y-22041380D01*
X-12360095Y-21993761D01*
X-12264857Y-21898523D01*
X-12217238Y-21708047D01*
X-12217238Y-21374714D01*
X-12264857Y-21184238D01*
X-12360095Y-21089000D01*
X-12455333Y-21041380D01*
X-13312476Y-22041380D02*
X-13312476Y-21041380D01*
X-13883904Y-22041380D01*
X-13883904Y-21041380D01*
X-14407714Y-21041380D02*
X-14312476Y-21231857D01*
X-14693428Y-21041380D02*
X-15264857Y-21041380D01*
X-14979142Y-22041380D02*
X-14979142Y-21041380D01*
X-16360095Y-21660428D02*
X-17122000Y-21660428D01*
X-18360095Y-22041380D02*
X-18360095Y-21041380D01*
X-18741047Y-21041380D01*
X-18836285Y-21089000D01*
X-18883904Y-21136619D01*
X-18931523Y-21231857D01*
X-18931523Y-21374714D01*
X-18883904Y-21469952D01*
X-18836285Y-21517571D01*
X-18741047Y-21565190D01*
X-18360095Y-21565190D01*
X-19931523Y-22041380D02*
X-19598190Y-21565190D01*
X-19360095Y-22041380D02*
X-19360095Y-21041380D01*
X-19741047Y-21041380D01*
X-19836285Y-21089000D01*
X-19883904Y-21136619D01*
X-19931523Y-21231857D01*
X-19931523Y-21374714D01*
X-19883904Y-21469952D01*
X-19836285Y-21517571D01*
X-19741047Y-21565190D01*
X-19360095Y-21565190D01*
X-20550571Y-21041380D02*
X-20741047Y-21041380D01*
X-20836285Y-21089000D01*
X-20931523Y-21184238D01*
X-20979142Y-21374714D01*
X-20979142Y-21708047D01*
X-20931523Y-21898523D01*
X-20836285Y-21993761D01*
X-20741047Y-22041380D01*
X-20550571Y-22041380D01*
X-20455333Y-21993761D01*
X-20360095Y-21898523D01*
X-20312476Y-21708047D01*
X-20312476Y-21374714D01*
X-20360095Y-21184238D01*
X-20455333Y-21089000D01*
X-20550571Y-21041380D01*
X-21264857Y-21041380D02*
X-21598190Y-22041380D01*
X-21931523Y-21041380D01*
X-22455333Y-21041380D02*
X-22645809Y-21041380D01*
X-22741047Y-21089000D01*
X-22836285Y-21184238D01*
X-22883904Y-21374714D01*
X-22883904Y-21708047D01*
X-22836285Y-21898523D01*
X-22741047Y-21993761D01*
X-22645809Y-22041380D01*
X-22455333Y-22041380D01*
X-22360095Y-21993761D01*
X-22264857Y-21898523D01*
X-22217238Y-21708047D01*
X-22217238Y-21374714D01*
X-22264857Y-21184238D01*
X-22360095Y-21089000D01*
X-22455333Y-21041380D01*
X-23312476Y-22041380D02*
X-23312476Y-21041380D01*
X-23883904Y-22041380D02*
X-23455333Y-21469952D01*
X-23883904Y-21041380D02*
X-23312476Y-21612809D01*
X-24312476Y-21517571D02*
X-24645809Y-21517571D01*
X-24788666Y-22041380D02*
X-24312476Y-22041380D01*
X-24312476Y-21041380D01*
X-24788666Y-21041380D01*
X-25979142Y-21660428D02*
X-26741047Y-21660428D01*
X-27836285Y-21041380D02*
X-28407714Y-21041380D01*
X-28122000Y-22041380D02*
X-28122000Y-21041380D01*
X-28741047Y-22041380D02*
X-28741047Y-21041380D01*
X-28741047Y-21517571D02*
X-29312476Y-21517571D01*
X-29312476Y-22041380D02*
X-29312476Y-21041380D01*
X-29788666Y-21517571D02*
X-30122000Y-21517571D01*
X-30264857Y-22041380D02*
X-29788666Y-22041380D01*
X-29788666Y-21041380D01*
X-30264857Y-21041380D01*
X-31788666Y-21517571D02*
X-31931523Y-21565190D01*
X-31979142Y-21612809D01*
X-32026761Y-21708047D01*
X-32026761Y-21850904D01*
X-31979142Y-21946142D01*
X-31931523Y-21993761D01*
X-31836285Y-22041380D01*
X-31455333Y-22041380D01*
X-31455333Y-21041380D01*
X-31788666Y-21041380D01*
X-31883904Y-21089000D01*
X-31931523Y-21136619D01*
X-31979142Y-21231857D01*
X-31979142Y-21327095D01*
X-31931523Y-21422333D01*
X-31883904Y-21469952D01*
X-31788666Y-21517571D01*
X-31455333Y-21517571D01*
X-32645809Y-21041380D02*
X-32836285Y-21041380D01*
X-32931523Y-21089000D01*
X-33026761Y-21184238D01*
X-33074380Y-21374714D01*
X-33074380Y-21708047D01*
X-33026761Y-21898523D01*
X-32931523Y-21993761D01*
X-32836285Y-22041380D01*
X-32645809Y-22041380D01*
X-32550571Y-21993761D01*
X-32455333Y-21898523D01*
X-32407714Y-21708047D01*
X-32407714Y-21374714D01*
X-32455333Y-21184238D01*
X-32550571Y-21089000D01*
X-32645809Y-21041380D01*
X-34074380Y-22041380D02*
X-33741047Y-21565190D01*
X-33502952Y-22041380D02*
X-33502952Y-21041380D01*
X-33883904Y-21041380D01*
X-33979142Y-21089000D01*
X-34026761Y-21136619D01*
X-34074380Y-21231857D01*
X-34074380Y-21374714D01*
X-34026761Y-21469952D01*
X-33979142Y-21517571D01*
X-33883904Y-21565190D01*
X-33502952Y-21565190D01*
X-35026761Y-21089000D02*
X-34931523Y-21041380D01*
X-34788666Y-21041380D01*
X-34645809Y-21089000D01*
X-34550571Y-21184238D01*
X-34502952Y-21279476D01*
X-34455333Y-21469952D01*
X-34455333Y-21612809D01*
X-34502952Y-21803285D01*
X-34550571Y-21898523D01*
X-34645809Y-21993761D01*
X-34788666Y-22041380D01*
X-34883904Y-22041380D01*
X-35026761Y-21993761D01*
X-35074380Y-21946142D01*
X-35074380Y-21612809D01*
X-34883904Y-21612809D01*
X-35502952Y-21946142D02*
X-35550571Y-21993761D01*
X-35502952Y-22041380D01*
X-35455333Y-21993761D01*
X-35502952Y-21946142D01*
X-35502952Y-22041380D01*
X-35502952Y-21660428D02*
X-35455333Y-21089000D01*
X-35502952Y-21041380D01*
X-35550571Y-21089000D01*
X-35502952Y-21660428D01*
X-35502952Y-21041380D01*
X-35979142Y-21946142D02*
X-36026761Y-21993761D01*
X-35979142Y-22041380D01*
X-35931523Y-21993761D01*
X-35979142Y-21946142D01*
X-35979142Y-22041380D01*
X-35979142Y-21660428D02*
X-35931523Y-21089000D01*
X-35979142Y-21041380D01*
X-36026761Y-21089000D01*
X-35979142Y-21660428D01*
X-35979142Y-21041380D01*
X46527404Y29328619D02*
X46527404Y30328619D01*
X46098833Y29328619D02*
X46098833Y29852428D01*
X46146452Y29947666D01*
X46241690Y29995285D01*
X46384547Y29995285D01*
X46479785Y29947666D01*
X46527404Y29900047D01*
X45765500Y29995285D02*
X45384547Y29995285D01*
X45622642Y30328619D02*
X45622642Y29471476D01*
X45575023Y29376238D01*
X45479785Y29328619D01*
X45384547Y29328619D01*
X45194071Y29995285D02*
X44813119Y29995285D01*
X45051214Y30328619D02*
X45051214Y29471476D01*
X45003595Y29376238D01*
X44908357Y29328619D01*
X44813119Y29328619D01*
X44479785Y29995285D02*
X44479785Y28995285D01*
X44479785Y29947666D02*
X44384547Y29995285D01*
X44194071Y29995285D01*
X44098833Y29947666D01*
X44051214Y29900047D01*
X44003595Y29804809D01*
X44003595Y29519095D01*
X44051214Y29423857D01*
X44098833Y29376238D01*
X44194071Y29328619D01*
X44384547Y29328619D01*
X44479785Y29376238D01*
X43622642Y29376238D02*
X43527404Y29328619D01*
X43336928Y29328619D01*
X43241690Y29376238D01*
X43194071Y29471476D01*
X43194071Y29519095D01*
X43241690Y29614333D01*
X43336928Y29661952D01*
X43479785Y29661952D01*
X43575023Y29709571D01*
X43622642Y29804809D01*
X43622642Y29852428D01*
X43575023Y29947666D01*
X43479785Y29995285D01*
X43336928Y29995285D01*
X43241690Y29947666D01*
X42765500Y29423857D02*
X42717880Y29376238D01*
X42765500Y29328619D01*
X42813119Y29376238D01*
X42765500Y29423857D01*
X42765500Y29328619D01*
X42765500Y29947666D02*
X42717880Y29900047D01*
X42765500Y29852428D01*
X42813119Y29900047D01*
X42765500Y29947666D01*
X42765500Y29852428D01*
X41575023Y30376238D02*
X42432166Y29090523D01*
X40527404Y30376238D02*
X41384547Y29090523D01*
X39765500Y29995285D02*
X39765500Y29185761D01*
X39813119Y29090523D01*
X39860738Y29042904D01*
X39955976Y28995285D01*
X40098833Y28995285D01*
X40194071Y29042904D01*
X39765500Y29376238D02*
X39860738Y29328619D01*
X40051214Y29328619D01*
X40146452Y29376238D01*
X40194071Y29423857D01*
X40241690Y29519095D01*
X40241690Y29804809D01*
X40194071Y29900047D01*
X40146452Y29947666D01*
X40051214Y29995285D01*
X39860738Y29995285D01*
X39765500Y29947666D01*
X39289309Y29328619D02*
X39289309Y29995285D01*
X39289309Y30328619D02*
X39336928Y30281000D01*
X39289309Y30233380D01*
X39241690Y30281000D01*
X39289309Y30328619D01*
X39289309Y30233380D01*
X38955976Y29995285D02*
X38575023Y29995285D01*
X38813119Y30328619D02*
X38813119Y29471476D01*
X38765500Y29376238D01*
X38670261Y29328619D01*
X38575023Y29328619D01*
X38241690Y29328619D02*
X38241690Y30328619D01*
X37813119Y29328619D02*
X37813119Y29852428D01*
X37860738Y29947666D01*
X37955976Y29995285D01*
X38098833Y29995285D01*
X38194071Y29947666D01*
X38241690Y29900047D01*
X36908357Y29995285D02*
X36908357Y29328619D01*
X37336928Y29995285D02*
X37336928Y29471476D01*
X37289309Y29376238D01*
X37194071Y29328619D01*
X37051214Y29328619D01*
X36955976Y29376238D01*
X36908357Y29423857D01*
X36432166Y29328619D02*
X36432166Y30328619D01*
X36432166Y29947666D02*
X36336928Y29995285D01*
X36146452Y29995285D01*
X36051214Y29947666D01*
X36003595Y29900047D01*
X35955976Y29804809D01*
X35955976Y29519095D01*
X36003595Y29423857D01*
X36051214Y29376238D01*
X36146452Y29328619D01*
X36336928Y29328619D01*
X36432166Y29376238D01*
X35527404Y29423857D02*
X35479785Y29376238D01*
X35527404Y29328619D01*
X35575023Y29376238D01*
X35527404Y29423857D01*
X35527404Y29328619D01*
X34622642Y29376238D02*
X34717880Y29328619D01*
X34908357Y29328619D01*
X35003595Y29376238D01*
X35051214Y29423857D01*
X35098833Y29519095D01*
X35098833Y29804809D01*
X35051214Y29900047D01*
X35003595Y29947666D01*
X34908357Y29995285D01*
X34717880Y29995285D01*
X34622642Y29947666D01*
X34051214Y29328619D02*
X34146452Y29376238D01*
X34194071Y29423857D01*
X34241690Y29519095D01*
X34241690Y29804809D01*
X34194071Y29900047D01*
X34146452Y29947666D01*
X34051214Y29995285D01*
X33908357Y29995285D01*
X33813119Y29947666D01*
X33765500Y29900047D01*
X33717880Y29804809D01*
X33717880Y29519095D01*
X33765500Y29423857D01*
X33813119Y29376238D01*
X33908357Y29328619D01*
X34051214Y29328619D01*
X33289309Y29328619D02*
X33289309Y29995285D01*
X33289309Y29900047D02*
X33241690Y29947666D01*
X33146452Y29995285D01*
X33003595Y29995285D01*
X32908357Y29947666D01*
X32860738Y29852428D01*
X32860738Y29328619D01*
X32860738Y29852428D02*
X32813119Y29947666D01*
X32717880Y29995285D01*
X32575023Y29995285D01*
X32479785Y29947666D01*
X32432166Y29852428D01*
X32432166Y29328619D01*
X31241690Y30376238D02*
X32098833Y29090523D01*
X30479785Y29328619D02*
X30479785Y29852428D01*
X30527404Y29947666D01*
X30622642Y29995285D01*
X30813119Y29995285D01*
X30908357Y29947666D01*
X30479785Y29376238D02*
X30575023Y29328619D01*
X30813119Y29328619D01*
X30908357Y29376238D01*
X30955976Y29471476D01*
X30955976Y29566714D01*
X30908357Y29661952D01*
X30813119Y29709571D01*
X30575023Y29709571D01*
X30479785Y29757190D01*
X30146452Y29995285D02*
X29765500Y29995285D01*
X30003595Y30328619D02*
X30003595Y29471476D01*
X29955976Y29376238D01*
X29860738Y29328619D01*
X29765500Y29328619D01*
X29289309Y29328619D02*
X29384547Y29376238D01*
X29432166Y29423857D01*
X29479785Y29519095D01*
X29479785Y29804809D01*
X29432166Y29900047D01*
X29384547Y29947666D01*
X29289309Y29995285D01*
X29146452Y29995285D01*
X29051214Y29947666D01*
X29003595Y29900047D01*
X28955976Y29804809D01*
X28955976Y29519095D01*
X29003595Y29423857D01*
X29051214Y29376238D01*
X29146452Y29328619D01*
X29289309Y29328619D01*
X28384547Y29328619D02*
X28479785Y29376238D01*
X28527404Y29423857D01*
X28575023Y29519095D01*
X28575023Y29804809D01*
X28527404Y29900047D01*
X28479785Y29947666D01*
X28384547Y29995285D01*
X28241690Y29995285D01*
X28146452Y29947666D01*
X28098833Y29900047D01*
X28051214Y29804809D01*
X28051214Y29519095D01*
X28098833Y29423857D01*
X28146452Y29376238D01*
X28241690Y29328619D01*
X28384547Y29328619D01*
X27622642Y29328619D02*
X27622642Y29995285D01*
X27622642Y29900047D02*
X27575023Y29947666D01*
X27479785Y29995285D01*
X27336928Y29995285D01*
X27241690Y29947666D01*
X27194071Y29852428D01*
X27194071Y29328619D01*
X27194071Y29852428D02*
X27146452Y29947666D01*
X27051214Y29995285D01*
X26908357Y29995285D01*
X26813119Y29947666D01*
X26765500Y29852428D01*
X26765500Y29328619D01*
X26289309Y29995285D02*
X26289309Y29328619D01*
X26289309Y29900047D02*
X26241690Y29947666D01*
X26146452Y29995285D01*
X26003595Y29995285D01*
X25908357Y29947666D01*
X25860738Y29852428D01*
X25860738Y29328619D01*
X25003595Y29376238D02*
X25098833Y29328619D01*
X25289309Y29328619D01*
X25384547Y29376238D01*
X25432166Y29471476D01*
X25432166Y29852428D01*
X25384547Y29947666D01*
X25289309Y29995285D01*
X25098833Y29995285D01*
X25003595Y29947666D01*
X24955976Y29852428D01*
X24955976Y29757190D01*
X25432166Y29661952D01*
X24670261Y29995285D02*
X24289309Y29995285D01*
X24527404Y30328619D02*
X24527404Y29471476D01*
X24479785Y29376238D01*
X24384547Y29328619D01*
X24289309Y29328619D01*
X23955976Y29328619D02*
X23955976Y29995285D01*
X23955976Y29900047D02*
X23908357Y29947666D01*
X23813119Y29995285D01*
X23670261Y29995285D01*
X23575023Y29947666D01*
X23527404Y29852428D01*
X23527404Y29328619D01*
X23527404Y29852428D02*
X23479785Y29947666D01*
X23384547Y29995285D01*
X23241690Y29995285D01*
X23146452Y29947666D01*
X23098833Y29852428D01*
X23098833Y29328619D01*
X22194071Y29328619D02*
X22194071Y29852428D01*
X22241690Y29947666D01*
X22336928Y29995285D01*
X22527404Y29995285D01*
X22622642Y29947666D01*
X22194071Y29376238D02*
X22289309Y29328619D01*
X22527404Y29328619D01*
X22622642Y29376238D01*
X22670261Y29471476D01*
X22670261Y29566714D01*
X22622642Y29661952D01*
X22527404Y29709571D01*
X22289309Y29709571D01*
X22194071Y29757190D01*
X21717880Y29328619D02*
X21717880Y29995285D01*
X21717880Y29804809D02*
X21670261Y29900047D01*
X21622642Y29947666D01*
X21527404Y29995285D01*
X21432166Y29995285D01*
X20670261Y29376238D02*
X20765500Y29328619D01*
X20955976Y29328619D01*
X21051214Y29376238D01*
X21098833Y29423857D01*
X21146452Y29519095D01*
X21146452Y29804809D01*
X21098833Y29900047D01*
X21051214Y29947666D01*
X20955976Y29995285D01*
X20765500Y29995285D01*
X20670261Y29947666D01*
X19527404Y30376238D02*
X20384547Y29090523D01*
X19194071Y29328619D02*
X19194071Y30328619D01*
X18575023Y29328619D02*
X18670261Y29376238D01*
X18717880Y29423857D01*
X18765500Y29519095D01*
X18765500Y29804809D01*
X18717880Y29900047D01*
X18670261Y29947666D01*
X18575023Y29995285D01*
X18432166Y29995285D01*
X18336928Y29947666D01*
X18289309Y29900047D01*
X18241690Y29804809D01*
X18241690Y29519095D01*
X18289309Y29423857D01*
X18336928Y29376238D01*
X18432166Y29328619D01*
X18575023Y29328619D01*
X17955976Y30328619D02*
X17384547Y30328619D01*
X17670261Y29328619D02*
X17670261Y30328619D01*
X16527404Y29328619D02*
X17098833Y29328619D01*
X16813119Y29328619D02*
X16813119Y30328619D01*
X16908357Y30185761D01*
X17003595Y30090523D01*
X17098833Y30042904D01*
X16146452Y30233380D02*
X16098833Y30281000D01*
X16003595Y30328619D01*
X15765500Y30328619D01*
X15670261Y30281000D01*
X15622642Y30233380D01*
X15575023Y30138142D01*
X15575023Y30042904D01*
X15622642Y29900047D01*
X16194071Y29328619D01*
X15575023Y29328619D01*
X15146452Y29709571D02*
X14384547Y29709571D01*
X13908357Y29328619D02*
X13908357Y30328619D01*
X13479785Y29328619D02*
X13479785Y29852428D01*
X13527404Y29947666D01*
X13622642Y29995285D01*
X13765500Y29995285D01*
X13860738Y29947666D01*
X13908357Y29900047D01*
X12575023Y29328619D02*
X12575023Y29852428D01*
X12622642Y29947666D01*
X12717880Y29995285D01*
X12908357Y29995285D01*
X13003595Y29947666D01*
X12575023Y29376238D02*
X12670261Y29328619D01*
X12908357Y29328619D01*
X13003595Y29376238D01*
X13051214Y29471476D01*
X13051214Y29566714D01*
X13003595Y29661952D01*
X12908357Y29709571D01*
X12670261Y29709571D01*
X12575023Y29757190D01*
X12098833Y29328619D02*
X12098833Y29995285D01*
X12098833Y29804809D02*
X12051214Y29900047D01*
X12003595Y29947666D01*
X11908357Y29995285D01*
X11813119Y29995285D01*
X11051214Y29328619D02*
X11051214Y30328619D01*
X11051214Y29376238D02*
X11146452Y29328619D01*
X11336928Y29328619D01*
X11432166Y29376238D01*
X11479785Y29423857D01*
X11527404Y29519095D01*
X11527404Y29804809D01*
X11479785Y29900047D01*
X11432166Y29947666D01*
X11336928Y29995285D01*
X11146452Y29995285D01*
X11051214Y29947666D01*
X10670261Y29995285D02*
X10479785Y29328619D01*
X10289309Y29804809D01*
X10098833Y29328619D01*
X9908357Y29995285D01*
X9098833Y29328619D02*
X9098833Y29852428D01*
X9146452Y29947666D01*
X9241690Y29995285D01*
X9432166Y29995285D01*
X9527404Y29947666D01*
X9098833Y29376238D02*
X9194071Y29328619D01*
X9432166Y29328619D01*
X9527404Y29376238D01*
X9575023Y29471476D01*
X9575023Y29566714D01*
X9527404Y29661952D01*
X9432166Y29709571D01*
X9194071Y29709571D01*
X9098833Y29757190D01*
X8622642Y29328619D02*
X8622642Y29995285D01*
X8622642Y29804809D02*
X8575023Y29900047D01*
X8527404Y29947666D01*
X8432166Y29995285D01*
X8336928Y29995285D01*
X7622642Y29376238D02*
X7717880Y29328619D01*
X7908357Y29328619D01*
X8003595Y29376238D01*
X8051214Y29471476D01*
X8051214Y29852428D01*
X8003595Y29947666D01*
X7908357Y29995285D01*
X7717880Y29995285D01*
X7622642Y29947666D01*
X7575023Y29852428D01*
X7575023Y29757190D01*
X8051214Y29661952D01*
X46575023Y27964333D02*
X46098833Y27964333D01*
X46670261Y27678619D02*
X46336928Y28678619D01*
X46003595Y27678619D01*
X45670261Y28345285D02*
X45670261Y27345285D01*
X45670261Y28297666D02*
X45575023Y28345285D01*
X45384547Y28345285D01*
X45289309Y28297666D01*
X45241690Y28250047D01*
X45194071Y28154809D01*
X45194071Y27869095D01*
X45241690Y27773857D01*
X45289309Y27726238D01*
X45384547Y27678619D01*
X45575023Y27678619D01*
X45670261Y27726238D01*
X44336928Y27678619D02*
X44336928Y28202428D01*
X44384547Y28297666D01*
X44479785Y28345285D01*
X44670261Y28345285D01*
X44765500Y28297666D01*
X44336928Y27726238D02*
X44432166Y27678619D01*
X44670261Y27678619D01*
X44765500Y27726238D01*
X44813119Y27821476D01*
X44813119Y27916714D01*
X44765500Y28011952D01*
X44670261Y28059571D01*
X44432166Y28059571D01*
X44336928Y28107190D01*
X43432166Y27726238D02*
X43527404Y27678619D01*
X43717880Y27678619D01*
X43813119Y27726238D01*
X43860738Y27773857D01*
X43908357Y27869095D01*
X43908357Y28154809D01*
X43860738Y28250047D01*
X43813119Y28297666D01*
X43717880Y28345285D01*
X43527404Y28345285D01*
X43432166Y28297666D01*
X43003595Y27678619D02*
X43003595Y28678619D01*
X42575023Y27678619D02*
X42575023Y28202428D01*
X42622642Y28297666D01*
X42717880Y28345285D01*
X42860738Y28345285D01*
X42955976Y28297666D01*
X43003595Y28250047D01*
X41717880Y27726238D02*
X41813119Y27678619D01*
X42003595Y27678619D01*
X42098833Y27726238D01*
X42146452Y27821476D01*
X42146452Y28202428D01*
X42098833Y28297666D01*
X42003595Y28345285D01*
X41813119Y28345285D01*
X41717880Y28297666D01*
X41670261Y28202428D01*
X41670261Y28107190D01*
X42146452Y28011952D01*
X40003595Y27678619D02*
X40479785Y27678619D01*
X40479785Y28678619D01*
X39670261Y27678619D02*
X39670261Y28345285D01*
X39670261Y28678619D02*
X39717880Y28631000D01*
X39670261Y28583380D01*
X39622642Y28631000D01*
X39670261Y28678619D01*
X39670261Y28583380D01*
X38765500Y27726238D02*
X38860738Y27678619D01*
X39051214Y27678619D01*
X39146452Y27726238D01*
X39194071Y27773857D01*
X39241690Y27869095D01*
X39241690Y28154809D01*
X39194071Y28250047D01*
X39146452Y28297666D01*
X39051214Y28345285D01*
X38860738Y28345285D01*
X38765500Y28297666D01*
X37955976Y27726238D02*
X38051214Y27678619D01*
X38241690Y27678619D01*
X38336928Y27726238D01*
X38384547Y27821476D01*
X38384547Y28202428D01*
X38336928Y28297666D01*
X38241690Y28345285D01*
X38051214Y28345285D01*
X37955976Y28297666D01*
X37908357Y28202428D01*
X37908357Y28107190D01*
X38384547Y28011952D01*
X37479785Y28345285D02*
X37479785Y27678619D01*
X37479785Y28250047D02*
X37432166Y28297666D01*
X37336928Y28345285D01*
X37194071Y28345285D01*
X37098833Y28297666D01*
X37051214Y28202428D01*
X37051214Y27678619D01*
X36622642Y27726238D02*
X36527404Y27678619D01*
X36336928Y27678619D01*
X36241690Y27726238D01*
X36194071Y27821476D01*
X36194071Y27869095D01*
X36241690Y27964333D01*
X36336928Y28011952D01*
X36479785Y28011952D01*
X36575023Y28059571D01*
X36622642Y28154809D01*
X36622642Y28202428D01*
X36575023Y28297666D01*
X36479785Y28345285D01*
X36336928Y28345285D01*
X36241690Y28297666D01*
X35384547Y27726238D02*
X35479785Y27678619D01*
X35670261Y27678619D01*
X35765500Y27726238D01*
X35813119Y27821476D01*
X35813119Y28202428D01*
X35765500Y28297666D01*
X35670261Y28345285D01*
X35479785Y28345285D01*
X35384547Y28297666D01*
X35336928Y28202428D01*
X35336928Y28107190D01*
X35813119Y28011952D01*
X34860738Y27726238D02*
X34860738Y27678619D01*
X34908357Y27583380D01*
X34955976Y27535761D01*
X33813119Y28678619D02*
X33479785Y27678619D01*
X33146452Y28678619D01*
X32432166Y27726238D02*
X32527404Y27678619D01*
X32717880Y27678619D01*
X32813119Y27726238D01*
X32860738Y27821476D01*
X32860738Y28202428D01*
X32813119Y28297666D01*
X32717880Y28345285D01*
X32527404Y28345285D01*
X32432166Y28297666D01*
X32384547Y28202428D01*
X32384547Y28107190D01*
X32860738Y28011952D01*
X31955976Y27678619D02*
X31955976Y28345285D01*
X31955976Y28154809D02*
X31908357Y28250047D01*
X31860738Y28297666D01*
X31765500Y28345285D01*
X31670261Y28345285D01*
X31384547Y27726238D02*
X31289309Y27678619D01*
X31098833Y27678619D01*
X31003595Y27726238D01*
X30955976Y27821476D01*
X30955976Y27869095D01*
X31003595Y27964333D01*
X31098833Y28011952D01*
X31241690Y28011952D01*
X31336928Y28059571D01*
X31384547Y28154809D01*
X31384547Y28202428D01*
X31336928Y28297666D01*
X31241690Y28345285D01*
X31098833Y28345285D01*
X31003595Y28297666D01*
X30527404Y27678619D02*
X30527404Y28345285D01*
X30527404Y28678619D02*
X30575023Y28631000D01*
X30527404Y28583380D01*
X30479785Y28631000D01*
X30527404Y28678619D01*
X30527404Y28583380D01*
X29908357Y27678619D02*
X30003595Y27726238D01*
X30051214Y27773857D01*
X30098833Y27869095D01*
X30098833Y28154809D01*
X30051214Y28250047D01*
X30003595Y28297666D01*
X29908357Y28345285D01*
X29765500Y28345285D01*
X29670261Y28297666D01*
X29622642Y28250047D01*
X29575023Y28154809D01*
X29575023Y27869095D01*
X29622642Y27773857D01*
X29670261Y27726238D01*
X29765500Y27678619D01*
X29908357Y27678619D01*
X29146452Y28345285D02*
X29146452Y27678619D01*
X29146452Y28250047D02*
X29098833Y28297666D01*
X29003595Y28345285D01*
X28860738Y28345285D01*
X28765500Y28297666D01*
X28717880Y28202428D01*
X28717880Y27678619D01*
X27527404Y28583380D02*
X27479785Y28631000D01*
X27384547Y28678619D01*
X27146452Y28678619D01*
X27051214Y28631000D01*
X27003595Y28583380D01*
X26955976Y28488142D01*
X26955976Y28392904D01*
X27003595Y28250047D01*
X27575023Y27678619D01*
X26955976Y27678619D01*
X26527404Y27773857D02*
X26479785Y27726238D01*
X26527404Y27678619D01*
X26575023Y27726238D01*
X26527404Y27773857D01*
X26527404Y27678619D01*
X25860738Y28678619D02*
X25765500Y28678619D01*
X25670261Y28631000D01*
X25622642Y28583380D01*
X25575023Y28488142D01*
X25527404Y28297666D01*
X25527404Y28059571D01*
X25575023Y27869095D01*
X25622642Y27773857D01*
X25670261Y27726238D01*
X25765500Y27678619D01*
X25860738Y27678619D01*
X25955976Y27726238D01*
X26003595Y27773857D01*
X26051214Y27869095D01*
X26098833Y28059571D01*
X26098833Y28297666D01*
X26051214Y28488142D01*
X26003595Y28583380D01*
X25955976Y28631000D01*
X25860738Y28678619D01*
X25064404Y-6042380D02*
X25064404Y-5042380D01*
X24683452Y-5042380D01*
X24588214Y-5090000D01*
X24540595Y-5137619D01*
X24492976Y-5232857D01*
X24492976Y-5375714D01*
X24540595Y-5470952D01*
X24588214Y-5518571D01*
X24683452Y-5566190D01*
X25064404Y-5566190D01*
X23921547Y-6042380D02*
X24016785Y-5994761D01*
X24064404Y-5947142D01*
X24112023Y-5851904D01*
X24112023Y-5566190D01*
X24064404Y-5470952D01*
X24016785Y-5423333D01*
X23921547Y-5375714D01*
X23778690Y-5375714D01*
X23683452Y-5423333D01*
X23635833Y-5470952D01*
X23588214Y-5566190D01*
X23588214Y-5851904D01*
X23635833Y-5947142D01*
X23683452Y-5994761D01*
X23778690Y-6042380D01*
X23921547Y-6042380D01*
X23254880Y-5375714D02*
X23064404Y-6042380D01*
X22873928Y-5566190D01*
X22683452Y-6042380D01*
X22492976Y-5375714D01*
X21731071Y-5994761D02*
X21826309Y-6042380D01*
X22016785Y-6042380D01*
X22112023Y-5994761D01*
X22159642Y-5899523D01*
X22159642Y-5518571D01*
X22112023Y-5423333D01*
X22016785Y-5375714D01*
X21826309Y-5375714D01*
X21731071Y-5423333D01*
X21683452Y-5518571D01*
X21683452Y-5613809D01*
X22159642Y-5709047D01*
X21254880Y-6042380D02*
X21254880Y-5375714D01*
X21254880Y-5566190D02*
X21207261Y-5470952D01*
X21159642Y-5423333D01*
X21064404Y-5375714D01*
X20969166Y-5375714D01*
X19921547Y-5994761D02*
X19826309Y-6042380D01*
X19635833Y-6042380D01*
X19540595Y-5994761D01*
X19492976Y-5899523D01*
X19492976Y-5851904D01*
X19540595Y-5756666D01*
X19635833Y-5709047D01*
X19778690Y-5709047D01*
X19873928Y-5661428D01*
X19921547Y-5566190D01*
X19921547Y-5518571D01*
X19873928Y-5423333D01*
X19778690Y-5375714D01*
X19635833Y-5375714D01*
X19540595Y-5423333D01*
X18635833Y-5375714D02*
X18635833Y-6042380D01*
X19064404Y-5375714D02*
X19064404Y-5899523D01*
X19016785Y-5994761D01*
X18921547Y-6042380D01*
X18778690Y-6042380D01*
X18683452Y-5994761D01*
X18635833Y-5947142D01*
X18159642Y-5375714D02*
X18159642Y-6375714D01*
X18159642Y-5423333D02*
X18064404Y-5375714D01*
X17873928Y-5375714D01*
X17778690Y-5423333D01*
X17731071Y-5470952D01*
X17683452Y-5566190D01*
X17683452Y-5851904D01*
X17731071Y-5947142D01*
X17778690Y-5994761D01*
X17873928Y-6042380D01*
X18064404Y-6042380D01*
X18159642Y-5994761D01*
X17254880Y-5375714D02*
X17254880Y-6375714D01*
X17254880Y-5423333D02*
X17159642Y-5375714D01*
X16969166Y-5375714D01*
X16873928Y-5423333D01*
X16826309Y-5470952D01*
X16778690Y-5566190D01*
X16778690Y-5851904D01*
X16826309Y-5947142D01*
X16873928Y-5994761D01*
X16969166Y-6042380D01*
X17159642Y-6042380D01*
X17254880Y-5994761D01*
X16207261Y-6042380D02*
X16302500Y-5994761D01*
X16350119Y-5899523D01*
X16350119Y-5042380D01*
X15921547Y-5375714D02*
X15683452Y-6042380D01*
X15445357Y-5375714D02*
X15683452Y-6042380D01*
X15778690Y-6280476D01*
X15826309Y-6328095D01*
X15921547Y-6375714D01*
X14350119Y-5994761D02*
X14254880Y-6042380D01*
X14064404Y-6042380D01*
X13969166Y-5994761D01*
X13921547Y-5899523D01*
X13921547Y-5851904D01*
X13969166Y-5756666D01*
X14064404Y-5709047D01*
X14207261Y-5709047D01*
X14302500Y-5661428D01*
X14350119Y-5566190D01*
X14350119Y-5518571D01*
X14302500Y-5423333D01*
X14207261Y-5375714D01*
X14064404Y-5375714D01*
X13969166Y-5423333D01*
X13064404Y-5375714D02*
X13064404Y-6042380D01*
X13492976Y-5375714D02*
X13492976Y-5899523D01*
X13445357Y-5994761D01*
X13350119Y-6042380D01*
X13207261Y-6042380D01*
X13112023Y-5994761D01*
X13064404Y-5947142D01*
X12159642Y-5375714D02*
X12159642Y-6185238D01*
X12207261Y-6280476D01*
X12254880Y-6328095D01*
X12350119Y-6375714D01*
X12492976Y-6375714D01*
X12588214Y-6328095D01*
X12159642Y-5994761D02*
X12254880Y-6042380D01*
X12445357Y-6042380D01*
X12540595Y-5994761D01*
X12588214Y-5947142D01*
X12635833Y-5851904D01*
X12635833Y-5566190D01*
X12588214Y-5470952D01*
X12540595Y-5423333D01*
X12445357Y-5375714D01*
X12254880Y-5375714D01*
X12159642Y-5423333D01*
X11254880Y-5375714D02*
X11254880Y-6185238D01*
X11302500Y-6280476D01*
X11350119Y-6328095D01*
X11445357Y-6375714D01*
X11588214Y-6375714D01*
X11683452Y-6328095D01*
X11254880Y-5994761D02*
X11350119Y-6042380D01*
X11540595Y-6042380D01*
X11635833Y-5994761D01*
X11683452Y-5947142D01*
X11731071Y-5851904D01*
X11731071Y-5566190D01*
X11683452Y-5470952D01*
X11635833Y-5423333D01*
X11540595Y-5375714D01*
X11350119Y-5375714D01*
X11254880Y-5423333D01*
X10397738Y-5994761D02*
X10492976Y-6042380D01*
X10683452Y-6042380D01*
X10778690Y-5994761D01*
X10826309Y-5899523D01*
X10826309Y-5518571D01*
X10778690Y-5423333D01*
X10683452Y-5375714D01*
X10492976Y-5375714D01*
X10397738Y-5423333D01*
X10350119Y-5518571D01*
X10350119Y-5613809D01*
X10826309Y-5709047D01*
X9969166Y-5994761D02*
X9873928Y-6042380D01*
X9683452Y-6042380D01*
X9588214Y-5994761D01*
X9540595Y-5899523D01*
X9540595Y-5851904D01*
X9588214Y-5756666D01*
X9683452Y-5709047D01*
X9826309Y-5709047D01*
X9921547Y-5661428D01*
X9969166Y-5566190D01*
X9969166Y-5518571D01*
X9921547Y-5423333D01*
X9826309Y-5375714D01*
X9683452Y-5375714D01*
X9588214Y-5423333D01*
X9254880Y-5375714D02*
X8873928Y-5375714D01*
X9112023Y-5042380D02*
X9112023Y-5899523D01*
X9064404Y-5994761D01*
X8969166Y-6042380D01*
X8873928Y-6042380D01*
X8540595Y-6042380D02*
X8540595Y-5375714D01*
X8540595Y-5042380D02*
X8588214Y-5090000D01*
X8540595Y-5137619D01*
X8492976Y-5090000D01*
X8540595Y-5042380D01*
X8540595Y-5137619D01*
X7921547Y-6042380D02*
X8016785Y-5994761D01*
X8064404Y-5947142D01*
X8112023Y-5851904D01*
X8112023Y-5566190D01*
X8064404Y-5470952D01*
X8016785Y-5423333D01*
X7921547Y-5375714D01*
X7778690Y-5375714D01*
X7683452Y-5423333D01*
X7635833Y-5470952D01*
X7588214Y-5566190D01*
X7588214Y-5851904D01*
X7635833Y-5947142D01*
X7683452Y-5994761D01*
X7778690Y-6042380D01*
X7921547Y-6042380D01*
X7159642Y-5375714D02*
X7159642Y-6042380D01*
X7159642Y-5470952D02*
X7112023Y-5423333D01*
X7016785Y-5375714D01*
X6873928Y-5375714D01*
X6778690Y-5423333D01*
X6731071Y-5518571D01*
X6731071Y-6042380D01*
X6302500Y-5994761D02*
X6207261Y-6042380D01*
X6016785Y-6042380D01*
X5921547Y-5994761D01*
X5873928Y-5899523D01*
X5873928Y-5851904D01*
X5921547Y-5756666D01*
X6016785Y-5709047D01*
X6159642Y-5709047D01*
X6254880Y-5661428D01*
X6302500Y-5566190D01*
X6302500Y-5518571D01*
X6254880Y-5423333D01*
X6159642Y-5375714D01*
X6016785Y-5375714D01*
X5921547Y-5423333D01*
X5445357Y-5947142D02*
X5397738Y-5994761D01*
X5445357Y-6042380D01*
X5492976Y-5994761D01*
X5445357Y-5947142D01*
X5445357Y-6042380D01*
X5445357Y-5423333D02*
X5397738Y-5470952D01*
X5445357Y-5518571D01*
X5492976Y-5470952D01*
X5445357Y-5423333D01*
X5445357Y-5518571D01*
X24540595Y-7692380D02*
X25112023Y-7692380D01*
X24826309Y-7692380D02*
X24826309Y-6692380D01*
X24921547Y-6835238D01*
X25016785Y-6930476D01*
X25112023Y-6978095D01*
X24159642Y-6787619D02*
X24112023Y-6740000D01*
X24016785Y-6692380D01*
X23778690Y-6692380D01*
X23683452Y-6740000D01*
X23635833Y-6787619D01*
X23588214Y-6882857D01*
X23588214Y-6978095D01*
X23635833Y-7120952D01*
X24207261Y-7692380D01*
X23588214Y-7692380D01*
X23302500Y-6692380D02*
X22969166Y-7692380D01*
X22635833Y-6692380D01*
X21683452Y-7216190D02*
X21731071Y-7168571D01*
X21826309Y-7120952D01*
X21921547Y-7120952D01*
X22016785Y-7168571D01*
X22064404Y-7216190D01*
X22112023Y-7311428D01*
X22112023Y-7406666D01*
X22064404Y-7501904D01*
X22016785Y-7549523D01*
X21921547Y-7597142D01*
X21826309Y-7597142D01*
X21731071Y-7549523D01*
X21683452Y-7501904D01*
X21683452Y-7120952D02*
X21683452Y-7501904D01*
X21635833Y-7549523D01*
X21588214Y-7549523D01*
X21492976Y-7501904D01*
X21445357Y-7406666D01*
X21445357Y-7168571D01*
X21540595Y-7025714D01*
X21683452Y-6930476D01*
X21873928Y-6882857D01*
X22064404Y-6930476D01*
X22207261Y-7025714D01*
X22302500Y-7168571D01*
X22350119Y-7359047D01*
X22302500Y-7549523D01*
X22207261Y-7692380D01*
X22064404Y-7787619D01*
X21873928Y-7835238D01*
X21683452Y-7787619D01*
X21540595Y-7692380D01*
X20492976Y-7692380D02*
X21064404Y-7692380D01*
X20778690Y-7692380D02*
X20778690Y-6692380D01*
X20873928Y-6835238D01*
X20969166Y-6930476D01*
X21064404Y-6978095D01*
X20064404Y-7597142D02*
X20016785Y-7644761D01*
X20064404Y-7692380D01*
X20112023Y-7644761D01*
X20064404Y-7597142D01*
X20064404Y-7692380D01*
X19112023Y-6692380D02*
X19588214Y-6692380D01*
X19635833Y-7168571D01*
X19588214Y-7120952D01*
X19492976Y-7073333D01*
X19254880Y-7073333D01*
X19159642Y-7120952D01*
X19112023Y-7168571D01*
X19064404Y-7263809D01*
X19064404Y-7501904D01*
X19112023Y-7597142D01*
X19159642Y-7644761D01*
X19254880Y-7692380D01*
X19492976Y-7692380D01*
X19588214Y-7644761D01*
X19635833Y-7597142D01*
X18683452Y-7406666D02*
X18207261Y-7406666D01*
X18778690Y-7692380D02*
X18445357Y-6692380D01*
X18112023Y-7692380D01*
X16731071Y-8073333D02*
X16778690Y-8025714D01*
X16873928Y-7882857D01*
X16921547Y-7787619D01*
X16969166Y-7644761D01*
X17016785Y-7406666D01*
X17016785Y-7216190D01*
X16969166Y-6978095D01*
X16921547Y-6835238D01*
X16873928Y-6740000D01*
X16778690Y-6597142D01*
X16731071Y-6549523D01*
X15826309Y-7692380D02*
X16397738Y-7692380D01*
X16112023Y-7692380D02*
X16112023Y-6692380D01*
X16207261Y-6835238D01*
X16302500Y-6930476D01*
X16397738Y-6978095D01*
X15254880Y-7120952D02*
X15350119Y-7073333D01*
X15397738Y-7025714D01*
X15445357Y-6930476D01*
X15445357Y-6882857D01*
X15397738Y-6787619D01*
X15350119Y-6740000D01*
X15254880Y-6692380D01*
X15064404Y-6692380D01*
X14969166Y-6740000D01*
X14921547Y-6787619D01*
X14873928Y-6882857D01*
X14873928Y-6930476D01*
X14921547Y-7025714D01*
X14969166Y-7073333D01*
X15064404Y-7120952D01*
X15254880Y-7120952D01*
X15350119Y-7168571D01*
X15397738Y-7216190D01*
X15445357Y-7311428D01*
X15445357Y-7501904D01*
X15397738Y-7597142D01*
X15350119Y-7644761D01*
X15254880Y-7692380D01*
X15064404Y-7692380D01*
X14969166Y-7644761D01*
X14921547Y-7597142D01*
X14873928Y-7501904D01*
X14873928Y-7311428D01*
X14921547Y-7216190D01*
X14969166Y-7168571D01*
X15064404Y-7120952D01*
X14540595Y-6692380D02*
X14302500Y-7692380D01*
X14112023Y-6978095D01*
X13921547Y-7692380D01*
X13683452Y-6692380D01*
X13397738Y-8073333D02*
X13350119Y-8025714D01*
X13254880Y-7882857D01*
X13207261Y-7787619D01*
X13159642Y-7644761D01*
X13112023Y-7406666D01*
X13112023Y-7216190D01*
X13159642Y-6978095D01*
X13207261Y-6835238D01*
X13254880Y-6740000D01*
X13350119Y-6597142D01*
X13397738Y-6549523D01*
X24540595Y-9342380D02*
X25112023Y-9342380D01*
X24826309Y-9342380D02*
X24826309Y-8342380D01*
X24921547Y-8485238D01*
X25016785Y-8580476D01*
X25112023Y-8628095D01*
X23635833Y-8342380D02*
X24112023Y-8342380D01*
X24159642Y-8818571D01*
X24112023Y-8770952D01*
X24016785Y-8723333D01*
X23778690Y-8723333D01*
X23683452Y-8770952D01*
X23635833Y-8818571D01*
X23588214Y-8913809D01*
X23588214Y-9151904D01*
X23635833Y-9247142D01*
X23683452Y-9294761D01*
X23778690Y-9342380D01*
X24016785Y-9342380D01*
X24112023Y-9294761D01*
X24159642Y-9247142D01*
X23302500Y-8342380D02*
X22969166Y-9342380D01*
X22635833Y-8342380D01*
X21683452Y-8866190D02*
X21731071Y-8818571D01*
X21826309Y-8770952D01*
X21921547Y-8770952D01*
X22016785Y-8818571D01*
X22064404Y-8866190D01*
X22112023Y-8961428D01*
X22112023Y-9056666D01*
X22064404Y-9151904D01*
X22016785Y-9199523D01*
X21921547Y-9247142D01*
X21826309Y-9247142D01*
X21731071Y-9199523D01*
X21683452Y-9151904D01*
X21683452Y-8770952D02*
X21683452Y-9151904D01*
X21635833Y-9199523D01*
X21588214Y-9199523D01*
X21492976Y-9151904D01*
X21445357Y-9056666D01*
X21445357Y-8818571D01*
X21540595Y-8675714D01*
X21683452Y-8580476D01*
X21873928Y-8532857D01*
X22064404Y-8580476D01*
X22207261Y-8675714D01*
X22302500Y-8818571D01*
X22350119Y-9009047D01*
X22302500Y-9199523D01*
X22207261Y-9342380D01*
X22064404Y-9437619D01*
X21873928Y-9485238D01*
X21683452Y-9437619D01*
X21540595Y-9342380D01*
X20492976Y-9342380D02*
X21064404Y-9342380D01*
X20778690Y-9342380D02*
X20778690Y-8342380D01*
X20873928Y-8485238D01*
X20969166Y-8580476D01*
X21064404Y-8628095D01*
X20064404Y-9247142D02*
X20016785Y-9294761D01*
X20064404Y-9342380D01*
X20112023Y-9294761D01*
X20064404Y-9247142D01*
X20064404Y-9342380D01*
X19540595Y-9342380D02*
X19350119Y-9342380D01*
X19254880Y-9294761D01*
X19207261Y-9247142D01*
X19112023Y-9104285D01*
X19064404Y-8913809D01*
X19064404Y-8532857D01*
X19112023Y-8437619D01*
X19159642Y-8390000D01*
X19254880Y-8342380D01*
X19445357Y-8342380D01*
X19540595Y-8390000D01*
X19588214Y-8437619D01*
X19635833Y-8532857D01*
X19635833Y-8770952D01*
X19588214Y-8866190D01*
X19540595Y-8913809D01*
X19445357Y-8961428D01*
X19254880Y-8961428D01*
X19159642Y-8913809D01*
X19112023Y-8866190D01*
X19064404Y-8770952D01*
X18683452Y-9056666D02*
X18207261Y-9056666D01*
X18778690Y-9342380D02*
X18445357Y-8342380D01*
X18112023Y-9342380D01*
X16731071Y-9723333D02*
X16778690Y-9675714D01*
X16873928Y-9532857D01*
X16921547Y-9437619D01*
X16969166Y-9294761D01*
X17016785Y-9056666D01*
X17016785Y-8866190D01*
X16969166Y-8628095D01*
X16921547Y-8485238D01*
X16873928Y-8390000D01*
X16778690Y-8247142D01*
X16731071Y-8199523D01*
X16397738Y-8437619D02*
X16350119Y-8390000D01*
X16254880Y-8342380D01*
X16016785Y-8342380D01*
X15921547Y-8390000D01*
X15873928Y-8437619D01*
X15826309Y-8532857D01*
X15826309Y-8628095D01*
X15873928Y-8770952D01*
X16445357Y-9342380D01*
X15826309Y-9342380D01*
X15254880Y-8770952D02*
X15350119Y-8723333D01*
X15397738Y-8675714D01*
X15445357Y-8580476D01*
X15445357Y-8532857D01*
X15397738Y-8437619D01*
X15350119Y-8390000D01*
X15254880Y-8342380D01*
X15064404Y-8342380D01*
X14969166Y-8390000D01*
X14921547Y-8437619D01*
X14873928Y-8532857D01*
X14873928Y-8580476D01*
X14921547Y-8675714D01*
X14969166Y-8723333D01*
X15064404Y-8770952D01*
X15254880Y-8770952D01*
X15350119Y-8818571D01*
X15397738Y-8866190D01*
X15445357Y-8961428D01*
X15445357Y-9151904D01*
X15397738Y-9247142D01*
X15350119Y-9294761D01*
X15254880Y-9342380D01*
X15064404Y-9342380D01*
X14969166Y-9294761D01*
X14921547Y-9247142D01*
X14873928Y-9151904D01*
X14873928Y-8961428D01*
X14921547Y-8866190D01*
X14969166Y-8818571D01*
X15064404Y-8770952D01*
X14540595Y-8342380D02*
X14302500Y-9342380D01*
X14112023Y-8628095D01*
X13921547Y-9342380D01*
X13683452Y-8342380D01*
X13397738Y-9723333D02*
X13350119Y-9675714D01*
X13254880Y-9532857D01*
X13207261Y-9437619D01*
X13159642Y-9294761D01*
X13112023Y-9056666D01*
X13112023Y-8866190D01*
X13159642Y-8628095D01*
X13207261Y-8485238D01*
X13254880Y-8390000D01*
X13350119Y-8247142D01*
X13397738Y-8199523D01*
X24540595Y-10992380D02*
X25112023Y-10992380D01*
X24826309Y-10992380D02*
X24826309Y-9992380D01*
X24921547Y-10135238D01*
X25016785Y-10230476D01*
X25112023Y-10278095D01*
X24064404Y-10992380D02*
X23873928Y-10992380D01*
X23778690Y-10944761D01*
X23731071Y-10897142D01*
X23635833Y-10754285D01*
X23588214Y-10563809D01*
X23588214Y-10182857D01*
X23635833Y-10087619D01*
X23683452Y-10040000D01*
X23778690Y-9992380D01*
X23969166Y-9992380D01*
X24064404Y-10040000D01*
X24112023Y-10087619D01*
X24159642Y-10182857D01*
X24159642Y-10420952D01*
X24112023Y-10516190D01*
X24064404Y-10563809D01*
X23969166Y-10611428D01*
X23778690Y-10611428D01*
X23683452Y-10563809D01*
X23635833Y-10516190D01*
X23588214Y-10420952D01*
X23302500Y-9992380D02*
X22969166Y-10992380D01*
X22635833Y-9992380D01*
X21683452Y-10516190D02*
X21731071Y-10468571D01*
X21826309Y-10420952D01*
X21921547Y-10420952D01*
X22016785Y-10468571D01*
X22064404Y-10516190D01*
X22112023Y-10611428D01*
X22112023Y-10706666D01*
X22064404Y-10801904D01*
X22016785Y-10849523D01*
X21921547Y-10897142D01*
X21826309Y-10897142D01*
X21731071Y-10849523D01*
X21683452Y-10801904D01*
X21683452Y-10420952D02*
X21683452Y-10801904D01*
X21635833Y-10849523D01*
X21588214Y-10849523D01*
X21492976Y-10801904D01*
X21445357Y-10706666D01*
X21445357Y-10468571D01*
X21540595Y-10325714D01*
X21683452Y-10230476D01*
X21873928Y-10182857D01*
X22064404Y-10230476D01*
X22207261Y-10325714D01*
X22302500Y-10468571D01*
X22350119Y-10659047D01*
X22302500Y-10849523D01*
X22207261Y-10992380D01*
X22064404Y-11087619D01*
X21873928Y-11135238D01*
X21683452Y-11087619D01*
X21540595Y-10992380D01*
X21064404Y-10087619D02*
X21016785Y-10040000D01*
X20921547Y-9992380D01*
X20683452Y-9992380D01*
X20588214Y-10040000D01*
X20540595Y-10087619D01*
X20492976Y-10182857D01*
X20492976Y-10278095D01*
X20540595Y-10420952D01*
X21112023Y-10992380D01*
X20492976Y-10992380D01*
X20064404Y-10897142D02*
X20016785Y-10944761D01*
X20064404Y-10992380D01*
X20112023Y-10944761D01*
X20064404Y-10897142D01*
X20064404Y-10992380D01*
X19159642Y-10325714D02*
X19159642Y-10992380D01*
X19397738Y-9944761D02*
X19635833Y-10659047D01*
X19016785Y-10659047D01*
X18683452Y-10706666D02*
X18207261Y-10706666D01*
X18778690Y-10992380D02*
X18445357Y-9992380D01*
X18112023Y-10992380D01*
X16731071Y-11373333D02*
X16778690Y-11325714D01*
X16873928Y-11182857D01*
X16921547Y-11087619D01*
X16969166Y-10944761D01*
X17016785Y-10706666D01*
X17016785Y-10516190D01*
X16969166Y-10278095D01*
X16921547Y-10135238D01*
X16873928Y-10040000D01*
X16778690Y-9897142D01*
X16731071Y-9849523D01*
X15921547Y-10325714D02*
X15921547Y-10992380D01*
X16159642Y-9944761D02*
X16397738Y-10659047D01*
X15778690Y-10659047D01*
X14921547Y-9992380D02*
X15397738Y-9992380D01*
X15445357Y-10468571D01*
X15397738Y-10420952D01*
X15302500Y-10373333D01*
X15064404Y-10373333D01*
X14969166Y-10420952D01*
X14921547Y-10468571D01*
X14873928Y-10563809D01*
X14873928Y-10801904D01*
X14921547Y-10897142D01*
X14969166Y-10944761D01*
X15064404Y-10992380D01*
X15302500Y-10992380D01*
X15397738Y-10944761D01*
X15445357Y-10897142D01*
X14540595Y-9992380D02*
X14302500Y-10992380D01*
X14112023Y-10278095D01*
X13921547Y-10992380D01*
X13683452Y-9992380D01*
X13397738Y-11373333D02*
X13350119Y-11325714D01*
X13254880Y-11182857D01*
X13207261Y-11087619D01*
X13159642Y-10944761D01*
X13112023Y-10706666D01*
X13112023Y-10516190D01*
X13159642Y-10278095D01*
X13207261Y-10135238D01*
X13254880Y-10040000D01*
X13350119Y-9897142D01*
X13397738Y-9849523D01*
X25112023Y-11737619D02*
X25064404Y-11690000D01*
X24969166Y-11642380D01*
X24731071Y-11642380D01*
X24635833Y-11690000D01*
X24588214Y-11737619D01*
X24540595Y-11832857D01*
X24540595Y-11928095D01*
X24588214Y-12070952D01*
X25159642Y-12642380D01*
X24540595Y-12642380D01*
X23683452Y-11975714D02*
X23683452Y-12642380D01*
X23921547Y-11594761D02*
X24159642Y-12309047D01*
X23540595Y-12309047D01*
X23302500Y-11642380D02*
X22969166Y-12642380D01*
X22635833Y-11642380D01*
X21683452Y-12166190D02*
X21731071Y-12118571D01*
X21826309Y-12070952D01*
X21921547Y-12070952D01*
X22016785Y-12118571D01*
X22064404Y-12166190D01*
X22112023Y-12261428D01*
X22112023Y-12356666D01*
X22064404Y-12451904D01*
X22016785Y-12499523D01*
X21921547Y-12547142D01*
X21826309Y-12547142D01*
X21731071Y-12499523D01*
X21683452Y-12451904D01*
X21683452Y-12070952D02*
X21683452Y-12451904D01*
X21635833Y-12499523D01*
X21588214Y-12499523D01*
X21492976Y-12451904D01*
X21445357Y-12356666D01*
X21445357Y-12118571D01*
X21540595Y-11975714D01*
X21683452Y-11880476D01*
X21873928Y-11832857D01*
X22064404Y-11880476D01*
X22207261Y-11975714D01*
X22302500Y-12118571D01*
X22350119Y-12309047D01*
X22302500Y-12499523D01*
X22207261Y-12642380D01*
X22064404Y-12737619D01*
X21873928Y-12785238D01*
X21683452Y-12737619D01*
X21540595Y-12642380D01*
X21112023Y-11642380D02*
X20492976Y-11642380D01*
X20826309Y-12023333D01*
X20683452Y-12023333D01*
X20588214Y-12070952D01*
X20540595Y-12118571D01*
X20492976Y-12213809D01*
X20492976Y-12451904D01*
X20540595Y-12547142D01*
X20588214Y-12594761D01*
X20683452Y-12642380D01*
X20969166Y-12642380D01*
X21064404Y-12594761D01*
X21112023Y-12547142D01*
X20064404Y-12547142D02*
X20016785Y-12594761D01*
X20064404Y-12642380D01*
X20112023Y-12594761D01*
X20064404Y-12547142D01*
X20064404Y-12642380D01*
X19397738Y-11642380D02*
X19302500Y-11642380D01*
X19207261Y-11690000D01*
X19159642Y-11737619D01*
X19112023Y-11832857D01*
X19064404Y-12023333D01*
X19064404Y-12261428D01*
X19112023Y-12451904D01*
X19159642Y-12547142D01*
X19207261Y-12594761D01*
X19302500Y-12642380D01*
X19397738Y-12642380D01*
X19492976Y-12594761D01*
X19540595Y-12547142D01*
X19588214Y-12451904D01*
X19635833Y-12261428D01*
X19635833Y-12023333D01*
X19588214Y-11832857D01*
X19540595Y-11737619D01*
X19492976Y-11690000D01*
X19397738Y-11642380D01*
X18683452Y-12356666D02*
X18207261Y-12356666D01*
X18778690Y-12642380D02*
X18445357Y-11642380D01*
X18112023Y-12642380D01*
X16731071Y-13023333D02*
X16778690Y-12975714D01*
X16873928Y-12832857D01*
X16921547Y-12737619D01*
X16969166Y-12594761D01*
X17016785Y-12356666D01*
X17016785Y-12166190D01*
X16969166Y-11928095D01*
X16921547Y-11785238D01*
X16873928Y-11690000D01*
X16778690Y-11547142D01*
X16731071Y-11499523D01*
X16445357Y-11642380D02*
X15778690Y-11642380D01*
X16207261Y-12642380D01*
X15445357Y-11737619D02*
X15397738Y-11690000D01*
X15302500Y-11642380D01*
X15064404Y-11642380D01*
X14969166Y-11690000D01*
X14921547Y-11737619D01*
X14873928Y-11832857D01*
X14873928Y-11928095D01*
X14921547Y-12070952D01*
X15492976Y-12642380D01*
X14873928Y-12642380D01*
X14540595Y-11642380D02*
X14302500Y-12642380D01*
X14112023Y-11928095D01*
X13921547Y-12642380D01*
X13683452Y-11642380D01*
X13397738Y-13023333D02*
X13350119Y-12975714D01*
X13254880Y-12832857D01*
X13207261Y-12737619D01*
X13159642Y-12594761D01*
X13112023Y-12356666D01*
X13112023Y-12166190D01*
X13159642Y-11928095D01*
X13207261Y-11785238D01*
X13254880Y-11690000D01*
X13350119Y-11547142D01*
X13397738Y-11499523D01*
D11*
X38100000Y-3810000D02*
X38100000Y-26670000D01*
X26670000Y-3810000D02*
X38100000Y-3810000D01*
X26670000Y-26670000D02*
X26670000Y-3810000D01*
X38100000Y-26670000D02*
X26670000Y-26670000D01*
D10*
X22978571Y34837619D02*
X22978571Y34123333D01*
X23026190Y33980476D01*
X23121428Y33885238D01*
X23264285Y33837619D01*
X23359523Y33837619D01*
X22645238Y34837619D02*
X22073809Y34837619D01*
X22359523Y33837619D02*
X22359523Y34837619D01*
X21788095Y34123333D02*
X21311904Y34123333D01*
X21883333Y33837619D02*
X21550000Y34837619D01*
X21216666Y33837619D01*
X20359523Y34790000D02*
X20454761Y34837619D01*
X20597619Y34837619D01*
X20740476Y34790000D01*
X20835714Y34694761D01*
X20883333Y34599523D01*
X20930952Y34409047D01*
X20930952Y34266190D01*
X20883333Y34075714D01*
X20835714Y33980476D01*
X20740476Y33885238D01*
X20597619Y33837619D01*
X20502380Y33837619D01*
X20359523Y33885238D01*
X20311904Y33932857D01*
X20311904Y34266190D01*
X20502380Y34266190D01*
X19121428Y34361428D02*
X18788095Y34361428D01*
X18645238Y33837619D02*
X19121428Y33837619D01*
X19121428Y34837619D01*
X18645238Y34837619D01*
X18264285Y33885238D02*
X18121428Y33837619D01*
X17883333Y33837619D01*
X17788095Y33885238D01*
X17740476Y33932857D01*
X17692857Y34028095D01*
X17692857Y34123333D01*
X17740476Y34218571D01*
X17788095Y34266190D01*
X17883333Y34313809D01*
X18073809Y34361428D01*
X18169047Y34409047D01*
X18216666Y34456666D01*
X18264285Y34551904D01*
X18264285Y34647142D01*
X18216666Y34742380D01*
X18169047Y34790000D01*
X18073809Y34837619D01*
X17835714Y34837619D01*
X17692857Y34790000D01*
X17264285Y33837619D02*
X17264285Y34837619D01*
X16883333Y34837619D01*
X16788095Y34790000D01*
X16740476Y34742380D01*
X16692857Y34647142D01*
X16692857Y34504285D01*
X16740476Y34409047D01*
X16788095Y34361428D01*
X16883333Y34313809D01*
X17264285Y34313809D01*
X16359523Y34837619D02*
X15740476Y34837619D01*
X16073809Y34456666D01*
X15930952Y34456666D01*
X15835714Y34409047D01*
X15788095Y34361428D01*
X15740476Y34266190D01*
X15740476Y34028095D01*
X15788095Y33932857D01*
X15835714Y33885238D01*
X15930952Y33837619D01*
X16216666Y33837619D01*
X16311904Y33885238D01*
X16359523Y33932857D01*
X15359523Y34742380D02*
X15311904Y34790000D01*
X15216666Y34837619D01*
X14978571Y34837619D01*
X14883333Y34790000D01*
X14835714Y34742380D01*
X14788095Y34647142D01*
X14788095Y34551904D01*
X14835714Y34409047D01*
X15407142Y33837619D01*
X14788095Y33837619D01*
X-21687404Y-5532380D02*
X-21115976Y-5532380D01*
X-21401690Y-5532380D02*
X-21401690Y-4532380D01*
X-21306452Y-4675238D01*
X-21211214Y-4770476D01*
X-21115976Y-4818095D01*
X-22163595Y-5484761D02*
X-22163595Y-5532380D01*
X-22115976Y-5627619D01*
X-22068357Y-5675238D01*
X-23354071Y-5532380D02*
X-23354071Y-4532380D01*
X-23354071Y-4913333D02*
X-23449309Y-4865714D01*
X-23639785Y-4865714D01*
X-23735023Y-4913333D01*
X-23782642Y-4960952D01*
X-23830261Y-5056190D01*
X-23830261Y-5341904D01*
X-23782642Y-5437142D01*
X-23735023Y-5484761D01*
X-23639785Y-5532380D01*
X-23449309Y-5532380D01*
X-23354071Y-5484761D01*
X-24401690Y-5532380D02*
X-24306452Y-5484761D01*
X-24258833Y-5389523D01*
X-24258833Y-4532380D01*
X-25211214Y-4865714D02*
X-25211214Y-5532380D01*
X-24782642Y-4865714D02*
X-24782642Y-5389523D01*
X-24830261Y-5484761D01*
X-24925499Y-5532380D01*
X-25068357Y-5532380D01*
X-25163595Y-5484761D01*
X-25211214Y-5437142D01*
X-26068357Y-5484761D02*
X-25973119Y-5532380D01*
X-25782642Y-5532380D01*
X-25687404Y-5484761D01*
X-25639785Y-5389523D01*
X-25639785Y-5008571D01*
X-25687404Y-4913333D01*
X-25782642Y-4865714D01*
X-25973119Y-4865714D01*
X-26068357Y-4913333D01*
X-26115976Y-5008571D01*
X-26115976Y-5103809D01*
X-25639785Y-5199047D01*
X-26592166Y-5484761D02*
X-26592166Y-5532380D01*
X-26544547Y-5627619D01*
X-26496928Y-5675238D01*
X-27735023Y-5484761D02*
X-27830261Y-5532380D01*
X-28020738Y-5532380D01*
X-28115976Y-5484761D01*
X-28163595Y-5389523D01*
X-28163595Y-5341904D01*
X-28115976Y-5246666D01*
X-28020738Y-5199047D01*
X-27877880Y-5199047D01*
X-27782642Y-5151428D01*
X-27735023Y-5056190D01*
X-27735023Y-5008571D01*
X-27782642Y-4913333D01*
X-27877880Y-4865714D01*
X-28020738Y-4865714D01*
X-28115976Y-4913333D01*
X-28592166Y-5532380D02*
X-28592166Y-4532380D01*
X-29020738Y-5532380D02*
X-29020738Y-5008571D01*
X-28973119Y-4913333D01*
X-28877880Y-4865714D01*
X-28735023Y-4865714D01*
X-28639785Y-4913333D01*
X-28592166Y-4960952D01*
X-29925499Y-5532380D02*
X-29925499Y-5008571D01*
X-29877880Y-4913333D01*
X-29782642Y-4865714D01*
X-29592166Y-4865714D01*
X-29496928Y-4913333D01*
X-29925499Y-5484761D02*
X-29830261Y-5532380D01*
X-29592166Y-5532380D01*
X-29496928Y-5484761D01*
X-29449309Y-5389523D01*
X-29449309Y-5294285D01*
X-29496928Y-5199047D01*
X-29592166Y-5151428D01*
X-29830261Y-5151428D01*
X-29925499Y-5103809D01*
X-30401690Y-5532380D02*
X-30401690Y-4532380D01*
X-30496928Y-5151428D02*
X-30782642Y-5532380D01*
X-30782642Y-4865714D02*
X-30401690Y-5246666D01*
X-31592166Y-5484761D02*
X-31496928Y-5532380D01*
X-31306452Y-5532380D01*
X-31211214Y-5484761D01*
X-31163595Y-5389523D01*
X-31163595Y-5008571D01*
X-31211214Y-4913333D01*
X-31306452Y-4865714D01*
X-31496928Y-4865714D01*
X-31592166Y-4913333D01*
X-31639785Y-5008571D01*
X-31639785Y-5103809D01*
X-31163595Y-5199047D01*
X-21115976Y-817619D02*
X-21163595Y-770000D01*
X-21258833Y-722380D01*
X-21496928Y-722380D01*
X-21592166Y-770000D01*
X-21639785Y-817619D01*
X-21687404Y-912857D01*
X-21687404Y-1008095D01*
X-21639785Y-1150952D01*
X-21068357Y-1722380D01*
X-21687404Y-1722380D01*
X-22163595Y-1674761D02*
X-22163595Y-1722380D01*
X-22115976Y-1817619D01*
X-22068357Y-1865238D01*
X-23258833Y-1055714D02*
X-23449309Y-1722380D01*
X-23639785Y-1246190D01*
X-23830261Y-1722380D01*
X-24020738Y-1055714D01*
X-24401690Y-1722380D02*
X-24401690Y-722380D01*
X-24830261Y-1722380D02*
X-24830261Y-1198571D01*
X-24782642Y-1103333D01*
X-24687404Y-1055714D01*
X-24544547Y-1055714D01*
X-24449309Y-1103333D01*
X-24401690Y-1150952D01*
X-25306452Y-1722380D02*
X-25306452Y-1055714D01*
X-25306452Y-722380D02*
X-25258833Y-770000D01*
X-25306452Y-817619D01*
X-25354071Y-770000D01*
X-25306452Y-722380D01*
X-25306452Y-817619D01*
X-25639785Y-1055714D02*
X-26020738Y-1055714D01*
X-25782642Y-722380D02*
X-25782642Y-1579523D01*
X-25830261Y-1674761D01*
X-25925500Y-1722380D01*
X-26020738Y-1722380D01*
X-26735023Y-1674761D02*
X-26639785Y-1722380D01*
X-26449309Y-1722380D01*
X-26354071Y-1674761D01*
X-26306452Y-1579523D01*
X-26306452Y-1198571D01*
X-26354071Y-1103333D01*
X-26449309Y-1055714D01*
X-26639785Y-1055714D01*
X-26735023Y-1103333D01*
X-26782642Y-1198571D01*
X-26782642Y-1293809D01*
X-26306452Y-1389047D01*
X-27258833Y-1674761D02*
X-27258833Y-1722380D01*
X-27211214Y-1817619D01*
X-27163595Y-1865238D01*
X-28449309Y-1722380D02*
X-28449309Y-722380D01*
X-29020738Y-1722380D01*
X-29020738Y-722380D01*
X-29354071Y-722380D02*
X-29925500Y-722380D01*
X-29639785Y-1722380D02*
X-29639785Y-722380D01*
X-30830261Y-1627142D02*
X-30782642Y-1674761D01*
X-30639785Y-1722380D01*
X-30544547Y-1722380D01*
X-30401690Y-1674761D01*
X-30306452Y-1579523D01*
X-30258833Y-1484285D01*
X-30211214Y-1293809D01*
X-30211214Y-1150952D01*
X-30258833Y-960476D01*
X-30306452Y-865238D01*
X-30401690Y-770000D01*
X-30544547Y-722380D01*
X-30639785Y-722380D01*
X-30782642Y-770000D01*
X-30830261Y-817619D01*
X-43727619Y-4318571D02*
X-42918095Y-4318571D01*
X-42822857Y-4366190D01*
X-42775238Y-4413809D01*
X-42727619Y-4509047D01*
X-42727619Y-4699523D01*
X-42775238Y-4794761D01*
X-42822857Y-4842380D01*
X-42918095Y-4890000D01*
X-43727619Y-4890000D01*
X-42775238Y-5318571D02*
X-42727619Y-5461428D01*
X-42727619Y-5699523D01*
X-42775238Y-5794761D01*
X-42822857Y-5842380D01*
X-42918095Y-5889999D01*
X-43013333Y-5889999D01*
X-43108571Y-5842380D01*
X-43156190Y-5794761D01*
X-43203809Y-5699523D01*
X-43251428Y-5509047D01*
X-43299047Y-5413809D01*
X-43346666Y-5366190D01*
X-43441904Y-5318571D01*
X-43537142Y-5318571D01*
X-43632380Y-5366190D01*
X-43680000Y-5413809D01*
X-43727619Y-5509047D01*
X-43727619Y-5747142D01*
X-43680000Y-5889999D01*
X-43251428Y-6651904D02*
X-43203809Y-6794761D01*
X-43156190Y-6842380D01*
X-43060952Y-6889999D01*
X-42918095Y-6889999D01*
X-42822857Y-6842380D01*
X-42775238Y-6794761D01*
X-42727619Y-6699523D01*
X-42727619Y-6318571D01*
X-43727619Y-6318571D01*
X-43727619Y-6651904D01*
X-43680000Y-6747142D01*
X-43632380Y-6794761D01*
X-43537142Y-6842380D01*
X-43441904Y-6842380D01*
X-43346666Y-6794761D01*
X-43299047Y-6747142D01*
X-43251428Y-6651904D01*
X-43251428Y-6318571D01*
X-42775238Y-8032857D02*
X-42727619Y-8175714D01*
X-42727619Y-8413809D01*
X-42775238Y-8509047D01*
X-42822857Y-8556666D01*
X-42918095Y-8604285D01*
X-43013333Y-8604285D01*
X-43108571Y-8556666D01*
X-43156190Y-8509047D01*
X-43203809Y-8413809D01*
X-43251428Y-8223333D01*
X-43299047Y-8128095D01*
X-43346666Y-8080476D01*
X-43441904Y-8032857D01*
X-43537142Y-8032857D01*
X-43632380Y-8080476D01*
X-43680000Y-8128095D01*
X-43727619Y-8223333D01*
X-43727619Y-8461428D01*
X-43680000Y-8604285D01*
X-43013333Y-8985238D02*
X-43013333Y-9461428D01*
X-42727619Y-8889999D02*
X-43727619Y-9223333D01*
X-42727619Y-9556666D01*
X-42727619Y-9889999D02*
X-43727619Y-9889999D01*
X-43013333Y-10223333D01*
X-43727619Y-10556666D01*
X-42727619Y-10556666D01*
X-42727619Y-11032857D02*
X-43727619Y-11032857D01*
X-43727619Y-11270952D01*
X-43680000Y-11413809D01*
X-43584761Y-11509047D01*
X-43489523Y-11556666D01*
X-43299047Y-11604285D01*
X-43156190Y-11604285D01*
X-42965714Y-11556666D01*
X-42870476Y-11509047D01*
X-42775238Y-11413809D01*
X-42727619Y-11270952D01*
X-42727619Y-11032857D01*
X-43632380Y-11985238D02*
X-43680000Y-12032857D01*
X-43727619Y-12128095D01*
X-43727619Y-12366190D01*
X-43680000Y-12461428D01*
X-43632380Y-12509047D01*
X-43537142Y-12556666D01*
X-43441904Y-12556666D01*
X-43299047Y-12509047D01*
X-42727619Y-11937619D01*
X-42727619Y-12556666D01*
X-42727619Y-13509047D02*
X-42727619Y-12937619D01*
X-42727619Y-13223333D02*
X-43727619Y-13223333D01*
X-43584761Y-13128095D01*
X-43489523Y-13032857D01*
X-43441904Y-12937619D01*
X-29528095Y33837619D02*
X-29194761Y34313809D01*
X-28956666Y33837619D02*
X-28956666Y34837619D01*
X-29337619Y34837619D01*
X-29432857Y34790000D01*
X-29480476Y34742380D01*
X-29528095Y34647142D01*
X-29528095Y34504285D01*
X-29480476Y34409047D01*
X-29432857Y34361428D01*
X-29337619Y34313809D01*
X-28956666Y34313809D01*
X-29956666Y34361428D02*
X-30289999Y34361428D01*
X-30432857Y33837619D02*
X-29956666Y33837619D01*
X-29956666Y34837619D01*
X-30432857Y34837619D01*
X-30813809Y33885238D02*
X-30956666Y33837619D01*
X-31194761Y33837619D01*
X-31289999Y33885238D01*
X-31337619Y33932857D01*
X-31385238Y34028095D01*
X-31385238Y34123333D01*
X-31337619Y34218571D01*
X-31289999Y34266190D01*
X-31194761Y34313809D01*
X-31004285Y34361428D01*
X-30909047Y34409047D01*
X-30861428Y34456666D01*
X-30813809Y34551904D01*
X-30813809Y34647142D01*
X-30861428Y34742380D01*
X-30909047Y34790000D01*
X-31004285Y34837619D01*
X-31242380Y34837619D01*
X-31385238Y34790000D01*
X-31813809Y34361428D02*
X-32147142Y34361428D01*
X-32289999Y33837619D02*
X-31813809Y33837619D01*
X-31813809Y34837619D01*
X-32289999Y34837619D01*
X-32575714Y34837619D02*
X-33147142Y34837619D01*
X-32861428Y33837619D02*
X-32861428Y34837619D01*
X-34194761Y33885238D02*
X-34337619Y33837619D01*
X-34575714Y33837619D01*
X-34670952Y33885238D01*
X-34718571Y33932857D01*
X-34766190Y34028095D01*
X-34766190Y34123333D01*
X-34718571Y34218571D01*
X-34670952Y34266190D01*
X-34575714Y34313809D01*
X-34385238Y34361428D01*
X-34290000Y34409047D01*
X-34242380Y34456666D01*
X-34194761Y34551904D01*
X-34194761Y34647142D01*
X-34242380Y34742380D01*
X-34290000Y34790000D01*
X-34385238Y34837619D01*
X-34623333Y34837619D01*
X-34766190Y34790000D01*
X-35147142Y34123333D02*
X-35623333Y34123333D01*
X-35051904Y33837619D02*
X-35385238Y34837619D01*
X-35718571Y33837619D01*
X-36051904Y33837619D02*
X-36051904Y34837619D01*
X-36385238Y34123333D01*
X-36718571Y34837619D01*
X-36718571Y33837619D01*
X-37194761Y33837619D02*
X-37194761Y34837619D01*
X-37432857Y34837619D01*
X-37575714Y34790000D01*
X-37670952Y34694761D01*
X-37718571Y34599523D01*
X-37766190Y34409047D01*
X-37766190Y34266190D01*
X-37718571Y34075714D01*
X-37670952Y33980476D01*
X-37575714Y33885238D01*
X-37432857Y33837619D01*
X-37194761Y33837619D01*
X-38147142Y34742380D02*
X-38194761Y34790000D01*
X-38290000Y34837619D01*
X-38528095Y34837619D01*
X-38623333Y34790000D01*
X-38670952Y34742380D01*
X-38718571Y34647142D01*
X-38718571Y34551904D01*
X-38670952Y34409047D01*
X-38099523Y33837619D01*
X-38718571Y33837619D01*
X-39670952Y33837619D02*
X-39099523Y33837619D01*
X-39385238Y33837619D02*
X-39385238Y34837619D01*
X-39290000Y34694761D01*
X-39194761Y34599523D01*
X-39099523Y34551904D01*
X-45791428Y25200476D02*
X-45791428Y24867142D01*
X-45267619Y24724285D02*
X-45267619Y25200476D01*
X-46267619Y25200476D01*
X-46267619Y24724285D01*
X-45315238Y24343333D02*
X-45267619Y24200476D01*
X-45267619Y23962380D01*
X-45315238Y23867142D01*
X-45362857Y23819523D01*
X-45458095Y23771904D01*
X-45553333Y23771904D01*
X-45648571Y23819523D01*
X-45696190Y23867142D01*
X-45743809Y23962380D01*
X-45791428Y24152857D01*
X-45839047Y24248095D01*
X-45886666Y24295714D01*
X-45981904Y24343333D01*
X-46077142Y24343333D01*
X-46172380Y24295714D01*
X-46220000Y24248095D01*
X-46267619Y24152857D01*
X-46267619Y23914761D01*
X-46220000Y23771904D01*
X-45267619Y23343333D02*
X-46267619Y23343333D01*
X-46267619Y22962380D01*
X-46220000Y22867142D01*
X-46172380Y22819523D01*
X-46077142Y22771904D01*
X-45934285Y22771904D01*
X-45839047Y22819523D01*
X-45791428Y22867142D01*
X-45743809Y22962380D01*
X-45743809Y23343333D01*
X-46267619Y22438571D02*
X-46267619Y21819523D01*
X-45886666Y22152857D01*
X-45886666Y22010000D01*
X-45839047Y21914761D01*
X-45791428Y21867142D01*
X-45696190Y21819523D01*
X-45458095Y21819523D01*
X-45362857Y21867142D01*
X-45315238Y21914761D01*
X-45267619Y22010000D01*
X-45267619Y22295714D01*
X-45315238Y22390952D01*
X-45362857Y22438571D01*
X-46172380Y21438571D02*
X-46220000Y21390952D01*
X-46267619Y21295714D01*
X-46267619Y21057619D01*
X-46220000Y20962380D01*
X-46172380Y20914761D01*
X-46077142Y20867142D01*
X-45981904Y20867142D01*
X-45839047Y20914761D01*
X-45267619Y21486190D01*
X-45267619Y20867142D01*
X-45648571Y20438571D02*
X-45648571Y19676666D01*
X-45267619Y19200476D02*
X-46267619Y19200476D01*
X-46267619Y18962380D01*
X-46220000Y18819523D01*
X-46124761Y18724285D01*
X-46029523Y18676666D01*
X-45839047Y18629047D01*
X-45696190Y18629047D01*
X-45505714Y18676666D01*
X-45410476Y18724285D01*
X-45315238Y18819523D01*
X-45267619Y18962380D01*
X-45267619Y19200476D01*
X-45315238Y17819523D02*
X-45267619Y17914761D01*
X-45267619Y18105238D01*
X-45315238Y18200476D01*
X-45410476Y18248095D01*
X-45791428Y18248095D01*
X-45886666Y18200476D01*
X-45934285Y18105238D01*
X-45934285Y17914761D01*
X-45886666Y17819523D01*
X-45791428Y17771904D01*
X-45696190Y17771904D01*
X-45600952Y18248095D01*
X-45934285Y17438571D02*
X-45267619Y17200476D01*
X-45934285Y16962380D01*
X-45267619Y16581428D02*
X-46267619Y16581428D01*
X-45267619Y16010000D02*
X-45839047Y16438571D01*
X-46267619Y16010000D02*
X-45696190Y16581428D01*
X-45267619Y15581428D02*
X-45934285Y15581428D01*
X-46267619Y15581428D02*
X-46220000Y15629047D01*
X-46172380Y15581428D01*
X-46220000Y15533809D01*
X-46267619Y15581428D01*
X-46172380Y15581428D01*
X-45934285Y15248095D02*
X-45934285Y14867142D01*
X-46267619Y15105238D02*
X-45410476Y15105238D01*
X-45315238Y15057619D01*
X-45267619Y14962380D01*
X-45267619Y14867142D01*
X-45362857Y13962380D02*
X-45315238Y14010000D01*
X-45267619Y14152857D01*
X-45267619Y14248095D01*
X-45315238Y14390952D01*
X-45410476Y14486190D01*
X-45505714Y14533809D01*
X-45696190Y14581428D01*
X-45839047Y14581428D01*
X-46029523Y14533809D01*
X-46124761Y14486190D01*
X-46220000Y14390952D01*
X-46267619Y14248095D01*
X-46267619Y14152857D01*
X-46220000Y14010000D01*
X-46172380Y13962380D01*
X-45267619Y12771904D02*
X-45934285Y12771904D01*
X-45839047Y12771904D02*
X-45886666Y12724285D01*
X-45934285Y12629047D01*
X-45934285Y12486190D01*
X-45886666Y12390952D01*
X-45791428Y12343333D01*
X-45267619Y12343333D01*
X-45791428Y12343333D02*
X-45886666Y12295714D01*
X-45934285Y12200476D01*
X-45934285Y12057619D01*
X-45886666Y11962380D01*
X-45791428Y11914761D01*
X-45267619Y11914761D01*
X-45267619Y11295714D02*
X-45315238Y11390952D01*
X-45362857Y11438571D01*
X-45458095Y11486190D01*
X-45743809Y11486190D01*
X-45839047Y11438571D01*
X-45886666Y11390952D01*
X-45934285Y11295714D01*
X-45934285Y11152857D01*
X-45886666Y11057619D01*
X-45839047Y11010000D01*
X-45743809Y10962380D01*
X-45458095Y10962380D01*
X-45362857Y11010000D01*
X-45315238Y11057619D01*
X-45267619Y11152857D01*
X-45267619Y11295714D01*
X-45267619Y10105238D02*
X-46267619Y10105238D01*
X-45315238Y10105238D02*
X-45267619Y10200476D01*
X-45267619Y10390952D01*
X-45315238Y10486190D01*
X-45362857Y10533809D01*
X-45458095Y10581428D01*
X-45743809Y10581428D01*
X-45839047Y10533809D01*
X-45886666Y10486190D01*
X-45934285Y10390952D01*
X-45934285Y10200476D01*
X-45886666Y10105238D01*
X-45934285Y9200476D02*
X-45267619Y9200476D01*
X-45934285Y9629047D02*
X-45410476Y9629047D01*
X-45315238Y9581428D01*
X-45267619Y9486190D01*
X-45267619Y9343333D01*
X-45315238Y9248095D01*
X-45362857Y9200476D01*
X-45267619Y8581428D02*
X-45315238Y8676666D01*
X-45410476Y8724285D01*
X-46267619Y8724285D01*
X-45315238Y7819523D02*
X-45267619Y7914761D01*
X-45267619Y8105238D01*
X-45315238Y8200476D01*
X-45410476Y8248095D01*
X-45791428Y8248095D01*
X-45886666Y8200476D01*
X-45934285Y8105238D01*
X-45934285Y7914761D01*
X-45886666Y7819523D01*
X-45791428Y7771904D01*
X-45696190Y7771904D01*
X-45600952Y8248095D01*
X21264571Y15811904D02*
X21264571Y16573809D01*
X20931238Y17764285D02*
X20883619Y17907142D01*
X20883619Y18145238D01*
X20931238Y18240476D01*
X20978857Y18288095D01*
X21074095Y18335714D01*
X21169333Y18335714D01*
X21264571Y18288095D01*
X21312190Y18240476D01*
X21359809Y18145238D01*
X21407428Y17954761D01*
X21455047Y17859523D01*
X21502666Y17811904D01*
X21597904Y17764285D01*
X21693142Y17764285D01*
X21788380Y17811904D01*
X21836000Y17859523D01*
X21883619Y17954761D01*
X21883619Y18192857D01*
X21836000Y18335714D01*
X20883619Y18764285D02*
X21883619Y18764285D01*
X21883619Y19145238D01*
X21836000Y19240476D01*
X21788380Y19288095D01*
X21693142Y19335714D01*
X21550285Y19335714D01*
X21455047Y19288095D01*
X21407428Y19240476D01*
X21359809Y19145238D01*
X21359809Y18764285D01*
X20883619Y19764285D02*
X21883619Y19764285D01*
X20883619Y20335714D02*
X21455047Y19907142D01*
X21883619Y20335714D02*
X21312190Y19764285D01*
X21264571Y21526190D02*
X21264571Y22288095D01*
X20883619Y21907142D02*
X21645523Y21907142D01*
X-15653333Y33885238D02*
X-15796190Y33837619D01*
X-16034285Y33837619D01*
X-16129523Y33885238D01*
X-16177142Y33932857D01*
X-16224761Y34028095D01*
X-16224761Y34123333D01*
X-16177142Y34218571D01*
X-16129523Y34266190D01*
X-16034285Y34313809D01*
X-15843809Y34361428D01*
X-15748571Y34409047D01*
X-15700952Y34456666D01*
X-15653333Y34551904D01*
X-15653333Y34647142D01*
X-15700952Y34742380D01*
X-15748571Y34790000D01*
X-15843809Y34837619D01*
X-16081904Y34837619D01*
X-16224761Y34790000D01*
X-16558095Y34837619D02*
X-16796190Y33837619D01*
X-16986666Y34551904D01*
X-17177142Y33837619D01*
X-17415238Y34837619D01*
X-17796190Y33837619D02*
X-17796190Y34837619D01*
X-18034285Y34837619D01*
X-18177142Y34790000D01*
X-18272380Y34694761D01*
X-18320000Y34599523D01*
X-18367619Y34409047D01*
X-18367619Y34266190D01*
X-18320000Y34075714D01*
X-18272380Y33980476D01*
X-18177142Y33885238D01*
X-18034285Y33837619D01*
X-17796190Y33837619D01*
X-19510476Y33885238D02*
X-19653333Y33837619D01*
X-19891428Y33837619D01*
X-19986666Y33885238D01*
X-20034285Y33932857D01*
X-20081904Y34028095D01*
X-20081904Y34123333D01*
X-20034285Y34218571D01*
X-19986666Y34266190D01*
X-19891428Y34313809D01*
X-19700952Y34361428D01*
X-19605714Y34409047D01*
X-19558095Y34456666D01*
X-19510476Y34551904D01*
X-19510476Y34647142D01*
X-19558095Y34742380D01*
X-19605714Y34790000D01*
X-19700952Y34837619D01*
X-19939047Y34837619D01*
X-20081904Y34790000D01*
X-20462857Y34123333D02*
X-20939047Y34123333D01*
X-20367619Y33837619D02*
X-20700952Y34837619D01*
X-21034285Y33837619D01*
X-21367619Y33837619D02*
X-21367619Y34837619D01*
X-21700952Y34123333D01*
X-22034285Y34837619D01*
X-22034285Y33837619D01*
X-22510476Y33837619D02*
X-22510476Y34837619D01*
X-22748571Y34837619D01*
X-22891428Y34790000D01*
X-22986666Y34694761D01*
X-23034285Y34599523D01*
X-23081904Y34409047D01*
X-23081904Y34266190D01*
X-23034285Y34075714D01*
X-22986666Y33980476D01*
X-22891428Y33885238D01*
X-22748571Y33837619D01*
X-22510476Y33837619D01*
X-23462857Y34742380D02*
X-23510476Y34790000D01*
X-23605714Y34837619D01*
X-23843809Y34837619D01*
X-23939047Y34790000D01*
X-23986666Y34742380D01*
X-24034285Y34647142D01*
X-24034285Y34551904D01*
X-23986666Y34409047D01*
X-23415238Y33837619D01*
X-24034285Y33837619D01*
X-24986666Y33837619D02*
X-24415238Y33837619D01*
X-24700952Y33837619D02*
X-24700952Y34837619D01*
X-24605714Y34694761D01*
X-24510476Y34599523D01*
X-24415238Y34551904D01*
X7697214Y-17740380D02*
X8173404Y-17740380D01*
X8221023Y-18216571D01*
X8173404Y-18168952D01*
X8078166Y-18121333D01*
X7840071Y-18121333D01*
X7744833Y-18168952D01*
X7697214Y-18216571D01*
X7649595Y-18311809D01*
X7649595Y-18549904D01*
X7697214Y-18645142D01*
X7744833Y-18692761D01*
X7840071Y-18740380D01*
X8078166Y-18740380D01*
X8173404Y-18692761D01*
X8221023Y-18645142D01*
X7173404Y-18692761D02*
X7173404Y-18740380D01*
X7221023Y-18835619D01*
X7268642Y-18883238D01*
X5982928Y-18740380D02*
X5982928Y-18073714D01*
X5982928Y-18264190D02*
X5935309Y-18168952D01*
X5887690Y-18121333D01*
X5792452Y-18073714D01*
X5697214Y-18073714D01*
X4982928Y-18692761D02*
X5078166Y-18740380D01*
X5268642Y-18740380D01*
X5363880Y-18692761D01*
X5411500Y-18597523D01*
X5411500Y-18216571D01*
X5363880Y-18121333D01*
X5268642Y-18073714D01*
X5078166Y-18073714D01*
X4982928Y-18121333D01*
X4935309Y-18216571D01*
X4935309Y-18311809D01*
X5411500Y-18407047D01*
X4078166Y-18740380D02*
X4078166Y-17740380D01*
X4078166Y-18692761D02*
X4173404Y-18740380D01*
X4363880Y-18740380D01*
X4459119Y-18692761D01*
X4506738Y-18645142D01*
X4554357Y-18549904D01*
X4554357Y-18264190D01*
X4506738Y-18168952D01*
X4459119Y-18121333D01*
X4363880Y-18073714D01*
X4173404Y-18073714D01*
X4078166Y-18121333D01*
X3554357Y-18692761D02*
X3554357Y-18740380D01*
X3601976Y-18835619D01*
X3649595Y-18883238D01*
X2506738Y-17740380D02*
X1935309Y-17740380D01*
X2221023Y-18740380D02*
X2221023Y-17740380D01*
X1078166Y-18740380D02*
X1649595Y-18740380D01*
X1363880Y-18740380D02*
X1363880Y-17740380D01*
X1459119Y-17883238D01*
X1554357Y-17978476D01*
X1649595Y-18026095D01*
X697214Y-17835619D02*
X649595Y-17788000D01*
X554357Y-17740380D01*
X316261Y-17740380D01*
X221023Y-17788000D01*
X173404Y-17835619D01*
X125785Y-17930857D01*
X125785Y-18026095D01*
X173404Y-18168952D01*
X744833Y-18740380D01*
X125785Y-18740380D01*
X-302785Y-18359428D02*
X-1064690Y-18359428D01*
X-683738Y-18740380D02*
X-683738Y-17978476D01*
X25242166Y-16168714D02*
X25242166Y-16835380D01*
X25480261Y-15787761D02*
X25718357Y-16502047D01*
X25099309Y-16502047D01*
X24670738Y-16787761D02*
X24670738Y-16835380D01*
X24718357Y-16930619D01*
X24765976Y-16978238D01*
X23480261Y-16835380D02*
X23480261Y-15835380D01*
X23480261Y-16216333D02*
X23385023Y-16168714D01*
X23194547Y-16168714D01*
X23099309Y-16216333D01*
X23051690Y-16263952D01*
X23004071Y-16359190D01*
X23004071Y-16644904D01*
X23051690Y-16740142D01*
X23099309Y-16787761D01*
X23194547Y-16835380D01*
X23385023Y-16835380D01*
X23480261Y-16787761D01*
X22432642Y-16835380D02*
X22527880Y-16787761D01*
X22575500Y-16692523D01*
X22575500Y-15835380D01*
X21623119Y-16835380D02*
X21623119Y-16311571D01*
X21670738Y-16216333D01*
X21765976Y-16168714D01*
X21956452Y-16168714D01*
X22051690Y-16216333D01*
X21623119Y-16787761D02*
X21718357Y-16835380D01*
X21956452Y-16835380D01*
X22051690Y-16787761D01*
X22099309Y-16692523D01*
X22099309Y-16597285D01*
X22051690Y-16502047D01*
X21956452Y-16454428D01*
X21718357Y-16454428D01*
X21623119Y-16406809D01*
X20718357Y-16787761D02*
X20813595Y-16835380D01*
X21004071Y-16835380D01*
X21099309Y-16787761D01*
X21146928Y-16740142D01*
X21194547Y-16644904D01*
X21194547Y-16359190D01*
X21146928Y-16263952D01*
X21099309Y-16216333D01*
X21004071Y-16168714D01*
X20813595Y-16168714D01*
X20718357Y-16216333D01*
X20289785Y-16835380D02*
X20289785Y-15835380D01*
X20194547Y-16454428D02*
X19908833Y-16835380D01*
X19908833Y-16168714D02*
X20289785Y-16549666D01*
X19432642Y-16787761D02*
X19432642Y-16835380D01*
X19480261Y-16930619D01*
X19527880Y-16978238D01*
X18385023Y-15835380D02*
X17813595Y-15835380D01*
X18099309Y-16835380D02*
X18099309Y-15835380D01*
X16956452Y-16835380D02*
X17527880Y-16835380D01*
X17242166Y-16835380D02*
X17242166Y-15835380D01*
X17337404Y-15978238D01*
X17432642Y-16073476D01*
X17527880Y-16121095D01*
X16575500Y-15930619D02*
X16527880Y-15883000D01*
X16432642Y-15835380D01*
X16194547Y-15835380D01*
X16099309Y-15883000D01*
X16051690Y-15930619D01*
X16004071Y-16025857D01*
X16004071Y-16121095D01*
X16051690Y-16263952D01*
X16623119Y-16835380D01*
X16004071Y-16835380D01*
X15575500Y-16454428D02*
X14813595Y-16454428D01*
X8395642Y-25233380D02*
X7776595Y-25233380D01*
X8109928Y-25614333D01*
X7967071Y-25614333D01*
X7871833Y-25661952D01*
X7824214Y-25709571D01*
X7776595Y-25804809D01*
X7776595Y-26042904D01*
X7824214Y-26138142D01*
X7871833Y-26185761D01*
X7967071Y-26233380D01*
X8252785Y-26233380D01*
X8348023Y-26185761D01*
X8395642Y-26138142D01*
X7300404Y-26185761D02*
X7300404Y-26233380D01*
X7348023Y-26328619D01*
X7395642Y-26376238D01*
X5681357Y-25566714D02*
X5681357Y-26376238D01*
X5728976Y-26471476D01*
X5776595Y-26519095D01*
X5871833Y-26566714D01*
X6014690Y-26566714D01*
X6109928Y-26519095D01*
X5681357Y-26185761D02*
X5776595Y-26233380D01*
X5967071Y-26233380D01*
X6062309Y-26185761D01*
X6109928Y-26138142D01*
X6157547Y-26042904D01*
X6157547Y-25757190D01*
X6109928Y-25661952D01*
X6062309Y-25614333D01*
X5967071Y-25566714D01*
X5776595Y-25566714D01*
X5681357Y-25614333D01*
X5205166Y-26233380D02*
X5205166Y-25566714D01*
X5205166Y-25757190D02*
X5157547Y-25661952D01*
X5109928Y-25614333D01*
X5014690Y-25566714D01*
X4919452Y-25566714D01*
X4205166Y-26185761D02*
X4300404Y-26233380D01*
X4490880Y-26233380D01*
X4586119Y-26185761D01*
X4633738Y-26090523D01*
X4633738Y-25709571D01*
X4586119Y-25614333D01*
X4490880Y-25566714D01*
X4300404Y-25566714D01*
X4205166Y-25614333D01*
X4157547Y-25709571D01*
X4157547Y-25804809D01*
X4633738Y-25900047D01*
X3348023Y-26185761D02*
X3443261Y-26233380D01*
X3633738Y-26233380D01*
X3728976Y-26185761D01*
X3776595Y-26090523D01*
X3776595Y-25709571D01*
X3728976Y-25614333D01*
X3633738Y-25566714D01*
X3443261Y-25566714D01*
X3348023Y-25614333D01*
X3300404Y-25709571D01*
X3300404Y-25804809D01*
X3776595Y-25900047D01*
X2871833Y-25566714D02*
X2871833Y-26233380D01*
X2871833Y-25661952D02*
X2824214Y-25614333D01*
X2728976Y-25566714D01*
X2586119Y-25566714D01*
X2490880Y-25614333D01*
X2443261Y-25709571D01*
X2443261Y-26233380D01*
X1919452Y-26185761D02*
X1919452Y-26233380D01*
X1967071Y-26328619D01*
X2014690Y-26376238D01*
X728976Y-25709571D02*
X395642Y-25709571D01*
X252785Y-26233380D02*
X728976Y-26233380D01*
X728976Y-25233380D01*
X252785Y-25233380D01*
X-128166Y-26185761D02*
X-271023Y-26233380D01*
X-509119Y-26233380D01*
X-604357Y-26185761D01*
X-651976Y-26138142D01*
X-699595Y-26042904D01*
X-699595Y-25947666D01*
X-651976Y-25852428D01*
X-604357Y-25804809D01*
X-509119Y-25757190D01*
X-318642Y-25709571D01*
X-223404Y-25661952D01*
X-175785Y-25614333D01*
X-128166Y-25519095D01*
X-128166Y-25423857D01*
X-175785Y-25328619D01*
X-223404Y-25281000D01*
X-318642Y-25233380D01*
X-556738Y-25233380D01*
X-699595Y-25281000D01*
X-1128166Y-26233380D02*
X-1128166Y-25233380D01*
X-1366261Y-25233380D01*
X-1509119Y-25281000D01*
X-1604357Y-25376238D01*
X-1651976Y-25471476D01*
X-1699595Y-25661952D01*
X-1699595Y-25804809D01*
X-1651976Y-25995285D01*
X-1604357Y-26090523D01*
X-1509119Y-26185761D01*
X-1366261Y-26233380D01*
X-1128166Y-26233380D01*
X33146904Y-22360000D02*
X33242142Y-22312380D01*
X33385000Y-22312380D01*
X33527857Y-22360000D01*
X33623095Y-22455238D01*
X33670714Y-22550476D01*
X33718333Y-22740952D01*
X33718333Y-22883809D01*
X33670714Y-23074285D01*
X33623095Y-23169523D01*
X33527857Y-23264761D01*
X33385000Y-23312380D01*
X33289761Y-23312380D01*
X33146904Y-23264761D01*
X33099285Y-23217142D01*
X33099285Y-22883809D01*
X33289761Y-22883809D01*
X32670714Y-23312380D02*
X32670714Y-22312380D01*
X32099285Y-23312380D01*
X32099285Y-22312380D01*
X31623095Y-23312380D02*
X31623095Y-22312380D01*
X31385000Y-22312380D01*
X31242142Y-22360000D01*
X31146904Y-22455238D01*
X31099285Y-22550476D01*
X31051666Y-22740952D01*
X31051666Y-22883809D01*
X31099285Y-23074285D01*
X31146904Y-23169523D01*
X31242142Y-23264761D01*
X31385000Y-23312380D01*
X31623095Y-23312380D01*
X32684404Y-15168571D02*
X32351071Y-15168571D01*
X32208214Y-15692380D02*
X32684404Y-15692380D01*
X32684404Y-14692380D01*
X32208214Y-14692380D01*
X31827261Y-15406666D02*
X31351071Y-15406666D01*
X31922500Y-15692380D02*
X31589166Y-14692380D01*
X31255833Y-15692380D01*
X30351071Y-15692380D02*
X30684404Y-15216190D01*
X30922500Y-15692380D02*
X30922500Y-14692380D01*
X30541547Y-14692380D01*
X30446309Y-14740000D01*
X30398690Y-14787619D01*
X30351071Y-14882857D01*
X30351071Y-15025714D01*
X30398690Y-15120952D01*
X30446309Y-15168571D01*
X30541547Y-15216190D01*
X30922500Y-15216190D01*
X30065357Y-14692380D02*
X29493928Y-14692380D01*
X29779642Y-15692380D02*
X29779642Y-14692380D01*
X29160595Y-15692380D02*
X29160595Y-14692380D01*
X29160595Y-15168571D02*
X28589166Y-15168571D01*
X28589166Y-15692380D02*
X28589166Y-14692380D01*
X33829238Y-7167619D02*
X33781619Y-7120000D01*
X33686380Y-7072380D01*
X33448285Y-7072380D01*
X33353047Y-7120000D01*
X33305428Y-7167619D01*
X33257809Y-7262857D01*
X33257809Y-7358095D01*
X33305428Y-7500952D01*
X33876857Y-8072380D01*
X33257809Y-8072380D01*
X32400666Y-7405714D02*
X32400666Y-8072380D01*
X32638761Y-7024761D02*
X32876857Y-7739047D01*
X32257809Y-7739047D01*
X32019714Y-7072380D02*
X31686380Y-8072380D01*
X31353047Y-7072380D01*
X30257809Y-8072380D02*
X30257809Y-7405714D01*
X30257809Y-7500952D02*
X30210190Y-7453333D01*
X30114952Y-7405714D01*
X29972095Y-7405714D01*
X29876857Y-7453333D01*
X29829238Y-7548571D01*
X29829238Y-8072380D01*
X29829238Y-7548571D02*
X29781619Y-7453333D01*
X29686380Y-7405714D01*
X29543523Y-7405714D01*
X29448285Y-7453333D01*
X29400666Y-7548571D01*
X29400666Y-8072380D01*
X28495904Y-8072380D02*
X28495904Y-7548571D01*
X28543523Y-7453333D01*
X28638761Y-7405714D01*
X28829238Y-7405714D01*
X28924476Y-7453333D01*
X28495904Y-8024761D02*
X28591142Y-8072380D01*
X28829238Y-8072380D01*
X28924476Y-8024761D01*
X28972095Y-7929523D01*
X28972095Y-7834285D01*
X28924476Y-7739047D01*
X28829238Y-7691428D01*
X28591142Y-7691428D01*
X28495904Y-7643809D01*
X28114952Y-8072380D02*
X27591142Y-7405714D01*
X28114952Y-7405714D02*
X27591142Y-8072380D01*
D12*
G36*
X32914695Y19261040D02*
G01*
X32726443Y18262458D01*
X32031817Y17976111D01*
X31337192Y17689763D01*
X30503872Y18256414D01*
X30270499Y18414189D01*
X30059543Y18555061D01*
X29880847Y18672599D01*
X29744256Y18760371D01*
X29659614Y18811945D01*
X29636563Y18823065D01*
X29595037Y18794465D01*
X29506302Y18715396D01*
X29380303Y18595959D01*
X29226986Y18446256D01*
X29056298Y18276385D01*
X28878186Y18096449D01*
X28702594Y17916546D01*
X28539470Y17746778D01*
X28398759Y17597246D01*
X28290408Y17478048D01*
X28224363Y17399287D01*
X28208574Y17372928D01*
X28231297Y17324334D01*
X28295001Y17217874D01*
X28392987Y17063961D01*
X28518559Y16873009D01*
X28665018Y16655431D01*
X28749885Y16531329D01*
X28904574Y16304721D01*
X29042030Y16100230D01*
X29155586Y15928035D01*
X29238572Y15798315D01*
X29284322Y15721249D01*
X29291197Y15705053D01*
X29275612Y15659025D01*
X29233132Y15551750D01*
X29170165Y15398313D01*
X29093121Y15213794D01*
X29008410Y15013279D01*
X28922442Y14811848D01*
X28841627Y14624585D01*
X28772373Y14466572D01*
X28721092Y14352893D01*
X28694191Y14298630D01*
X28692604Y14296494D01*
X28650365Y14286133D01*
X28537874Y14263018D01*
X28366791Y14229421D01*
X28148777Y14187615D01*
X27895491Y14139873D01*
X27747712Y14112341D01*
X27477062Y14060810D01*
X27232603Y14011775D01*
X27026700Y13967919D01*
X26871723Y13931926D01*
X26780038Y13906479D01*
X26761607Y13898405D01*
X26743555Y13843758D01*
X26728990Y13720338D01*
X26717902Y13542577D01*
X26710281Y13324909D01*
X26706116Y13081765D01*
X26705398Y12827577D01*
X26708118Y12576780D01*
X26714265Y12343804D01*
X26723829Y12143082D01*
X26736801Y11989046D01*
X26753171Y11896130D01*
X26762989Y11876787D01*
X26821677Y11853602D01*
X26946034Y11820456D01*
X27119610Y11781242D01*
X27325958Y11739855D01*
X27397989Y11726466D01*
X27745281Y11662853D01*
X28019617Y11611622D01*
X28230061Y11570739D01*
X28385678Y11538166D01*
X28495533Y11511868D01*
X28568689Y11489808D01*
X28614213Y11469951D01*
X28641167Y11450259D01*
X28644939Y11446368D01*
X28682585Y11383676D01*
X28740014Y11261669D01*
X28811492Y11095288D01*
X28891285Y10899471D01*
X28973657Y10689160D01*
X29052875Y10479292D01*
X29123204Y10284809D01*
X29178911Y10120650D01*
X29214259Y10001755D01*
X29223516Y9943064D01*
X29222744Y9941008D01*
X29191380Y9893036D01*
X29120226Y9787484D01*
X29016760Y9635340D01*
X28888460Y9447590D01*
X28742801Y9235220D01*
X28701320Y9174870D01*
X28553413Y8956071D01*
X28423261Y8756438D01*
X28317955Y8587435D01*
X28244584Y8460525D01*
X28210237Y8387171D01*
X28208574Y8378159D01*
X28237431Y8330793D01*
X28317169Y8236958D01*
X28437538Y8106739D01*
X28588287Y7950221D01*
X28759164Y7777490D01*
X28939921Y7598629D01*
X29120306Y7423724D01*
X29290068Y7262860D01*
X29438958Y7126122D01*
X29556724Y7023593D01*
X29633117Y6965360D01*
X29654250Y6955852D01*
X29703440Y6978246D01*
X29804153Y7038644D01*
X29939983Y7126871D01*
X30044490Y7197885D01*
X30233851Y7328189D01*
X30458101Y7481616D01*
X30683036Y7634799D01*
X30803968Y7716782D01*
X31213296Y7993647D01*
X31556898Y7807864D01*
X31713435Y7726477D01*
X31846546Y7663216D01*
X31936611Y7627135D01*
X31959537Y7622115D01*
X31987105Y7659183D01*
X32041492Y7763931D01*
X32118637Y7926697D01*
X32214482Y8137819D01*
X32324966Y8387635D01*
X32446029Y8666483D01*
X32573611Y8964701D01*
X32703653Y9272626D01*
X32832094Y9580596D01*
X32954874Y9878950D01*
X33067933Y10158025D01*
X33167212Y10408159D01*
X33248651Y10619690D01*
X33308189Y10782957D01*
X33341766Y10888295D01*
X33347166Y10924473D01*
X33304366Y10970619D01*
X33210656Y11045528D01*
X33085627Y11133636D01*
X33075133Y11140606D01*
X32751980Y11399279D01*
X32491413Y11701062D01*
X32295690Y12036305D01*
X32167068Y12395358D01*
X32107805Y12768574D01*
X32120161Y13146300D01*
X32206393Y13518889D01*
X32368759Y13876690D01*
X32416528Y13954973D01*
X32664991Y14271081D01*
X32958519Y14524921D01*
X33286953Y14715173D01*
X33640135Y14840515D01*
X34007905Y14899628D01*
X34380103Y14891193D01*
X34746571Y14813888D01*
X35097149Y14666394D01*
X35421677Y14447390D01*
X35522064Y14358502D01*
X35777551Y14080256D01*
X35963722Y13787344D01*
X36091430Y13459014D01*
X36162556Y13133867D01*
X36180114Y12768298D01*
X36121566Y12400914D01*
X35992858Y12044134D01*
X35799938Y11710374D01*
X35548752Y11412053D01*
X35245248Y11161589D01*
X35205360Y11135187D01*
X35078991Y11048728D01*
X34982927Y10973816D01*
X34937000Y10925985D01*
X34936332Y10924473D01*
X34946192Y10872733D01*
X34985278Y10755304D01*
X35049528Y10581846D01*
X35134880Y10362021D01*
X35237273Y10105487D01*
X35352646Y9821904D01*
X35476937Y9520933D01*
X35606084Y9212233D01*
X35736026Y8905464D01*
X35862702Y8610286D01*
X35982049Y8336360D01*
X36090006Y8093344D01*
X36182512Y7890899D01*
X36255504Y7738685D01*
X36304923Y7646362D01*
X36324823Y7622115D01*
X36385634Y7640996D01*
X36499418Y7691636D01*
X36646555Y7764983D01*
X36727462Y7807864D01*
X37071065Y7993647D01*
X37480393Y7716782D01*
X37689346Y7574946D01*
X37918113Y7418859D01*
X38132491Y7271891D01*
X38239871Y7197885D01*
X38390898Y7096469D01*
X38518782Y7016102D01*
X38606842Y6966959D01*
X38635445Y6956571D01*
X38677076Y6984595D01*
X38769211Y7062828D01*
X38902918Y7183148D01*
X39069265Y7337432D01*
X39259320Y7517557D01*
X39379521Y7633210D01*
X39589815Y7839833D01*
X39771556Y8024642D01*
X39917397Y8179730D01*
X40019991Y8297193D01*
X40071991Y8369125D01*
X40076980Y8383722D01*
X40053829Y8439247D01*
X39989854Y8551516D01*
X39892153Y8709163D01*
X39767820Y8900821D01*
X39623954Y9115124D01*
X39583041Y9174870D01*
X39433967Y9392018D01*
X39300225Y9587525D01*
X39189291Y9750401D01*
X39108644Y9869663D01*
X39065759Y9934322D01*
X39061617Y9941008D01*
X39067812Y9992538D01*
X39100700Y10105834D01*
X39154545Y10265958D01*
X39223613Y10457968D01*
X39302169Y10666926D01*
X39384480Y10877891D01*
X39464811Y11075924D01*
X39537428Y11246084D01*
X39596595Y11373433D01*
X39636580Y11443029D01*
X39639422Y11446368D01*
X39663873Y11466258D01*
X39705169Y11485927D01*
X39772377Y11507411D01*
X39874559Y11532747D01*
X40020781Y11563971D01*
X40220107Y11603118D01*
X40481603Y11652225D01*
X40814331Y11713328D01*
X40886372Y11726466D01*
X41099885Y11767718D01*
X41286022Y11808074D01*
X41428334Y11843639D01*
X41510371Y11870520D01*
X41521372Y11876787D01*
X41539498Y11932346D01*
X41554233Y12056505D01*
X41565564Y12234831D01*
X41573484Y12452891D01*
X41577981Y12696254D01*
X41579046Y12950486D01*
X41576670Y13201155D01*
X41570841Y13433829D01*
X41561551Y13634076D01*
X41548789Y13787462D01*
X41532546Y13879556D01*
X41522754Y13898405D01*
X41468239Y13917418D01*
X41344104Y13948350D01*
X41162715Y13988518D01*
X40936440Y14035238D01*
X40677647Y14085827D01*
X40536649Y14112341D01*
X40269127Y14162350D01*
X40030562Y14207654D01*
X39832614Y14245979D01*
X39686943Y14275053D01*
X39605209Y14292603D01*
X39591757Y14296494D01*
X39569021Y14340362D01*
X39520960Y14446024D01*
X39453981Y14598387D01*
X39374490Y14782354D01*
X39288892Y14982830D01*
X39203595Y15184719D01*
X39125005Y15372927D01*
X39059527Y15532358D01*
X39013569Y15647916D01*
X38993537Y15704506D01*
X38993164Y15706979D01*
X39015874Y15751621D01*
X39079541Y15854353D01*
X39177475Y16004963D01*
X39302983Y16193243D01*
X39449374Y16408982D01*
X39534475Y16532902D01*
X39689545Y16760117D01*
X39827275Y16966405D01*
X39940947Y17141329D01*
X40023839Y17274455D01*
X40069231Y17355347D01*
X40075787Y17373480D01*
X40047605Y17415688D01*
X39969696Y17505809D01*
X39852010Y17633746D01*
X39704500Y17789404D01*
X39537119Y17962685D01*
X39359819Y18143493D01*
X39182552Y18321733D01*
X39015270Y18487307D01*
X38867925Y18630120D01*
X38750470Y18740075D01*
X38672857Y18807076D01*
X38646892Y18823065D01*
X38604616Y18800581D01*
X38503499Y18737415D01*
X38353373Y18639997D01*
X38164070Y18514757D01*
X37945421Y18368125D01*
X37780489Y18256414D01*
X36947169Y17689763D01*
X36252544Y17976111D01*
X35557918Y18262458D01*
X35369666Y19261040D01*
X35181413Y20259623D01*
X33102948Y20259623D01*
X32914695Y19261040D01*
G37*
X32914695Y19261040D02*
X32726443Y18262458D01*
X32031817Y17976111D01*
X31337192Y17689763D01*
X30503872Y18256414D01*
X30270499Y18414189D01*
X30059543Y18555061D01*
X29880847Y18672599D01*
X29744256Y18760371D01*
X29659614Y18811945D01*
X29636563Y18823065D01*
X29595037Y18794465D01*
X29506302Y18715396D01*
X29380303Y18595959D01*
X29226986Y18446256D01*
X29056298Y18276385D01*
X28878186Y18096449D01*
X28702594Y17916546D01*
X28539470Y17746778D01*
X28398759Y17597246D01*
X28290408Y17478048D01*
X28224363Y17399287D01*
X28208574Y17372928D01*
X28231297Y17324334D01*
X28295001Y17217874D01*
X28392987Y17063961D01*
X28518559Y16873009D01*
X28665018Y16655431D01*
X28749885Y16531329D01*
X28904574Y16304721D01*
X29042030Y16100230D01*
X29155586Y15928035D01*
X29238572Y15798315D01*
X29284322Y15721249D01*
X29291197Y15705053D01*
X29275612Y15659025D01*
X29233132Y15551750D01*
X29170165Y15398313D01*
X29093121Y15213794D01*
X29008410Y15013279D01*
X28922442Y14811848D01*
X28841627Y14624585D01*
X28772373Y14466572D01*
X28721092Y14352893D01*
X28694191Y14298630D01*
X28692604Y14296494D01*
X28650365Y14286133D01*
X28537874Y14263018D01*
X28366791Y14229421D01*
X28148777Y14187615D01*
X27895491Y14139873D01*
X27747712Y14112341D01*
X27477062Y14060810D01*
X27232603Y14011775D01*
X27026700Y13967919D01*
X26871723Y13931926D01*
X26780038Y13906479D01*
X26761607Y13898405D01*
X26743555Y13843758D01*
X26728990Y13720338D01*
X26717902Y13542577D01*
X26710281Y13324909D01*
X26706116Y13081765D01*
X26705398Y12827577D01*
X26708118Y12576780D01*
X26714265Y12343804D01*
X26723829Y12143082D01*
X26736801Y11989046D01*
X26753171Y11896130D01*
X26762989Y11876787D01*
X26821677Y11853602D01*
X26946034Y11820456D01*
X27119610Y11781242D01*
X27325958Y11739855D01*
X27397989Y11726466D01*
X27745281Y11662853D01*
X28019617Y11611622D01*
X28230061Y11570739D01*
X28385678Y11538166D01*
X28495533Y11511868D01*
X28568689Y11489808D01*
X28614213Y11469951D01*
X28641167Y11450259D01*
X28644939Y11446368D01*
X28682585Y11383676D01*
X28740014Y11261669D01*
X28811492Y11095288D01*
X28891285Y10899471D01*
X28973657Y10689160D01*
X29052875Y10479292D01*
X29123204Y10284809D01*
X29178911Y10120650D01*
X29214259Y10001755D01*
X29223516Y9943064D01*
X29222744Y9941008D01*
X29191380Y9893036D01*
X29120226Y9787484D01*
X29016760Y9635340D01*
X28888460Y9447590D01*
X28742801Y9235220D01*
X28701320Y9174870D01*
X28553413Y8956071D01*
X28423261Y8756438D01*
X28317955Y8587435D01*
X28244584Y8460525D01*
X28210237Y8387171D01*
X28208574Y8378159D01*
X28237431Y8330793D01*
X28317169Y8236958D01*
X28437538Y8106739D01*
X28588287Y7950221D01*
X28759164Y7777490D01*
X28939921Y7598629D01*
X29120306Y7423724D01*
X29290068Y7262860D01*
X29438958Y7126122D01*
X29556724Y7023593D01*
X29633117Y6965360D01*
X29654250Y6955852D01*
X29703440Y6978246D01*
X29804153Y7038644D01*
X29939983Y7126871D01*
X30044490Y7197885D01*
X30233851Y7328189D01*
X30458101Y7481616D01*
X30683036Y7634799D01*
X30803968Y7716782D01*
X31213296Y7993647D01*
X31556898Y7807864D01*
X31713435Y7726477D01*
X31846546Y7663216D01*
X31936611Y7627135D01*
X31959537Y7622115D01*
X31987105Y7659183D01*
X32041492Y7763931D01*
X32118637Y7926697D01*
X32214482Y8137819D01*
X32324966Y8387635D01*
X32446029Y8666483D01*
X32573611Y8964701D01*
X32703653Y9272626D01*
X32832094Y9580596D01*
X32954874Y9878950D01*
X33067933Y10158025D01*
X33167212Y10408159D01*
X33248651Y10619690D01*
X33308189Y10782957D01*
X33341766Y10888295D01*
X33347166Y10924473D01*
X33304366Y10970619D01*
X33210656Y11045528D01*
X33085627Y11133636D01*
X33075133Y11140606D01*
X32751980Y11399279D01*
X32491413Y11701062D01*
X32295690Y12036305D01*
X32167068Y12395358D01*
X32107805Y12768574D01*
X32120161Y13146300D01*
X32206393Y13518889D01*
X32368759Y13876690D01*
X32416528Y13954973D01*
X32664991Y14271081D01*
X32958519Y14524921D01*
X33286953Y14715173D01*
X33640135Y14840515D01*
X34007905Y14899628D01*
X34380103Y14891193D01*
X34746571Y14813888D01*
X35097149Y14666394D01*
X35421677Y14447390D01*
X35522064Y14358502D01*
X35777551Y14080256D01*
X35963722Y13787344D01*
X36091430Y13459014D01*
X36162556Y13133867D01*
X36180114Y12768298D01*
X36121566Y12400914D01*
X35992858Y12044134D01*
X35799938Y11710374D01*
X35548752Y11412053D01*
X35245248Y11161589D01*
X35205360Y11135187D01*
X35078991Y11048728D01*
X34982927Y10973816D01*
X34937000Y10925985D01*
X34936332Y10924473D01*
X34946192Y10872733D01*
X34985278Y10755304D01*
X35049528Y10581846D01*
X35134880Y10362021D01*
X35237273Y10105487D01*
X35352646Y9821904D01*
X35476937Y9520933D01*
X35606084Y9212233D01*
X35736026Y8905464D01*
X35862702Y8610286D01*
X35982049Y8336360D01*
X36090006Y8093344D01*
X36182512Y7890899D01*
X36255504Y7738685D01*
X36304923Y7646362D01*
X36324823Y7622115D01*
X36385634Y7640996D01*
X36499418Y7691636D01*
X36646555Y7764983D01*
X36727462Y7807864D01*
X37071065Y7993647D01*
X37480393Y7716782D01*
X37689346Y7574946D01*
X37918113Y7418859D01*
X38132491Y7271891D01*
X38239871Y7197885D01*
X38390898Y7096469D01*
X38518782Y7016102D01*
X38606842Y6966959D01*
X38635445Y6956571D01*
X38677076Y6984595D01*
X38769211Y7062828D01*
X38902918Y7183148D01*
X39069265Y7337432D01*
X39259320Y7517557D01*
X39379521Y7633210D01*
X39589815Y7839833D01*
X39771556Y8024642D01*
X39917397Y8179730D01*
X40019991Y8297193D01*
X40071991Y8369125D01*
X40076980Y8383722D01*
X40053829Y8439247D01*
X39989854Y8551516D01*
X39892153Y8709163D01*
X39767820Y8900821D01*
X39623954Y9115124D01*
X39583041Y9174870D01*
X39433967Y9392018D01*
X39300225Y9587525D01*
X39189291Y9750401D01*
X39108644Y9869663D01*
X39065759Y9934322D01*
X39061617Y9941008D01*
X39067812Y9992538D01*
X39100700Y10105834D01*
X39154545Y10265958D01*
X39223613Y10457968D01*
X39302169Y10666926D01*
X39384480Y10877891D01*
X39464811Y11075924D01*
X39537428Y11246084D01*
X39596595Y11373433D01*
X39636580Y11443029D01*
X39639422Y11446368D01*
X39663873Y11466258D01*
X39705169Y11485927D01*
X39772377Y11507411D01*
X39874559Y11532747D01*
X40020781Y11563971D01*
X40220107Y11603118D01*
X40481603Y11652225D01*
X40814331Y11713328D01*
X40886372Y11726466D01*
X41099885Y11767718D01*
X41286022Y11808074D01*
X41428334Y11843639D01*
X41510371Y11870520D01*
X41521372Y11876787D01*
X41539498Y11932346D01*
X41554233Y12056505D01*
X41565564Y12234831D01*
X41573484Y12452891D01*
X41577981Y12696254D01*
X41579046Y12950486D01*
X41576670Y13201155D01*
X41570841Y13433829D01*
X41561551Y13634076D01*
X41548789Y13787462D01*
X41532546Y13879556D01*
X41522754Y13898405D01*
X41468239Y13917418D01*
X41344104Y13948350D01*
X41162715Y13988518D01*
X40936440Y14035238D01*
X40677647Y14085827D01*
X40536649Y14112341D01*
X40269127Y14162350D01*
X40030562Y14207654D01*
X39832614Y14245979D01*
X39686943Y14275053D01*
X39605209Y14292603D01*
X39591757Y14296494D01*
X39569021Y14340362D01*
X39520960Y14446024D01*
X39453981Y14598387D01*
X39374490Y14782354D01*
X39288892Y14982830D01*
X39203595Y15184719D01*
X39125005Y15372927D01*
X39059527Y15532358D01*
X39013569Y15647916D01*
X38993537Y15704506D01*
X38993164Y15706979D01*
X39015874Y15751621D01*
X39079541Y15854353D01*
X39177475Y16004963D01*
X39302983Y16193243D01*
X39449374Y16408982D01*
X39534475Y16532902D01*
X39689545Y16760117D01*
X39827275Y16966405D01*
X39940947Y17141329D01*
X40023839Y17274455D01*
X40069231Y17355347D01*
X40075787Y17373480D01*
X40047605Y17415688D01*
X39969696Y17505809D01*
X39852010Y17633746D01*
X39704500Y17789404D01*
X39537119Y17962685D01*
X39359819Y18143493D01*
X39182552Y18321733D01*
X39015270Y18487307D01*
X38867925Y18630120D01*
X38750470Y18740075D01*
X38672857Y18807076D01*
X38646892Y18823065D01*
X38604616Y18800581D01*
X38503499Y18737415D01*
X38353373Y18639997D01*
X38164070Y18514757D01*
X37945421Y18368125D01*
X37780489Y18256414D01*
X36947169Y17689763D01*
X36252544Y17976111D01*
X35557918Y18262458D01*
X35369666Y19261040D01*
X35181413Y20259623D01*
X33102948Y20259623D01*
X32914695Y19261040D01*
G36*
X28204131Y5458769D02*
G01*
X28060908Y5415011D01*
X27968694Y5359720D01*
X27938656Y5315996D01*
X27946924Y5264166D01*
X28000573Y5182741D01*
X28045937Y5125073D01*
X28139454Y5020818D01*
X28209713Y4976955D01*
X28269607Y4979818D01*
X28447280Y5025033D01*
X28577766Y5022980D01*
X28683727Y4971739D01*
X28719300Y4941748D01*
X28833164Y4836222D01*
X28833164Y3458147D01*
X29291197Y3458147D01*
X29291197Y5456836D01*
X29062180Y5456836D01*
X28924682Y5451398D01*
X28853742Y5432091D01*
X28833173Y5394424D01*
X28833164Y5393308D01*
X28823450Y5353854D01*
X28779522Y5359000D01*
X28718656Y5387464D01*
X28592946Y5440431D01*
X28490866Y5472297D01*
X28359520Y5480467D01*
X28204131Y5458769D01*
G37*
X28204131Y5458769D02*
X28060908Y5415011D01*
X27968694Y5359720D01*
X27938656Y5315996D01*
X27946924Y5264166D01*
X28000573Y5182741D01*
X28045937Y5125073D01*
X28139454Y5020818D01*
X28209713Y4976955D01*
X28269607Y4979818D01*
X28447280Y5025033D01*
X28577766Y5022980D01*
X28683727Y4971739D01*
X28719300Y4941748D01*
X28833164Y4836222D01*
X28833164Y3458147D01*
X29291197Y3458147D01*
X29291197Y5456836D01*
X29062180Y5456836D01*
X28924682Y5451398D01*
X28853742Y5432091D01*
X28833173Y5394424D01*
X28833164Y5393308D01*
X28823450Y5353854D01*
X28779522Y5359000D01*
X28718656Y5387464D01*
X28592946Y5440431D01*
X28490866Y5472297D01*
X28359520Y5480467D01*
X28204131Y5458769D01*
G36*
X36659892Y5422437D02*
G01*
X36556260Y5372938D01*
X36455894Y5301439D01*
X36379432Y5219147D01*
X36323738Y5114189D01*
X36285677Y4974687D01*
X36262115Y4788767D01*
X36249915Y4544552D01*
X36245944Y4230167D01*
X36245882Y4197246D01*
X36244967Y3458147D01*
X36703000Y3458147D01*
X36703000Y4139519D01*
X36703326Y4391950D01*
X36705581Y4574907D01*
X36711681Y4702193D01*
X36723541Y4787614D01*
X36743076Y4844974D01*
X36772203Y4888076D01*
X36812776Y4930666D01*
X36954731Y5022176D01*
X37109694Y5039157D01*
X37257323Y4981299D01*
X37308663Y4938237D01*
X37346353Y4897751D01*
X37373413Y4854393D01*
X37391603Y4794537D01*
X37402684Y4704559D01*
X37408414Y4570832D01*
X37410556Y4379730D01*
X37410869Y4147089D01*
X37410869Y3458147D01*
X37868902Y3458147D01*
X37868902Y5456836D01*
X37639885Y5456836D01*
X37502386Y5451398D01*
X37431447Y5432091D01*
X37410878Y5394424D01*
X37410869Y5393308D01*
X37401325Y5356419D01*
X37359233Y5360605D01*
X37275541Y5401139D01*
X37085727Y5460776D01*
X36868599Y5467409D01*
X36659892Y5422437D01*
G37*
X36659892Y5422437D02*
X36556260Y5372938D01*
X36455894Y5301439D01*
X36379432Y5219147D01*
X36323738Y5114189D01*
X36285677Y4974687D01*
X36262115Y4788767D01*
X36249915Y4544552D01*
X36245944Y4230167D01*
X36245882Y4197246D01*
X36244967Y3458147D01*
X36703000Y3458147D01*
X36703000Y4139519D01*
X36703326Y4391950D01*
X36705581Y4574907D01*
X36711681Y4702193D01*
X36723541Y4787614D01*
X36743076Y4844974D01*
X36772203Y4888076D01*
X36812776Y4930666D01*
X36954731Y5022176D01*
X37109694Y5039157D01*
X37257323Y4981299D01*
X37308663Y4938237D01*
X37346353Y4897751D01*
X37373413Y4854393D01*
X37391603Y4794537D01*
X37402684Y4704559D01*
X37408414Y4570832D01*
X37410556Y4379730D01*
X37410869Y4147089D01*
X37410869Y3458147D01*
X37868902Y3458147D01*
X37868902Y5456836D01*
X37639885Y5456836D01*
X37502386Y5451398D01*
X37431447Y5432091D01*
X37410878Y5394424D01*
X37410869Y5393308D01*
X37401325Y5356419D01*
X37359233Y5360605D01*
X37275541Y5401139D01*
X37085727Y5460776D01*
X36868599Y5467409D01*
X36659892Y5422437D01*
G36*
X25295208Y5463981D02*
G01*
X25188586Y5438078D01*
X24984170Y5343228D01*
X24809375Y5198367D01*
X24688403Y5024680D01*
X24671783Y4985683D01*
X24648984Y4883535D01*
X24633025Y4732427D01*
X24627590Y4579699D01*
X24627590Y4290934D01*
X25231361Y4290934D01*
X25480381Y4289993D01*
X25655811Y4284277D01*
X25767335Y4269450D01*
X25824640Y4241173D01*
X25837412Y4195110D01*
X25815338Y4126923D01*
X25775795Y4047137D01*
X25665491Y3913983D01*
X25512208Y3847645D01*
X25324859Y3849806D01*
X25112637Y3922009D01*
X24929227Y4011117D01*
X24777038Y3890780D01*
X24624849Y3770442D01*
X24768026Y3638157D01*
X24959172Y3513168D01*
X25194247Y3437811D01*
X25447102Y3416722D01*
X25691587Y3454540D01*
X25731033Y3467372D01*
X25945910Y3579586D01*
X26105750Y3746882D01*
X26213920Y3974252D01*
X26273790Y4266692D01*
X26274487Y4272960D01*
X26279848Y4591668D01*
X26258177Y4705368D01*
X25835131Y4705368D01*
X25796278Y4687884D01*
X25690795Y4674492D01*
X25535293Y4666845D01*
X25436751Y4665688D01*
X25252987Y4666412D01*
X25138086Y4671017D01*
X25077634Y4683152D01*
X25057217Y4706470D01*
X25062419Y4744618D01*
X25066783Y4759377D01*
X25141276Y4898056D01*
X25258434Y5009821D01*
X25361827Y5058934D01*
X25499184Y5055968D01*
X25638371Y4994722D01*
X25755126Y4893317D01*
X25825190Y4769878D01*
X25835131Y4705368D01*
X26258177Y4705368D01*
X26226421Y4871980D01*
X26120428Y5107220D01*
X25968089Y5290716D01*
X25775626Y5415791D01*
X25549258Y5475771D01*
X25295208Y5463981D01*
G37*
X25295208Y5463981D02*
X25188586Y5438078D01*
X24984170Y5343228D01*
X24809375Y5198367D01*
X24688403Y5024680D01*
X24671783Y4985683D01*
X24648984Y4883535D01*
X24633025Y4732427D01*
X24627590Y4579699D01*
X24627590Y4290934D01*
X25231361Y4290934D01*
X25480381Y4289993D01*
X25655811Y4284277D01*
X25767335Y4269450D01*
X25824640Y4241173D01*
X25837412Y4195110D01*
X25815338Y4126923D01*
X25775795Y4047137D01*
X25665491Y3913983D01*
X25512208Y3847645D01*
X25324859Y3849806D01*
X25112637Y3922009D01*
X24929227Y4011117D01*
X24777038Y3890780D01*
X24624849Y3770442D01*
X24768026Y3638157D01*
X24959172Y3513168D01*
X25194247Y3437811D01*
X25447102Y3416722D01*
X25691587Y3454540D01*
X25731033Y3467372D01*
X25945910Y3579586D01*
X26105750Y3746882D01*
X26213920Y3974252D01*
X26273790Y4266692D01*
X26274487Y4272960D01*
X26279848Y4591668D01*
X26258177Y4705368D01*
X25835131Y4705368D01*
X25796278Y4687884D01*
X25690795Y4674492D01*
X25535293Y4666845D01*
X25436751Y4665688D01*
X25252987Y4666412D01*
X25138086Y4671017D01*
X25077634Y4683152D01*
X25057217Y4706470D01*
X25062419Y4744618D01*
X25066783Y4759377D01*
X25141276Y4898056D01*
X25258434Y5009821D01*
X25361827Y5058934D01*
X25499184Y5055968D01*
X25638371Y4994722D01*
X25755126Y4893317D01*
X25825190Y4769878D01*
X25835131Y4705368D01*
X26258177Y4705368D01*
X26226421Y4871980D01*
X26120428Y5107220D01*
X25968089Y5290716D01*
X25775626Y5415791D01*
X25549258Y5475771D01*
X25295208Y5463981D01*
G36*
X26820712Y5439398D02*
G01*
X26579457Y5336910D01*
X26503469Y5287019D01*
X26406352Y5210349D01*
X26345388Y5150064D01*
X26334803Y5130429D01*
X26364692Y5086858D01*
X26441181Y5012923D01*
X26502418Y4961321D01*
X26670033Y4826622D01*
X26802386Y4937990D01*
X26904664Y5009887D01*
X27004390Y5034704D01*
X27118525Y5028643D01*
X27299766Y4983582D01*
X27424525Y4890051D01*
X27500342Y4738846D01*
X27534760Y4520764D01*
X27534769Y4520627D01*
X27531792Y4276876D01*
X27485533Y4098034D01*
X27393258Y3976270D01*
X27330350Y3935036D01*
X27163283Y3883689D01*
X26984838Y3883658D01*
X26829585Y3933478D01*
X26792836Y3957820D01*
X26700670Y4019996D01*
X26628613Y4030187D01*
X26550898Y3983908D01*
X26464982Y3900788D01*
X26328989Y3760479D01*
X26479977Y3636022D01*
X26713260Y3495557D01*
X26976327Y3426334D01*
X27251240Y3431347D01*
X27431784Y3477245D01*
X27642806Y3590751D01*
X27811574Y3769315D01*
X27888247Y3895361D01*
X27950346Y4076209D01*
X27981419Y4305255D01*
X27981658Y4553490D01*
X27951257Y4791907D01*
X27890408Y4991497D01*
X27880824Y5011961D01*
X27738898Y5212659D01*
X27546741Y5358783D01*
X27319536Y5447302D01*
X27072465Y5475185D01*
X26820712Y5439398D01*
G37*
X26820712Y5439398D02*
X26579457Y5336910D01*
X26503469Y5287019D01*
X26406352Y5210349D01*
X26345388Y5150064D01*
X26334803Y5130429D01*
X26364692Y5086858D01*
X26441181Y5012923D01*
X26502418Y4961321D01*
X26670033Y4826622D01*
X26802386Y4937990D01*
X26904664Y5009887D01*
X27004390Y5034704D01*
X27118525Y5028643D01*
X27299766Y4983582D01*
X27424525Y4890051D01*
X27500342Y4738846D01*
X27534760Y4520764D01*
X27534769Y4520627D01*
X27531792Y4276876D01*
X27485533Y4098034D01*
X27393258Y3976270D01*
X27330350Y3935036D01*
X27163283Y3883689D01*
X26984838Y3883658D01*
X26829585Y3933478D01*
X26792836Y3957820D01*
X26700670Y4019996D01*
X26628613Y4030187D01*
X26550898Y3983908D01*
X26464982Y3900788D01*
X26328989Y3760479D01*
X26479977Y3636022D01*
X26713260Y3495557D01*
X26976327Y3426334D01*
X27251240Y3431347D01*
X27431784Y3477245D01*
X27642806Y3590751D01*
X27811574Y3769315D01*
X27888247Y3895361D01*
X27950346Y4076209D01*
X27981419Y4305255D01*
X27981658Y4553490D01*
X27951257Y4791907D01*
X27890408Y4991497D01*
X27880824Y5011961D01*
X27738898Y5212659D01*
X27546741Y5358783D01*
X27319536Y5447302D01*
X27072465Y5475185D01*
X26820712Y5439398D01*
G36*
X30873492Y4808689D02*
G01*
X30869556Y4503302D01*
X30855177Y4271340D01*
X30826496Y4103214D01*
X30779652Y3989329D01*
X30710789Y3920095D01*
X30616046Y3885920D01*
X30498738Y3877189D01*
X30375877Y3886972D01*
X30282556Y3922713D01*
X30214916Y3994005D01*
X30169099Y4110439D01*
X30141245Y4281609D01*
X30127496Y4517104D01*
X30123984Y4808689D01*
X30123984Y5456836D01*
X29665951Y5456836D01*
X29665951Y3458147D01*
X29894967Y3458147D01*
X30033029Y3463742D01*
X30104122Y3483389D01*
X30123984Y3520687D01*
X30135946Y3553906D01*
X30183553Y3546879D01*
X30279515Y3499868D01*
X30499452Y3427346D01*
X30732726Y3432484D01*
X30956245Y3511234D01*
X31062687Y3573442D01*
X31143878Y3640796D01*
X31203192Y3725072D01*
X31244004Y3838043D01*
X31269688Y3991485D01*
X31283619Y4197173D01*
X31289171Y4466882D01*
X31289885Y4675449D01*
X31289885Y5456836D01*
X30873492Y5456836D01*
X30873492Y4808689D01*
G37*
X30873492Y4808689D02*
X30869556Y4503302D01*
X30855177Y4271340D01*
X30826496Y4103214D01*
X30779652Y3989329D01*
X30710789Y3920095D01*
X30616046Y3885920D01*
X30498738Y3877189D01*
X30375877Y3886972D01*
X30282556Y3922713D01*
X30214916Y3994005D01*
X30169099Y4110439D01*
X30141245Y4281609D01*
X30127496Y4517104D01*
X30123984Y4808689D01*
X30123984Y5456836D01*
X29665951Y5456836D01*
X29665951Y3458147D01*
X29894967Y3458147D01*
X30033029Y3463742D01*
X30104122Y3483389D01*
X30123984Y3520687D01*
X30135946Y3553906D01*
X30183553Y3546879D01*
X30279515Y3499868D01*
X30499452Y3427346D01*
X30732726Y3432484D01*
X30956245Y3511234D01*
X31062687Y3573442D01*
X31143878Y3640796D01*
X31203192Y3725072D01*
X31244004Y3838043D01*
X31269688Y3991485D01*
X31283619Y4197173D01*
X31289171Y4466882D01*
X31289885Y4675449D01*
X31289885Y5456836D01*
X30873492Y5456836D01*
X30873492Y4808689D01*
G36*
X32140479Y5432195D02*
G01*
X31929864Y5317495D01*
X31765085Y5136426D01*
X31687446Y4989162D01*
X31654114Y4859093D01*
X31632517Y4673667D01*
X31623261Y4460061D01*
X31626955Y4245450D01*
X31644206Y4057009D01*
X31664357Y3956363D01*
X31732333Y3818677D01*
X31850058Y3672434D01*
X31991935Y3544548D01*
X32132368Y3461937D01*
X32135793Y3460627D01*
X32310055Y3424528D01*
X32516573Y3423635D01*
X32712826Y3456499D01*
X32788604Y3482839D01*
X32983779Y3593516D01*
X33123562Y3738522D01*
X33215401Y3930497D01*
X33266746Y4182080D01*
X33278363Y4313858D01*
X33276881Y4479447D01*
X32830541Y4479447D01*
X32815506Y4237823D01*
X32772228Y4053697D01*
X32703449Y3936051D01*
X32654450Y3902410D01*
X32528907Y3878950D01*
X32379682Y3885896D01*
X32250667Y3919655D01*
X32216834Y3938228D01*
X32127572Y4046401D01*
X32068655Y4211949D01*
X32043576Y4413419D01*
X32055826Y4629354D01*
X32083204Y4759310D01*
X32161809Y4909809D01*
X32285896Y5003886D01*
X32435339Y5036413D01*
X32590013Y5002262D01*
X32708826Y4918727D01*
X32771265Y4849807D01*
X32807707Y4781874D01*
X32825077Y4689936D01*
X32830301Y4549001D01*
X32830541Y4479447D01*
X33276881Y4479447D01*
X33275215Y4665505D01*
X33217944Y4953866D01*
X33106543Y5178951D01*
X32941007Y5340770D01*
X32721330Y5439334D01*
X32674158Y5450764D01*
X32390664Y5477594D01*
X32140479Y5432195D01*
G37*
X32140479Y5432195D02*
X31929864Y5317495D01*
X31765085Y5136426D01*
X31687446Y4989162D01*
X31654114Y4859093D01*
X31632517Y4673667D01*
X31623261Y4460061D01*
X31626955Y4245450D01*
X31644206Y4057009D01*
X31664357Y3956363D01*
X31732333Y3818677D01*
X31850058Y3672434D01*
X31991935Y3544548D01*
X32132368Y3461937D01*
X32135793Y3460627D01*
X32310055Y3424528D01*
X32516573Y3423635D01*
X32712826Y3456499D01*
X32788604Y3482839D01*
X32983779Y3593516D01*
X33123562Y3738522D01*
X33215401Y3930497D01*
X33266746Y4182080D01*
X33278363Y4313858D01*
X33276881Y4479447D01*
X32830541Y4479447D01*
X32815506Y4237823D01*
X32772228Y4053697D01*
X32703449Y3936051D01*
X32654450Y3902410D01*
X32528907Y3878950D01*
X32379682Y3885896D01*
X32250667Y3919655D01*
X32216834Y3938228D01*
X32127572Y4046401D01*
X32068655Y4211949D01*
X32043576Y4413419D01*
X32055826Y4629354D01*
X32083204Y4759310D01*
X32161809Y4909809D01*
X32285896Y5003886D01*
X32435339Y5036413D01*
X32590013Y5002262D01*
X32708826Y4918727D01*
X32771265Y4849807D01*
X32807707Y4781874D01*
X32825077Y4689936D01*
X32830301Y4549001D01*
X32830541Y4479447D01*
X33276881Y4479447D01*
X33275215Y4665505D01*
X33217944Y4953866D01*
X33106543Y5178951D01*
X32941007Y5340770D01*
X32721330Y5439334D01*
X32674158Y5450764D01*
X32390664Y5477594D01*
X32140479Y5432195D01*
G36*
X34116582Y5463997D02*
G01*
X33958900Y5434093D01*
X33795315Y5371548D01*
X33777836Y5363574D01*
X33653783Y5298344D01*
X33567871Y5237726D01*
X33540102Y5198894D01*
X33566547Y5135563D01*
X33630780Y5042119D01*
X33659292Y5007238D01*
X33776789Y4869934D01*
X33928268Y4959309D01*
X34072430Y5018848D01*
X34239000Y5050674D01*
X34398738Y5052684D01*
X34522406Y5022779D01*
X34552084Y5004114D01*
X34608602Y4918534D01*
X34615471Y4819951D01*
X34573180Y4742938D01*
X34548164Y4728002D01*
X34473204Y4709453D01*
X34341439Y4687652D01*
X34179009Y4666820D01*
X34149044Y4663553D01*
X33888160Y4618425D01*
X33698945Y4541770D01*
X33573457Y4426509D01*
X33503757Y4265565D01*
X33482044Y4068985D01*
X33512039Y3845527D01*
X33609441Y3670051D01*
X33774639Y3542242D01*
X34008023Y3461782D01*
X34267098Y3430038D01*
X34478367Y3430420D01*
X34649735Y3459251D01*
X34766770Y3499056D01*
X34914650Y3568413D01*
X35051313Y3648903D01*
X35099885Y3684330D01*
X35224803Y3786295D01*
X34923491Y4091187D01*
X34752204Y3977835D01*
X34580406Y3892700D01*
X34396952Y3848170D01*
X34220603Y3843472D01*
X34070119Y3877830D01*
X33964260Y3950471D01*
X33930079Y4011762D01*
X33935206Y4110059D01*
X34020143Y4185227D01*
X34184657Y4237134D01*
X34364899Y4261125D01*
X34642291Y4306896D01*
X34848365Y4393252D01*
X34985878Y4522720D01*
X35057587Y4697828D01*
X35067521Y4905435D01*
X35018452Y5122286D01*
X34906580Y5286195D01*
X34730903Y5397912D01*
X34490419Y5458186D01*
X34312257Y5470001D01*
X34116582Y5463997D01*
G37*
X34116582Y5463997D02*
X33958900Y5434093D01*
X33795315Y5371548D01*
X33777836Y5363574D01*
X33653783Y5298344D01*
X33567871Y5237726D01*
X33540102Y5198894D01*
X33566547Y5135563D01*
X33630780Y5042119D01*
X33659292Y5007238D01*
X33776789Y4869934D01*
X33928268Y4959309D01*
X34072430Y5018848D01*
X34239000Y5050674D01*
X34398738Y5052684D01*
X34522406Y5022779D01*
X34552084Y5004114D01*
X34608602Y4918534D01*
X34615471Y4819951D01*
X34573180Y4742938D01*
X34548164Y4728002D01*
X34473204Y4709453D01*
X34341439Y4687652D01*
X34179009Y4666820D01*
X34149044Y4663553D01*
X33888160Y4618425D01*
X33698945Y4541770D01*
X33573457Y4426509D01*
X33503757Y4265565D01*
X33482044Y4068985D01*
X33512039Y3845527D01*
X33609441Y3670051D01*
X33774639Y3542242D01*
X34008023Y3461782D01*
X34267098Y3430038D01*
X34478367Y3430420D01*
X34649735Y3459251D01*
X34766770Y3499056D01*
X34914650Y3568413D01*
X35051313Y3648903D01*
X35099885Y3684330D01*
X35224803Y3786295D01*
X34923491Y4091187D01*
X34752204Y3977835D01*
X34580406Y3892700D01*
X34396952Y3848170D01*
X34220603Y3843472D01*
X34070119Y3877830D01*
X33964260Y3950471D01*
X33930079Y4011762D01*
X33935206Y4110059D01*
X34020143Y4185227D01*
X34184657Y4237134D01*
X34364899Y4261125D01*
X34642291Y4306896D01*
X34848365Y4393252D01*
X34985878Y4522720D01*
X35057587Y4697828D01*
X35067521Y4905435D01*
X35018452Y5122286D01*
X34906580Y5286195D01*
X34730903Y5397912D01*
X34490419Y5458186D01*
X34312257Y5470001D01*
X34116582Y5463997D01*
G36*
X38655675Y5410474D02*
G01*
X38614181Y5390939D01*
X38470566Y5285737D01*
X38334764Y5132207D01*
X38233362Y4963155D01*
X38204520Y4885433D01*
X38178206Y4746602D01*
X38162515Y4578823D01*
X38160609Y4509541D01*
X38160377Y4290934D01*
X39418585Y4290934D01*
X39391766Y4176426D01*
X39325934Y4040996D01*
X39210839Y3923954D01*
X39073913Y3848558D01*
X38986658Y3832902D01*
X38868328Y3851901D01*
X38727149Y3899554D01*
X38679189Y3921479D01*
X38501829Y4010056D01*
X38350470Y3894609D01*
X38263131Y3816526D01*
X38216658Y3752078D01*
X38214305Y3733163D01*
X38255822Y3687319D01*
X38346810Y3617651D01*
X38429395Y3563300D01*
X38652249Y3465595D01*
X38902087Y3421372D01*
X39149710Y3432870D01*
X39347098Y3492971D01*
X39550576Y3621716D01*
X39695179Y3791226D01*
X39785639Y4010538D01*
X39826689Y4288691D01*
X39830329Y4415966D01*
X39815761Y4707625D01*
X39813972Y4716109D01*
X39397059Y4716109D01*
X39385577Y4688758D01*
X39338384Y4673676D01*
X39241049Y4667212D01*
X39079136Y4665715D01*
X39016790Y4665688D01*
X38827103Y4667948D01*
X38706811Y4676156D01*
X38642116Y4692450D01*
X38619220Y4718973D01*
X38618410Y4727490D01*
X38644540Y4795175D01*
X38709937Y4889995D01*
X38738052Y4923195D01*
X38842426Y5017094D01*
X38951225Y5054012D01*
X39009843Y5057098D01*
X39168426Y5018507D01*
X39301413Y4914845D01*
X39385772Y4764283D01*
X39387267Y4759377D01*
X39397059Y4716109D01*
X39813972Y4716109D01*
X39767316Y4937278D01*
X39680045Y5121017D01*
X39573311Y5251443D01*
X39375980Y5392869D01*
X39144015Y5468444D01*
X38897288Y5475276D01*
X38655675Y5410474D01*
G37*
X38655675Y5410474D02*
X38614181Y5390939D01*
X38470566Y5285737D01*
X38334764Y5132207D01*
X38233362Y4963155D01*
X38204520Y4885433D01*
X38178206Y4746602D01*
X38162515Y4578823D01*
X38160609Y4509541D01*
X38160377Y4290934D01*
X39418585Y4290934D01*
X39391766Y4176426D01*
X39325934Y4040996D01*
X39210839Y3923954D01*
X39073913Y3848558D01*
X38986658Y3832902D01*
X38868328Y3851901D01*
X38727149Y3899554D01*
X38679189Y3921479D01*
X38501829Y4010056D01*
X38350470Y3894609D01*
X38263131Y3816526D01*
X38216658Y3752078D01*
X38214305Y3733163D01*
X38255822Y3687319D01*
X38346810Y3617651D01*
X38429395Y3563300D01*
X38652249Y3465595D01*
X38902087Y3421372D01*
X39149710Y3432870D01*
X39347098Y3492971D01*
X39550576Y3621716D01*
X39695179Y3791226D01*
X39785639Y4010538D01*
X39826689Y4288691D01*
X39830329Y4415966D01*
X39815761Y4707625D01*
X39813972Y4716109D01*
X39397059Y4716109D01*
X39385577Y4688758D01*
X39338384Y4673676D01*
X39241049Y4667212D01*
X39079136Y4665715D01*
X39016790Y4665688D01*
X38827103Y4667948D01*
X38706811Y4676156D01*
X38642116Y4692450D01*
X38619220Y4718973D01*
X38618410Y4727490D01*
X38644540Y4795175D01*
X38709937Y4889995D01*
X38738052Y4923195D01*
X38842426Y5017094D01*
X38951225Y5054012D01*
X39009843Y5057098D01*
X39168426Y5018507D01*
X39301413Y4914845D01*
X39385772Y4764283D01*
X39387267Y4759377D01*
X39397059Y4716109D01*
X39813972Y4716109D01*
X39767316Y4937278D01*
X39680045Y5121017D01*
X39573311Y5251443D01*
X39375980Y5392869D01*
X39144015Y5468444D01*
X38897288Y5475276D01*
X38655675Y5410474D01*
G36*
X42568390Y5435198D02*
G01*
X42350553Y5338892D01*
X42185184Y5178081D01*
X42072043Y4952518D01*
X42010888Y4661958D01*
X42006505Y4616592D01*
X42003070Y4296744D01*
X42047602Y4016386D01*
X42137391Y3789153D01*
X42185471Y3716059D01*
X42352945Y3561357D01*
X42566232Y3461162D01*
X42804846Y3419582D01*
X43048303Y3440728D01*
X43233370Y3505855D01*
X43392521Y3615607D01*
X43522596Y3759504D01*
X43524846Y3762870D01*
X43577670Y3851686D01*
X43611999Y3940995D01*
X43632788Y4053706D01*
X43644991Y4212727D01*
X43650367Y4343132D01*
X43652605Y4461389D01*
X43236294Y4461389D01*
X43232225Y4343665D01*
X43217455Y4186951D01*
X43191398Y4086379D01*
X43144407Y4014827D01*
X43100397Y3973029D01*
X42944377Y3885516D01*
X42781131Y3873821D01*
X42629096Y3936788D01*
X42553080Y4007347D01*
X42498303Y4078450D01*
X42466263Y4146488D01*
X42452200Y4235033D01*
X42451358Y4367661D01*
X42455691Y4489805D01*
X42465011Y4664290D01*
X42479788Y4777462D01*
X42506420Y4851279D01*
X42551309Y4907702D01*
X42586880Y4939950D01*
X42735671Y5024660D01*
X42896187Y5028883D01*
X43030780Y4978708D01*
X43145600Y4873925D01*
X43214004Y4701802D01*
X43236294Y4461389D01*
X43652605Y4461389D01*
X43655276Y4602452D01*
X43646893Y4796390D01*
X43621772Y4942255D01*
X43576468Y5057359D01*
X43507536Y5159014D01*
X43481978Y5189198D01*
X43322175Y5339588D01*
X43150769Y5427434D01*
X42941151Y5464238D01*
X42838936Y5467246D01*
X42568390Y5435198D01*
G37*
X42568390Y5435198D02*
X42350553Y5338892D01*
X42185184Y5178081D01*
X42072043Y4952518D01*
X42010888Y4661958D01*
X42006505Y4616592D01*
X42003070Y4296744D01*
X42047602Y4016386D01*
X42137391Y3789153D01*
X42185471Y3716059D01*
X42352945Y3561357D01*
X42566232Y3461162D01*
X42804846Y3419582D01*
X43048303Y3440728D01*
X43233370Y3505855D01*
X43392521Y3615607D01*
X43522596Y3759504D01*
X43524846Y3762870D01*
X43577670Y3851686D01*
X43611999Y3940995D01*
X43632788Y4053706D01*
X43644991Y4212727D01*
X43650367Y4343132D01*
X43652605Y4461389D01*
X43236294Y4461389D01*
X43232225Y4343665D01*
X43217455Y4186951D01*
X43191398Y4086379D01*
X43144407Y4014827D01*
X43100397Y3973029D01*
X42944377Y3885516D01*
X42781131Y3873821D01*
X42629096Y3936788D01*
X42553080Y4007347D01*
X42498303Y4078450D01*
X42466263Y4146488D01*
X42452200Y4235033D01*
X42451358Y4367661D01*
X42455691Y4489805D01*
X42465011Y4664290D01*
X42479788Y4777462D01*
X42506420Y4851279D01*
X42551309Y4907702D01*
X42586880Y4939950D01*
X42735671Y5024660D01*
X42896187Y5028883D01*
X43030780Y4978708D01*
X43145600Y4873925D01*
X43214004Y4701802D01*
X43236294Y4461389D01*
X43652605Y4461389D01*
X43655276Y4602452D01*
X43646893Y4796390D01*
X43621772Y4942255D01*
X43576468Y5057359D01*
X43507536Y5159014D01*
X43481978Y5189198D01*
X43322175Y5339588D01*
X43150769Y5427434D01*
X42941151Y5464238D01*
X42838936Y5467246D01*
X42568390Y5435198D01*
G36*
X27432158Y2323001D02*
G01*
X27233124Y2271254D01*
X27066439Y2164456D01*
X26985731Y2084674D01*
X26853432Y1896069D01*
X26777610Y1677280D01*
X26751562Y1408332D01*
X26751429Y1386590D01*
X26751197Y1167983D01*
X28009405Y1167983D01*
X27982585Y1053475D01*
X27934159Y949768D01*
X27849404Y841710D01*
X27831677Y824459D01*
X27679320Y731096D01*
X27505576Y715262D01*
X27305589Y776687D01*
X27271689Y793229D01*
X27167712Y843516D01*
X27098069Y872166D01*
X27085917Y874816D01*
X27043499Y849087D01*
X26962601Y786139D01*
X26921535Y751741D01*
X26836440Y672724D01*
X26808497Y620549D01*
X26827890Y572554D01*
X26838257Y559430D01*
X26908469Y501992D01*
X27024326Y432187D01*
X27105131Y391436D01*
X27334499Y319638D01*
X27588436Y296375D01*
X27828926Y323941D01*
X27896279Y343679D01*
X28104738Y455388D01*
X28259254Y627279D01*
X28360722Y861021D01*
X28410035Y1158284D01*
X28415449Y1313721D01*
X28399641Y1540027D01*
X28000377Y1540027D01*
X27961760Y1523298D01*
X27857958Y1510171D01*
X27707044Y1502425D01*
X27604803Y1501098D01*
X27420899Y1502377D01*
X27304826Y1508362D01*
X27241148Y1522276D01*
X27214433Y1547345D01*
X27209230Y1583720D01*
X27244927Y1695771D01*
X27334804Y1806512D01*
X27453034Y1891511D01*
X27571310Y1926282D01*
X27731956Y1895437D01*
X27871022Y1806268D01*
X27967443Y1677737D01*
X28000377Y1540027D01*
X28399641Y1540027D01*
X28392428Y1643267D01*
X28321376Y1905825D01*
X28200790Y2103475D01*
X28029166Y2238298D01*
X27805002Y2312374D01*
X27683562Y2326640D01*
X27432158Y2323001D01*
G37*
X27432158Y2323001D02*
X27233124Y2271254D01*
X27066439Y2164456D01*
X26985731Y2084674D01*
X26853432Y1896069D01*
X26777610Y1677280D01*
X26751562Y1408332D01*
X26751429Y1386590D01*
X26751197Y1167983D01*
X28009405Y1167983D01*
X27982585Y1053475D01*
X27934159Y949768D01*
X27849404Y841710D01*
X27831677Y824459D01*
X27679320Y731096D01*
X27505576Y715262D01*
X27305589Y776687D01*
X27271689Y793229D01*
X27167712Y843516D01*
X27098069Y872166D01*
X27085917Y874816D01*
X27043499Y849087D01*
X26962601Y786139D01*
X26921535Y751741D01*
X26836440Y672724D01*
X26808497Y620549D01*
X26827890Y572554D01*
X26838257Y559430D01*
X26908469Y501992D01*
X27024326Y432187D01*
X27105131Y391436D01*
X27334499Y319638D01*
X27588436Y296375D01*
X27828926Y323941D01*
X27896279Y343679D01*
X28104738Y455388D01*
X28259254Y627279D01*
X28360722Y861021D01*
X28410035Y1158284D01*
X28415449Y1313721D01*
X28399641Y1540027D01*
X28000377Y1540027D01*
X27961760Y1523298D01*
X27857958Y1510171D01*
X27707044Y1502425D01*
X27604803Y1501098D01*
X27420899Y1502377D01*
X27304826Y1508362D01*
X27241148Y1522276D01*
X27214433Y1547345D01*
X27209230Y1583720D01*
X27244927Y1695771D01*
X27334804Y1806512D01*
X27453034Y1891511D01*
X27571310Y1926282D01*
X27731956Y1895437D01*
X27871022Y1806268D01*
X27967443Y1677737D01*
X28000377Y1540027D01*
X28399641Y1540027D01*
X28392428Y1643267D01*
X28321376Y1905825D01*
X28200790Y2103475D01*
X28029166Y2238298D01*
X27805002Y2312374D01*
X27683562Y2326640D01*
X27432158Y2323001D01*
G36*
X28747893Y2334540D02*
G01*
X28587818Y2302983D01*
X28496688Y2256257D01*
X28400821Y2178630D01*
X28537213Y2006421D01*
X28621306Y1902133D01*
X28678408Y1851254D01*
X28735156Y1843481D01*
X28818189Y1868512D01*
X28857167Y1882673D01*
X29016074Y1903567D01*
X29161601Y1858780D01*
X29268440Y1757601D01*
X29285795Y1725341D01*
X29304697Y1639885D01*
X29319284Y1482394D01*
X29328874Y1264031D01*
X29332781Y995962D01*
X29332836Y957828D01*
X29332836Y293557D01*
X29790869Y293557D01*
X29790869Y2333885D01*
X29561852Y2333885D01*
X29429801Y2330437D01*
X29361008Y2315093D01*
X29335570Y2280352D01*
X29332836Y2247584D01*
X29332836Y2161283D01*
X29223122Y2247584D01*
X29097320Y2306462D01*
X28928319Y2335574D01*
X28747893Y2334540D01*
G37*
X28747893Y2334540D02*
X28587818Y2302983D01*
X28496688Y2256257D01*
X28400821Y2178630D01*
X28537213Y2006421D01*
X28621306Y1902133D01*
X28678408Y1851254D01*
X28735156Y1843481D01*
X28818189Y1868512D01*
X28857167Y1882673D01*
X29016074Y1903567D01*
X29161601Y1858780D01*
X29268440Y1757601D01*
X29285795Y1725341D01*
X29304697Y1639885D01*
X29319284Y1482394D01*
X29328874Y1264031D01*
X29332781Y995962D01*
X29332836Y957828D01*
X29332836Y293557D01*
X29790869Y293557D01*
X29790869Y2333885D01*
X29561852Y2333885D01*
X29429801Y2330437D01*
X29361008Y2315093D01*
X29335570Y2280352D01*
X29332836Y2247584D01*
X29332836Y2161283D01*
X29223122Y2247584D01*
X29097320Y2306462D01*
X28928319Y2335574D01*
X28747893Y2334540D01*
G36*
X30724330Y2321520D02*
G01*
X30548821Y2278891D01*
X30498088Y2256307D01*
X30399746Y2197153D01*
X30324273Y2130528D01*
X30268429Y2044865D01*
X30228974Y1928595D01*
X30202668Y1770152D01*
X30186271Y1557966D01*
X30176543Y1280471D01*
X30172849Y1095115D01*
X30159255Y293557D01*
X30391456Y293557D01*
X30532323Y299464D01*
X30604898Y319650D01*
X30623656Y353547D01*
X30633559Y390201D01*
X30677834Y383193D01*
X30738164Y353803D01*
X30889197Y308754D01*
X31083307Y296615D01*
X31287469Y316471D01*
X31468660Y367408D01*
X31484911Y374478D01*
X31650509Y490812D01*
X31759676Y652533D01*
X31809909Y841570D01*
X31806072Y909485D01*
X31396237Y909485D01*
X31360125Y818086D01*
X31253058Y752589D01*
X31080316Y717437D01*
X30988000Y712769D01*
X30834150Y724718D01*
X30731885Y771156D01*
X30706934Y793229D01*
X30639339Y913319D01*
X30623656Y1022246D01*
X30623656Y1167983D01*
X30826648Y1167983D01*
X31062613Y1155957D01*
X31228119Y1118129D01*
X31332695Y1051879D01*
X31356109Y1022344D01*
X31396237Y909485D01*
X31806072Y909485D01*
X31798705Y1039852D01*
X31723560Y1229308D01*
X31621032Y1357344D01*
X31558935Y1412698D01*
X31498145Y1449076D01*
X31419048Y1471256D01*
X31302029Y1484018D01*
X31127473Y1492143D01*
X31058237Y1494479D01*
X30623656Y1508679D01*
X30624293Y1640216D01*
X30641124Y1778481D01*
X30701974Y1862083D01*
X30824905Y1915493D01*
X30828203Y1916445D01*
X31002496Y1937445D01*
X31173048Y1910015D01*
X31299800Y1843311D01*
X31350658Y1810375D01*
X31405435Y1814932D01*
X31489728Y1862651D01*
X31539227Y1896329D01*
X31636045Y1968284D01*
X31696018Y2022221D01*
X31705641Y2037663D01*
X31666015Y2117576D01*
X31548936Y2213011D01*
X31498082Y2245211D01*
X31351887Y2300668D01*
X31154863Y2332087D01*
X30936011Y2339145D01*
X30724330Y2321520D01*
G37*
X30724330Y2321520D02*
X30548821Y2278891D01*
X30498088Y2256307D01*
X30399746Y2197153D01*
X30324273Y2130528D01*
X30268429Y2044865D01*
X30228974Y1928595D01*
X30202668Y1770152D01*
X30186271Y1557966D01*
X30176543Y1280471D01*
X30172849Y1095115D01*
X30159255Y293557D01*
X30391456Y293557D01*
X30532323Y299464D01*
X30604898Y319650D01*
X30623656Y353547D01*
X30633559Y390201D01*
X30677834Y383193D01*
X30738164Y353803D01*
X30889197Y308754D01*
X31083307Y296615D01*
X31287469Y316471D01*
X31468660Y367408D01*
X31484911Y374478D01*
X31650509Y490812D01*
X31759676Y652533D01*
X31809909Y841570D01*
X31806072Y909485D01*
X31396237Y909485D01*
X31360125Y818086D01*
X31253058Y752589D01*
X31080316Y717437D01*
X30988000Y712769D01*
X30834150Y724718D01*
X30731885Y771156D01*
X30706934Y793229D01*
X30639339Y913319D01*
X30623656Y1022246D01*
X30623656Y1167983D01*
X30826648Y1167983D01*
X31062613Y1155957D01*
X31228119Y1118129D01*
X31332695Y1051879D01*
X31356109Y1022344D01*
X31396237Y909485D01*
X31806072Y909485D01*
X31798705Y1039852D01*
X31723560Y1229308D01*
X31621032Y1357344D01*
X31558935Y1412698D01*
X31498145Y1449076D01*
X31419048Y1471256D01*
X31302029Y1484018D01*
X31127473Y1492143D01*
X31058237Y1494479D01*
X30623656Y1508679D01*
X30624293Y1640216D01*
X30641124Y1778481D01*
X30701974Y1862083D01*
X30824905Y1915493D01*
X30828203Y1916445D01*
X31002496Y1937445D01*
X31173048Y1910015D01*
X31299800Y1843311D01*
X31350658Y1810375D01*
X31405435Y1814932D01*
X31489728Y1862651D01*
X31539227Y1896329D01*
X31636045Y1968284D01*
X31696018Y2022221D01*
X31705641Y2037663D01*
X31666015Y2117576D01*
X31548936Y2213011D01*
X31498082Y2245211D01*
X31351887Y2300668D01*
X31154863Y2332087D01*
X30936011Y2339145D01*
X30724330Y2321520D01*
G36*
X33066058Y2313065D02*
G01*
X32850752Y1667656D01*
X32635445Y1022246D01*
X32567936Y1251262D01*
X32527309Y1392796D01*
X32473867Y1584064D01*
X32416158Y1794307D01*
X32385645Y1907082D01*
X32270864Y2333885D01*
X31797313Y2333885D01*
X31938861Y1886262D01*
X32008567Y1666097D01*
X32092777Y1400529D01*
X32180719Y1123508D01*
X32259228Y876508D01*
X32438048Y314377D01*
X32631118Y301815D01*
X32824189Y289254D01*
X32928882Y634930D01*
X32993447Y849665D01*
X33063908Y1086396D01*
X33125489Y1295474D01*
X33127919Y1303795D01*
X33173915Y1445463D01*
X33214497Y1542126D01*
X33242920Y1578679D01*
X33248761Y1574451D01*
X33269262Y1517783D01*
X33308215Y1396395D01*
X33360878Y1225552D01*
X33422509Y1020518D01*
X33455857Y907738D01*
X33636454Y293557D01*
X34019733Y293557D01*
X34326133Y1261672D01*
X34412209Y1533241D01*
X34490620Y1779862D01*
X34557661Y1989952D01*
X34609631Y2151924D01*
X34642826Y2254192D01*
X34652916Y2284072D01*
X34644928Y2314666D01*
X34582208Y2328065D01*
X34451685Y2326725D01*
X34431253Y2325712D01*
X34189208Y2313065D01*
X34030683Y1730115D01*
X33972415Y1517514D01*
X33920345Y1330623D01*
X33879056Y1185669D01*
X33853134Y1098880D01*
X33848344Y1084731D01*
X33828496Y1101002D01*
X33788470Y1185303D01*
X33732862Y1326158D01*
X33666269Y1512089D01*
X33609976Y1680044D01*
X33395422Y2337791D01*
X33066058Y2313065D01*
G37*
X33066058Y2313065D02*
X32850752Y1667656D01*
X32635445Y1022246D01*
X32567936Y1251262D01*
X32527309Y1392796D01*
X32473867Y1584064D01*
X32416158Y1794307D01*
X32385645Y1907082D01*
X32270864Y2333885D01*
X31797313Y2333885D01*
X31938861Y1886262D01*
X32008567Y1666097D01*
X32092777Y1400529D01*
X32180719Y1123508D01*
X32259228Y876508D01*
X32438048Y314377D01*
X32631118Y301815D01*
X32824189Y289254D01*
X32928882Y634930D01*
X32993447Y849665D01*
X33063908Y1086396D01*
X33125489Y1295474D01*
X33127919Y1303795D01*
X33173915Y1445463D01*
X33214497Y1542126D01*
X33242920Y1578679D01*
X33248761Y1574451D01*
X33269262Y1517783D01*
X33308215Y1396395D01*
X33360878Y1225552D01*
X33422509Y1020518D01*
X33455857Y907738D01*
X33636454Y293557D01*
X34019733Y293557D01*
X34326133Y1261672D01*
X34412209Y1533241D01*
X34490620Y1779862D01*
X34557661Y1989952D01*
X34609631Y2151924D01*
X34642826Y2254192D01*
X34652916Y2284072D01*
X34644928Y2314666D01*
X34582208Y2328065D01*
X34451685Y2326725D01*
X34431253Y2325712D01*
X34189208Y2313065D01*
X34030683Y1730115D01*
X33972415Y1517514D01*
X33920345Y1330623D01*
X33879056Y1185669D01*
X33853134Y1098880D01*
X33848344Y1084731D01*
X33828496Y1101002D01*
X33788470Y1185303D01*
X33732862Y1326158D01*
X33666269Y1512089D01*
X33609976Y1680044D01*
X33395422Y2337791D01*
X33066058Y2313065D01*
G36*
X34829230Y293557D02*
G01*
X35058246Y293557D01*
X35191175Y297454D01*
X35260405Y313593D01*
X35285332Y348646D01*
X35287262Y372347D01*
X35291466Y419877D01*
X35317974Y428992D01*
X35387633Y399692D01*
X35441804Y372347D01*
X35649777Y307549D01*
X35875853Y303799D01*
X36059655Y352127D01*
X36230813Y468882D01*
X36361284Y641219D01*
X36432727Y844494D01*
X36434546Y855859D01*
X36445161Y979864D01*
X36450440Y1157883D01*
X36450016Y1292520D01*
X35995172Y1292520D01*
X35984635Y1113572D01*
X35960666Y966076D01*
X35928217Y882783D01*
X35805456Y768959D01*
X35659701Y728155D01*
X35509393Y761152D01*
X35380951Y859578D01*
X35332308Y925776D01*
X35303866Y1004769D01*
X35290544Y1120074D01*
X35287262Y1293264D01*
X35293135Y1464771D01*
X35308647Y1615460D01*
X35330638Y1716302D01*
X35334303Y1725341D01*
X35422988Y1832805D01*
X35552428Y1891805D01*
X35697257Y1901331D01*
X35832109Y1860374D01*
X35931617Y1767924D01*
X35941940Y1749527D01*
X35974250Y1637354D01*
X35991852Y1476066D01*
X35995172Y1292520D01*
X36450016Y1292520D01*
X36449800Y1360788D01*
X36446806Y1469990D01*
X36426442Y1740144D01*
X36384117Y1942976D01*
X36313706Y2092923D01*
X36209088Y2204421D01*
X36107521Y2269873D01*
X35965616Y2315883D01*
X35789121Y2331664D01*
X35608393Y2318810D01*
X35453787Y2278919D01*
X35372101Y2231199D01*
X35287262Y2154421D01*
X35287262Y3125033D01*
X34829230Y3125033D01*
X34829230Y293557D01*
G37*
X34829230Y293557D02*
X35058246Y293557D01*
X35191175Y297454D01*
X35260405Y313593D01*
X35285332Y348646D01*
X35287262Y372347D01*
X35291466Y419877D01*
X35317974Y428992D01*
X35387633Y399692D01*
X35441804Y372347D01*
X35649777Y307549D01*
X35875853Y303799D01*
X36059655Y352127D01*
X36230813Y468882D01*
X36361284Y641219D01*
X36432727Y844494D01*
X36434546Y855859D01*
X36445161Y979864D01*
X36450440Y1157883D01*
X36450016Y1292520D01*
X35995172Y1292520D01*
X35984635Y1113572D01*
X35960666Y966076D01*
X35928217Y882783D01*
X35805456Y768959D01*
X35659701Y728155D01*
X35509393Y761152D01*
X35380951Y859578D01*
X35332308Y925776D01*
X35303866Y1004769D01*
X35290544Y1120074D01*
X35287262Y1293264D01*
X35293135Y1464771D01*
X35308647Y1615460D01*
X35330638Y1716302D01*
X35334303Y1725341D01*
X35422988Y1832805D01*
X35552428Y1891805D01*
X35697257Y1901331D01*
X35832109Y1860374D01*
X35931617Y1767924D01*
X35941940Y1749527D01*
X35974250Y1637354D01*
X35991852Y1476066D01*
X35995172Y1292520D01*
X36450016Y1292520D01*
X36449800Y1360788D01*
X36446806Y1469990D01*
X36426442Y1740144D01*
X36384117Y1942976D01*
X36313706Y2092923D01*
X36209088Y2204421D01*
X36107521Y2269873D01*
X35965616Y2315883D01*
X35789121Y2331664D01*
X35608393Y2318810D01*
X35453787Y2278919D01*
X35372101Y2231199D01*
X35287262Y2154421D01*
X35287262Y3125033D01*
X34829230Y3125033D01*
X34829230Y293557D01*
G36*
X37452475Y2329460D02*
G01*
X37390163Y2310782D01*
X37370075Y2269745D01*
X37369230Y2251218D01*
X37365625Y2199617D01*
X37340800Y2191516D01*
X37273737Y2226892D01*
X37233902Y2251063D01*
X37108227Y2302825D01*
X36958123Y2328419D01*
X36800737Y2330387D01*
X36653214Y2311271D01*
X36532700Y2273613D01*
X36456340Y2219956D01*
X36441281Y2152842D01*
X36448881Y2134667D01*
X36504282Y2059223D01*
X36590190Y1966432D01*
X36605728Y1951432D01*
X36687612Y1882460D01*
X36758263Y1860175D01*
X36857068Y1875728D01*
X36896652Y1886062D01*
X37019828Y1910884D01*
X37106436Y1899722D01*
X37179576Y1860354D01*
X37246574Y1807521D01*
X37295918Y1741076D01*
X37330209Y1648348D01*
X37352048Y1516666D01*
X37364034Y1333359D01*
X37368769Y1085754D01*
X37369230Y936256D01*
X37369230Y293557D01*
X37785623Y293557D01*
X37785623Y2333885D01*
X37577426Y2333885D01*
X37452475Y2329460D01*
G37*
X37452475Y2329460D02*
X37390163Y2310782D01*
X37370075Y2269745D01*
X37369230Y2251218D01*
X37365625Y2199617D01*
X37340800Y2191516D01*
X37273737Y2226892D01*
X37233902Y2251063D01*
X37108227Y2302825D01*
X36958123Y2328419D01*
X36800737Y2330387D01*
X36653214Y2311271D01*
X36532700Y2273613D01*
X36456340Y2219956D01*
X36441281Y2152842D01*
X36448881Y2134667D01*
X36504282Y2059223D01*
X36590190Y1966432D01*
X36605728Y1951432D01*
X36687612Y1882460D01*
X36758263Y1860175D01*
X36857068Y1875728D01*
X36896652Y1886062D01*
X37019828Y1910884D01*
X37106436Y1899722D01*
X37179576Y1860354D01*
X37246574Y1807521D01*
X37295918Y1741076D01*
X37330209Y1648348D01*
X37352048Y1516666D01*
X37364034Y1333359D01*
X37368769Y1085754D01*
X37369230Y936256D01*
X37369230Y293557D01*
X37785623Y293557D01*
X37785623Y2333885D01*
X37577426Y2333885D01*
X37452475Y2329460D01*
G36*
X38746779Y2317753D02*
G01*
X38550889Y2265486D01*
X38401767Y2170747D01*
X38296535Y2046662D01*
X38263821Y1993704D01*
X38239669Y1938232D01*
X38222784Y1867270D01*
X38211873Y1767846D01*
X38205640Y1626984D01*
X38202791Y1431711D01*
X38202032Y1169052D01*
X38202016Y1099367D01*
X38202016Y293557D01*
X38401885Y293557D01*
X38529370Y302485D01*
X38623634Y325104D01*
X38647251Y339054D01*
X38711815Y363130D01*
X38777759Y339054D01*
X38886332Y308997D01*
X39044042Y296900D01*
X39218844Y302149D01*
X39378693Y324131D01*
X39472016Y352337D01*
X39652609Y468269D01*
X39765470Y629153D01*
X39816209Y843064D01*
X39816680Y848557D01*
X39812227Y943453D01*
X39409557Y943453D01*
X39374354Y835516D01*
X39317014Y774771D01*
X39201913Y728828D01*
X39049986Y710488D01*
X38895061Y719515D01*
X38770964Y755668D01*
X38736197Y778863D01*
X38675444Y886040D01*
X38660049Y1007880D01*
X38660049Y1167983D01*
X38890403Y1167983D01*
X39109241Y1151137D01*
X39275137Y1103407D01*
X39378338Y1029014D01*
X39409557Y943453D01*
X39812227Y943453D01*
X39805713Y1082269D01*
X39728631Y1267054D01*
X39583714Y1406794D01*
X39563683Y1419505D01*
X39477610Y1460895D01*
X39371073Y1485959D01*
X39222141Y1498142D01*
X39045213Y1500943D01*
X38660049Y1501098D01*
X38660049Y1662557D01*
X38676387Y1787832D01*
X38718078Y1871759D01*
X38722959Y1876227D01*
X38815736Y1912941D01*
X38955784Y1927172D01*
X39110555Y1920179D01*
X39247499Y1893220D01*
X39328759Y1852788D01*
X39372790Y1820399D01*
X39419285Y1814216D01*
X39483451Y1840752D01*
X39580495Y1906521D01*
X39725626Y2018037D01*
X39738947Y2028484D01*
X39732121Y2067138D01*
X39675178Y2131428D01*
X39588630Y2202869D01*
X39492992Y2262979D01*
X39462944Y2277173D01*
X39353341Y2305497D01*
X39192735Y2325700D01*
X39013302Y2333804D01*
X39004911Y2333820D01*
X38746779Y2317753D01*
G37*
X38746779Y2317753D02*
X38550889Y2265486D01*
X38401767Y2170747D01*
X38296535Y2046662D01*
X38263821Y1993704D01*
X38239669Y1938232D01*
X38222784Y1867270D01*
X38211873Y1767846D01*
X38205640Y1626984D01*
X38202791Y1431711D01*
X38202032Y1169052D01*
X38202016Y1099367D01*
X38202016Y293557D01*
X38401885Y293557D01*
X38529370Y302485D01*
X38623634Y325104D01*
X38647251Y339054D01*
X38711815Y363130D01*
X38777759Y339054D01*
X38886332Y308997D01*
X39044042Y296900D01*
X39218844Y302149D01*
X39378693Y324131D01*
X39472016Y352337D01*
X39652609Y468269D01*
X39765470Y629153D01*
X39816209Y843064D01*
X39816680Y848557D01*
X39812227Y943453D01*
X39409557Y943453D01*
X39374354Y835516D01*
X39317014Y774771D01*
X39201913Y728828D01*
X39049986Y710488D01*
X38895061Y719515D01*
X38770964Y755668D01*
X38736197Y778863D01*
X38675444Y886040D01*
X38660049Y1007880D01*
X38660049Y1167983D01*
X38890403Y1167983D01*
X39109241Y1151137D01*
X39275137Y1103407D01*
X39378338Y1029014D01*
X39409557Y943453D01*
X39812227Y943453D01*
X39805713Y1082269D01*
X39728631Y1267054D01*
X39583714Y1406794D01*
X39563683Y1419505D01*
X39477610Y1460895D01*
X39371073Y1485959D01*
X39222141Y1498142D01*
X39045213Y1500943D01*
X38660049Y1501098D01*
X38660049Y1662557D01*
X38676387Y1787832D01*
X38718078Y1871759D01*
X38722959Y1876227D01*
X38815736Y1912941D01*
X38955784Y1927172D01*
X39110555Y1920179D01*
X39247499Y1893220D01*
X39328759Y1852788D01*
X39372790Y1820399D01*
X39419285Y1814216D01*
X39483451Y1840752D01*
X39580495Y1906521D01*
X39725626Y2018037D01*
X39738947Y2028484D01*
X39732121Y2067138D01*
X39675178Y2131428D01*
X39588630Y2202869D01*
X39492992Y2262979D01*
X39462944Y2277173D01*
X39353341Y2305497D01*
X39192735Y2325700D01*
X39013302Y2333804D01*
X39004911Y2333820D01*
X38746779Y2317753D01*
G36*
X40483808Y5421834D02*
G01*
X40396015Y5378460D01*
X40287751Y5302878D01*
X40208845Y5220458D01*
X40154805Y5116963D01*
X40121141Y4978157D01*
X40103363Y4789806D01*
X40096980Y4537672D01*
X40096607Y4429276D01*
X40097696Y4191713D01*
X40102222Y4021932D01*
X40112068Y3904450D01*
X40129118Y3823785D01*
X40155259Y3764455D01*
X40182458Y3723980D01*
X40356080Y3551775D01*
X40560538Y3448194D01*
X40781104Y3417040D01*
X41003046Y3462115D01*
X41073360Y3493991D01*
X41241689Y3581729D01*
X41241689Y2206828D01*
X41118838Y2270357D01*
X40956967Y2319509D01*
X40758005Y2332100D01*
X40559328Y2308853D01*
X40409290Y2256630D01*
X40284841Y2157174D01*
X40178508Y2014857D01*
X40170513Y2000245D01*
X40136793Y1931418D01*
X40112166Y1862044D01*
X40095214Y1778004D01*
X40084519Y1665184D01*
X40078662Y1509467D01*
X40076227Y1296735D01*
X40075787Y1057336D01*
X40075787Y293557D01*
X40533820Y293557D01*
X40533820Y1701892D01*
X40661933Y1809692D01*
X40795018Y1895921D01*
X40921048Y1911599D01*
X41047778Y1871253D01*
X41115317Y1831746D01*
X41165586Y1775473D01*
X41201338Y1690428D01*
X41225328Y1564606D01*
X41240311Y1386002D01*
X41249040Y1142609D01*
X41252114Y980606D01*
X41262508Y314377D01*
X41481115Y301791D01*
X41699721Y289205D01*
X41699721Y4423536D01*
X41241689Y4423536D01*
X41230011Y4193047D01*
X41190662Y4033050D01*
X41117166Y3933503D01*
X41003049Y3884361D01*
X40887754Y3874541D01*
X40757238Y3885825D01*
X40670617Y3930236D01*
X40616451Y3988919D01*
X40573810Y4052038D01*
X40548426Y4122355D01*
X40537131Y4220877D01*
X40536760Y4368613D01*
X40540560Y4492317D01*
X40549288Y4678672D01*
X40562280Y4801018D01*
X40584159Y4878623D01*
X40619546Y4930755D01*
X40652941Y4960889D01*
X40792475Y5026601D01*
X40957619Y5037213D01*
X41052446Y5014577D01*
X41146334Y4934119D01*
X41208526Y4777608D01*
X41238669Y4546148D01*
X41241689Y4423536D01*
X41699721Y4423536D01*
X41699721Y5456836D01*
X41470705Y5456836D01*
X41333206Y5451398D01*
X41262267Y5432091D01*
X41241697Y5394424D01*
X41241689Y5393308D01*
X41232145Y5356419D01*
X41190051Y5360607D01*
X41106361Y5401141D01*
X40911354Y5463150D01*
X40691954Y5469668D01*
X40483808Y5421834D01*
G37*
X40483808Y5421834D02*
X40396015Y5378460D01*
X40287751Y5302878D01*
X40208845Y5220458D01*
X40154805Y5116963D01*
X40121141Y4978157D01*
X40103363Y4789806D01*
X40096980Y4537672D01*
X40096607Y4429276D01*
X40097696Y4191713D01*
X40102222Y4021932D01*
X40112068Y3904450D01*
X40129118Y3823785D01*
X40155259Y3764455D01*
X40182458Y3723980D01*
X40356080Y3551775D01*
X40560538Y3448194D01*
X40781104Y3417040D01*
X41003046Y3462115D01*
X41073360Y3493991D01*
X41241689Y3581729D01*
X41241689Y2206828D01*
X41118838Y2270357D01*
X40956967Y2319509D01*
X40758005Y2332100D01*
X40559328Y2308853D01*
X40409290Y2256630D01*
X40284841Y2157174D01*
X40178508Y2014857D01*
X40170513Y2000245D01*
X40136793Y1931418D01*
X40112166Y1862044D01*
X40095214Y1778004D01*
X40084519Y1665184D01*
X40078662Y1509467D01*
X40076227Y1296735D01*
X40075787Y1057336D01*
X40075787Y293557D01*
X40533820Y293557D01*
X40533820Y1701892D01*
X40661933Y1809692D01*
X40795018Y1895921D01*
X40921048Y1911599D01*
X41047778Y1871253D01*
X41115317Y1831746D01*
X41165586Y1775473D01*
X41201338Y1690428D01*
X41225328Y1564606D01*
X41240311Y1386002D01*
X41249040Y1142609D01*
X41252114Y980606D01*
X41262508Y314377D01*
X41481115Y301791D01*
X41699721Y289205D01*
X41699721Y4423536D01*
X41241689Y4423536D01*
X41230011Y4193047D01*
X41190662Y4033050D01*
X41117166Y3933503D01*
X41003049Y3884361D01*
X40887754Y3874541D01*
X40757238Y3885825D01*
X40670617Y3930236D01*
X40616451Y3988919D01*
X40573810Y4052038D01*
X40548426Y4122355D01*
X40537131Y4220877D01*
X40536760Y4368613D01*
X40540560Y4492317D01*
X40549288Y4678672D01*
X40562280Y4801018D01*
X40584159Y4878623D01*
X40619546Y4930755D01*
X40652941Y4960889D01*
X40792475Y5026601D01*
X40957619Y5037213D01*
X41052446Y5014577D01*
X41146334Y4934119D01*
X41208526Y4777608D01*
X41238669Y4546148D01*
X41241689Y4423536D01*
X41699721Y4423536D01*
X41699721Y5456836D01*
X41470705Y5456836D01*
X41333206Y5451398D01*
X41262267Y5432091D01*
X41241697Y5394424D01*
X41241689Y5393308D01*
X41232145Y5356419D01*
X41190051Y5360607D01*
X41106361Y5401141D01*
X40911354Y5463150D01*
X40691954Y5469668D01*
X40483808Y5421834D01*
D11*
X12640000Y40700000D02*
X12640000Y39370000D01*
X13970000Y40700000D02*
X12640000Y40700000D01*
X12640000Y38100000D02*
X12640000Y35500000D01*
X15240000Y38100000D02*
X12640000Y38100000D01*
X15240000Y40700000D02*
X15240000Y38100000D01*
X12640000Y35500000D02*
X25460000Y35500000D01*
X15240000Y40700000D02*
X25460000Y40700000D01*
X25460000Y40700000D02*
X25460000Y35500000D01*
X-31230000Y36250000D02*
X-31230000Y39950000D01*
X-37350000Y36250000D02*
X-31230000Y36250000D01*
X-37350000Y39950000D02*
X-37350000Y36250000D01*
X-31230000Y39950000D02*
X-37350000Y39950000D01*
X-26730000Y40700000D02*
X-26730000Y39370000D01*
X-25400000Y40700000D02*
X-26730000Y40700000D01*
X-26730000Y38100000D02*
X-26730000Y35500000D01*
X-24130000Y38100000D02*
X-26730000Y38100000D01*
X-24130000Y40700000D02*
X-24130000Y38100000D01*
X-26730000Y35500000D02*
X-13910000Y35500000D01*
X-24130000Y40700000D02*
X-13910000Y40700000D01*
X-13910000Y40700000D02*
X-13910000Y35500000D01*
X-47183000Y-5130000D02*
X-45203000Y-5130000D01*
X-45203000Y-5130000D02*
X-45203000Y-5550000D01*
X-49153000Y-5130000D02*
X-49553000Y-5130000D01*
X-49553000Y-12650000D02*
X-49153000Y-12650000D01*
X-47183000Y-12650000D02*
X-45203000Y-12650000D01*
X-45203000Y-12650000D02*
X-45203000Y-12230000D01*
X-44523000Y-10200000D02*
X-44523000Y-10650000D01*
X-44973000Y-10650000D02*
X-44523000Y-10650000D01*
X36760000Y-22860000D02*
G75*
G03*
X36760000Y-22860000I-1200000J0D01*
G01*
X36760000Y-15240000D02*
G75*
G03*
X36760000Y-15240000I-1200000J0D01*
G01*
X36760000Y-7620000D02*
G75*
G03*
X36760000Y-7620000I-1200000J0D01*
G01*
X11360000Y-17780000D02*
G75*
G03*
X11360000Y-17780000I-1200000J0D01*
G01*
X25330000Y-18415000D02*
G75*
G03*
X25330000Y-18415000I-1200000J0D01*
G01*
X11360000Y-25330000D02*
G75*
G03*
X11360000Y-25330000I-1200000J0D01*
G01*
X-17850000Y-1270000D02*
G75*
G03*
X-17850000Y-1270000I-1200000J0D01*
G01*
X-17850000Y-5080000D02*
G75*
G03*
X-17850000Y-5080000I-1200000J0D01*
G01*
X44720000Y-12680000D02*
X47920000Y-12680000D01*
X44720000Y-2579000D02*
X47920000Y-2579000D01*
X47920000Y-11059000D02*
X47920000Y-12680000D01*
X47920000Y-2579000D02*
X47920000Y-9302000D01*
X44720000Y-5959000D02*
X44720000Y-12680000D01*
X44720000Y-2579000D02*
X44720000Y-4201000D01*
X42910000Y-1800000D02*
X39710000Y-1800000D01*
X42910000Y-18500000D02*
X39710000Y-18500000D01*
X39710000Y-6721000D02*
X39710000Y-1800000D01*
X39710000Y-18500000D02*
X39710000Y-8478000D01*
X42910000Y-11821000D02*
X42910000Y-1800000D01*
X42910000Y-18500000D02*
X42910000Y-13579000D01*
X-49149000Y30734000D02*
X-49149000Y2286000D01*
X5334000Y30734000D02*
X5334000Y2286000D01*
X-49149000Y30734000D02*
X5334000Y30741000D01*
X-49149000Y2286000D02*
X5334000Y2286000D01*
X-41656000Y27686000D02*
X-43434000Y27686000D01*
X-43434000Y29464000D02*
X-43434000Y27686000D01*
X-43180000Y30480000D02*
X5080000Y30480000D01*
X5080000Y30480000D02*
X5080000Y27940000D01*
X5080000Y27940000D02*
X-43180000Y27940000D01*
X-43180000Y27940000D02*
X-43180000Y30480000D01*
X-43180000Y2540000D02*
X5080000Y2540000D01*
X5080000Y5080000D02*
X5080000Y2540000D01*
X5080000Y5080000D02*
X-43180000Y5080000D01*
X-43180000Y2540000D02*
X-43180000Y5080000D01*
D10*
X12017333Y39917619D02*
X12017333Y39203333D01*
X12064952Y39060476D01*
X12160190Y38965238D01*
X12303047Y38917619D01*
X12398285Y38917619D01*
X11493523Y38917619D02*
X11303047Y38917619D01*
X11207809Y38965238D01*
X11160190Y39012857D01*
X11064952Y39155714D01*
X11017333Y39346190D01*
X11017333Y39727142D01*
X11064952Y39822380D01*
X11112571Y39870000D01*
X11207809Y39917619D01*
X11398285Y39917619D01*
X11493523Y39870000D01*
X11541142Y39822380D01*
X11588761Y39727142D01*
X11588761Y39489047D01*
X11541142Y39393809D01*
X11493523Y39346190D01*
X11398285Y39298571D01*
X11207809Y39298571D01*
X11112571Y39346190D01*
X11064952Y39393809D01*
X11017333Y39489047D01*
X-38036666Y39600238D02*
X-38179523Y39552619D01*
X-38417619Y39552619D01*
X-38512857Y39600238D01*
X-38560476Y39647857D01*
X-38608095Y39743095D01*
X-38608095Y39838333D01*
X-38560476Y39933571D01*
X-38512857Y39981190D01*
X-38417619Y40028809D01*
X-38227142Y40076428D01*
X-38131904Y40124047D01*
X-38084285Y40171666D01*
X-38036666Y40266904D01*
X-38036666Y40362142D01*
X-38084285Y40457380D01*
X-38131904Y40505000D01*
X-38227142Y40552619D01*
X-38465238Y40552619D01*
X-38608095Y40505000D01*
X-38941428Y40552619D02*
X-39179523Y39552619D01*
X-39370000Y40266904D01*
X-39560476Y39552619D01*
X-39798571Y40552619D01*
X-40131904Y40457380D02*
X-40179523Y40505000D01*
X-40274761Y40552619D01*
X-40512857Y40552619D01*
X-40608095Y40505000D01*
X-40655714Y40457380D01*
X-40703333Y40362142D01*
X-40703333Y40266904D01*
X-40655714Y40124047D01*
X-40084285Y39552619D01*
X-40703333Y39552619D01*
X-27638476Y40552619D02*
X-27638476Y39838333D01*
X-27590857Y39695476D01*
X-27495619Y39600238D01*
X-27352761Y39552619D01*
X-27257523Y39552619D01*
X-28638476Y39552619D02*
X-28067047Y39552619D01*
X-28352761Y39552619D02*
X-28352761Y40552619D01*
X-28257523Y40409761D01*
X-28162285Y40314523D01*
X-28067047Y40266904D01*
X-29590857Y39552619D02*
X-29019428Y39552619D01*
X-29305142Y39552619D02*
X-29305142Y40552619D01*
X-29209904Y40409761D01*
X-29114666Y40314523D01*
X-29019428Y40266904D01*
X-46053476Y-3008380D02*
X-46053476Y-3722666D01*
X-46005857Y-3865523D01*
X-45910619Y-3960761D01*
X-45767761Y-4008380D01*
X-45672523Y-4008380D01*
X-47053476Y-4008380D02*
X-46482047Y-4008380D01*
X-46767761Y-4008380D02*
X-46767761Y-3008380D01*
X-46672523Y-3151238D01*
X-46577285Y-3246476D01*
X-46482047Y-3294095D01*
X-47672523Y-3008380D02*
X-47767761Y-3008380D01*
X-47863000Y-3056000D01*
X-47910619Y-3103619D01*
X-47958238Y-3198857D01*
X-48005857Y-3389333D01*
X-48005857Y-3627428D01*
X-47958238Y-3817904D01*
X-47910619Y-3913142D01*
X-47863000Y-3960761D01*
X-47767761Y-4008380D01*
X-47672523Y-4008380D01*
X-47577285Y-3960761D01*
X-47529666Y-3913142D01*
X-47482047Y-3817904D01*
X-47434428Y-3627428D01*
X-47434428Y-3389333D01*
X-47482047Y-3198857D01*
X-47529666Y-3103619D01*
X-47577285Y-3056000D01*
X-47672523Y-3008380D01*
X46815333Y-13517571D02*
X47148666Y-13517571D01*
X47148666Y-14041380D02*
X47148666Y-13041380D01*
X46672476Y-13041380D01*
X46339142Y-13136619D02*
X46291523Y-13089000D01*
X46196285Y-13041380D01*
X45958190Y-13041380D01*
X45862952Y-13089000D01*
X45815333Y-13136619D01*
X45767714Y-13231857D01*
X45767714Y-13327095D01*
X45815333Y-13469952D01*
X46386761Y-14041380D01*
X45767714Y-14041380D01*
X41735333Y-19359571D02*
X42068666Y-19359571D01*
X42068666Y-19883380D02*
X42068666Y-18883380D01*
X41592476Y-18883380D01*
X40687714Y-19883380D02*
X41259142Y-19883380D01*
X40973428Y-19883380D02*
X40973428Y-18883380D01*
X41068666Y-19026238D01*
X41163904Y-19121476D01*
X41259142Y-19169095D01*
X-48093333Y29924285D02*
X-48093333Y29448095D01*
X-47807619Y30019523D02*
X-48807619Y29686190D01*
X-47807619Y29352857D01*
X-47807619Y28495714D02*
X-47807619Y29067142D01*
X-47807619Y28781428D02*
X-48807619Y28781428D01*
X-48664761Y28876666D01*
X-48569523Y28971904D01*
X-48521904Y29067142D01*
M02*
