G04 #@! TF.GenerationSoftware,KiCad,Pcbnew,(5.1.9)-1*
G04 #@! TF.CreationDate,2021-02-22T19:57:17+01:00*
G04 #@! TF.ProjectId,IoT12,496f5431-322e-46b6-9963-61645f706362,rev?*
G04 #@! TF.SameCoordinates,Original*
G04 #@! TF.FileFunction,Legend,Top*
G04 #@! TF.FilePolarity,Positive*
%FSLAX46Y46*%
G04 Gerber Fmt 4.6, Leading zero omitted, Abs format (unit mm)*
G04 Created by KiCad (PCBNEW (5.1.9)-1) date 2021-02-22 19:57:17*
%MOMM*%
%LPD*%
G01*
G04 APERTURE LIST*
%ADD10C,0.150000*%
%ADD11C,0.500000*%
%ADD12C,0.120000*%
G04 APERTURE END LIST*
D10*
X-40229166Y22407619D02*
X-40229166Y23407619D01*
X-39991071Y23407619D01*
X-39848214Y23360000D01*
X-39752976Y23264761D01*
X-39705357Y23169523D01*
X-39657738Y22979047D01*
X-39657738Y22836190D01*
X-39705357Y22645714D01*
X-39752976Y22550476D01*
X-39848214Y22455238D01*
X-39991071Y22407619D01*
X-40229166Y22407619D01*
X-38705357Y22407619D02*
X-39276785Y22407619D01*
X-38991071Y22407619D02*
X-38991071Y23407619D01*
X-39086309Y23264761D01*
X-39181547Y23169523D01*
X-39276785Y23121904D01*
X-38086309Y23407619D02*
X-37991071Y23407619D01*
X-37895833Y23360000D01*
X-37848214Y23312380D01*
X-37800595Y23217142D01*
X-37752976Y23026666D01*
X-37752976Y22788571D01*
X-37800595Y22598095D01*
X-37848214Y22502857D01*
X-37895833Y22455238D01*
X-37991071Y22407619D01*
X-38086309Y22407619D01*
X-38181547Y22455238D01*
X-38229166Y22502857D01*
X-38276785Y22598095D01*
X-38324404Y22788571D01*
X-38324404Y23026666D01*
X-38276785Y23217142D01*
X-38229166Y23312380D01*
X-38181547Y23360000D01*
X-38086309Y23407619D01*
X-39276785Y23677619D02*
X-39276785Y24677619D01*
X-39038690Y24677619D01*
X-38895833Y24630000D01*
X-38800595Y24534761D01*
X-38752976Y24439523D01*
X-38705357Y24249047D01*
X-38705357Y24106190D01*
X-38752976Y23915714D01*
X-38800595Y23820476D01*
X-38895833Y23725238D01*
X-39038690Y23677619D01*
X-39276785Y23677619D01*
X-38229166Y23677619D02*
X-38038690Y23677619D01*
X-37943452Y23725238D01*
X-37895833Y23772857D01*
X-37800595Y23915714D01*
X-37752976Y24106190D01*
X-37752976Y24487142D01*
X-37800595Y24582380D01*
X-37848214Y24630000D01*
X-37943452Y24677619D01*
X-38133928Y24677619D01*
X-38229166Y24630000D01*
X-38276785Y24582380D01*
X-38324404Y24487142D01*
X-38324404Y24249047D01*
X-38276785Y24153809D01*
X-38229166Y24106190D01*
X-38133928Y24058571D01*
X-37943452Y24058571D01*
X-37848214Y24106190D01*
X-37800595Y24153809D01*
X-37752976Y24249047D01*
X-39276785Y24947619D02*
X-39276785Y25947619D01*
X-39038690Y25947619D01*
X-38895833Y25900000D01*
X-38800595Y25804761D01*
X-38752976Y25709523D01*
X-38705357Y25519047D01*
X-38705357Y25376190D01*
X-38752976Y25185714D01*
X-38800595Y25090476D01*
X-38895833Y24995238D01*
X-39038690Y24947619D01*
X-39276785Y24947619D01*
X-37752976Y24947619D02*
X-38324404Y24947619D01*
X-38038690Y24947619D02*
X-38038690Y25947619D01*
X-38133928Y25804761D01*
X-38229166Y25709523D01*
X-38324404Y25661904D01*
X-39276785Y26217619D02*
X-39276785Y27217619D01*
X-39038690Y27217619D01*
X-38895833Y27170000D01*
X-38800595Y27074761D01*
X-38752976Y26979523D01*
X-38705357Y26789047D01*
X-38705357Y26646190D01*
X-38752976Y26455714D01*
X-38800595Y26360476D01*
X-38895833Y26265238D01*
X-39038690Y26217619D01*
X-39276785Y26217619D01*
X-38086309Y27217619D02*
X-37991071Y27217619D01*
X-37895833Y27170000D01*
X-37848214Y27122380D01*
X-37800595Y27027142D01*
X-37752976Y26836666D01*
X-37752976Y26598571D01*
X-37800595Y26408095D01*
X-37848214Y26312857D01*
X-37895833Y26265238D01*
X-37991071Y26217619D01*
X-38086309Y26217619D01*
X-38181547Y26265238D01*
X-38229166Y26312857D01*
X-38276785Y26408095D01*
X-38324404Y26598571D01*
X-38324404Y26836666D01*
X-38276785Y27027142D01*
X-38229166Y27122380D01*
X-38181547Y27170000D01*
X-38086309Y27217619D01*
X-27470476Y33392619D02*
X-27470476Y34392619D01*
X-26851428Y33392619D02*
X-26946666Y33440238D01*
X-26994285Y33487857D01*
X-27041904Y33583095D01*
X-27041904Y33868809D01*
X-26994285Y33964047D01*
X-26946666Y34011666D01*
X-26851428Y34059285D01*
X-26708571Y34059285D01*
X-26613333Y34011666D01*
X-26565714Y33964047D01*
X-26518095Y33868809D01*
X-26518095Y33583095D01*
X-26565714Y33487857D01*
X-26613333Y33440238D01*
X-26708571Y33392619D01*
X-26851428Y33392619D01*
X-26232380Y34392619D02*
X-25660952Y34392619D01*
X-25946666Y33392619D02*
X-25946666Y34392619D01*
X-24803809Y33392619D02*
X-25375238Y33392619D01*
X-25089523Y33392619D02*
X-25089523Y34392619D01*
X-25184761Y34249761D01*
X-25279999Y34154523D01*
X-25375238Y34106904D01*
X-24422857Y34297380D02*
X-24375238Y34345000D01*
X-24279999Y34392619D01*
X-24041904Y34392619D01*
X-23946666Y34345000D01*
X-23899047Y34297380D01*
X-23851428Y34202142D01*
X-23851428Y34106904D01*
X-23899047Y33964047D01*
X-24470476Y33392619D01*
X-23851428Y33392619D01*
X-23375238Y33440238D02*
X-23375238Y33392619D01*
X-23422857Y33297380D01*
X-23470476Y33249761D01*
X-22232380Y34297380D02*
X-22184761Y34345000D01*
X-22089523Y34392619D01*
X-21851428Y34392619D01*
X-21756190Y34345000D01*
X-21708571Y34297380D01*
X-21660952Y34202142D01*
X-21660952Y34106904D01*
X-21708571Y33964047D01*
X-22279999Y33392619D01*
X-21660952Y33392619D01*
X-21041904Y34392619D02*
X-20946666Y34392619D01*
X-20851428Y34345000D01*
X-20803809Y34297380D01*
X-20756190Y34202142D01*
X-20708571Y34011666D01*
X-20708571Y33773571D01*
X-20756190Y33583095D01*
X-20803809Y33487857D01*
X-20851428Y33440238D01*
X-20946666Y33392619D01*
X-21041904Y33392619D01*
X-21137142Y33440238D01*
X-21184761Y33487857D01*
X-21232380Y33583095D01*
X-21279999Y33773571D01*
X-21279999Y34011666D01*
X-21232380Y34202142D01*
X-21184761Y34297380D01*
X-21137142Y34345000D01*
X-21041904Y34392619D01*
X-20327619Y34297380D02*
X-20279999Y34345000D01*
X-20184761Y34392619D01*
X-19946666Y34392619D01*
X-19851428Y34345000D01*
X-19803809Y34297380D01*
X-19756190Y34202142D01*
X-19756190Y34106904D01*
X-19803809Y33964047D01*
X-20375238Y33392619D01*
X-19756190Y33392619D01*
X-18803809Y33392619D02*
X-19375238Y33392619D01*
X-19089523Y33392619D02*
X-19089523Y34392619D01*
X-19184761Y34249761D01*
X-19279999Y34154523D01*
X-19375238Y34106904D01*
X-18375238Y33773571D02*
X-17613333Y33773571D01*
X-16946666Y34392619D02*
X-16851428Y34392619D01*
X-16756190Y34345000D01*
X-16708571Y34297380D01*
X-16660952Y34202142D01*
X-16613333Y34011666D01*
X-16613333Y33773571D01*
X-16660952Y33583095D01*
X-16708571Y33487857D01*
X-16756190Y33440238D01*
X-16851428Y33392619D01*
X-16946666Y33392619D01*
X-17041904Y33440238D01*
X-17089523Y33487857D01*
X-17137142Y33583095D01*
X-17184761Y33773571D01*
X-17184761Y34011666D01*
X-17137142Y34202142D01*
X-17089523Y34297380D01*
X-17041904Y34345000D01*
X-16946666Y34392619D01*
X-16232380Y34297380D02*
X-16184761Y34345000D01*
X-16089523Y34392619D01*
X-15851428Y34392619D01*
X-15756190Y34345000D01*
X-15708571Y34297380D01*
X-15660952Y34202142D01*
X-15660952Y34106904D01*
X-15708571Y33964047D01*
X-16279999Y33392619D01*
X-15660952Y33392619D01*
X-15232380Y33773571D02*
X-14470476Y33773571D01*
X-14041904Y34297380D02*
X-13994285Y34345000D01*
X-13899047Y34392619D01*
X-13660952Y34392619D01*
X-13565714Y34345000D01*
X-13518095Y34297380D01*
X-13470476Y34202142D01*
X-13470476Y34106904D01*
X-13518095Y33964047D01*
X-14089523Y33392619D01*
X-13470476Y33392619D01*
X-13089523Y34297380D02*
X-13041904Y34345000D01*
X-12946666Y34392619D01*
X-12708571Y34392619D01*
X-12613333Y34345000D01*
X-12565714Y34297380D01*
X-12518095Y34202142D01*
X-12518095Y34106904D01*
X-12565714Y33964047D01*
X-13137142Y33392619D01*
X-12518095Y33392619D01*
X-12041904Y33440238D02*
X-12041904Y33392619D01*
X-12089523Y33297380D01*
X-12137142Y33249761D01*
X-10994285Y34392619D02*
X-10660952Y33392619D01*
X-10327619Y34392619D01*
X-10041904Y34297380D02*
X-9994285Y34345000D01*
X-9899047Y34392619D01*
X-9660952Y34392619D01*
X-9565714Y34345000D01*
X-9518095Y34297380D01*
X-9470476Y34202142D01*
X-9470476Y34106904D01*
X-9518095Y33964047D01*
X-10089523Y33392619D01*
X-9470476Y33392619D01*
X-9041904Y33487857D02*
X-8994285Y33440238D01*
X-9041904Y33392619D01*
X-9089523Y33440238D01*
X-9041904Y33487857D01*
X-9041904Y33392619D01*
X-8375238Y34392619D02*
X-8280000Y34392619D01*
X-8184761Y34345000D01*
X-8137142Y34297380D01*
X-8089523Y34202142D01*
X-8041904Y34011666D01*
X-8041904Y33773571D01*
X-8089523Y33583095D01*
X-8137142Y33487857D01*
X-8184761Y33440238D01*
X-8280000Y33392619D01*
X-8375238Y33392619D01*
X-8470476Y33440238D01*
X-8518095Y33487857D01*
X-8565714Y33583095D01*
X-8613333Y33773571D01*
X-8613333Y34011666D01*
X-8565714Y34202142D01*
X-8518095Y34297380D01*
X-8470476Y34345000D01*
X-8375238Y34392619D01*
X-25589523Y31742619D02*
X-25589523Y32742619D01*
X-25160952Y31742619D02*
X-25160952Y32266428D01*
X-25208571Y32361666D01*
X-25303809Y32409285D01*
X-25446666Y32409285D01*
X-25541904Y32361666D01*
X-25589523Y32314047D01*
X-24827619Y32409285D02*
X-24446666Y32409285D01*
X-24684761Y32742619D02*
X-24684761Y31885476D01*
X-24637142Y31790238D01*
X-24541904Y31742619D01*
X-24446666Y31742619D01*
X-24256190Y32409285D02*
X-23875238Y32409285D01*
X-24113333Y32742619D02*
X-24113333Y31885476D01*
X-24065714Y31790238D01*
X-23970476Y31742619D01*
X-23875238Y31742619D01*
X-23541904Y32409285D02*
X-23541904Y31409285D01*
X-23541904Y32361666D02*
X-23446666Y32409285D01*
X-23256190Y32409285D01*
X-23160952Y32361666D01*
X-23113333Y32314047D01*
X-23065714Y32218809D01*
X-23065714Y31933095D01*
X-23113333Y31837857D01*
X-23160952Y31790238D01*
X-23256190Y31742619D01*
X-23446666Y31742619D01*
X-23541904Y31790238D01*
X-22684761Y31790238D02*
X-22589523Y31742619D01*
X-22399047Y31742619D01*
X-22303809Y31790238D01*
X-22256190Y31885476D01*
X-22256190Y31933095D01*
X-22303809Y32028333D01*
X-22399047Y32075952D01*
X-22541904Y32075952D01*
X-22637142Y32123571D01*
X-22684761Y32218809D01*
X-22684761Y32266428D01*
X-22637142Y32361666D01*
X-22541904Y32409285D01*
X-22399047Y32409285D01*
X-22303809Y32361666D01*
X-21827619Y31837857D02*
X-21780000Y31790238D01*
X-21827619Y31742619D01*
X-21875238Y31790238D01*
X-21827619Y31837857D01*
X-21827619Y31742619D01*
X-21827619Y32361666D02*
X-21780000Y32314047D01*
X-21827619Y32266428D01*
X-21875238Y32314047D01*
X-21827619Y32361666D01*
X-21827619Y32266428D01*
X-20637142Y32790238D02*
X-21494285Y31504523D01*
X-19589523Y32790238D02*
X-20446666Y31504523D01*
X-18827619Y31742619D02*
X-18827619Y32266428D01*
X-18875238Y32361666D01*
X-18970476Y32409285D01*
X-19160952Y32409285D01*
X-19256190Y32361666D01*
X-18827619Y31790238D02*
X-18922857Y31742619D01*
X-19160952Y31742619D01*
X-19256190Y31790238D01*
X-19303809Y31885476D01*
X-19303809Y31980714D01*
X-19256190Y32075952D01*
X-19160952Y32123571D01*
X-18922857Y32123571D01*
X-18827619Y32171190D01*
X-18494285Y32409285D02*
X-18113333Y32409285D01*
X-18351428Y32742619D02*
X-18351428Y31885476D01*
X-18303809Y31790238D01*
X-18208571Y31742619D01*
X-18113333Y31742619D01*
X-17637142Y31742619D02*
X-17732380Y31790238D01*
X-17780000Y31837857D01*
X-17827619Y31933095D01*
X-17827619Y32218809D01*
X-17780000Y32314047D01*
X-17732380Y32361666D01*
X-17637142Y32409285D01*
X-17494285Y32409285D01*
X-17399047Y32361666D01*
X-17351428Y32314047D01*
X-17303809Y32218809D01*
X-17303809Y31933095D01*
X-17351428Y31837857D01*
X-17399047Y31790238D01*
X-17494285Y31742619D01*
X-17637142Y31742619D01*
X-16732380Y31742619D02*
X-16827619Y31790238D01*
X-16875238Y31837857D01*
X-16922857Y31933095D01*
X-16922857Y32218809D01*
X-16875238Y32314047D01*
X-16827619Y32361666D01*
X-16732380Y32409285D01*
X-16589523Y32409285D01*
X-16494285Y32361666D01*
X-16446666Y32314047D01*
X-16399047Y32218809D01*
X-16399047Y31933095D01*
X-16446666Y31837857D01*
X-16494285Y31790238D01*
X-16589523Y31742619D01*
X-16732380Y31742619D01*
X-15970476Y31742619D02*
X-15970476Y32409285D01*
X-15970476Y32314047D02*
X-15922857Y32361666D01*
X-15827619Y32409285D01*
X-15684761Y32409285D01*
X-15589523Y32361666D01*
X-15541904Y32266428D01*
X-15541904Y31742619D01*
X-15541904Y32266428D02*
X-15494285Y32361666D01*
X-15399047Y32409285D01*
X-15256190Y32409285D01*
X-15160952Y32361666D01*
X-15113333Y32266428D01*
X-15113333Y31742619D01*
X-14637142Y32409285D02*
X-14637142Y31742619D01*
X-14637142Y32314047D02*
X-14589523Y32361666D01*
X-14494285Y32409285D01*
X-14351428Y32409285D01*
X-14256190Y32361666D01*
X-14208571Y32266428D01*
X-14208571Y31742619D01*
X-13351428Y31790238D02*
X-13446666Y31742619D01*
X-13637142Y31742619D01*
X-13732380Y31790238D01*
X-13780000Y31885476D01*
X-13780000Y32266428D01*
X-13732380Y32361666D01*
X-13637142Y32409285D01*
X-13446666Y32409285D01*
X-13351428Y32361666D01*
X-13303809Y32266428D01*
X-13303809Y32171190D01*
X-13780000Y32075952D01*
X-13018095Y32409285D02*
X-12637142Y32409285D01*
X-12875238Y32742619D02*
X-12875238Y31885476D01*
X-12827619Y31790238D01*
X-12732380Y31742619D01*
X-12637142Y31742619D01*
X-12303809Y31837857D02*
X-12256190Y31790238D01*
X-12303809Y31742619D01*
X-12351428Y31790238D01*
X-12303809Y31837857D01*
X-12303809Y31742619D01*
X-11827619Y32409285D02*
X-11827619Y31742619D01*
X-11827619Y32314047D02*
X-11780000Y32361666D01*
X-11684761Y32409285D01*
X-11541904Y32409285D01*
X-11446666Y32361666D01*
X-11399047Y32266428D01*
X-11399047Y31742619D01*
X-10541904Y31790238D02*
X-10637142Y31742619D01*
X-10827619Y31742619D01*
X-10922857Y31790238D01*
X-10970476Y31885476D01*
X-10970476Y32266428D01*
X-10922857Y32361666D01*
X-10827619Y32409285D01*
X-10637142Y32409285D01*
X-10541904Y32361666D01*
X-10494285Y32266428D01*
X-10494285Y32171190D01*
X-10970476Y32075952D01*
X-10208571Y32409285D02*
X-9827619Y32409285D01*
X-10065714Y32742619D02*
X-10065714Y31885476D01*
X-10018095Y31790238D01*
X-9922857Y31742619D01*
X-9827619Y31742619D01*
D11*
X-7620000Y-6604000D02*
X7620000Y-6604000D01*
D10*
X-15795285Y-5532380D02*
X-16366714Y-5532380D01*
X-16081000Y-5532380D02*
X-16081000Y-4532380D01*
X-16176238Y-4675238D01*
X-16271476Y-4770476D01*
X-16366714Y-4818095D01*
X-15319095Y-5484761D02*
X-15319095Y-5532380D01*
X-15366714Y-5627619D01*
X-15414333Y-5675238D01*
X-14176238Y-5484761D02*
X-14033380Y-5532380D01*
X-13795285Y-5532380D01*
X-13700047Y-5484761D01*
X-13652428Y-5437142D01*
X-13604809Y-5341904D01*
X-13604809Y-5246666D01*
X-13652428Y-5151428D01*
X-13700047Y-5103809D01*
X-13795285Y-5056190D01*
X-13985761Y-5008571D01*
X-14081000Y-4960952D01*
X-14128619Y-4913333D01*
X-14176238Y-4818095D01*
X-14176238Y-4722857D01*
X-14128619Y-4627619D01*
X-14081000Y-4580000D01*
X-13985761Y-4532380D01*
X-13747666Y-4532380D01*
X-13604809Y-4580000D01*
X-13176238Y-5532380D02*
X-13176238Y-4532380D01*
X-13176238Y-5008571D02*
X-12604809Y-5008571D01*
X-12604809Y-5532380D02*
X-12604809Y-4532380D01*
X-12176238Y-5246666D02*
X-11700047Y-5246666D01*
X-12271476Y-5532380D02*
X-11938142Y-4532380D01*
X-11604809Y-5532380D01*
X-11271476Y-5532380D02*
X-11271476Y-4532380D01*
X-10700047Y-5532380D02*
X-11128619Y-4960952D01*
X-10700047Y-4532380D02*
X-11271476Y-5103809D01*
X-10271476Y-5008571D02*
X-9938142Y-5008571D01*
X-9795285Y-5532380D02*
X-10271476Y-5532380D01*
X-10271476Y-4532380D01*
X-9795285Y-4532380D01*
X-16279523Y-817619D02*
X-16231904Y-770000D01*
X-16136666Y-722380D01*
X-15898571Y-722380D01*
X-15803333Y-770000D01*
X-15755714Y-817619D01*
X-15708095Y-912857D01*
X-15708095Y-1008095D01*
X-15755714Y-1150952D01*
X-16327142Y-1722380D01*
X-15708095Y-1722380D01*
X-15231904Y-1674761D02*
X-15231904Y-1722380D01*
X-15279523Y-1817619D01*
X-15327142Y-1865238D01*
X-14041428Y-1722380D02*
X-14041428Y-722380D01*
X-13470000Y-1722380D01*
X-13470000Y-722380D01*
X-13136666Y-722380D02*
X-12565238Y-722380D01*
X-12850952Y-1722380D02*
X-12850952Y-722380D01*
X-11660476Y-1627142D02*
X-11708095Y-1674761D01*
X-11850952Y-1722380D01*
X-11946190Y-1722380D01*
X-12089047Y-1674761D01*
X-12184285Y-1579523D01*
X-12231904Y-1484285D01*
X-12279523Y-1293809D01*
X-12279523Y-1150952D01*
X-12231904Y-960476D01*
X-12184285Y-865238D01*
X-12089047Y-770000D01*
X-11946190Y-722380D01*
X-11850952Y-722380D01*
X-11708095Y-770000D01*
X-11660476Y-817619D01*
D11*
X-7620000Y1270000D02*
X-35560000Y1270000D01*
D10*
X16700952Y13072619D02*
X16700952Y14072619D01*
X17034285Y13358333D01*
X17367619Y14072619D01*
X17367619Y13072619D01*
X17796190Y13358333D02*
X18272380Y13358333D01*
X17700952Y13072619D02*
X18034285Y14072619D01*
X18367619Y13072619D01*
X18605714Y14072619D02*
X19272380Y13072619D01*
X19272380Y14072619D02*
X18605714Y13072619D01*
X19700952Y13072619D02*
X19891428Y13072619D01*
X19986666Y13120238D01*
X20034285Y13167857D01*
X20129523Y13310714D01*
X20177142Y13501190D01*
X20177142Y13882142D01*
X20129523Y13977380D01*
X20081904Y14025000D01*
X19986666Y14072619D01*
X19796190Y14072619D01*
X19700952Y14025000D01*
X19653333Y13977380D01*
X19605714Y13882142D01*
X19605714Y13644047D01*
X19653333Y13548809D01*
X19700952Y13501190D01*
X19796190Y13453571D01*
X19986666Y13453571D01*
X20081904Y13501190D01*
X20129523Y13548809D01*
X20177142Y13644047D01*
X20748571Y13644047D02*
X20653333Y13691666D01*
X20605714Y13739285D01*
X20558095Y13834523D01*
X20558095Y13882142D01*
X20605714Y13977380D01*
X20653333Y14025000D01*
X20748571Y14072619D01*
X20939047Y14072619D01*
X21034285Y14025000D01*
X21081904Y13977380D01*
X21129523Y13882142D01*
X21129523Y13834523D01*
X21081904Y13739285D01*
X21034285Y13691666D01*
X20939047Y13644047D01*
X20748571Y13644047D01*
X20653333Y13596428D01*
X20605714Y13548809D01*
X20558095Y13453571D01*
X20558095Y13263095D01*
X20605714Y13167857D01*
X20653333Y13120238D01*
X20748571Y13072619D01*
X20939047Y13072619D01*
X21034285Y13120238D01*
X21081904Y13167857D01*
X21129523Y13263095D01*
X21129523Y13453571D01*
X21081904Y13548809D01*
X21034285Y13596428D01*
X20939047Y13644047D01*
X21462857Y14072619D02*
X22081904Y14072619D01*
X21748571Y13691666D01*
X21891428Y13691666D01*
X21986666Y13644047D01*
X22034285Y13596428D01*
X22081904Y13501190D01*
X22081904Y13263095D01*
X22034285Y13167857D01*
X21986666Y13120238D01*
X21891428Y13072619D01*
X21605714Y13072619D01*
X21510476Y13120238D01*
X21462857Y13167857D01*
X22986666Y14072619D02*
X22510476Y14072619D01*
X22462857Y13596428D01*
X22510476Y13644047D01*
X22605714Y13691666D01*
X22843809Y13691666D01*
X22939047Y13644047D01*
X22986666Y13596428D01*
X23034285Y13501190D01*
X23034285Y13263095D01*
X22986666Y13167857D01*
X22939047Y13120238D01*
X22843809Y13072619D01*
X22605714Y13072619D01*
X22510476Y13120238D01*
X22462857Y13167857D01*
X23367619Y14072619D02*
X24034285Y14072619D01*
X23605714Y13072619D01*
X17843809Y11422619D02*
X17843809Y12089285D01*
X17843809Y11994047D02*
X17891428Y12041666D01*
X17986666Y12089285D01*
X18129523Y12089285D01*
X18224761Y12041666D01*
X18272380Y11946428D01*
X18272380Y11422619D01*
X18272380Y11946428D02*
X18320000Y12041666D01*
X18415238Y12089285D01*
X18558095Y12089285D01*
X18653333Y12041666D01*
X18700952Y11946428D01*
X18700952Y11422619D01*
X19320000Y11422619D02*
X19224761Y11470238D01*
X19177142Y11517857D01*
X19129523Y11613095D01*
X19129523Y11898809D01*
X19177142Y11994047D01*
X19224761Y12041666D01*
X19320000Y12089285D01*
X19462857Y12089285D01*
X19558095Y12041666D01*
X19605714Y11994047D01*
X19653333Y11898809D01*
X19653333Y11613095D01*
X19605714Y11517857D01*
X19558095Y11470238D01*
X19462857Y11422619D01*
X19320000Y11422619D01*
X20510476Y11422619D02*
X20510476Y12422619D01*
X20510476Y11470238D02*
X20415238Y11422619D01*
X20224761Y11422619D01*
X20129523Y11470238D01*
X20081904Y11517857D01*
X20034285Y11613095D01*
X20034285Y11898809D01*
X20081904Y11994047D01*
X20129523Y12041666D01*
X20224761Y12089285D01*
X20415238Y12089285D01*
X20510476Y12041666D01*
X21415238Y12089285D02*
X21415238Y11422619D01*
X20986666Y12089285D02*
X20986666Y11565476D01*
X21034285Y11470238D01*
X21129523Y11422619D01*
X21272380Y11422619D01*
X21367619Y11470238D01*
X21415238Y11517857D01*
X22034285Y11422619D02*
X21939047Y11470238D01*
X21891428Y11565476D01*
X21891428Y12422619D01*
X22796190Y11470238D02*
X22700952Y11422619D01*
X22510476Y11422619D01*
X22415238Y11470238D01*
X22367619Y11565476D01*
X22367619Y11946428D01*
X22415238Y12041666D01*
X22510476Y12089285D01*
X22700952Y12089285D01*
X22796190Y12041666D01*
X22843809Y11946428D01*
X22843809Y11851190D01*
X22367619Y11755952D01*
D11*
X-43180000Y-17780000D02*
X-35560000Y-17780000D01*
X-43180000Y1270000D02*
X-43180000Y-17780000D01*
X-35560000Y1270000D02*
X-43180000Y1270000D01*
X7620000Y29210000D02*
X26670000Y29210000D01*
X7620000Y8890000D02*
X7620000Y29210000D01*
X-7620000Y1270000D02*
X7620000Y1270000D01*
X-7620000Y1270000D02*
X-7620000Y-17780000D01*
X-35560000Y-7620000D02*
X-7620000Y-7620000D01*
X-35560000Y-17780000D02*
X-35560000Y1270000D01*
X-35560000Y-17780000D02*
X-35560000Y-27940000D01*
X-7620000Y-19050000D02*
X-35560000Y-19050000D01*
X-7620000Y-27940000D02*
X-7620000Y-17780000D01*
D10*
X17401166Y-17184714D02*
X17401166Y-17851380D01*
X17163071Y-16803761D02*
X16924976Y-17518047D01*
X17544023Y-17518047D01*
X17972595Y-17803761D02*
X17972595Y-17851380D01*
X17924976Y-17946619D01*
X17877357Y-17994238D01*
X19020214Y-16851380D02*
X19591642Y-16851380D01*
X19305928Y-17851380D02*
X19305928Y-16851380D01*
X20448785Y-17851380D02*
X19877357Y-17851380D01*
X20163071Y-17851380D02*
X20163071Y-16851380D01*
X20067833Y-16994238D01*
X19972595Y-17089476D01*
X19877357Y-17137095D01*
X20829738Y-16946619D02*
X20877357Y-16899000D01*
X20972595Y-16851380D01*
X21210690Y-16851380D01*
X21305928Y-16899000D01*
X21353547Y-16946619D01*
X21401166Y-17041857D01*
X21401166Y-17137095D01*
X21353547Y-17279952D01*
X20782119Y-17851380D01*
X21401166Y-17851380D01*
X21829738Y-17470428D02*
X22591642Y-17470428D01*
X11924357Y-24852380D02*
X12543404Y-24852380D01*
X12210071Y-25233333D01*
X12352928Y-25233333D01*
X12448166Y-25280952D01*
X12495785Y-25328571D01*
X12543404Y-25423809D01*
X12543404Y-25661904D01*
X12495785Y-25757142D01*
X12448166Y-25804761D01*
X12352928Y-25852380D01*
X12067214Y-25852380D01*
X11971976Y-25804761D01*
X11924357Y-25757142D01*
X13019595Y-25804761D02*
X13019595Y-25852380D01*
X12971976Y-25947619D01*
X12924357Y-25995238D01*
X14210071Y-25328571D02*
X14543404Y-25328571D01*
X14686261Y-25852380D02*
X14210071Y-25852380D01*
X14210071Y-24852380D01*
X14686261Y-24852380D01*
X15067214Y-25804761D02*
X15210071Y-25852380D01*
X15448166Y-25852380D01*
X15543404Y-25804761D01*
X15591023Y-25757142D01*
X15638642Y-25661904D01*
X15638642Y-25566666D01*
X15591023Y-25471428D01*
X15543404Y-25423809D01*
X15448166Y-25376190D01*
X15257690Y-25328571D01*
X15162452Y-25280952D01*
X15114833Y-25233333D01*
X15067214Y-25138095D01*
X15067214Y-25042857D01*
X15114833Y-24947619D01*
X15162452Y-24900000D01*
X15257690Y-24852380D01*
X15495785Y-24852380D01*
X15638642Y-24900000D01*
X16067214Y-25852380D02*
X16067214Y-24852380D01*
X16305309Y-24852380D01*
X16448166Y-24900000D01*
X16543404Y-24995238D01*
X16591023Y-25090476D01*
X16638642Y-25280952D01*
X16638642Y-25423809D01*
X16591023Y-25614285D01*
X16543404Y-25709523D01*
X16448166Y-25804761D01*
X16305309Y-25852380D01*
X16067214Y-25852380D01*
X12368785Y-18375380D02*
X11892595Y-18375380D01*
X11844976Y-18851571D01*
X11892595Y-18803952D01*
X11987833Y-18756333D01*
X12225928Y-18756333D01*
X12321166Y-18803952D01*
X12368785Y-18851571D01*
X12416404Y-18946809D01*
X12416404Y-19184904D01*
X12368785Y-19280142D01*
X12321166Y-19327761D01*
X12225928Y-19375380D01*
X11987833Y-19375380D01*
X11892595Y-19327761D01*
X11844976Y-19280142D01*
X12892595Y-19327761D02*
X12892595Y-19375380D01*
X12844976Y-19470619D01*
X12797357Y-19518238D01*
X13940214Y-18375380D02*
X14511642Y-18375380D01*
X14225928Y-19375380D02*
X14225928Y-18375380D01*
X15368785Y-19375380D02*
X14797357Y-19375380D01*
X15083071Y-19375380D02*
X15083071Y-18375380D01*
X14987833Y-18518238D01*
X14892595Y-18613476D01*
X14797357Y-18661095D01*
X15749738Y-18470619D02*
X15797357Y-18423000D01*
X15892595Y-18375380D01*
X16130690Y-18375380D01*
X16225928Y-18423000D01*
X16273547Y-18470619D01*
X16321166Y-18565857D01*
X16321166Y-18661095D01*
X16273547Y-18803952D01*
X15702119Y-19375380D01*
X16321166Y-19375380D01*
X16749738Y-18994428D02*
X17511642Y-18994428D01*
X17130690Y-19375380D02*
X17130690Y-18613476D01*
D11*
X7620000Y8890000D02*
X26670000Y8890000D01*
X7620000Y-27940000D02*
X7620000Y8890000D01*
D10*
X31623095Y-22360000D02*
X31527857Y-22312380D01*
X31385000Y-22312380D01*
X31242142Y-22360000D01*
X31146904Y-22455238D01*
X31099285Y-22550476D01*
X31051666Y-22740952D01*
X31051666Y-22883809D01*
X31099285Y-23074285D01*
X31146904Y-23169523D01*
X31242142Y-23264761D01*
X31385000Y-23312380D01*
X31480238Y-23312380D01*
X31623095Y-23264761D01*
X31670714Y-23217142D01*
X31670714Y-22883809D01*
X31480238Y-22883809D01*
X32099285Y-23312380D02*
X32099285Y-22312380D01*
X32670714Y-23312380D01*
X32670714Y-22312380D01*
X33146904Y-23312380D02*
X33146904Y-22312380D01*
X33385000Y-22312380D01*
X33527857Y-22360000D01*
X33623095Y-22455238D01*
X33670714Y-22550476D01*
X33718333Y-22740952D01*
X33718333Y-22883809D01*
X33670714Y-23074285D01*
X33623095Y-23169523D01*
X33527857Y-23264761D01*
X33385000Y-23312380D01*
X33146904Y-23312380D01*
X28432380Y-15168571D02*
X28765714Y-15168571D01*
X28908571Y-15692380D02*
X28432380Y-15692380D01*
X28432380Y-14692380D01*
X28908571Y-14692380D01*
X29289523Y-15406666D02*
X29765714Y-15406666D01*
X29194285Y-15692380D02*
X29527619Y-14692380D01*
X29860952Y-15692380D01*
X30765714Y-15692380D02*
X30432380Y-15216190D01*
X30194285Y-15692380D02*
X30194285Y-14692380D01*
X30575238Y-14692380D01*
X30670476Y-14740000D01*
X30718095Y-14787619D01*
X30765714Y-14882857D01*
X30765714Y-15025714D01*
X30718095Y-15120952D01*
X30670476Y-15168571D01*
X30575238Y-15216190D01*
X30194285Y-15216190D01*
X31051428Y-14692380D02*
X31622857Y-14692380D01*
X31337142Y-15692380D02*
X31337142Y-14692380D01*
X31956190Y-15692380D02*
X31956190Y-14692380D01*
X31956190Y-15168571D02*
X32527619Y-15168571D01*
X32527619Y-15692380D02*
X32527619Y-14692380D01*
X27638761Y-7167619D02*
X27686380Y-7120000D01*
X27781619Y-7072380D01*
X28019714Y-7072380D01*
X28114952Y-7120000D01*
X28162571Y-7167619D01*
X28210190Y-7262857D01*
X28210190Y-7358095D01*
X28162571Y-7500952D01*
X27591142Y-8072380D01*
X28210190Y-8072380D01*
X29067333Y-7405714D02*
X29067333Y-8072380D01*
X28829238Y-7024761D02*
X28591142Y-7739047D01*
X29210190Y-7739047D01*
X29448285Y-7072380D02*
X29781619Y-8072380D01*
X30114952Y-7072380D01*
X31210190Y-8072380D02*
X31210190Y-7405714D01*
X31210190Y-7500952D02*
X31257809Y-7453333D01*
X31353047Y-7405714D01*
X31495904Y-7405714D01*
X31591142Y-7453333D01*
X31638761Y-7548571D01*
X31638761Y-8072380D01*
X31638761Y-7548571D02*
X31686380Y-7453333D01*
X31781619Y-7405714D01*
X31924476Y-7405714D01*
X32019714Y-7453333D01*
X32067333Y-7548571D01*
X32067333Y-8072380D01*
X32972095Y-8072380D02*
X32972095Y-7548571D01*
X32924476Y-7453333D01*
X32829238Y-7405714D01*
X32638761Y-7405714D01*
X32543523Y-7453333D01*
X32972095Y-8024761D02*
X32876857Y-8072380D01*
X32638761Y-8072380D01*
X32543523Y-8024761D01*
X32495904Y-7929523D01*
X32495904Y-7834285D01*
X32543523Y-7739047D01*
X32638761Y-7691428D01*
X32876857Y-7691428D01*
X32972095Y-7643809D01*
X33353047Y-8072380D02*
X33876857Y-7405714D01*
X33353047Y-7405714D02*
X33876857Y-8072380D01*
D11*
X26670000Y41910000D02*
X26670000Y-27940000D01*
D12*
X-47725000Y-15467064D02*
X-47725000Y-15012936D01*
X-46255000Y-15467064D02*
X-46255000Y-15012936D01*
X-43715000Y-14978748D02*
X-43715000Y-15501252D01*
X-45185000Y-14978748D02*
X-45185000Y-15501252D01*
X-37465000Y19070000D02*
X-40915000Y19070000D01*
X-37465000Y19070000D02*
X-35515000Y19070000D01*
X-37465000Y13950000D02*
X-39415000Y13950000D01*
X-37465000Y13950000D02*
X-35515000Y13950000D01*
X-6590000Y15210000D02*
X-7090000Y15210000D01*
X-7090000Y15210000D02*
X-7090000Y17810000D01*
X-7090000Y17810000D02*
X-6590000Y17810000D01*
X-7090000Y16160000D02*
X-7990000Y15560000D01*
X-7990000Y15560000D02*
X-8190000Y15560000D01*
X-7090000Y16860000D02*
X-7990000Y17460000D01*
X-7990000Y17460000D02*
X-8190000Y17460000D01*
X39490000Y10340000D02*
X39490000Y11840000D01*
X39490000Y11840000D02*
X38540000Y11840000D01*
X38540000Y11840000D02*
X38540000Y16965000D01*
X29090000Y10340000D02*
X29090000Y11840000D01*
X29090000Y11840000D02*
X30040000Y11840000D01*
X30040000Y11840000D02*
X30040000Y12940000D01*
X-24130000Y-20300000D02*
X-26080000Y-20300000D01*
X-24130000Y-20300000D02*
X-22180000Y-20300000D01*
X-24130000Y-25420000D02*
X-26080000Y-25420000D01*
X-24130000Y-25420000D02*
X-20680000Y-25420000D01*
X-24130000Y-8870000D02*
X-26080000Y-8870000D01*
X-24130000Y-8870000D02*
X-22180000Y-8870000D01*
X-24130000Y-13990000D02*
X-26080000Y-13990000D01*
X-24130000Y-13990000D02*
X-20680000Y-13990000D01*
D10*
X-40820000Y-10515000D02*
X-40820000Y-11590000D01*
X-37745000Y-10515000D02*
X-37745000Y-7265000D01*
X-40995000Y-10515000D02*
X-40995000Y-7265000D01*
X-37745000Y-10515000D02*
X-38020000Y-10515000D01*
X-37745000Y-7265000D02*
X-38020000Y-7265000D01*
X-40995000Y-7265000D02*
X-40720000Y-7265000D01*
X-40995000Y-10515000D02*
X-40820000Y-10515000D01*
X-13923476Y16510000D02*
X-14223996Y16810520D01*
X-19050000Y11383476D02*
X-19421231Y11754707D01*
X-24176524Y16510000D02*
X-23805293Y16138769D01*
X-19050000Y21636524D02*
X-18678769Y21265293D01*
X-13923476Y16510000D02*
X-14294707Y16138769D01*
X-19050000Y21636524D02*
X-19421231Y21265293D01*
X-24176524Y16510000D02*
X-23805293Y16881231D01*
X-19050000Y11383476D02*
X-18678769Y11754707D01*
X-14223996Y16810520D02*
X-13251724Y17782792D01*
D12*
X0Y-15740000D02*
X0Y-14740000D01*
X-500000Y-15240000D02*
X500000Y-15240000D01*
X3500000Y-9140000D02*
X5900000Y-9140000D01*
X-1300000Y-9140000D02*
X1300000Y-9140000D01*
X-5900000Y-9140000D02*
X-3500000Y-9140000D01*
X-4100000Y-22440000D02*
X-3800000Y-22740000D01*
X-4100000Y-23040000D02*
X-4100000Y-22440000D01*
X-3800000Y-22740000D02*
X-4100000Y-23040000D01*
X-5900000Y-21340000D02*
X5900000Y-21340000D01*
X-5900000Y-17240000D02*
X-5900000Y-21340000D01*
X5900000Y-17240000D02*
X5900000Y-21340000D01*
X5900000Y-9140000D02*
X5900000Y-13240000D01*
X-5900000Y-13240000D02*
X-5900000Y-9140000D01*
X3000000Y-15240000D02*
G75*
G03*
X3000000Y-15240000I-3000000J0D01*
G01*
X28982936Y-17045000D02*
X29437064Y-17045000D01*
X28982936Y-18515000D02*
X29437064Y-18515000D01*
X29437064Y-21055000D02*
X28982936Y-21055000D01*
X29437064Y-19585000D02*
X28982936Y-19585000D01*
X-24865000Y-5307064D02*
X-24865000Y-4852936D01*
X-23395000Y-5307064D02*
X-23395000Y-4852936D01*
X-32485000Y-5307064D02*
X-32485000Y-4852936D01*
X-31015000Y-5307064D02*
X-31015000Y-4852936D01*
X17045000Y18822936D02*
X17045000Y19277064D01*
X18515000Y18822936D02*
X18515000Y19277064D01*
X13742936Y2005000D02*
X14197064Y2005000D01*
X13742936Y535000D02*
X14197064Y535000D01*
X37565000Y-2312936D02*
X37565000Y-2767064D01*
X36095000Y-2312936D02*
X36095000Y-2767064D01*
X-30707064Y-535000D02*
X-30252936Y-535000D01*
X-30707064Y-2005000D02*
X-30252936Y-2005000D01*
X-11657064Y-23395000D02*
X-11202936Y-23395000D01*
X-11657064Y-24865000D02*
X-11202936Y-24865000D01*
X-11657064Y-20855000D02*
X-11202936Y-20855000D01*
X-11657064Y-22325000D02*
X-11202936Y-22325000D01*
X-11657064Y-11965000D02*
X-11202936Y-11965000D01*
X-11657064Y-13435000D02*
X-11202936Y-13435000D01*
X-11657064Y-9425000D02*
X-11202936Y-9425000D01*
X-11657064Y-10895000D02*
X-11202936Y-10895000D01*
X13742936Y-535000D02*
X14197064Y-535000D01*
X13742936Y-2005000D02*
X14197064Y-2005000D01*
X24357064Y3075000D02*
X23902936Y3075000D01*
X24357064Y4545000D02*
X23902936Y4545000D01*
X-4217936Y-5815000D02*
X-4672064Y-5815000D01*
X-4217936Y-4345000D02*
X-4672064Y-4345000D01*
X-28475000Y9117064D02*
X-28475000Y8662936D01*
X-29945000Y9117064D02*
X-29945000Y8662936D01*
X-31015000Y9117064D02*
X-31015000Y8662936D01*
X-32485000Y9117064D02*
X-32485000Y8662936D01*
X-25935000Y9117064D02*
X-25935000Y8662936D01*
X-27405000Y9117064D02*
X-27405000Y8662936D01*
X-23395000Y9117064D02*
X-23395000Y8662936D01*
X-24865000Y9117064D02*
X-24865000Y8662936D01*
X32285000Y-2767064D02*
X32285000Y-2312936D01*
X33755000Y-2767064D02*
X33755000Y-2312936D01*
X-25627064Y-535000D02*
X-25172936Y-535000D01*
X-25627064Y-2005000D02*
X-25172936Y-2005000D01*
X-39142936Y-15975000D02*
X-39597064Y-15975000D01*
X-39142936Y-14505000D02*
X-39597064Y-14505000D01*
X29310000Y28167064D02*
X29310000Y27712936D01*
X27840000Y28167064D02*
X27840000Y27712936D01*
X13435000Y5307064D02*
X13435000Y4852936D01*
X11965000Y5307064D02*
X11965000Y4852936D01*
X24357064Y5615000D02*
X23902936Y5615000D01*
X24357064Y7085000D02*
X23902936Y7085000D01*
X-2312936Y33555000D02*
X-2767064Y33555000D01*
X-2312936Y35025000D02*
X-2767064Y35025000D01*
X27840000Y22632936D02*
X27840000Y23087064D01*
X29310000Y22632936D02*
X29310000Y23087064D01*
X-17045000Y-22632936D02*
X-17045000Y-23087064D01*
X-18515000Y-22632936D02*
X-18515000Y-23087064D01*
X-17045000Y-11202936D02*
X-17045000Y-11657064D01*
X-18515000Y-11202936D02*
X-18515000Y-11657064D01*
X-33555000Y24357064D02*
X-33555000Y23902936D01*
X-35025000Y24357064D02*
X-35025000Y23902936D01*
X-31522936Y-24865000D02*
X-31977064Y-24865000D01*
X-31522936Y-23395000D02*
X-31977064Y-23395000D01*
X-31522936Y-13435000D02*
X-31977064Y-13435000D01*
X-31522936Y-11965000D02*
X-31977064Y-11965000D01*
X19537936Y-22420000D02*
X23642064Y-22420000D01*
X19537936Y-25840000D02*
X23642064Y-25840000D01*
X18750000Y-16150000D02*
X20250000Y-16150000D01*
X20250000Y-16150000D02*
X20250000Y-15880000D01*
X20250000Y-15880000D02*
X23080000Y-15880000D01*
X18750000Y-9250000D02*
X20250000Y-9250000D01*
X20250000Y-9250000D02*
X20250000Y-9520000D01*
X20250000Y-9520000D02*
X21350000Y-9520000D01*
X17270000Y3500000D02*
X17270000Y4430000D01*
X17270000Y6660000D02*
X17270000Y5730000D01*
X17270000Y6660000D02*
X15110000Y6660000D01*
X17270000Y3500000D02*
X15810000Y3500000D01*
X4120000Y35050000D02*
X3190000Y35050000D01*
X960000Y35050000D02*
X1890000Y35050000D01*
X960000Y35050000D02*
X960000Y32890000D01*
X4120000Y35050000D02*
X4120000Y33590000D01*
X-18788748Y24690000D02*
X-19311252Y24690000D01*
X-18788748Y26110000D02*
X-19311252Y26110000D01*
X40130000Y31700000D02*
X43130000Y31700000D01*
X43130000Y31700000D02*
X43130000Y19100000D01*
X43130000Y19100000D02*
X40130000Y19100000D01*
X33530000Y19100000D02*
X30530000Y19100000D01*
X30530000Y19100000D02*
X30530000Y31700000D01*
X30530000Y31700000D02*
X33530000Y31700000D01*
X9200000Y-11700000D02*
X9200000Y-14560000D01*
X9200000Y-14560000D02*
X11120000Y-14560000D01*
X11120000Y-14560000D02*
X11120000Y-11700000D01*
X-1000000Y-6040000D02*
X1860000Y-6040000D01*
X1860000Y-6040000D02*
X1860000Y-4120000D01*
X1860000Y-4120000D02*
X-1000000Y-4120000D01*
X24890000Y-1580000D02*
X24890000Y-650000D01*
X24890000Y1580000D02*
X24890000Y650000D01*
X24890000Y1580000D02*
X22730000Y1580000D01*
X24890000Y-1580000D02*
X23430000Y-1580000D01*
X16100000Y-6730000D02*
X16100000Y-3430000D01*
X16100000Y-3430000D02*
X10700000Y-3430000D01*
X16100000Y-6730000D02*
X10700000Y-6730000D01*
X45340000Y19460000D02*
X48640000Y19460000D01*
X48640000Y19460000D02*
X48640000Y24860000D01*
X45340000Y19460000D02*
X45340000Y24860000D01*
X47850000Y890000D02*
X47850000Y4190000D01*
X47850000Y4190000D02*
X42450000Y4190000D01*
X47850000Y890000D02*
X42450000Y890000D01*
X24990000Y-6730000D02*
X24990000Y-3430000D01*
X24990000Y-3430000D02*
X19590000Y-3430000D01*
X24990000Y-6730000D02*
X19590000Y-6730000D01*
X-36320000Y10470000D02*
X-36320000Y9540000D01*
X-36320000Y7310000D02*
X-36320000Y8240000D01*
X-36320000Y7310000D02*
X-34160000Y7310000D01*
X-36320000Y10470000D02*
X-34860000Y10470000D01*
X-38610000Y7310000D02*
X-38610000Y8240000D01*
X-38610000Y10470000D02*
X-38610000Y9540000D01*
X-38610000Y10470000D02*
X-40770000Y10470000D01*
X-38610000Y7310000D02*
X-40070000Y7310000D01*
X-16000000Y-14930000D02*
X-16000000Y-15860000D01*
X-16000000Y-18090000D02*
X-16000000Y-17160000D01*
X-16000000Y-18090000D02*
X-13840000Y-18090000D01*
X-16000000Y-14930000D02*
X-14540000Y-14930000D01*
X-22350000Y-14930000D02*
X-22350000Y-15860000D01*
X-22350000Y-18090000D02*
X-22350000Y-17160000D01*
X-22350000Y-18090000D02*
X-20190000Y-18090000D01*
X-22350000Y-14930000D02*
X-20890000Y-14930000D01*
X-30880000Y33420000D02*
X-30880000Y35770000D01*
X-30880000Y40240000D02*
X-30880000Y37890000D01*
X-36635563Y40240000D02*
X-30880000Y40240000D01*
X-36635563Y33420000D02*
X-30880000Y33420000D01*
X-37700000Y34484437D02*
X-37700000Y35770000D01*
X-37700000Y39175563D02*
X-37700000Y37890000D01*
X-37700000Y39175563D02*
X-36635563Y40240000D01*
X-37700000Y34484437D02*
X-36635563Y33420000D01*
X-38727500Y38677500D02*
X-37940000Y38677500D01*
X-38333750Y39071250D02*
X-38333750Y38283750D01*
X37700000Y33420000D02*
X37700000Y35770000D01*
X37700000Y40240000D02*
X37700000Y37890000D01*
X31944437Y40240000D02*
X37700000Y40240000D01*
X31944437Y33420000D02*
X37700000Y33420000D01*
X30880000Y34484437D02*
X30880000Y35770000D01*
X30880000Y39175563D02*
X30880000Y37890000D01*
X30880000Y39175563D02*
X31944437Y40240000D01*
X30880000Y34484437D02*
X31944437Y33420000D01*
X29852500Y38677500D02*
X30640000Y38677500D01*
X30246250Y39071250D02*
X30246250Y38283750D01*
X41040000Y6750000D02*
X43390000Y6750000D01*
X47860000Y6750000D02*
X45510000Y6750000D01*
X47860000Y12505563D02*
X47860000Y6750000D01*
X41040000Y12505563D02*
X41040000Y6750000D01*
X42104437Y13570000D02*
X43390000Y13570000D01*
X46795563Y13570000D02*
X45510000Y13570000D01*
X46795563Y13570000D02*
X47860000Y12505563D01*
X42104437Y13570000D02*
X41040000Y12505563D01*
X46297500Y14597500D02*
X46297500Y13810000D01*
X46691250Y14203750D02*
X45903750Y14203750D01*
X-12165000Y23868748D02*
X-12165000Y24391252D01*
X-10695000Y23868748D02*
X-10695000Y24391252D01*
X-29945000Y23868748D02*
X-29945000Y24391252D01*
X-28475000Y23868748D02*
X-28475000Y24391252D01*
X-7085000Y23868748D02*
X-7085000Y24391252D01*
X-5615000Y23868748D02*
X-5615000Y24391252D01*
X-13235000Y9151252D02*
X-13235000Y8628748D01*
X-14705000Y9151252D02*
X-14705000Y8628748D01*
X-27405000Y23868748D02*
X-27405000Y24391252D01*
X-25935000Y23868748D02*
X-25935000Y24391252D01*
X-32485000Y23868748D02*
X-32485000Y24391252D01*
X-31015000Y23868748D02*
X-31015000Y24391252D01*
X-9625000Y23868748D02*
X-9625000Y24391252D01*
X-8155000Y23868748D02*
X-8155000Y24391252D01*
X-24865000Y23868748D02*
X-24865000Y24391252D01*
X-23395000Y23868748D02*
X-23395000Y24391252D01*
X-14705000Y23868748D02*
X-14705000Y24391252D01*
X-13235000Y23868748D02*
X-13235000Y24391252D01*
X47725000Y29471252D02*
X47725000Y28948748D01*
X46255000Y29471252D02*
X46255000Y28948748D01*
X44188748Y17245000D02*
X44711252Y17245000D01*
X44188748Y15775000D02*
X44711252Y15775000D01*
X-39108748Y-3275000D02*
X-39631252Y-3275000D01*
X-39108748Y-1805000D02*
X-39631252Y-1805000D01*
X-31488748Y-22325000D02*
X-32011252Y-22325000D01*
X-31488748Y-20855000D02*
X-32011252Y-20855000D01*
X-31488748Y-10895000D02*
X-32011252Y-10895000D01*
X-31488748Y-9425000D02*
X-32011252Y-9425000D01*
X-14505000Y-22598748D02*
X-14505000Y-23121252D01*
X-15975000Y-22598748D02*
X-15975000Y-23121252D01*
X-14505000Y-11168748D02*
X-14505000Y-11691252D01*
X-15975000Y-11168748D02*
X-15975000Y-11691252D01*
X-27205000Y-4818748D02*
X-27205000Y-5341252D01*
X-28675000Y-4818748D02*
X-28675000Y-5341252D01*
X-8113752Y20420000D02*
X-7591248Y20420000D01*
X-8113752Y18950000D02*
X-7591248Y18950000D01*
X-8113752Y14070000D02*
X-7591248Y14070000D01*
X-8113752Y12600000D02*
X-7591248Y12600000D01*
D10*
X-48187619Y-15882857D02*
X-48663809Y-16216190D01*
X-48187619Y-16454285D02*
X-49187619Y-16454285D01*
X-49187619Y-16073333D01*
X-49140000Y-15978095D01*
X-49092380Y-15930476D01*
X-48997142Y-15882857D01*
X-48854285Y-15882857D01*
X-48759047Y-15930476D01*
X-48711428Y-15978095D01*
X-48663809Y-16073333D01*
X-48663809Y-16454285D01*
X-48759047Y-15311428D02*
X-48806666Y-15406666D01*
X-48854285Y-15454285D01*
X-48949523Y-15501904D01*
X-48997142Y-15501904D01*
X-49092380Y-15454285D01*
X-49140000Y-15406666D01*
X-49187619Y-15311428D01*
X-49187619Y-15120952D01*
X-49140000Y-15025714D01*
X-49092380Y-14978095D01*
X-48997142Y-14930476D01*
X-48949523Y-14930476D01*
X-48854285Y-14978095D01*
X-48806666Y-15025714D01*
X-48759047Y-15120952D01*
X-48759047Y-15311428D01*
X-48711428Y-15406666D01*
X-48663809Y-15454285D01*
X-48568571Y-15501904D01*
X-48378095Y-15501904D01*
X-48282857Y-15454285D01*
X-48235238Y-15406666D01*
X-48187619Y-15311428D01*
X-48187619Y-15120952D01*
X-48235238Y-15025714D01*
X-48282857Y-14978095D01*
X-48378095Y-14930476D01*
X-48568571Y-14930476D01*
X-48663809Y-14978095D01*
X-48711428Y-15025714D01*
X-48759047Y-15120952D01*
X-48854285Y-14073333D02*
X-48187619Y-14073333D01*
X-49235238Y-14311428D02*
X-48520952Y-14549523D01*
X-48520952Y-13930476D01*
X-45600857Y-18137142D02*
X-45648476Y-18184761D01*
X-45791333Y-18232380D01*
X-45886571Y-18232380D01*
X-46029428Y-18184761D01*
X-46124666Y-18089523D01*
X-46172285Y-17994285D01*
X-46219904Y-17803809D01*
X-46219904Y-17660952D01*
X-46172285Y-17470476D01*
X-46124666Y-17375238D01*
X-46029428Y-17280000D01*
X-45886571Y-17232380D01*
X-45791333Y-17232380D01*
X-45648476Y-17280000D01*
X-45600857Y-17327619D01*
X-45219904Y-17327619D02*
X-45172285Y-17280000D01*
X-45077047Y-17232380D01*
X-44838952Y-17232380D01*
X-44743714Y-17280000D01*
X-44696095Y-17327619D01*
X-44648476Y-17422857D01*
X-44648476Y-17518095D01*
X-44696095Y-17660952D01*
X-45267523Y-18232380D01*
X-44648476Y-18232380D01*
X-44267523Y-17327619D02*
X-44219904Y-17280000D01*
X-44124666Y-17232380D01*
X-43886571Y-17232380D01*
X-43791333Y-17280000D01*
X-43743714Y-17327619D01*
X-43696095Y-17422857D01*
X-43696095Y-17518095D01*
X-43743714Y-17660952D01*
X-44315142Y-18232380D01*
X-43696095Y-18232380D01*
X-38226904Y20457619D02*
X-38226904Y19648095D01*
X-38179285Y19552857D01*
X-38131666Y19505238D01*
X-38036428Y19457619D01*
X-37845952Y19457619D01*
X-37750714Y19505238D01*
X-37703095Y19552857D01*
X-37655476Y19648095D01*
X-37655476Y20457619D01*
X-36750714Y20457619D02*
X-36941190Y20457619D01*
X-37036428Y20410000D01*
X-37084047Y20362380D01*
X-37179285Y20219523D01*
X-37226904Y20029047D01*
X-37226904Y19648095D01*
X-37179285Y19552857D01*
X-37131666Y19505238D01*
X-37036428Y19457619D01*
X-36845952Y19457619D01*
X-36750714Y19505238D01*
X-36703095Y19552857D01*
X-36655476Y19648095D01*
X-36655476Y19886190D01*
X-36703095Y19981428D01*
X-36750714Y20029047D01*
X-36845952Y20076666D01*
X-37036428Y20076666D01*
X-37131666Y20029047D01*
X-37179285Y19981428D01*
X-37226904Y19886190D01*
X22145714Y25233333D02*
X22621904Y25233333D01*
X22050476Y24947619D02*
X22383809Y25947619D01*
X22717142Y24947619D01*
X22955238Y25947619D02*
X23574285Y25947619D01*
X23240952Y25566666D01*
X23383809Y25566666D01*
X23479047Y25519047D01*
X23526666Y25471428D01*
X23574285Y25376190D01*
X23574285Y25138095D01*
X23526666Y25042857D01*
X23479047Y24995238D01*
X23383809Y24947619D01*
X23098095Y24947619D01*
X23002857Y24995238D01*
X22955238Y25042857D01*
X21576428Y15811904D02*
X21576428Y16573809D01*
X21909761Y17764285D02*
X21957380Y17907142D01*
X21957380Y18145238D01*
X21909761Y18240476D01*
X21862142Y18288095D01*
X21766904Y18335714D01*
X21671666Y18335714D01*
X21576428Y18288095D01*
X21528809Y18240476D01*
X21481190Y18145238D01*
X21433571Y17954761D01*
X21385952Y17859523D01*
X21338333Y17811904D01*
X21243095Y17764285D01*
X21147857Y17764285D01*
X21052619Y17811904D01*
X21005000Y17859523D01*
X20957380Y17954761D01*
X20957380Y18192857D01*
X21005000Y18335714D01*
X21957380Y18764285D02*
X20957380Y18764285D01*
X20957380Y19145238D01*
X21005000Y19240476D01*
X21052619Y19288095D01*
X21147857Y19335714D01*
X21290714Y19335714D01*
X21385952Y19288095D01*
X21433571Y19240476D01*
X21481190Y19145238D01*
X21481190Y18764285D01*
X21957380Y19764285D02*
X20957380Y19764285D01*
X21957380Y20335714D02*
X21385952Y19907142D01*
X20957380Y20335714D02*
X21528809Y19764285D01*
X21576428Y21526190D02*
X21576428Y22288095D01*
X21957380Y21907142D02*
X21195476Y21907142D01*
X11916666Y11977619D02*
X12250000Y10977619D01*
X12583333Y11977619D01*
X13488095Y11072857D02*
X13440476Y11025238D01*
X13297619Y10977619D01*
X13202380Y10977619D01*
X13059523Y11025238D01*
X12964285Y11120476D01*
X12916666Y11215714D01*
X12869047Y11406190D01*
X12869047Y11549047D01*
X12916666Y11739523D01*
X12964285Y11834761D01*
X13059523Y11930000D01*
X13202380Y11977619D01*
X13297619Y11977619D01*
X13440476Y11930000D01*
X13488095Y11882380D01*
X14488095Y11072857D02*
X14440476Y11025238D01*
X14297619Y10977619D01*
X14202380Y10977619D01*
X14059523Y11025238D01*
X13964285Y11120476D01*
X13916666Y11215714D01*
X13869047Y11406190D01*
X13869047Y11549047D01*
X13916666Y11739523D01*
X13964285Y11834761D01*
X14059523Y11930000D01*
X14202380Y11977619D01*
X14297619Y11977619D01*
X14440476Y11930000D01*
X14488095Y11882380D01*
X12488095Y14470000D02*
X12392857Y14517619D01*
X12250000Y14517619D01*
X12107142Y14470000D01*
X12011904Y14374761D01*
X11964285Y14279523D01*
X11916666Y14089047D01*
X11916666Y13946190D01*
X11964285Y13755714D01*
X12011904Y13660476D01*
X12107142Y13565238D01*
X12250000Y13517619D01*
X12345238Y13517619D01*
X12488095Y13565238D01*
X12535714Y13612857D01*
X12535714Y13946190D01*
X12345238Y13946190D01*
X12964285Y13517619D02*
X12964285Y14517619D01*
X13535714Y13517619D01*
X13535714Y14517619D01*
X14011904Y13517619D02*
X14011904Y14517619D01*
X14250000Y14517619D01*
X14392857Y14470000D01*
X14488095Y14374761D01*
X14535714Y14279523D01*
X14583333Y14089047D01*
X14583333Y13946190D01*
X14535714Y13755714D01*
X14488095Y13660476D01*
X14392857Y13565238D01*
X14250000Y13517619D01*
X14011904Y13517619D01*
X12464285Y16105238D02*
X12607142Y16057619D01*
X12845238Y16057619D01*
X12940476Y16105238D01*
X12988095Y16152857D01*
X13035714Y16248095D01*
X13035714Y16343333D01*
X12988095Y16438571D01*
X12940476Y16486190D01*
X12845238Y16533809D01*
X12654761Y16581428D01*
X12559523Y16629047D01*
X12511904Y16676666D01*
X12464285Y16771904D01*
X12464285Y16867142D01*
X12511904Y16962380D01*
X12559523Y17010000D01*
X12654761Y17057619D01*
X12892857Y17057619D01*
X13035714Y17010000D01*
X13464285Y16057619D02*
X13464285Y17057619D01*
X13702380Y17057619D01*
X13845238Y17010000D01*
X13940476Y16914761D01*
X13988095Y16819523D01*
X14035714Y16629047D01*
X14035714Y16486190D01*
X13988095Y16295714D01*
X13940476Y16200476D01*
X13845238Y16105238D01*
X13702380Y16057619D01*
X13464285Y16057619D01*
X12321428Y19550000D02*
X12226190Y19597619D01*
X12083333Y19597619D01*
X11940476Y19550000D01*
X11845238Y19454761D01*
X11797619Y19359523D01*
X11750000Y19169047D01*
X11750000Y19026190D01*
X11797619Y18835714D01*
X11845238Y18740476D01*
X11940476Y18645238D01*
X12083333Y18597619D01*
X12178571Y18597619D01*
X12321428Y18645238D01*
X12369047Y18692857D01*
X12369047Y19026190D01*
X12178571Y19026190D01*
X12750000Y18883333D02*
X13226190Y18883333D01*
X12654761Y18597619D02*
X12988095Y19597619D01*
X13321428Y18597619D01*
X13654761Y18597619D02*
X13654761Y19597619D01*
X14130952Y18597619D02*
X14130952Y19597619D01*
X14702380Y18597619D01*
X14702380Y19597619D01*
X12226190Y21137619D02*
X12226190Y22137619D01*
X12464285Y22137619D01*
X12607142Y22090000D01*
X12702380Y21994761D01*
X12750000Y21899523D01*
X12797619Y21709047D01*
X12797619Y21566190D01*
X12750000Y21375714D01*
X12702380Y21280476D01*
X12607142Y21185238D01*
X12464285Y21137619D01*
X12226190Y21137619D01*
X13226190Y21137619D02*
X13226190Y22137619D01*
X13702380Y21137619D02*
X13702380Y22137619D01*
X14273809Y21137619D01*
X14273809Y22137619D01*
X11916666Y24201428D02*
X12059523Y24153809D01*
X12107142Y24106190D01*
X12154761Y24010952D01*
X12154761Y23868095D01*
X12107142Y23772857D01*
X12059523Y23725238D01*
X11964285Y23677619D01*
X11583333Y23677619D01*
X11583333Y24677619D01*
X11916666Y24677619D01*
X12011904Y24630000D01*
X12059523Y24582380D01*
X12107142Y24487142D01*
X12107142Y24391904D01*
X12059523Y24296666D01*
X12011904Y24249047D01*
X11916666Y24201428D01*
X11583333Y24201428D01*
X13154761Y23772857D02*
X13107142Y23725238D01*
X12964285Y23677619D01*
X12869047Y23677619D01*
X12726190Y23725238D01*
X12630952Y23820476D01*
X12583333Y23915714D01*
X12535714Y24106190D01*
X12535714Y24249047D01*
X12583333Y24439523D01*
X12630952Y24534761D01*
X12726190Y24630000D01*
X12869047Y24677619D01*
X12964285Y24677619D01*
X13107142Y24630000D01*
X13154761Y24582380D01*
X14059523Y23677619D02*
X13583333Y23677619D01*
X13583333Y24677619D01*
X14392857Y23677619D02*
X14392857Y24677619D01*
X14964285Y23677619D02*
X14535714Y24249047D01*
X14964285Y24677619D02*
X14392857Y24106190D01*
X12559523Y26217619D02*
X12083333Y26217619D01*
X12083333Y27217619D01*
X13464285Y26217619D02*
X13130952Y26693809D01*
X12892857Y26217619D02*
X12892857Y27217619D01*
X13273809Y27217619D01*
X13369047Y27170000D01*
X13416666Y27122380D01*
X13464285Y27027142D01*
X13464285Y26884285D01*
X13416666Y26789047D01*
X13369047Y26741428D01*
X13273809Y26693809D01*
X12892857Y26693809D01*
X14464285Y26312857D02*
X14416666Y26265238D01*
X14273809Y26217619D01*
X14178571Y26217619D01*
X14035714Y26265238D01*
X13940476Y26360476D01*
X13892857Y26455714D01*
X13845238Y26646190D01*
X13845238Y26789047D01*
X13892857Y26979523D01*
X13940476Y27074761D01*
X14035714Y27170000D01*
X14178571Y27217619D01*
X14273809Y27217619D01*
X14416666Y27170000D01*
X14464285Y27122380D01*
X10588714Y39223333D02*
X11064904Y39223333D01*
X10493476Y38937619D02*
X10826809Y39937619D01*
X11160142Y38937619D01*
X11445857Y39842380D02*
X11493476Y39890000D01*
X11588714Y39937619D01*
X11826809Y39937619D01*
X11922047Y39890000D01*
X11969666Y39842380D01*
X12017285Y39747142D01*
X12017285Y39651904D01*
X11969666Y39509047D01*
X11398238Y38937619D01*
X12017285Y38937619D01*
X1373190Y16160809D02*
X1849380Y16160809D01*
X849380Y15827476D02*
X1373190Y16160809D01*
X849380Y16494142D01*
X1849380Y17351285D02*
X1849380Y16779857D01*
X1849380Y17065571D02*
X849380Y17065571D01*
X992238Y16970333D01*
X1087476Y16875095D01*
X1135095Y16779857D01*
X28702095Y293619D02*
X28702095Y-515904D01*
X28749714Y-611142D01*
X28797333Y-658761D01*
X28892571Y-706380D01*
X29083047Y-706380D01*
X29178285Y-658761D01*
X29225904Y-611142D01*
X29273523Y-515904D01*
X29273523Y293619D01*
X30225904Y293619D02*
X29749714Y293619D01*
X29702095Y-182571D01*
X29749714Y-134952D01*
X29844952Y-87333D01*
X30083047Y-87333D01*
X30178285Y-134952D01*
X30225904Y-182571D01*
X30273523Y-277809D01*
X30273523Y-515904D01*
X30225904Y-611142D01*
X30178285Y-658761D01*
X30083047Y-706380D01*
X29844952Y-706380D01*
X29749714Y-658761D01*
X29702095Y-611142D01*
X-24891904Y-25712380D02*
X-24891904Y-26521904D01*
X-24844285Y-26617142D01*
X-24796666Y-26664761D01*
X-24701428Y-26712380D01*
X-24510952Y-26712380D01*
X-24415714Y-26664761D01*
X-24368095Y-26617142D01*
X-24320476Y-26521904D01*
X-24320476Y-25712380D01*
X-23415714Y-26045714D02*
X-23415714Y-26712380D01*
X-23653809Y-25664761D02*
X-23891904Y-26379047D01*
X-23272857Y-26379047D01*
X-27812904Y-14438380D02*
X-27812904Y-15247904D01*
X-27765285Y-15343142D01*
X-27717666Y-15390761D01*
X-27622428Y-15438380D01*
X-27431952Y-15438380D01*
X-27336714Y-15390761D01*
X-27289095Y-15343142D01*
X-27241476Y-15247904D01*
X-27241476Y-14438380D01*
X-26860523Y-14438380D02*
X-26241476Y-14438380D01*
X-26574809Y-14819333D01*
X-26431952Y-14819333D01*
X-26336714Y-14866952D01*
X-26289095Y-14914571D01*
X-26241476Y-15009809D01*
X-26241476Y-15247904D01*
X-26289095Y-15343142D01*
X-26336714Y-15390761D01*
X-26431952Y-15438380D01*
X-26717666Y-15438380D01*
X-26812904Y-15390761D01*
X-26860523Y-15343142D01*
X-42457619Y-9651904D02*
X-41648095Y-9651904D01*
X-41552857Y-9604285D01*
X-41505238Y-9556666D01*
X-41457619Y-9461428D01*
X-41457619Y-9270952D01*
X-41505238Y-9175714D01*
X-41552857Y-9128095D01*
X-41648095Y-9080476D01*
X-42457619Y-9080476D01*
X-42362380Y-8651904D02*
X-42410000Y-8604285D01*
X-42457619Y-8509047D01*
X-42457619Y-8270952D01*
X-42410000Y-8175714D01*
X-42362380Y-8128095D01*
X-42267142Y-8080476D01*
X-42171904Y-8080476D01*
X-42029047Y-8128095D01*
X-41457619Y-8699523D01*
X-41457619Y-8080476D01*
X-13498973Y16104476D02*
X-12926553Y15532056D01*
X-12825538Y15498384D01*
X-12758194Y15498384D01*
X-12657179Y15532056D01*
X-12522492Y15666743D01*
X-12488820Y15767758D01*
X-12488820Y15835102D01*
X-12522492Y15936117D01*
X-13094912Y16508537D01*
X-11680698Y16508537D02*
X-12084759Y16104476D01*
X-11882729Y16306506D02*
X-12589835Y17013613D01*
X-12556164Y16845254D01*
X-12556164Y16710567D01*
X-12589835Y16609552D01*
X-1333333Y-25804761D02*
X-1190476Y-25852380D01*
X-952380Y-25852380D01*
X-857142Y-25804761D01*
X-809523Y-25757142D01*
X-761904Y-25661904D01*
X-761904Y-25566666D01*
X-809523Y-25471428D01*
X-857142Y-25423809D01*
X-952380Y-25376190D01*
X-1142857Y-25328571D01*
X-1238095Y-25280952D01*
X-1285714Y-25233333D01*
X-1333333Y-25138095D01*
X-1333333Y-25042857D01*
X-1285714Y-24947619D01*
X-1238095Y-24900000D01*
X-1142857Y-24852380D01*
X-904761Y-24852380D01*
X-761904Y-24900000D01*
X-428571Y-24852380D02*
X-190476Y-25852380D01*
X0Y-25138095D01*
X190476Y-25852380D01*
X428571Y-24852380D01*
X1333333Y-25852380D02*
X761904Y-25852380D01*
X1047619Y-25852380D02*
X1047619Y-24852380D01*
X952380Y-24995238D01*
X857142Y-25090476D01*
X761904Y-25138095D01*
X32377142Y-18232380D02*
X32043809Y-17756190D01*
X31805714Y-18232380D02*
X31805714Y-17232380D01*
X32186666Y-17232380D01*
X32281904Y-17280000D01*
X32329523Y-17327619D01*
X32377142Y-17422857D01*
X32377142Y-17565714D01*
X32329523Y-17660952D01*
X32281904Y-17708571D01*
X32186666Y-17756190D01*
X31805714Y-17756190D01*
X32948571Y-17660952D02*
X32853333Y-17613333D01*
X32805714Y-17565714D01*
X32758095Y-17470476D01*
X32758095Y-17422857D01*
X32805714Y-17327619D01*
X32853333Y-17280000D01*
X32948571Y-17232380D01*
X33139047Y-17232380D01*
X33234285Y-17280000D01*
X33281904Y-17327619D01*
X33329523Y-17422857D01*
X33329523Y-17470476D01*
X33281904Y-17565714D01*
X33234285Y-17613333D01*
X33139047Y-17660952D01*
X32948571Y-17660952D01*
X32853333Y-17708571D01*
X32805714Y-17756190D01*
X32758095Y-17851428D01*
X32758095Y-18041904D01*
X32805714Y-18137142D01*
X32853333Y-18184761D01*
X32948571Y-18232380D01*
X33139047Y-18232380D01*
X33234285Y-18184761D01*
X33281904Y-18137142D01*
X33329523Y-18041904D01*
X33329523Y-17851428D01*
X33281904Y-17756190D01*
X33234285Y-17708571D01*
X33139047Y-17660952D01*
X33662857Y-17232380D02*
X34281904Y-17232380D01*
X33948571Y-17613333D01*
X34091428Y-17613333D01*
X34186666Y-17660952D01*
X34234285Y-17708571D01*
X34281904Y-17803809D01*
X34281904Y-18041904D01*
X34234285Y-18137142D01*
X34186666Y-18184761D01*
X34091428Y-18232380D01*
X33805714Y-18232380D01*
X33710476Y-18184761D01*
X33662857Y-18137142D01*
X32377142Y-20772380D02*
X32043809Y-20296190D01*
X31805714Y-20772380D02*
X31805714Y-19772380D01*
X32186666Y-19772380D01*
X32281904Y-19820000D01*
X32329523Y-19867619D01*
X32377142Y-19962857D01*
X32377142Y-20105714D01*
X32329523Y-20200952D01*
X32281904Y-20248571D01*
X32186666Y-20296190D01*
X31805714Y-20296190D01*
X32948571Y-20200952D02*
X32853333Y-20153333D01*
X32805714Y-20105714D01*
X32758095Y-20010476D01*
X32758095Y-19962857D01*
X32805714Y-19867619D01*
X32853333Y-19820000D01*
X32948571Y-19772380D01*
X33139047Y-19772380D01*
X33234285Y-19820000D01*
X33281904Y-19867619D01*
X33329523Y-19962857D01*
X33329523Y-20010476D01*
X33281904Y-20105714D01*
X33234285Y-20153333D01*
X33139047Y-20200952D01*
X32948571Y-20200952D01*
X32853333Y-20248571D01*
X32805714Y-20296190D01*
X32758095Y-20391428D01*
X32758095Y-20581904D01*
X32805714Y-20677142D01*
X32853333Y-20724761D01*
X32948571Y-20772380D01*
X33139047Y-20772380D01*
X33234285Y-20724761D01*
X33281904Y-20677142D01*
X33329523Y-20581904D01*
X33329523Y-20391428D01*
X33281904Y-20296190D01*
X33234285Y-20248571D01*
X33139047Y-20200952D01*
X33710476Y-19867619D02*
X33758095Y-19820000D01*
X33853333Y-19772380D01*
X34091428Y-19772380D01*
X34186666Y-19820000D01*
X34234285Y-19867619D01*
X34281904Y-19962857D01*
X34281904Y-20058095D01*
X34234285Y-20200952D01*
X33662857Y-20772380D01*
X34281904Y-20772380D01*
X-25327619Y-5722857D02*
X-25803809Y-6056190D01*
X-25327619Y-6294285D02*
X-26327619Y-6294285D01*
X-26327619Y-5913333D01*
X-26280000Y-5818095D01*
X-26232380Y-5770476D01*
X-26137142Y-5722857D01*
X-25994285Y-5722857D01*
X-25899047Y-5770476D01*
X-25851428Y-5818095D01*
X-25803809Y-5913333D01*
X-25803809Y-6294285D01*
X-25899047Y-5151428D02*
X-25946666Y-5246666D01*
X-25994285Y-5294285D01*
X-26089523Y-5341904D01*
X-26137142Y-5341904D01*
X-26232380Y-5294285D01*
X-26280000Y-5246666D01*
X-26327619Y-5151428D01*
X-26327619Y-4960952D01*
X-26280000Y-4865714D01*
X-26232380Y-4818095D01*
X-26137142Y-4770476D01*
X-26089523Y-4770476D01*
X-25994285Y-4818095D01*
X-25946666Y-4865714D01*
X-25899047Y-4960952D01*
X-25899047Y-5151428D01*
X-25851428Y-5246666D01*
X-25803809Y-5294285D01*
X-25708571Y-5341904D01*
X-25518095Y-5341904D01*
X-25422857Y-5294285D01*
X-25375238Y-5246666D01*
X-25327619Y-5151428D01*
X-25327619Y-4960952D01*
X-25375238Y-4865714D01*
X-25422857Y-4818095D01*
X-25518095Y-4770476D01*
X-25708571Y-4770476D01*
X-25803809Y-4818095D01*
X-25851428Y-4865714D01*
X-25899047Y-4960952D01*
X-25327619Y-3818095D02*
X-25327619Y-4389523D01*
X-25327619Y-4103809D02*
X-26327619Y-4103809D01*
X-26184761Y-4199047D01*
X-26089523Y-4294285D01*
X-26041904Y-4389523D01*
X-32947619Y-5722857D02*
X-33423809Y-6056190D01*
X-32947619Y-6294285D02*
X-33947619Y-6294285D01*
X-33947619Y-5913333D01*
X-33900000Y-5818095D01*
X-33852380Y-5770476D01*
X-33757142Y-5722857D01*
X-33614285Y-5722857D01*
X-33519047Y-5770476D01*
X-33471428Y-5818095D01*
X-33423809Y-5913333D01*
X-33423809Y-6294285D01*
X-33519047Y-5151428D02*
X-33566666Y-5246666D01*
X-33614285Y-5294285D01*
X-33709523Y-5341904D01*
X-33757142Y-5341904D01*
X-33852380Y-5294285D01*
X-33900000Y-5246666D01*
X-33947619Y-5151428D01*
X-33947619Y-4960952D01*
X-33900000Y-4865714D01*
X-33852380Y-4818095D01*
X-33757142Y-4770476D01*
X-33709523Y-4770476D01*
X-33614285Y-4818095D01*
X-33566666Y-4865714D01*
X-33519047Y-4960952D01*
X-33519047Y-5151428D01*
X-33471428Y-5246666D01*
X-33423809Y-5294285D01*
X-33328571Y-5341904D01*
X-33138095Y-5341904D01*
X-33042857Y-5294285D01*
X-32995238Y-5246666D01*
X-32947619Y-5151428D01*
X-32947619Y-4960952D01*
X-32995238Y-4865714D01*
X-33042857Y-4818095D01*
X-33138095Y-4770476D01*
X-33328571Y-4770476D01*
X-33423809Y-4818095D01*
X-33471428Y-4865714D01*
X-33519047Y-4960952D01*
X-33947619Y-4151428D02*
X-33947619Y-4056190D01*
X-33900000Y-3960952D01*
X-33852380Y-3913333D01*
X-33757142Y-3865714D01*
X-33566666Y-3818095D01*
X-33328571Y-3818095D01*
X-33138095Y-3865714D01*
X-33042857Y-3913333D01*
X-32995238Y-3960952D01*
X-32947619Y-4056190D01*
X-32947619Y-4151428D01*
X-32995238Y-4246666D01*
X-33042857Y-4294285D01*
X-33138095Y-4341904D01*
X-33328571Y-4389523D01*
X-33566666Y-4389523D01*
X-33757142Y-4341904D01*
X-33852380Y-4294285D01*
X-33900000Y-4246666D01*
X-33947619Y-4151428D01*
X18232380Y22217142D02*
X17756190Y21883809D01*
X18232380Y21645714D02*
X17232380Y21645714D01*
X17232380Y22026666D01*
X17280000Y22121904D01*
X17327619Y22169523D01*
X17422857Y22217142D01*
X17565714Y22217142D01*
X17660952Y22169523D01*
X17708571Y22121904D01*
X17756190Y22026666D01*
X17756190Y21645714D01*
X17232380Y22550476D02*
X17232380Y23217142D01*
X18232380Y22788571D01*
X17327619Y23550476D02*
X17280000Y23598095D01*
X17232380Y23693333D01*
X17232380Y23931428D01*
X17280000Y24026666D01*
X17327619Y24074285D01*
X17422857Y24121904D01*
X17518095Y24121904D01*
X17660952Y24074285D01*
X18232380Y23502857D01*
X18232380Y24121904D01*
X16756142Y817619D02*
X16422809Y1293809D01*
X16184714Y817619D02*
X16184714Y1817619D01*
X16565666Y1817619D01*
X16660904Y1770000D01*
X16708523Y1722380D01*
X16756142Y1627142D01*
X16756142Y1484285D01*
X16708523Y1389047D01*
X16660904Y1341428D01*
X16565666Y1293809D01*
X16184714Y1293809D01*
X17089476Y1817619D02*
X17756142Y1817619D01*
X17327571Y817619D01*
X18660904Y817619D02*
X18089476Y817619D01*
X18375190Y817619D02*
X18375190Y1817619D01*
X18279952Y1674761D01*
X18184714Y1579523D01*
X18089476Y1531904D01*
X38932380Y-3182857D02*
X38456190Y-3516190D01*
X38932380Y-3754285D02*
X37932380Y-3754285D01*
X37932380Y-3373333D01*
X37980000Y-3278095D01*
X38027619Y-3230476D01*
X38122857Y-3182857D01*
X38265714Y-3182857D01*
X38360952Y-3230476D01*
X38408571Y-3278095D01*
X38456190Y-3373333D01*
X38456190Y-3754285D01*
X37932380Y-2849523D02*
X37932380Y-2182857D01*
X38932380Y-2611428D01*
X37932380Y-1611428D02*
X37932380Y-1516190D01*
X37980000Y-1420952D01*
X38027619Y-1373333D01*
X38122857Y-1325714D01*
X38313333Y-1278095D01*
X38551428Y-1278095D01*
X38741904Y-1325714D01*
X38837142Y-1373333D01*
X38884761Y-1420952D01*
X38932380Y-1516190D01*
X38932380Y-1611428D01*
X38884761Y-1706666D01*
X38837142Y-1754285D01*
X38741904Y-1801904D01*
X38551428Y-1849523D01*
X38313333Y-1849523D01*
X38122857Y-1801904D01*
X38027619Y-1754285D01*
X37980000Y-1706666D01*
X37932380Y-1611428D01*
X-32567619Y-1912857D02*
X-33043809Y-2246190D01*
X-32567619Y-2484285D02*
X-33567619Y-2484285D01*
X-33567619Y-2103333D01*
X-33520000Y-2008095D01*
X-33472380Y-1960476D01*
X-33377142Y-1912857D01*
X-33234285Y-1912857D01*
X-33139047Y-1960476D01*
X-33091428Y-2008095D01*
X-33043809Y-2103333D01*
X-33043809Y-2484285D01*
X-33567619Y-1055714D02*
X-33567619Y-1246190D01*
X-33520000Y-1341428D01*
X-33472380Y-1389047D01*
X-33329523Y-1484285D01*
X-33139047Y-1531904D01*
X-32758095Y-1531904D01*
X-32662857Y-1484285D01*
X-32615238Y-1436666D01*
X-32567619Y-1341428D01*
X-32567619Y-1150952D01*
X-32615238Y-1055714D01*
X-32662857Y-1008095D01*
X-32758095Y-960476D01*
X-32996190Y-960476D01*
X-33091428Y-1008095D01*
X-33139047Y-1055714D01*
X-33186666Y-1150952D01*
X-33186666Y-1341428D01*
X-33139047Y-1436666D01*
X-33091428Y-1484285D01*
X-32996190Y-1531904D01*
X-33234285Y-103333D02*
X-32567619Y-103333D01*
X-33615238Y-341428D02*
X-32900952Y-579523D01*
X-32900952Y39523D01*
X-12072857Y-26360380D02*
X-12406190Y-25884190D01*
X-12644285Y-26360380D02*
X-12644285Y-25360380D01*
X-12263333Y-25360380D01*
X-12168095Y-25408000D01*
X-12120476Y-25455619D01*
X-12072857Y-25550857D01*
X-12072857Y-25693714D01*
X-12120476Y-25788952D01*
X-12168095Y-25836571D01*
X-12263333Y-25884190D01*
X-12644285Y-25884190D01*
X-11215714Y-25360380D02*
X-11406190Y-25360380D01*
X-11501428Y-25408000D01*
X-11549047Y-25455619D01*
X-11644285Y-25598476D01*
X-11691904Y-25788952D01*
X-11691904Y-26169904D01*
X-11644285Y-26265142D01*
X-11596666Y-26312761D01*
X-11501428Y-26360380D01*
X-11310952Y-26360380D01*
X-11215714Y-26312761D01*
X-11168095Y-26265142D01*
X-11120476Y-26169904D01*
X-11120476Y-25931809D01*
X-11168095Y-25836571D01*
X-11215714Y-25788952D01*
X-11310952Y-25741333D01*
X-11501428Y-25741333D01*
X-11596666Y-25788952D01*
X-11644285Y-25836571D01*
X-11691904Y-25931809D01*
X-10787142Y-25360380D02*
X-10168095Y-25360380D01*
X-10501428Y-25741333D01*
X-10358571Y-25741333D01*
X-10263333Y-25788952D01*
X-10215714Y-25836571D01*
X-10168095Y-25931809D01*
X-10168095Y-26169904D01*
X-10215714Y-26265142D01*
X-10263333Y-26312761D01*
X-10358571Y-26360380D01*
X-10644285Y-26360380D01*
X-10739523Y-26312761D01*
X-10787142Y-26265142D01*
X-12072857Y-20518380D02*
X-12406190Y-20042190D01*
X-12644285Y-20518380D02*
X-12644285Y-19518380D01*
X-12263333Y-19518380D01*
X-12168095Y-19566000D01*
X-12120476Y-19613619D01*
X-12072857Y-19708857D01*
X-12072857Y-19851714D01*
X-12120476Y-19946952D01*
X-12168095Y-19994571D01*
X-12263333Y-20042190D01*
X-12644285Y-20042190D01*
X-11215714Y-19518380D02*
X-11406190Y-19518380D01*
X-11501428Y-19566000D01*
X-11549047Y-19613619D01*
X-11644285Y-19756476D01*
X-11691904Y-19946952D01*
X-11691904Y-20327904D01*
X-11644285Y-20423142D01*
X-11596666Y-20470761D01*
X-11501428Y-20518380D01*
X-11310952Y-20518380D01*
X-11215714Y-20470761D01*
X-11168095Y-20423142D01*
X-11120476Y-20327904D01*
X-11120476Y-20089809D01*
X-11168095Y-19994571D01*
X-11215714Y-19946952D01*
X-11310952Y-19899333D01*
X-11501428Y-19899333D01*
X-11596666Y-19946952D01*
X-11644285Y-19994571D01*
X-11691904Y-20089809D01*
X-10739523Y-19613619D02*
X-10691904Y-19566000D01*
X-10596666Y-19518380D01*
X-10358571Y-19518380D01*
X-10263333Y-19566000D01*
X-10215714Y-19613619D01*
X-10168095Y-19708857D01*
X-10168095Y-19804095D01*
X-10215714Y-19946952D01*
X-10787142Y-20518380D01*
X-10168095Y-20518380D01*
X-12072857Y-14803380D02*
X-12406190Y-14327190D01*
X-12644285Y-14803380D02*
X-12644285Y-13803380D01*
X-12263333Y-13803380D01*
X-12168095Y-13851000D01*
X-12120476Y-13898619D01*
X-12072857Y-13993857D01*
X-12072857Y-14136714D01*
X-12120476Y-14231952D01*
X-12168095Y-14279571D01*
X-12263333Y-14327190D01*
X-12644285Y-14327190D01*
X-11215714Y-13803380D02*
X-11406190Y-13803380D01*
X-11501428Y-13851000D01*
X-11549047Y-13898619D01*
X-11644285Y-14041476D01*
X-11691904Y-14231952D01*
X-11691904Y-14612904D01*
X-11644285Y-14708142D01*
X-11596666Y-14755761D01*
X-11501428Y-14803380D01*
X-11310952Y-14803380D01*
X-11215714Y-14755761D01*
X-11168095Y-14708142D01*
X-11120476Y-14612904D01*
X-11120476Y-14374809D01*
X-11168095Y-14279571D01*
X-11215714Y-14231952D01*
X-11310952Y-14184333D01*
X-11501428Y-14184333D01*
X-11596666Y-14231952D01*
X-11644285Y-14279571D01*
X-11691904Y-14374809D01*
X-10168095Y-14803380D02*
X-10739523Y-14803380D01*
X-10453809Y-14803380D02*
X-10453809Y-13803380D01*
X-10549047Y-13946238D01*
X-10644285Y-14041476D01*
X-10739523Y-14089095D01*
X-12072857Y-9088380D02*
X-12406190Y-8612190D01*
X-12644285Y-9088380D02*
X-12644285Y-8088380D01*
X-12263333Y-8088380D01*
X-12168095Y-8136000D01*
X-12120476Y-8183619D01*
X-12072857Y-8278857D01*
X-12072857Y-8421714D01*
X-12120476Y-8516952D01*
X-12168095Y-8564571D01*
X-12263333Y-8612190D01*
X-12644285Y-8612190D01*
X-11215714Y-8088380D02*
X-11406190Y-8088380D01*
X-11501428Y-8136000D01*
X-11549047Y-8183619D01*
X-11644285Y-8326476D01*
X-11691904Y-8516952D01*
X-11691904Y-8897904D01*
X-11644285Y-8993142D01*
X-11596666Y-9040761D01*
X-11501428Y-9088380D01*
X-11310952Y-9088380D01*
X-11215714Y-9040761D01*
X-11168095Y-8993142D01*
X-11120476Y-8897904D01*
X-11120476Y-8659809D01*
X-11168095Y-8564571D01*
X-11215714Y-8516952D01*
X-11310952Y-8469333D01*
X-11501428Y-8469333D01*
X-11596666Y-8516952D01*
X-11644285Y-8564571D01*
X-11691904Y-8659809D01*
X-10501428Y-8088380D02*
X-10406190Y-8088380D01*
X-10310952Y-8136000D01*
X-10263333Y-8183619D01*
X-10215714Y-8278857D01*
X-10168095Y-8469333D01*
X-10168095Y-8707428D01*
X-10215714Y-8897904D01*
X-10263333Y-8993142D01*
X-10310952Y-9040761D01*
X-10406190Y-9088380D01*
X-10501428Y-9088380D01*
X-10596666Y-9040761D01*
X-10644285Y-8993142D01*
X-10691904Y-8897904D01*
X-10739523Y-8707428D01*
X-10739523Y-8469333D01*
X-10691904Y-8278857D01*
X-10644285Y-8183619D01*
X-10596666Y-8136000D01*
X-10501428Y-8088380D01*
X16756142Y-1722380D02*
X16422809Y-1246190D01*
X16184714Y-1722380D02*
X16184714Y-722380D01*
X16565666Y-722380D01*
X16660904Y-770000D01*
X16708523Y-817619D01*
X16756142Y-912857D01*
X16756142Y-1055714D01*
X16708523Y-1150952D01*
X16660904Y-1198571D01*
X16565666Y-1246190D01*
X16184714Y-1246190D01*
X17660904Y-722380D02*
X17184714Y-722380D01*
X17137095Y-1198571D01*
X17184714Y-1150952D01*
X17279952Y-1103333D01*
X17518047Y-1103333D01*
X17613285Y-1150952D01*
X17660904Y-1198571D01*
X17708523Y-1293809D01*
X17708523Y-1531904D01*
X17660904Y-1627142D01*
X17613285Y-1674761D01*
X17518047Y-1722380D01*
X17279952Y-1722380D01*
X17184714Y-1674761D01*
X17137095Y-1627142D01*
X18184714Y-1722380D02*
X18375190Y-1722380D01*
X18470428Y-1674761D01*
X18518047Y-1627142D01*
X18613285Y-1484285D01*
X18660904Y-1293809D01*
X18660904Y-912857D01*
X18613285Y-817619D01*
X18565666Y-770000D01*
X18470428Y-722380D01*
X18279952Y-722380D01*
X18184714Y-770000D01*
X18137095Y-817619D01*
X18089476Y-912857D01*
X18089476Y-1150952D01*
X18137095Y-1246190D01*
X18184714Y-1293809D01*
X18279952Y-1341428D01*
X18470428Y-1341428D01*
X18565666Y-1293809D01*
X18613285Y-1246190D01*
X18660904Y-1150952D01*
X20058142Y3357619D02*
X19724809Y3833809D01*
X19486714Y3357619D02*
X19486714Y4357619D01*
X19867666Y4357619D01*
X19962904Y4310000D01*
X20010523Y4262380D01*
X20058142Y4167142D01*
X20058142Y4024285D01*
X20010523Y3929047D01*
X19962904Y3881428D01*
X19867666Y3833809D01*
X19486714Y3833809D01*
X20962904Y4357619D02*
X20486714Y4357619D01*
X20439095Y3881428D01*
X20486714Y3929047D01*
X20581952Y3976666D01*
X20820047Y3976666D01*
X20915285Y3929047D01*
X20962904Y3881428D01*
X21010523Y3786190D01*
X21010523Y3548095D01*
X20962904Y3452857D01*
X20915285Y3405238D01*
X20820047Y3357619D01*
X20581952Y3357619D01*
X20486714Y3405238D01*
X20439095Y3452857D01*
X21581952Y3929047D02*
X21486714Y3976666D01*
X21439095Y4024285D01*
X21391476Y4119523D01*
X21391476Y4167142D01*
X21439095Y4262380D01*
X21486714Y4310000D01*
X21581952Y4357619D01*
X21772428Y4357619D01*
X21867666Y4310000D01*
X21915285Y4262380D01*
X21962904Y4167142D01*
X21962904Y4119523D01*
X21915285Y4024285D01*
X21867666Y3976666D01*
X21772428Y3929047D01*
X21581952Y3929047D01*
X21486714Y3881428D01*
X21439095Y3833809D01*
X21391476Y3738571D01*
X21391476Y3548095D01*
X21439095Y3452857D01*
X21486714Y3405238D01*
X21581952Y3357619D01*
X21772428Y3357619D01*
X21867666Y3405238D01*
X21915285Y3452857D01*
X21962904Y3548095D01*
X21962904Y3738571D01*
X21915285Y3833809D01*
X21867666Y3881428D01*
X21772428Y3929047D01*
X-5087857Y-4008380D02*
X-5421190Y-3532190D01*
X-5659285Y-4008380D02*
X-5659285Y-3008380D01*
X-5278333Y-3008380D01*
X-5183095Y-3056000D01*
X-5135476Y-3103619D01*
X-5087857Y-3198857D01*
X-5087857Y-3341714D01*
X-5135476Y-3436952D01*
X-5183095Y-3484571D01*
X-5278333Y-3532190D01*
X-5659285Y-3532190D01*
X-4183095Y-3008380D02*
X-4659285Y-3008380D01*
X-4706904Y-3484571D01*
X-4659285Y-3436952D01*
X-4564047Y-3389333D01*
X-4325952Y-3389333D01*
X-4230714Y-3436952D01*
X-4183095Y-3484571D01*
X-4135476Y-3579809D01*
X-4135476Y-3817904D01*
X-4183095Y-3913142D01*
X-4230714Y-3960761D01*
X-4325952Y-4008380D01*
X-4564047Y-4008380D01*
X-4659285Y-3960761D01*
X-4706904Y-3913142D01*
X-3802142Y-3008380D02*
X-3135476Y-3008380D01*
X-3564047Y-4008380D01*
X-28630619Y11549142D02*
X-29106809Y11215809D01*
X-28630619Y10977714D02*
X-29630619Y10977714D01*
X-29630619Y11358666D01*
X-29583000Y11453904D01*
X-29535380Y11501523D01*
X-29440142Y11549142D01*
X-29297285Y11549142D01*
X-29202047Y11501523D01*
X-29154428Y11453904D01*
X-29106809Y11358666D01*
X-29106809Y10977714D01*
X-29630619Y12453904D02*
X-29630619Y11977714D01*
X-29154428Y11930095D01*
X-29202047Y11977714D01*
X-29249666Y12072952D01*
X-29249666Y12311047D01*
X-29202047Y12406285D01*
X-29154428Y12453904D01*
X-29059190Y12501523D01*
X-28821095Y12501523D01*
X-28725857Y12453904D01*
X-28678238Y12406285D01*
X-28630619Y12311047D01*
X-28630619Y12072952D01*
X-28678238Y11977714D01*
X-28725857Y11930095D01*
X-29630619Y13358666D02*
X-29630619Y13168190D01*
X-29583000Y13072952D01*
X-29535380Y13025333D01*
X-29392523Y12930095D01*
X-29202047Y12882476D01*
X-28821095Y12882476D01*
X-28725857Y12930095D01*
X-28678238Y12977714D01*
X-28630619Y13072952D01*
X-28630619Y13263428D01*
X-28678238Y13358666D01*
X-28725857Y13406285D01*
X-28821095Y13453904D01*
X-29059190Y13453904D01*
X-29154428Y13406285D01*
X-29202047Y13358666D01*
X-29249666Y13263428D01*
X-29249666Y13072952D01*
X-29202047Y12977714D01*
X-29154428Y12930095D01*
X-29059190Y12882476D01*
X-31170619Y11549142D02*
X-31646809Y11215809D01*
X-31170619Y10977714D02*
X-32170619Y10977714D01*
X-32170619Y11358666D01*
X-32123000Y11453904D01*
X-32075380Y11501523D01*
X-31980142Y11549142D01*
X-31837285Y11549142D01*
X-31742047Y11501523D01*
X-31694428Y11453904D01*
X-31646809Y11358666D01*
X-31646809Y10977714D01*
X-32170619Y12453904D02*
X-32170619Y11977714D01*
X-31694428Y11930095D01*
X-31742047Y11977714D01*
X-31789666Y12072952D01*
X-31789666Y12311047D01*
X-31742047Y12406285D01*
X-31694428Y12453904D01*
X-31599190Y12501523D01*
X-31361095Y12501523D01*
X-31265857Y12453904D01*
X-31218238Y12406285D01*
X-31170619Y12311047D01*
X-31170619Y12072952D01*
X-31218238Y11977714D01*
X-31265857Y11930095D01*
X-32170619Y13406285D02*
X-32170619Y12930095D01*
X-31694428Y12882476D01*
X-31742047Y12930095D01*
X-31789666Y13025333D01*
X-31789666Y13263428D01*
X-31742047Y13358666D01*
X-31694428Y13406285D01*
X-31599190Y13453904D01*
X-31361095Y13453904D01*
X-31265857Y13406285D01*
X-31218238Y13358666D01*
X-31170619Y13263428D01*
X-31170619Y13025333D01*
X-31218238Y12930095D01*
X-31265857Y12882476D01*
X-26217619Y11549142D02*
X-26693809Y11215809D01*
X-26217619Y10977714D02*
X-27217619Y10977714D01*
X-27217619Y11358666D01*
X-27170000Y11453904D01*
X-27122380Y11501523D01*
X-27027142Y11549142D01*
X-26884285Y11549142D01*
X-26789047Y11501523D01*
X-26741428Y11453904D01*
X-26693809Y11358666D01*
X-26693809Y10977714D01*
X-27217619Y12453904D02*
X-27217619Y11977714D01*
X-26741428Y11930095D01*
X-26789047Y11977714D01*
X-26836666Y12072952D01*
X-26836666Y12311047D01*
X-26789047Y12406285D01*
X-26741428Y12453904D01*
X-26646190Y12501523D01*
X-26408095Y12501523D01*
X-26312857Y12453904D01*
X-26265238Y12406285D01*
X-26217619Y12311047D01*
X-26217619Y12072952D01*
X-26265238Y11977714D01*
X-26312857Y11930095D01*
X-26884285Y13358666D02*
X-26217619Y13358666D01*
X-27265238Y13120571D02*
X-26550952Y12882476D01*
X-26550952Y13501523D01*
X-23677619Y11549142D02*
X-24153809Y11215809D01*
X-23677619Y10977714D02*
X-24677619Y10977714D01*
X-24677619Y11358666D01*
X-24630000Y11453904D01*
X-24582380Y11501523D01*
X-24487142Y11549142D01*
X-24344285Y11549142D01*
X-24249047Y11501523D01*
X-24201428Y11453904D01*
X-24153809Y11358666D01*
X-24153809Y10977714D01*
X-24677619Y12453904D02*
X-24677619Y11977714D01*
X-24201428Y11930095D01*
X-24249047Y11977714D01*
X-24296666Y12072952D01*
X-24296666Y12311047D01*
X-24249047Y12406285D01*
X-24201428Y12453904D01*
X-24106190Y12501523D01*
X-23868095Y12501523D01*
X-23772857Y12453904D01*
X-23725238Y12406285D01*
X-23677619Y12311047D01*
X-23677619Y12072952D01*
X-23725238Y11977714D01*
X-23772857Y11930095D01*
X-24677619Y12834857D02*
X-24677619Y13453904D01*
X-24296666Y13120571D01*
X-24296666Y13263428D01*
X-24249047Y13358666D01*
X-24201428Y13406285D01*
X-24106190Y13453904D01*
X-23868095Y13453904D01*
X-23772857Y13406285D01*
X-23725238Y13358666D01*
X-23677619Y13263428D01*
X-23677619Y12977714D01*
X-23725238Y12882476D01*
X-23772857Y12834857D01*
X31822380Y-3182857D02*
X31346190Y-3516190D01*
X31822380Y-3754285D02*
X30822380Y-3754285D01*
X30822380Y-3373333D01*
X30870000Y-3278095D01*
X30917619Y-3230476D01*
X31012857Y-3182857D01*
X31155714Y-3182857D01*
X31250952Y-3230476D01*
X31298571Y-3278095D01*
X31346190Y-3373333D01*
X31346190Y-3754285D01*
X30822380Y-2278095D02*
X30822380Y-2754285D01*
X31298571Y-2801904D01*
X31250952Y-2754285D01*
X31203333Y-2659047D01*
X31203333Y-2420952D01*
X31250952Y-2325714D01*
X31298571Y-2278095D01*
X31393809Y-2230476D01*
X31631904Y-2230476D01*
X31727142Y-2278095D01*
X31774761Y-2325714D01*
X31822380Y-2420952D01*
X31822380Y-2659047D01*
X31774761Y-2754285D01*
X31727142Y-2801904D01*
X30917619Y-1849523D02*
X30870000Y-1801904D01*
X30822380Y-1706666D01*
X30822380Y-1468571D01*
X30870000Y-1373333D01*
X30917619Y-1325714D01*
X31012857Y-1278095D01*
X31108095Y-1278095D01*
X31250952Y-1325714D01*
X31822380Y-1897142D01*
X31822380Y-1278095D01*
X-22407619Y-1785857D02*
X-22883809Y-2119190D01*
X-22407619Y-2357285D02*
X-23407619Y-2357285D01*
X-23407619Y-1976333D01*
X-23360000Y-1881095D01*
X-23312380Y-1833476D01*
X-23217142Y-1785857D01*
X-23074285Y-1785857D01*
X-22979047Y-1833476D01*
X-22931428Y-1881095D01*
X-22883809Y-1976333D01*
X-22883809Y-2357285D01*
X-23407619Y-881095D02*
X-23407619Y-1357285D01*
X-22931428Y-1404904D01*
X-22979047Y-1357285D01*
X-23026666Y-1262047D01*
X-23026666Y-1023952D01*
X-22979047Y-928714D01*
X-22931428Y-881095D01*
X-22836190Y-833476D01*
X-22598095Y-833476D01*
X-22502857Y-881095D01*
X-22455238Y-928714D01*
X-22407619Y-1023952D01*
X-22407619Y-1262047D01*
X-22455238Y-1357285D01*
X-22502857Y-1404904D01*
X-22407619Y118904D02*
X-22407619Y-452523D01*
X-22407619Y-166809D02*
X-23407619Y-166809D01*
X-23264761Y-262047D01*
X-23169523Y-357285D01*
X-23121904Y-452523D01*
X-40012857Y-14041380D02*
X-40346190Y-13565190D01*
X-40584285Y-14041380D02*
X-40584285Y-13041380D01*
X-40203333Y-13041380D01*
X-40108095Y-13089000D01*
X-40060476Y-13136619D01*
X-40012857Y-13231857D01*
X-40012857Y-13374714D01*
X-40060476Y-13469952D01*
X-40108095Y-13517571D01*
X-40203333Y-13565190D01*
X-40584285Y-13565190D01*
X-39108095Y-13041380D02*
X-39584285Y-13041380D01*
X-39631904Y-13517571D01*
X-39584285Y-13469952D01*
X-39489047Y-13422333D01*
X-39250952Y-13422333D01*
X-39155714Y-13469952D01*
X-39108095Y-13517571D01*
X-39060476Y-13612809D01*
X-39060476Y-13850904D01*
X-39108095Y-13946142D01*
X-39155714Y-13993761D01*
X-39250952Y-14041380D01*
X-39489047Y-14041380D01*
X-39584285Y-13993761D01*
X-39631904Y-13946142D01*
X-38441428Y-13041380D02*
X-38346190Y-13041380D01*
X-38250952Y-13089000D01*
X-38203333Y-13136619D01*
X-38155714Y-13231857D01*
X-38108095Y-13422333D01*
X-38108095Y-13660428D01*
X-38155714Y-13850904D01*
X-38203333Y-13946142D01*
X-38250952Y-13993761D01*
X-38346190Y-14041380D01*
X-38441428Y-14041380D01*
X-38536666Y-13993761D01*
X-38584285Y-13946142D01*
X-38631904Y-13850904D01*
X-38679523Y-13660428D01*
X-38679523Y-13422333D01*
X-38631904Y-13231857D01*
X-38584285Y-13136619D01*
X-38536666Y-13089000D01*
X-38441428Y-13041380D01*
X29027380Y30726142D02*
X28551190Y30392809D01*
X29027380Y30154714D02*
X28027380Y30154714D01*
X28027380Y30535666D01*
X28075000Y30630904D01*
X28122619Y30678523D01*
X28217857Y30726142D01*
X28360714Y30726142D01*
X28455952Y30678523D01*
X28503571Y30630904D01*
X28551190Y30535666D01*
X28551190Y30154714D01*
X28360714Y31583285D02*
X29027380Y31583285D01*
X27979761Y31345190D02*
X28694047Y31107095D01*
X28694047Y31726142D01*
X28027380Y32297571D02*
X28027380Y32392809D01*
X28075000Y32488047D01*
X28122619Y32535666D01*
X28217857Y32583285D01*
X28408333Y32630904D01*
X28646428Y32630904D01*
X28836904Y32583285D01*
X28932142Y32535666D01*
X28979761Y32488047D01*
X29027380Y32392809D01*
X29027380Y32297571D01*
X28979761Y32202333D01*
X28932142Y32154714D01*
X28836904Y32107095D01*
X28646428Y32059476D01*
X28408333Y32059476D01*
X28217857Y32107095D01*
X28122619Y32154714D01*
X28075000Y32202333D01*
X28027380Y32297571D01*
X11247380Y4437142D02*
X10771190Y4103809D01*
X11247380Y3865714D02*
X10247380Y3865714D01*
X10247380Y4246666D01*
X10295000Y4341904D01*
X10342619Y4389523D01*
X10437857Y4437142D01*
X10580714Y4437142D01*
X10675952Y4389523D01*
X10723571Y4341904D01*
X10771190Y4246666D01*
X10771190Y3865714D01*
X10247380Y4770476D02*
X10247380Y5389523D01*
X10628333Y5056190D01*
X10628333Y5199047D01*
X10675952Y5294285D01*
X10723571Y5341904D01*
X10818809Y5389523D01*
X11056904Y5389523D01*
X11152142Y5341904D01*
X11199761Y5294285D01*
X11247380Y5199047D01*
X11247380Y4913333D01*
X11199761Y4818095D01*
X11152142Y4770476D01*
X10580714Y6246666D02*
X11247380Y6246666D01*
X10199761Y6008571D02*
X10914047Y5770476D01*
X10914047Y6389523D01*
X20058142Y5897619D02*
X19724809Y6373809D01*
X19486714Y5897619D02*
X19486714Y6897619D01*
X19867666Y6897619D01*
X19962904Y6850000D01*
X20010523Y6802380D01*
X20058142Y6707142D01*
X20058142Y6564285D01*
X20010523Y6469047D01*
X19962904Y6421428D01*
X19867666Y6373809D01*
X19486714Y6373809D01*
X20391476Y6897619D02*
X21010523Y6897619D01*
X20677190Y6516666D01*
X20820047Y6516666D01*
X20915285Y6469047D01*
X20962904Y6421428D01*
X21010523Y6326190D01*
X21010523Y6088095D01*
X20962904Y5992857D01*
X20915285Y5945238D01*
X20820047Y5897619D01*
X20534333Y5897619D01*
X20439095Y5945238D01*
X20391476Y5992857D01*
X21343857Y6897619D02*
X21962904Y6897619D01*
X21629571Y6516666D01*
X21772428Y6516666D01*
X21867666Y6469047D01*
X21915285Y6421428D01*
X21962904Y6326190D01*
X21962904Y6088095D01*
X21915285Y5992857D01*
X21867666Y5945238D01*
X21772428Y5897619D01*
X21486714Y5897619D01*
X21391476Y5945238D01*
X21343857Y5992857D01*
X-3182857Y32187619D02*
X-3516190Y32663809D01*
X-3754285Y32187619D02*
X-3754285Y33187619D01*
X-3373333Y33187619D01*
X-3278095Y33140000D01*
X-3230476Y33092380D01*
X-3182857Y32997142D01*
X-3182857Y32854285D01*
X-3230476Y32759047D01*
X-3278095Y32711428D01*
X-3373333Y32663809D01*
X-3754285Y32663809D01*
X-2849523Y33187619D02*
X-2230476Y33187619D01*
X-2563809Y32806666D01*
X-2420952Y32806666D01*
X-2325714Y32759047D01*
X-2278095Y32711428D01*
X-2230476Y32616190D01*
X-2230476Y32378095D01*
X-2278095Y32282857D01*
X-2325714Y32235238D01*
X-2420952Y32187619D01*
X-2706666Y32187619D01*
X-2801904Y32235238D01*
X-2849523Y32282857D01*
X-1849523Y33092380D02*
X-1801904Y33140000D01*
X-1706666Y33187619D01*
X-1468571Y33187619D01*
X-1373333Y33140000D01*
X-1325714Y33092380D01*
X-1278095Y32997142D01*
X-1278095Y32901904D01*
X-1325714Y32759047D01*
X-1897142Y32187619D01*
X-1278095Y32187619D01*
X29027380Y18915142D02*
X28551190Y18581809D01*
X29027380Y18343714D02*
X28027380Y18343714D01*
X28027380Y18724666D01*
X28075000Y18819904D01*
X28122619Y18867523D01*
X28217857Y18915142D01*
X28360714Y18915142D01*
X28455952Y18867523D01*
X28503571Y18819904D01*
X28551190Y18724666D01*
X28551190Y18343714D01*
X28027380Y19248476D02*
X28027380Y19867523D01*
X28408333Y19534190D01*
X28408333Y19677047D01*
X28455952Y19772285D01*
X28503571Y19819904D01*
X28598809Y19867523D01*
X28836904Y19867523D01*
X28932142Y19819904D01*
X28979761Y19772285D01*
X29027380Y19677047D01*
X29027380Y19391333D01*
X28979761Y19296095D01*
X28932142Y19248476D01*
X29027380Y20819904D02*
X29027380Y20248476D01*
X29027380Y20534190D02*
X28027380Y20534190D01*
X28170238Y20438952D01*
X28265476Y20343714D01*
X28313095Y20248476D01*
X-17327619Y-26804857D02*
X-17803809Y-27138190D01*
X-17327619Y-27376285D02*
X-18327619Y-27376285D01*
X-18327619Y-26995333D01*
X-18280000Y-26900095D01*
X-18232380Y-26852476D01*
X-18137142Y-26804857D01*
X-17994285Y-26804857D01*
X-17899047Y-26852476D01*
X-17851428Y-26900095D01*
X-17803809Y-26995333D01*
X-17803809Y-27376285D01*
X-18327619Y-26471523D02*
X-18327619Y-25852476D01*
X-17946666Y-26185809D01*
X-17946666Y-26042952D01*
X-17899047Y-25947714D01*
X-17851428Y-25900095D01*
X-17756190Y-25852476D01*
X-17518095Y-25852476D01*
X-17422857Y-25900095D01*
X-17375238Y-25947714D01*
X-17327619Y-26042952D01*
X-17327619Y-26328666D01*
X-17375238Y-26423904D01*
X-17422857Y-26471523D01*
X-18327619Y-25233428D02*
X-18327619Y-25138190D01*
X-18280000Y-25042952D01*
X-18232380Y-24995333D01*
X-18137142Y-24947714D01*
X-17946666Y-24900095D01*
X-17708571Y-24900095D01*
X-17518095Y-24947714D01*
X-17422857Y-24995333D01*
X-17375238Y-25042952D01*
X-17327619Y-25138190D01*
X-17327619Y-25233428D01*
X-17375238Y-25328666D01*
X-17422857Y-25376285D01*
X-17518095Y-25423904D01*
X-17708571Y-25471523D01*
X-17946666Y-25471523D01*
X-18137142Y-25423904D01*
X-18232380Y-25376285D01*
X-18280000Y-25328666D01*
X-18327619Y-25233428D01*
X-17327619Y-15374857D02*
X-17803809Y-15708190D01*
X-17327619Y-15946285D02*
X-18327619Y-15946285D01*
X-18327619Y-15565333D01*
X-18280000Y-15470095D01*
X-18232380Y-15422476D01*
X-18137142Y-15374857D01*
X-17994285Y-15374857D01*
X-17899047Y-15422476D01*
X-17851428Y-15470095D01*
X-17803809Y-15565333D01*
X-17803809Y-15946285D01*
X-18232380Y-14993904D02*
X-18280000Y-14946285D01*
X-18327619Y-14851047D01*
X-18327619Y-14612952D01*
X-18280000Y-14517714D01*
X-18232380Y-14470095D01*
X-18137142Y-14422476D01*
X-18041904Y-14422476D01*
X-17899047Y-14470095D01*
X-17327619Y-15041523D01*
X-17327619Y-14422476D01*
X-17327619Y-13470095D02*
X-17327619Y-14041523D01*
X-17327619Y-13755809D02*
X-18327619Y-13755809D01*
X-18184761Y-13851047D01*
X-18089523Y-13946285D01*
X-18041904Y-14041523D01*
X-33837619Y20058142D02*
X-34313809Y19724809D01*
X-33837619Y19486714D02*
X-34837619Y19486714D01*
X-34837619Y19867666D01*
X-34790000Y19962904D01*
X-34742380Y20010523D01*
X-34647142Y20058142D01*
X-34504285Y20058142D01*
X-34409047Y20010523D01*
X-34361428Y19962904D01*
X-34313809Y19867666D01*
X-34313809Y19486714D01*
X-34742380Y20439095D02*
X-34790000Y20486714D01*
X-34837619Y20581952D01*
X-34837619Y20820047D01*
X-34790000Y20915285D01*
X-34742380Y20962904D01*
X-34647142Y21010523D01*
X-34551904Y21010523D01*
X-34409047Y20962904D01*
X-33837619Y20391476D01*
X-33837619Y21010523D01*
X-34837619Y21629571D02*
X-34837619Y21724809D01*
X-34790000Y21820047D01*
X-34742380Y21867666D01*
X-34647142Y21915285D01*
X-34456666Y21962904D01*
X-34218571Y21962904D01*
X-34028095Y21915285D01*
X-33932857Y21867666D01*
X-33885238Y21820047D01*
X-33837619Y21724809D01*
X-33837619Y21629571D01*
X-33885238Y21534333D01*
X-33932857Y21486714D01*
X-34028095Y21439095D01*
X-34218571Y21391476D01*
X-34456666Y21391476D01*
X-34647142Y21439095D01*
X-34742380Y21486714D01*
X-34790000Y21534333D01*
X-34837619Y21629571D01*
X-32392857Y-26360380D02*
X-32726190Y-25884190D01*
X-32964285Y-26360380D02*
X-32964285Y-25360380D01*
X-32583333Y-25360380D01*
X-32488095Y-25408000D01*
X-32440476Y-25455619D01*
X-32392857Y-25550857D01*
X-32392857Y-25693714D01*
X-32440476Y-25788952D01*
X-32488095Y-25836571D01*
X-32583333Y-25884190D01*
X-32964285Y-25884190D01*
X-31440476Y-26360380D02*
X-32011904Y-26360380D01*
X-31726190Y-26360380D02*
X-31726190Y-25360380D01*
X-31821428Y-25503238D01*
X-31916666Y-25598476D01*
X-32011904Y-25646095D01*
X-30488095Y-26360380D02*
X-31059523Y-26360380D01*
X-30773809Y-26360380D02*
X-30773809Y-25360380D01*
X-30869047Y-25503238D01*
X-30964285Y-25598476D01*
X-31059523Y-25646095D01*
X-32392857Y-14930380D02*
X-32726190Y-14454190D01*
X-32964285Y-14930380D02*
X-32964285Y-13930380D01*
X-32583333Y-13930380D01*
X-32488095Y-13978000D01*
X-32440476Y-14025619D01*
X-32392857Y-14120857D01*
X-32392857Y-14263714D01*
X-32440476Y-14358952D01*
X-32488095Y-14406571D01*
X-32583333Y-14454190D01*
X-32964285Y-14454190D01*
X-31440476Y-14930380D02*
X-32011904Y-14930380D01*
X-31726190Y-14930380D02*
X-31726190Y-13930380D01*
X-31821428Y-14073238D01*
X-31916666Y-14168476D01*
X-32011904Y-14216095D01*
X-30821428Y-13930380D02*
X-30726190Y-13930380D01*
X-30630952Y-13978000D01*
X-30583333Y-14025619D01*
X-30535714Y-14120857D01*
X-30488095Y-14311333D01*
X-30488095Y-14549428D01*
X-30535714Y-14739904D01*
X-30583333Y-14835142D01*
X-30630952Y-14882761D01*
X-30726190Y-14930380D01*
X-30821428Y-14930380D01*
X-30916666Y-14882761D01*
X-30964285Y-14835142D01*
X-31011904Y-14739904D01*
X-31059523Y-14549428D01*
X-31059523Y-14311333D01*
X-31011904Y-14120857D01*
X-30964285Y-14025619D01*
X-30916666Y-13978000D01*
X-30821428Y-13930380D01*
X21423333Y-21915380D02*
X21090000Y-21439190D01*
X20851904Y-21915380D02*
X20851904Y-20915380D01*
X21232857Y-20915380D01*
X21328095Y-20963000D01*
X21375714Y-21010619D01*
X21423333Y-21105857D01*
X21423333Y-21248714D01*
X21375714Y-21343952D01*
X21328095Y-21391571D01*
X21232857Y-21439190D01*
X20851904Y-21439190D01*
X22375714Y-21915380D02*
X21804285Y-21915380D01*
X22090000Y-21915380D02*
X22090000Y-20915380D01*
X21994761Y-21058238D01*
X21899523Y-21153476D01*
X21804285Y-21201095D01*
X17684761Y-8929619D02*
X17589523Y-8882000D01*
X17494285Y-8786761D01*
X17351428Y-8643904D01*
X17256190Y-8596285D01*
X17160952Y-8596285D01*
X17208571Y-8834380D02*
X17113333Y-8786761D01*
X17018095Y-8691523D01*
X16970476Y-8501047D01*
X16970476Y-8167714D01*
X17018095Y-7977238D01*
X17113333Y-7882000D01*
X17208571Y-7834380D01*
X17399047Y-7834380D01*
X17494285Y-7882000D01*
X17589523Y-7977238D01*
X17637142Y-8167714D01*
X17637142Y-8501047D01*
X17589523Y-8691523D01*
X17494285Y-8786761D01*
X17399047Y-8834380D01*
X17208571Y-8834380D01*
X17970476Y-7834380D02*
X18589523Y-7834380D01*
X18256190Y-8215333D01*
X18399047Y-8215333D01*
X18494285Y-8262952D01*
X18541904Y-8310571D01*
X18589523Y-8405809D01*
X18589523Y-8643904D01*
X18541904Y-8739142D01*
X18494285Y-8786761D01*
X18399047Y-8834380D01*
X18113333Y-8834380D01*
X18018095Y-8786761D01*
X17970476Y-8739142D01*
X16414761Y7032380D02*
X16319523Y7080000D01*
X16224285Y7175238D01*
X16081428Y7318095D01*
X15986190Y7365714D01*
X15890952Y7365714D01*
X15938571Y7127619D02*
X15843333Y7175238D01*
X15748095Y7270476D01*
X15700476Y7460952D01*
X15700476Y7794285D01*
X15748095Y7984761D01*
X15843333Y8080000D01*
X15938571Y8127619D01*
X16129047Y8127619D01*
X16224285Y8080000D01*
X16319523Y7984761D01*
X16367142Y7794285D01*
X16367142Y7460952D01*
X16319523Y7270476D01*
X16224285Y7175238D01*
X16129047Y7127619D01*
X15938571Y7127619D01*
X16748095Y8032380D02*
X16795714Y8080000D01*
X16890952Y8127619D01*
X17129047Y8127619D01*
X17224285Y8080000D01*
X17271904Y8032380D01*
X17319523Y7937142D01*
X17319523Y7841904D01*
X17271904Y7699047D01*
X16700476Y7127619D01*
X17319523Y7127619D01*
X2444761Y31202380D02*
X2349523Y31250000D01*
X2254285Y31345238D01*
X2111428Y31488095D01*
X2016190Y31535714D01*
X1920952Y31535714D01*
X1968571Y31297619D02*
X1873333Y31345238D01*
X1778095Y31440476D01*
X1730476Y31630952D01*
X1730476Y31964285D01*
X1778095Y32154761D01*
X1873333Y32250000D01*
X1968571Y32297619D01*
X2159047Y32297619D01*
X2254285Y32250000D01*
X2349523Y32154761D01*
X2397142Y31964285D01*
X2397142Y31630952D01*
X2349523Y31440476D01*
X2254285Y31345238D01*
X2159047Y31297619D01*
X1968571Y31297619D01*
X3349523Y31297619D02*
X2778095Y31297619D01*
X3063809Y31297619D02*
X3063809Y32297619D01*
X2968571Y32154761D01*
X2873333Y32059523D01*
X2778095Y32011904D01*
X-19216666Y26598619D02*
X-19692857Y26598619D01*
X-19692857Y27598619D01*
X-18930952Y27503380D02*
X-18883333Y27551000D01*
X-18788095Y27598619D01*
X-18550000Y27598619D01*
X-18454761Y27551000D01*
X-18407142Y27503380D01*
X-18359523Y27408142D01*
X-18359523Y27312904D01*
X-18407142Y27170047D01*
X-18978571Y26598619D01*
X-18359523Y26598619D01*
X44648380Y31710333D02*
X44648380Y31234142D01*
X43648380Y31234142D01*
X44648380Y32567476D02*
X44648380Y31996047D01*
X44648380Y32281761D02*
X43648380Y32281761D01*
X43791238Y32186523D01*
X43886476Y32091285D01*
X43934095Y31996047D01*
X10612380Y-10358285D02*
X9612380Y-10358285D01*
X9612380Y-10120190D01*
X9660000Y-9977333D01*
X9755238Y-9882095D01*
X9850476Y-9834476D01*
X10040952Y-9786857D01*
X10183809Y-9786857D01*
X10374285Y-9834476D01*
X10469523Y-9882095D01*
X10564761Y-9977333D01*
X10612380Y-10120190D01*
X10612380Y-10358285D01*
X10612380Y-8834476D02*
X10612380Y-9405904D01*
X10612380Y-9120190D02*
X9612380Y-9120190D01*
X9755238Y-9215428D01*
X9850476Y-9310666D01*
X9898095Y-9405904D01*
X10612380Y-7882095D02*
X10612380Y-8453523D01*
X10612380Y-8167809D02*
X9612380Y-8167809D01*
X9755238Y-8263047D01*
X9850476Y-8358285D01*
X9898095Y-8453523D01*
X-1468285Y-3881380D02*
X-1468285Y-2881380D01*
X-1230190Y-2881380D01*
X-1087333Y-2929000D01*
X-992095Y-3024238D01*
X-944476Y-3119476D01*
X-896857Y-3309952D01*
X-896857Y-3452809D01*
X-944476Y-3643285D01*
X-992095Y-3738523D01*
X-1087333Y-3833761D01*
X-1230190Y-3881380D01*
X-1468285Y-3881380D01*
X55523Y-3881380D02*
X-515904Y-3881380D01*
X-230190Y-3881380D02*
X-230190Y-2881380D01*
X-325428Y-3024238D01*
X-420666Y-3119476D01*
X-515904Y-3167095D01*
X674571Y-2881380D02*
X769809Y-2881380D01*
X865047Y-2929000D01*
X912666Y-2976619D01*
X960285Y-3071857D01*
X1007904Y-3262333D01*
X1007904Y-3500428D01*
X960285Y-3690904D01*
X912666Y-3786142D01*
X865047Y-3833761D01*
X769809Y-3881380D01*
X674571Y-3881380D01*
X579333Y-3833761D01*
X531714Y-3786142D01*
X484095Y-3690904D01*
X436476Y-3500428D01*
X436476Y-3262333D01*
X484095Y-3071857D01*
X531714Y-2976619D01*
X579333Y-2929000D01*
X674571Y-2881380D01*
X20470904Y-452380D02*
X20470904Y547619D01*
X20709000Y547619D01*
X20851857Y500000D01*
X20947095Y404761D01*
X20994714Y309523D01*
X21042333Y119047D01*
X21042333Y-23809D01*
X20994714Y-214285D01*
X20947095Y-309523D01*
X20851857Y-404761D01*
X20709000Y-452380D01*
X20470904Y-452380D01*
X21518523Y-452380D02*
X21709000Y-452380D01*
X21804238Y-404761D01*
X21851857Y-357142D01*
X21947095Y-214285D01*
X21994714Y-23809D01*
X21994714Y357142D01*
X21947095Y452380D01*
X21899476Y500000D01*
X21804238Y547619D01*
X21613761Y547619D01*
X21518523Y500000D01*
X21470904Y452380D01*
X21423285Y357142D01*
X21423285Y119047D01*
X21470904Y23809D01*
X21518523Y-23809D01*
X21613761Y-71428D01*
X21804238Y-71428D01*
X21899476Y-23809D01*
X21947095Y23809D01*
X21994714Y119047D01*
X11961904Y-8199380D02*
X11961904Y-7199380D01*
X12200000Y-7199380D01*
X12342857Y-7247000D01*
X12438095Y-7342238D01*
X12485714Y-7437476D01*
X12533333Y-7627952D01*
X12533333Y-7770809D01*
X12485714Y-7961285D01*
X12438095Y-8056523D01*
X12342857Y-8151761D01*
X12200000Y-8199380D01*
X11961904Y-8199380D01*
X13104761Y-7627952D02*
X13009523Y-7580333D01*
X12961904Y-7532714D01*
X12914285Y-7437476D01*
X12914285Y-7389857D01*
X12961904Y-7294619D01*
X13009523Y-7247000D01*
X13104761Y-7199380D01*
X13295238Y-7199380D01*
X13390476Y-7247000D01*
X13438095Y-7294619D01*
X13485714Y-7389857D01*
X13485714Y-7437476D01*
X13438095Y-7532714D01*
X13390476Y-7580333D01*
X13295238Y-7627952D01*
X13104761Y-7627952D01*
X13009523Y-7675571D01*
X12961904Y-7723190D01*
X12914285Y-7818428D01*
X12914285Y-8008904D01*
X12961904Y-8104142D01*
X13009523Y-8151761D01*
X13104761Y-8199380D01*
X13295238Y-8199380D01*
X13390476Y-8151761D01*
X13438095Y-8104142D01*
X13485714Y-8008904D01*
X13485714Y-7818428D01*
X13438095Y-7723190D01*
X13390476Y-7675571D01*
X13295238Y-7627952D01*
X44942380Y22121904D02*
X43942380Y22121904D01*
X43942380Y22360000D01*
X43990000Y22502857D01*
X44085238Y22598095D01*
X44180476Y22645714D01*
X44370952Y22693333D01*
X44513809Y22693333D01*
X44704285Y22645714D01*
X44799523Y22598095D01*
X44894761Y22502857D01*
X44942380Y22360000D01*
X44942380Y22121904D01*
X43942380Y23026666D02*
X43942380Y23693333D01*
X44942380Y23264761D01*
X41171904Y4627619D02*
X41171904Y5627619D01*
X41410000Y5627619D01*
X41552857Y5580000D01*
X41648095Y5484761D01*
X41695714Y5389523D01*
X41743333Y5199047D01*
X41743333Y5056190D01*
X41695714Y4865714D01*
X41648095Y4770476D01*
X41552857Y4675238D01*
X41410000Y4627619D01*
X41171904Y4627619D01*
X42600476Y5627619D02*
X42410000Y5627619D01*
X42314761Y5580000D01*
X42267142Y5532380D01*
X42171904Y5389523D01*
X42124285Y5199047D01*
X42124285Y4818095D01*
X42171904Y4722857D01*
X42219523Y4675238D01*
X42314761Y4627619D01*
X42505238Y4627619D01*
X42600476Y4675238D01*
X42648095Y4722857D01*
X42695714Y4818095D01*
X42695714Y5056190D01*
X42648095Y5151428D01*
X42600476Y5199047D01*
X42505238Y5246666D01*
X42314761Y5246666D01*
X42219523Y5199047D01*
X42171904Y5151428D01*
X42124285Y5056190D01*
X20851904Y-8032380D02*
X20851904Y-7032380D01*
X21090000Y-7032380D01*
X21232857Y-7080000D01*
X21328095Y-7175238D01*
X21375714Y-7270476D01*
X21423333Y-7460952D01*
X21423333Y-7603809D01*
X21375714Y-7794285D01*
X21328095Y-7889523D01*
X21232857Y-7984761D01*
X21090000Y-8032380D01*
X20851904Y-8032380D01*
X22328095Y-7032380D02*
X21851904Y-7032380D01*
X21804285Y-7508571D01*
X21851904Y-7460952D01*
X21947142Y-7413333D01*
X22185238Y-7413333D01*
X22280476Y-7460952D01*
X22328095Y-7508571D01*
X22375714Y-7603809D01*
X22375714Y-7841904D01*
X22328095Y-7937142D01*
X22280476Y-7984761D01*
X22185238Y-8032380D01*
X21947142Y-8032380D01*
X21851904Y-7984761D01*
X21804285Y-7937142D01*
X-34980619Y10945904D02*
X-35980619Y10945904D01*
X-35980619Y11184000D01*
X-35933000Y11326857D01*
X-35837761Y11422095D01*
X-35742523Y11469714D01*
X-35552047Y11517333D01*
X-35409190Y11517333D01*
X-35218714Y11469714D01*
X-35123476Y11422095D01*
X-35028238Y11326857D01*
X-34980619Y11184000D01*
X-34980619Y10945904D01*
X-35647285Y12374476D02*
X-34980619Y12374476D01*
X-36028238Y12136380D02*
X-35313952Y11898285D01*
X-35313952Y12517333D01*
X-39044619Y10945904D02*
X-40044619Y10945904D01*
X-40044619Y11184000D01*
X-39997000Y11326857D01*
X-39901761Y11422095D01*
X-39806523Y11469714D01*
X-39616047Y11517333D01*
X-39473190Y11517333D01*
X-39282714Y11469714D01*
X-39187476Y11422095D01*
X-39092238Y11326857D01*
X-39044619Y11184000D01*
X-39044619Y10945904D01*
X-40044619Y11850666D02*
X-40044619Y12469714D01*
X-39663666Y12136380D01*
X-39663666Y12279238D01*
X-39616047Y12374476D01*
X-39568428Y12422095D01*
X-39473190Y12469714D01*
X-39235095Y12469714D01*
X-39139857Y12422095D01*
X-39092238Y12374476D01*
X-39044619Y12279238D01*
X-39044619Y11993523D01*
X-39092238Y11898285D01*
X-39139857Y11850666D01*
X-18772095Y-18105380D02*
X-18772095Y-17105380D01*
X-18534000Y-17105380D01*
X-18391142Y-17153000D01*
X-18295904Y-17248238D01*
X-18248285Y-17343476D01*
X-18200666Y-17533952D01*
X-18200666Y-17676809D01*
X-18248285Y-17867285D01*
X-18295904Y-17962523D01*
X-18391142Y-18057761D01*
X-18534000Y-18105380D01*
X-18772095Y-18105380D01*
X-17819714Y-17200619D02*
X-17772095Y-17153000D01*
X-17676857Y-17105380D01*
X-17438761Y-17105380D01*
X-17343523Y-17153000D01*
X-17295904Y-17200619D01*
X-17248285Y-17295857D01*
X-17248285Y-17391095D01*
X-17295904Y-17533952D01*
X-17867333Y-18105380D01*
X-17248285Y-18105380D01*
X-25122095Y-18105380D02*
X-25122095Y-17105380D01*
X-24884000Y-17105380D01*
X-24741142Y-17153000D01*
X-24645904Y-17248238D01*
X-24598285Y-17343476D01*
X-24550666Y-17533952D01*
X-24550666Y-17676809D01*
X-24598285Y-17867285D01*
X-24645904Y-17962523D01*
X-24741142Y-18057761D01*
X-24884000Y-18105380D01*
X-25122095Y-18105380D01*
X-23598285Y-18105380D02*
X-24169714Y-18105380D01*
X-23884000Y-18105380D02*
X-23884000Y-17105380D01*
X-23979238Y-17248238D01*
X-24074476Y-17343476D01*
X-24169714Y-17391095D01*
X-40266857Y34313857D02*
X-40314476Y34266238D01*
X-40457333Y34218619D01*
X-40552571Y34218619D01*
X-40695428Y34266238D01*
X-40790666Y34361476D01*
X-40838285Y34456714D01*
X-40885904Y34647190D01*
X-40885904Y34790047D01*
X-40838285Y34980523D01*
X-40790666Y35075761D01*
X-40695428Y35171000D01*
X-40552571Y35218619D01*
X-40457333Y35218619D01*
X-40314476Y35171000D01*
X-40266857Y35123380D01*
X-39933523Y35218619D02*
X-39266857Y35218619D01*
X-39695428Y34218619D01*
X-38981142Y35218619D02*
X-38362095Y35218619D01*
X-38695428Y34837666D01*
X-38552571Y34837666D01*
X-38457333Y34790047D01*
X-38409714Y34742428D01*
X-38362095Y34647190D01*
X-38362095Y34409095D01*
X-38409714Y34313857D01*
X-38457333Y34266238D01*
X-38552571Y34218619D01*
X-38838285Y34218619D01*
X-38933523Y34266238D01*
X-38981142Y34313857D01*
X38727142Y33424857D02*
X38679523Y33377238D01*
X38536666Y33329619D01*
X38441428Y33329619D01*
X38298571Y33377238D01*
X38203333Y33472476D01*
X38155714Y33567714D01*
X38108095Y33758190D01*
X38108095Y33901047D01*
X38155714Y34091523D01*
X38203333Y34186761D01*
X38298571Y34282000D01*
X38441428Y34329619D01*
X38536666Y34329619D01*
X38679523Y34282000D01*
X38727142Y34234380D01*
X39060476Y34329619D02*
X39727142Y34329619D01*
X39298571Y33329619D01*
X40631904Y33329619D02*
X40060476Y33329619D01*
X40346190Y33329619D02*
X40346190Y34329619D01*
X40250952Y34186761D01*
X40155714Y34091523D01*
X40060476Y34043904D01*
X41632142Y14216142D02*
X41679761Y14168523D01*
X41727380Y14025666D01*
X41727380Y13930428D01*
X41679761Y13787571D01*
X41584523Y13692333D01*
X41489285Y13644714D01*
X41298809Y13597095D01*
X41155952Y13597095D01*
X40965476Y13644714D01*
X40870238Y13692333D01*
X40775000Y13787571D01*
X40727380Y13930428D01*
X40727380Y14025666D01*
X40775000Y14168523D01*
X40822619Y14216142D01*
X40727380Y14549476D02*
X40727380Y15216142D01*
X41727380Y14787571D01*
X40727380Y15787571D02*
X40727380Y15882809D01*
X40775000Y15978047D01*
X40822619Y16025666D01*
X40917857Y16073285D01*
X41108333Y16120904D01*
X41346428Y16120904D01*
X41536904Y16073285D01*
X41632142Y16025666D01*
X41679761Y15978047D01*
X41727380Y15882809D01*
X41727380Y15787571D01*
X41679761Y15692333D01*
X41632142Y15644714D01*
X41536904Y15597095D01*
X41346428Y15549476D01*
X41108333Y15549476D01*
X40917857Y15597095D01*
X40822619Y15644714D01*
X40775000Y15692333D01*
X40727380Y15787571D01*
X-10945857Y20185142D02*
X-10898238Y20137523D01*
X-10850619Y19994666D01*
X-10850619Y19899428D01*
X-10898238Y19756571D01*
X-10993476Y19661333D01*
X-11088714Y19613714D01*
X-11279190Y19566095D01*
X-11422047Y19566095D01*
X-11612523Y19613714D01*
X-11707761Y19661333D01*
X-11803000Y19756571D01*
X-11850619Y19899428D01*
X-11850619Y19994666D01*
X-11803000Y20137523D01*
X-11755380Y20185142D01*
X-11850619Y21042285D02*
X-11850619Y20851809D01*
X-11803000Y20756571D01*
X-11755380Y20708952D01*
X-11612523Y20613714D01*
X-11422047Y20566095D01*
X-11041095Y20566095D01*
X-10945857Y20613714D01*
X-10898238Y20661333D01*
X-10850619Y20756571D01*
X-10850619Y20947047D01*
X-10898238Y21042285D01*
X-10945857Y21089904D01*
X-11041095Y21137523D01*
X-11279190Y21137523D01*
X-11374428Y21089904D01*
X-11422047Y21042285D01*
X-11469666Y20947047D01*
X-11469666Y20756571D01*
X-11422047Y20661333D01*
X-11374428Y20613714D01*
X-11279190Y20566095D01*
X-10850619Y22089904D02*
X-10850619Y21518476D01*
X-10850619Y21804190D02*
X-11850619Y21804190D01*
X-11707761Y21708952D01*
X-11612523Y21613714D01*
X-11564904Y21518476D01*
X-28852857Y20058142D02*
X-28805238Y20010523D01*
X-28757619Y19867666D01*
X-28757619Y19772428D01*
X-28805238Y19629571D01*
X-28900476Y19534333D01*
X-28995714Y19486714D01*
X-29186190Y19439095D01*
X-29329047Y19439095D01*
X-29519523Y19486714D01*
X-29614761Y19534333D01*
X-29710000Y19629571D01*
X-29757619Y19772428D01*
X-29757619Y19867666D01*
X-29710000Y20010523D01*
X-29662380Y20058142D01*
X-29757619Y20915285D02*
X-29757619Y20724809D01*
X-29710000Y20629571D01*
X-29662380Y20581952D01*
X-29519523Y20486714D01*
X-29329047Y20439095D01*
X-28948095Y20439095D01*
X-28852857Y20486714D01*
X-28805238Y20534333D01*
X-28757619Y20629571D01*
X-28757619Y20820047D01*
X-28805238Y20915285D01*
X-28852857Y20962904D01*
X-28948095Y21010523D01*
X-29186190Y21010523D01*
X-29281428Y20962904D01*
X-29329047Y20915285D01*
X-29376666Y20820047D01*
X-29376666Y20629571D01*
X-29329047Y20534333D01*
X-29281428Y20486714D01*
X-29186190Y20439095D01*
X-29757619Y21629571D02*
X-29757619Y21724809D01*
X-29710000Y21820047D01*
X-29662380Y21867666D01*
X-29567142Y21915285D01*
X-29376666Y21962904D01*
X-29138571Y21962904D01*
X-28948095Y21915285D01*
X-28852857Y21867666D01*
X-28805238Y21820047D01*
X-28757619Y21724809D01*
X-28757619Y21629571D01*
X-28805238Y21534333D01*
X-28852857Y21486714D01*
X-28948095Y21439095D01*
X-29138571Y21391476D01*
X-29376666Y21391476D01*
X-29567142Y21439095D01*
X-29662380Y21486714D01*
X-29710000Y21534333D01*
X-29757619Y21629571D01*
X-4214857Y23487142D02*
X-4167238Y23439523D01*
X-4119619Y23296666D01*
X-4119619Y23201428D01*
X-4167238Y23058571D01*
X-4262476Y22963333D01*
X-4357714Y22915714D01*
X-4548190Y22868095D01*
X-4691047Y22868095D01*
X-4881523Y22915714D01*
X-4976761Y22963333D01*
X-5072000Y23058571D01*
X-5119619Y23201428D01*
X-5119619Y23296666D01*
X-5072000Y23439523D01*
X-5024380Y23487142D01*
X-5119619Y24391904D02*
X-5119619Y23915714D01*
X-4643428Y23868095D01*
X-4691047Y23915714D01*
X-4738666Y24010952D01*
X-4738666Y24249047D01*
X-4691047Y24344285D01*
X-4643428Y24391904D01*
X-4548190Y24439523D01*
X-4310095Y24439523D01*
X-4214857Y24391904D01*
X-4167238Y24344285D01*
X-4119619Y24249047D01*
X-4119619Y24010952D01*
X-4167238Y23915714D01*
X-4214857Y23868095D01*
X-5119619Y25058571D02*
X-5119619Y25153809D01*
X-5072000Y25249047D01*
X-5024380Y25296666D01*
X-4929142Y25344285D01*
X-4738666Y25391904D01*
X-4500571Y25391904D01*
X-4310095Y25344285D01*
X-4214857Y25296666D01*
X-4167238Y25249047D01*
X-4119619Y25153809D01*
X-4119619Y25058571D01*
X-4167238Y24963333D01*
X-4214857Y24915714D01*
X-4310095Y24868095D01*
X-4500571Y24820476D01*
X-4738666Y24820476D01*
X-4929142Y24868095D01*
X-5024380Y24915714D01*
X-5072000Y24963333D01*
X-5119619Y25058571D01*
X-13612857Y11549142D02*
X-13565238Y11501523D01*
X-13517619Y11358666D01*
X-13517619Y11263428D01*
X-13565238Y11120571D01*
X-13660476Y11025333D01*
X-13755714Y10977714D01*
X-13946190Y10930095D01*
X-14089047Y10930095D01*
X-14279523Y10977714D01*
X-14374761Y11025333D01*
X-14470000Y11120571D01*
X-14517619Y11263428D01*
X-14517619Y11358666D01*
X-14470000Y11501523D01*
X-14422380Y11549142D01*
X-14184285Y12406285D02*
X-13517619Y12406285D01*
X-14565238Y12168190D02*
X-13850952Y11930095D01*
X-13850952Y12549142D01*
X-13517619Y13453904D02*
X-13517619Y12882476D01*
X-13517619Y13168190D02*
X-14517619Y13168190D01*
X-14374761Y13072952D01*
X-14279523Y12977714D01*
X-14231904Y12882476D01*
X-26312857Y20058142D02*
X-26265238Y20010523D01*
X-26217619Y19867666D01*
X-26217619Y19772428D01*
X-26265238Y19629571D01*
X-26360476Y19534333D01*
X-26455714Y19486714D01*
X-26646190Y19439095D01*
X-26789047Y19439095D01*
X-26979523Y19486714D01*
X-27074761Y19534333D01*
X-27170000Y19629571D01*
X-27217619Y19772428D01*
X-27217619Y19867666D01*
X-27170000Y20010523D01*
X-27122380Y20058142D01*
X-26884285Y20915285D02*
X-26217619Y20915285D01*
X-27265238Y20677190D02*
X-26550952Y20439095D01*
X-26550952Y21058142D01*
X-27217619Y21629571D02*
X-27217619Y21724809D01*
X-27170000Y21820047D01*
X-27122380Y21867666D01*
X-27027142Y21915285D01*
X-26836666Y21962904D01*
X-26598571Y21962904D01*
X-26408095Y21915285D01*
X-26312857Y21867666D01*
X-26265238Y21820047D01*
X-26217619Y21724809D01*
X-26217619Y21629571D01*
X-26265238Y21534333D01*
X-26312857Y21486714D01*
X-26408095Y21439095D01*
X-26598571Y21391476D01*
X-26836666Y21391476D01*
X-27027142Y21439095D01*
X-27122380Y21486714D01*
X-27170000Y21534333D01*
X-27217619Y21629571D01*
X-31392857Y20058142D02*
X-31345238Y20010523D01*
X-31297619Y19867666D01*
X-31297619Y19772428D01*
X-31345238Y19629571D01*
X-31440476Y19534333D01*
X-31535714Y19486714D01*
X-31726190Y19439095D01*
X-31869047Y19439095D01*
X-32059523Y19486714D01*
X-32154761Y19534333D01*
X-32250000Y19629571D01*
X-32297619Y19772428D01*
X-32297619Y19867666D01*
X-32250000Y20010523D01*
X-32202380Y20058142D01*
X-32297619Y20391476D02*
X-32297619Y21010523D01*
X-31916666Y20677190D01*
X-31916666Y20820047D01*
X-31869047Y20915285D01*
X-31821428Y20962904D01*
X-31726190Y21010523D01*
X-31488095Y21010523D01*
X-31392857Y20962904D01*
X-31345238Y20915285D01*
X-31297619Y20820047D01*
X-31297619Y20534333D01*
X-31345238Y20439095D01*
X-31392857Y20391476D01*
X-31869047Y21581952D02*
X-31916666Y21486714D01*
X-31964285Y21439095D01*
X-32059523Y21391476D01*
X-32107142Y21391476D01*
X-32202380Y21439095D01*
X-32250000Y21486714D01*
X-32297619Y21581952D01*
X-32297619Y21772428D01*
X-32250000Y21867666D01*
X-32202380Y21915285D01*
X-32107142Y21962904D01*
X-32059523Y21962904D01*
X-31964285Y21915285D01*
X-31916666Y21867666D01*
X-31869047Y21772428D01*
X-31869047Y21581952D01*
X-31821428Y21486714D01*
X-31773809Y21439095D01*
X-31678571Y21391476D01*
X-31488095Y21391476D01*
X-31392857Y21439095D01*
X-31345238Y21486714D01*
X-31297619Y21581952D01*
X-31297619Y21772428D01*
X-31345238Y21867666D01*
X-31392857Y21915285D01*
X-31488095Y21962904D01*
X-31678571Y21962904D01*
X-31773809Y21915285D01*
X-31821428Y21867666D01*
X-31869047Y21772428D01*
X-9532857Y21105857D02*
X-9580476Y21058238D01*
X-9723333Y21010619D01*
X-9818571Y21010619D01*
X-9961428Y21058238D01*
X-10056666Y21153476D01*
X-10104285Y21248714D01*
X-10151904Y21439190D01*
X-10151904Y21582047D01*
X-10104285Y21772523D01*
X-10056666Y21867761D01*
X-9961428Y21963000D01*
X-9818571Y22010619D01*
X-9723333Y22010619D01*
X-9580476Y21963000D01*
X-9532857Y21915380D01*
X-9199523Y22010619D02*
X-8580476Y22010619D01*
X-8913809Y21629666D01*
X-8770952Y21629666D01*
X-8675714Y21582047D01*
X-8628095Y21534428D01*
X-8580476Y21439190D01*
X-8580476Y21201095D01*
X-8628095Y21105857D01*
X-8675714Y21058238D01*
X-8770952Y21010619D01*
X-9056666Y21010619D01*
X-9151904Y21058238D01*
X-9199523Y21105857D01*
X-8247142Y22010619D02*
X-7580476Y22010619D01*
X-8009047Y21010619D01*
X-23772857Y20185142D02*
X-23725238Y20137523D01*
X-23677619Y19994666D01*
X-23677619Y19899428D01*
X-23725238Y19756571D01*
X-23820476Y19661333D01*
X-23915714Y19613714D01*
X-24106190Y19566095D01*
X-24249047Y19566095D01*
X-24439523Y19613714D01*
X-24534761Y19661333D01*
X-24630000Y19756571D01*
X-24677619Y19899428D01*
X-24677619Y19994666D01*
X-24630000Y20137523D01*
X-24582380Y20185142D01*
X-24677619Y20518476D02*
X-24677619Y21137523D01*
X-24296666Y20804190D01*
X-24296666Y20947047D01*
X-24249047Y21042285D01*
X-24201428Y21089904D01*
X-24106190Y21137523D01*
X-23868095Y21137523D01*
X-23772857Y21089904D01*
X-23725238Y21042285D01*
X-23677619Y20947047D01*
X-23677619Y20661333D01*
X-23725238Y20566095D01*
X-23772857Y20518476D01*
X-24677619Y21994666D02*
X-24677619Y21804190D01*
X-24630000Y21708952D01*
X-24582380Y21661333D01*
X-24439523Y21566095D01*
X-24249047Y21518476D01*
X-23868095Y21518476D01*
X-23772857Y21566095D01*
X-23725238Y21613714D01*
X-23677619Y21708952D01*
X-23677619Y21899428D01*
X-23725238Y21994666D01*
X-23772857Y22042285D01*
X-23868095Y22089904D01*
X-24106190Y22089904D01*
X-24201428Y22042285D01*
X-24249047Y21994666D01*
X-24296666Y21899428D01*
X-24296666Y21708952D01*
X-24249047Y21613714D01*
X-24201428Y21566095D01*
X-24106190Y21518476D01*
X-13231857Y20185142D02*
X-13184238Y20137523D01*
X-13136619Y19994666D01*
X-13136619Y19899428D01*
X-13184238Y19756571D01*
X-13279476Y19661333D01*
X-13374714Y19613714D01*
X-13565190Y19566095D01*
X-13708047Y19566095D01*
X-13898523Y19613714D01*
X-13993761Y19661333D01*
X-14089000Y19756571D01*
X-14136619Y19899428D01*
X-14136619Y19994666D01*
X-14089000Y20137523D01*
X-14041380Y20185142D01*
X-14136619Y20518476D02*
X-14136619Y21137523D01*
X-13755666Y20804190D01*
X-13755666Y20947047D01*
X-13708047Y21042285D01*
X-13660428Y21089904D01*
X-13565190Y21137523D01*
X-13327095Y21137523D01*
X-13231857Y21089904D01*
X-13184238Y21042285D01*
X-13136619Y20947047D01*
X-13136619Y20661333D01*
X-13184238Y20566095D01*
X-13231857Y20518476D01*
X-14136619Y22042285D02*
X-14136619Y21566095D01*
X-13660428Y21518476D01*
X-13708047Y21566095D01*
X-13755666Y21661333D01*
X-13755666Y21899428D01*
X-13708047Y21994666D01*
X-13660428Y22042285D01*
X-13565190Y22089904D01*
X-13327095Y22089904D01*
X-13231857Y22042285D01*
X-13184238Y21994666D01*
X-13136619Y21899428D01*
X-13136619Y21661333D01*
X-13184238Y21566095D01*
X-13231857Y21518476D01*
X45569142Y28694142D02*
X45616761Y28646523D01*
X45664380Y28503666D01*
X45664380Y28408428D01*
X45616761Y28265571D01*
X45521523Y28170333D01*
X45426285Y28122714D01*
X45235809Y28075095D01*
X45092952Y28075095D01*
X44902476Y28122714D01*
X44807238Y28170333D01*
X44712000Y28265571D01*
X44664380Y28408428D01*
X44664380Y28503666D01*
X44712000Y28646523D01*
X44759619Y28694142D01*
X44664380Y29027476D02*
X44664380Y29646523D01*
X45045333Y29313190D01*
X45045333Y29456047D01*
X45092952Y29551285D01*
X45140571Y29598904D01*
X45235809Y29646523D01*
X45473904Y29646523D01*
X45569142Y29598904D01*
X45616761Y29551285D01*
X45664380Y29456047D01*
X45664380Y29170333D01*
X45616761Y29075095D01*
X45569142Y29027476D01*
X44997714Y30503666D02*
X45664380Y30503666D01*
X44616761Y30265571D02*
X45331047Y30027476D01*
X45331047Y30646523D01*
X43807142Y17832857D02*
X43759523Y17785238D01*
X43616666Y17737619D01*
X43521428Y17737619D01*
X43378571Y17785238D01*
X43283333Y17880476D01*
X43235714Y17975714D01*
X43188095Y18166190D01*
X43188095Y18309047D01*
X43235714Y18499523D01*
X43283333Y18594761D01*
X43378571Y18690000D01*
X43521428Y18737619D01*
X43616666Y18737619D01*
X43759523Y18690000D01*
X43807142Y18642380D01*
X44140476Y18737619D02*
X44759523Y18737619D01*
X44426190Y18356666D01*
X44569047Y18356666D01*
X44664285Y18309047D01*
X44711904Y18261428D01*
X44759523Y18166190D01*
X44759523Y17928095D01*
X44711904Y17832857D01*
X44664285Y17785238D01*
X44569047Y17737619D01*
X44283333Y17737619D01*
X44188095Y17785238D01*
X44140476Y17832857D01*
X45092857Y18737619D02*
X45711904Y18737619D01*
X45378571Y18356666D01*
X45521428Y18356666D01*
X45616666Y18309047D01*
X45664285Y18261428D01*
X45711904Y18166190D01*
X45711904Y17928095D01*
X45664285Y17832857D01*
X45616666Y17785238D01*
X45521428Y17737619D01*
X45235714Y17737619D01*
X45140476Y17785238D01*
X45092857Y17832857D01*
X-40012857Y-4802142D02*
X-40060476Y-4849761D01*
X-40203333Y-4897380D01*
X-40298571Y-4897380D01*
X-40441428Y-4849761D01*
X-40536666Y-4754523D01*
X-40584285Y-4659285D01*
X-40631904Y-4468809D01*
X-40631904Y-4325952D01*
X-40584285Y-4135476D01*
X-40536666Y-4040238D01*
X-40441428Y-3945000D01*
X-40298571Y-3897380D01*
X-40203333Y-3897380D01*
X-40060476Y-3945000D01*
X-40012857Y-3992619D01*
X-39679523Y-3897380D02*
X-39060476Y-3897380D01*
X-39393809Y-4278333D01*
X-39250952Y-4278333D01*
X-39155714Y-4325952D01*
X-39108095Y-4373571D01*
X-39060476Y-4468809D01*
X-39060476Y-4706904D01*
X-39108095Y-4802142D01*
X-39155714Y-4849761D01*
X-39250952Y-4897380D01*
X-39536666Y-4897380D01*
X-39631904Y-4849761D01*
X-39679523Y-4802142D01*
X-38679523Y-3992619D02*
X-38631904Y-3945000D01*
X-38536666Y-3897380D01*
X-38298571Y-3897380D01*
X-38203333Y-3945000D01*
X-38155714Y-3992619D01*
X-38108095Y-4087857D01*
X-38108095Y-4183095D01*
X-38155714Y-4325952D01*
X-38727142Y-4897380D01*
X-38108095Y-4897380D01*
X-32392857Y-20423142D02*
X-32440476Y-20470761D01*
X-32583333Y-20518380D01*
X-32678571Y-20518380D01*
X-32821428Y-20470761D01*
X-32916666Y-20375523D01*
X-32964285Y-20280285D01*
X-33011904Y-20089809D01*
X-33011904Y-19946952D01*
X-32964285Y-19756476D01*
X-32916666Y-19661238D01*
X-32821428Y-19566000D01*
X-32678571Y-19518380D01*
X-32583333Y-19518380D01*
X-32440476Y-19566000D01*
X-32392857Y-19613619D01*
X-32059523Y-19518380D02*
X-31440476Y-19518380D01*
X-31773809Y-19899333D01*
X-31630952Y-19899333D01*
X-31535714Y-19946952D01*
X-31488095Y-19994571D01*
X-31440476Y-20089809D01*
X-31440476Y-20327904D01*
X-31488095Y-20423142D01*
X-31535714Y-20470761D01*
X-31630952Y-20518380D01*
X-31916666Y-20518380D01*
X-32011904Y-20470761D01*
X-32059523Y-20423142D01*
X-30488095Y-20518380D02*
X-31059523Y-20518380D01*
X-30773809Y-20518380D02*
X-30773809Y-19518380D01*
X-30869047Y-19661238D01*
X-30964285Y-19756476D01*
X-31059523Y-19804095D01*
X-32392857Y-8993142D02*
X-32440476Y-9040761D01*
X-32583333Y-9088380D01*
X-32678571Y-9088380D01*
X-32821428Y-9040761D01*
X-32916666Y-8945523D01*
X-32964285Y-8850285D01*
X-33011904Y-8659809D01*
X-33011904Y-8516952D01*
X-32964285Y-8326476D01*
X-32916666Y-8231238D01*
X-32821428Y-8136000D01*
X-32678571Y-8088380D01*
X-32583333Y-8088380D01*
X-32440476Y-8136000D01*
X-32392857Y-8183619D01*
X-32059523Y-8088380D02*
X-31440476Y-8088380D01*
X-31773809Y-8469333D01*
X-31630952Y-8469333D01*
X-31535714Y-8516952D01*
X-31488095Y-8564571D01*
X-31440476Y-8659809D01*
X-31440476Y-8897904D01*
X-31488095Y-8993142D01*
X-31535714Y-9040761D01*
X-31630952Y-9088380D01*
X-31916666Y-9088380D01*
X-32011904Y-9040761D01*
X-32059523Y-8993142D01*
X-30821428Y-8088380D02*
X-30726190Y-8088380D01*
X-30630952Y-8136000D01*
X-30583333Y-8183619D01*
X-30535714Y-8278857D01*
X-30488095Y-8469333D01*
X-30488095Y-8707428D01*
X-30535714Y-8897904D01*
X-30583333Y-8993142D01*
X-30630952Y-9040761D01*
X-30726190Y-9088380D01*
X-30821428Y-9088380D01*
X-30916666Y-9040761D01*
X-30964285Y-8993142D01*
X-31011904Y-8897904D01*
X-31059523Y-8707428D01*
X-31059523Y-8469333D01*
X-31011904Y-8278857D01*
X-30964285Y-8183619D01*
X-30916666Y-8136000D01*
X-30821428Y-8088380D01*
X-14882857Y-26804857D02*
X-14835238Y-26852476D01*
X-14787619Y-26995333D01*
X-14787619Y-27090571D01*
X-14835238Y-27233428D01*
X-14930476Y-27328666D01*
X-15025714Y-27376285D01*
X-15216190Y-27423904D01*
X-15359047Y-27423904D01*
X-15549523Y-27376285D01*
X-15644761Y-27328666D01*
X-15740000Y-27233428D01*
X-15787619Y-27090571D01*
X-15787619Y-26995333D01*
X-15740000Y-26852476D01*
X-15692380Y-26804857D01*
X-15692380Y-26423904D02*
X-15740000Y-26376285D01*
X-15787619Y-26281047D01*
X-15787619Y-26042952D01*
X-15740000Y-25947714D01*
X-15692380Y-25900095D01*
X-15597142Y-25852476D01*
X-15501904Y-25852476D01*
X-15359047Y-25900095D01*
X-14787619Y-26471523D01*
X-14787619Y-25852476D01*
X-14787619Y-24900095D02*
X-14787619Y-25471523D01*
X-14787619Y-25185809D02*
X-15787619Y-25185809D01*
X-15644761Y-25281047D01*
X-15549523Y-25376285D01*
X-15501904Y-25471523D01*
X-15882857Y-14327142D02*
X-15930476Y-14374761D01*
X-16073333Y-14422380D01*
X-16168571Y-14422380D01*
X-16311428Y-14374761D01*
X-16406666Y-14279523D01*
X-16454285Y-14184285D01*
X-16501904Y-13993809D01*
X-16501904Y-13850952D01*
X-16454285Y-13660476D01*
X-16406666Y-13565238D01*
X-16311428Y-13470000D01*
X-16168571Y-13422380D01*
X-16073333Y-13422380D01*
X-15930476Y-13470000D01*
X-15882857Y-13517619D01*
X-15501904Y-13517619D02*
X-15454285Y-13470000D01*
X-15359047Y-13422380D01*
X-15120952Y-13422380D01*
X-15025714Y-13470000D01*
X-14978095Y-13517619D01*
X-14930476Y-13612857D01*
X-14930476Y-13708095D01*
X-14978095Y-13850952D01*
X-15549523Y-14422380D01*
X-14930476Y-14422380D01*
X-14311428Y-13422380D02*
X-14216190Y-13422380D01*
X-14120952Y-13470000D01*
X-14073333Y-13517619D01*
X-14025714Y-13612857D01*
X-13978095Y-13803333D01*
X-13978095Y-14041428D01*
X-14025714Y-14231904D01*
X-14073333Y-14327142D01*
X-14120952Y-14374761D01*
X-14216190Y-14422380D01*
X-14311428Y-14422380D01*
X-14406666Y-14374761D01*
X-14454285Y-14327142D01*
X-14501904Y-14231904D01*
X-14549523Y-14041428D01*
X-14549523Y-13803333D01*
X-14501904Y-13612857D01*
X-14454285Y-13517619D01*
X-14406666Y-13470000D01*
X-14311428Y-13422380D01*
X-29233857Y-5722857D02*
X-29186238Y-5770476D01*
X-29138619Y-5913333D01*
X-29138619Y-6008571D01*
X-29186238Y-6151428D01*
X-29281476Y-6246666D01*
X-29376714Y-6294285D01*
X-29567190Y-6341904D01*
X-29710047Y-6341904D01*
X-29900523Y-6294285D01*
X-29995761Y-6246666D01*
X-30091000Y-6151428D01*
X-30138619Y-6008571D01*
X-30138619Y-5913333D01*
X-30091000Y-5770476D01*
X-30043380Y-5722857D01*
X-29138619Y-4770476D02*
X-29138619Y-5341904D01*
X-29138619Y-5056190D02*
X-30138619Y-5056190D01*
X-29995761Y-5151428D01*
X-29900523Y-5246666D01*
X-29852904Y-5341904D01*
X-30138619Y-4151428D02*
X-30138619Y-4056190D01*
X-30091000Y-3960952D01*
X-30043380Y-3913333D01*
X-29948142Y-3865714D01*
X-29757666Y-3818095D01*
X-29519571Y-3818095D01*
X-29329095Y-3865714D01*
X-29233857Y-3913333D01*
X-29186238Y-3960952D01*
X-29138619Y-4056190D01*
X-29138619Y-4151428D01*
X-29186238Y-4246666D01*
X-29233857Y-4294285D01*
X-29329095Y-4341904D01*
X-29519571Y-4389523D01*
X-29757666Y-4389523D01*
X-29948142Y-4341904D01*
X-30043380Y-4294285D01*
X-30091000Y-4246666D01*
X-30138619Y-4151428D01*
X-5098166Y19327857D02*
X-5145785Y19280238D01*
X-5288642Y19232619D01*
X-5383880Y19232619D01*
X-5526738Y19280238D01*
X-5621976Y19375476D01*
X-5669595Y19470714D01*
X-5717214Y19661190D01*
X-5717214Y19804047D01*
X-5669595Y19994523D01*
X-5621976Y20089761D01*
X-5526738Y20185000D01*
X-5383880Y20232619D01*
X-5288642Y20232619D01*
X-5145785Y20185000D01*
X-5098166Y20137380D01*
X-4717214Y20137380D02*
X-4669595Y20185000D01*
X-4574357Y20232619D01*
X-4336261Y20232619D01*
X-4241023Y20185000D01*
X-4193404Y20137380D01*
X-4145785Y20042142D01*
X-4145785Y19946904D01*
X-4193404Y19804047D01*
X-4764833Y19232619D01*
X-4145785Y19232619D01*
X-5098166Y12977857D02*
X-5145785Y12930238D01*
X-5288642Y12882619D01*
X-5383880Y12882619D01*
X-5526738Y12930238D01*
X-5621976Y13025476D01*
X-5669595Y13120714D01*
X-5717214Y13311190D01*
X-5717214Y13454047D01*
X-5669595Y13644523D01*
X-5621976Y13739761D01*
X-5526738Y13835000D01*
X-5383880Y13882619D01*
X-5288642Y13882619D01*
X-5145785Y13835000D01*
X-5098166Y13787380D01*
X-4145785Y12882619D02*
X-4717214Y12882619D01*
X-4431500Y12882619D02*
X-4431500Y13882619D01*
X-4526738Y13739761D01*
X-4621976Y13644523D01*
X-4717214Y13596904D01*
M02*
