G04 #@! TF.GenerationSoftware,KiCad,Pcbnew,(5.1.9)-1*
G04 #@! TF.CreationDate,2021-02-22T19:57:17+01:00*
G04 #@! TF.ProjectId,IoT12,496f5431-322e-46b6-9963-61645f706362,rev?*
G04 #@! TF.SameCoordinates,Original*
G04 #@! TF.FileFunction,Soldermask,Top*
G04 #@! TF.FilePolarity,Negative*
%FSLAX46Y46*%
G04 Gerber Fmt 4.6, Leading zero omitted, Abs format (unit mm)*
G04 Created by KiCad (PCBNEW (5.1.9)-1) date 2021-02-22 19:57:17*
%MOMM*%
%LPD*%
G01*
G04 APERTURE LIST*
%ADD10O,1.700000X1.700000*%
%ADD11R,1.700000X1.700000*%
%ADD12C,0.750000*%
%ADD13C,1.524000*%
%ADD14R,1.524000X1.524000*%
%ADD15R,6.500000X2.200000*%
%ADD16C,1.000000*%
%ADD17R,10.800000X9.400000*%
%ADD18R,1.100000X4.600000*%
%ADD19R,0.250000X1.100000*%
%ADD20C,0.100000*%
%ADD21R,2.000000X2.000000*%
%ADD22C,2.000000*%
%ADD23C,3.200000*%
%ADD24R,6.400000X5.800000*%
%ADD25R,2.200000X1.200000*%
%ADD26R,0.900000X0.800000*%
%ADD27R,0.800000X0.900000*%
%ADD28R,5.400000X2.900000*%
%ADD29O,1.550000X0.890000*%
%ADD30O,0.950000X1.250000*%
%ADD31C,0.800000*%
%ADD32C,6.400000*%
%ADD33C,2.010000*%
%ADD34R,2.500000X1.800000*%
%ADD35R,1.800000X2.500000*%
%ADD36O,1.700000X2.100000*%
%ADD37R,1.700000X2.100000*%
G04 APERTURE END LIST*
G36*
G01*
X-46539999Y-14840000D02*
X-47440001Y-14840000D01*
G75*
G02*
X-47690000Y-14590001I0J249999D01*
G01*
X-47690000Y-13889999D01*
G75*
G02*
X-47440001Y-13640000I249999J0D01*
G01*
X-46539999Y-13640000D01*
G75*
G02*
X-46290000Y-13889999I0J-249999D01*
G01*
X-46290000Y-14590001D01*
G75*
G02*
X-46539999Y-14840000I-249999J0D01*
G01*
G37*
G36*
G01*
X-46539999Y-16840000D02*
X-47440001Y-16840000D01*
G75*
G02*
X-47690000Y-16590001I0J249999D01*
G01*
X-47690000Y-15889999D01*
G75*
G02*
X-47440001Y-15640000I249999J0D01*
G01*
X-46539999Y-15640000D01*
G75*
G02*
X-46290000Y-15889999I0J-249999D01*
G01*
X-46290000Y-16590001D01*
G75*
G02*
X-46539999Y-16840000I-249999J0D01*
G01*
G37*
G36*
G01*
X-44925000Y-15690000D02*
X-43975000Y-15690000D01*
G75*
G02*
X-43725000Y-15940000I0J-250000D01*
G01*
X-43725000Y-16615000D01*
G75*
G02*
X-43975000Y-16865000I-250000J0D01*
G01*
X-44925000Y-16865000D01*
G75*
G02*
X-45175000Y-16615000I0J250000D01*
G01*
X-45175000Y-15940000D01*
G75*
G02*
X-44925000Y-15690000I250000J0D01*
G01*
G37*
G36*
G01*
X-44925000Y-13615000D02*
X-43975000Y-13615000D01*
G75*
G02*
X-43725000Y-13865000I0J-250000D01*
G01*
X-43725000Y-14540000D01*
G75*
G02*
X-43975000Y-14790000I-250000J0D01*
G01*
X-44925000Y-14790000D01*
G75*
G02*
X-45175000Y-14540000I0J250000D01*
G01*
X-45175000Y-13865000D01*
G75*
G02*
X-44925000Y-13615000I250000J0D01*
G01*
G37*
D10*
X24130000Y36830000D03*
X24130000Y39370000D03*
X21590000Y36830000D03*
X21590000Y39370000D03*
X19050000Y36830000D03*
X19050000Y39370000D03*
X16510000Y36830000D03*
X16510000Y39370000D03*
X13970000Y36830000D03*
D11*
X13970000Y39370000D03*
D12*
X-36830000Y22860000D03*
X-36830000Y24130000D03*
X-36830000Y25400000D03*
X-36830000Y26670000D03*
G36*
G01*
X-35765000Y18265000D02*
X-35765000Y18565000D01*
G75*
G02*
X-35615000Y18715000I150000J0D01*
G01*
X-34165000Y18715000D01*
G75*
G02*
X-34015000Y18565000I0J-150000D01*
G01*
X-34015000Y18265000D01*
G75*
G02*
X-34165000Y18115000I-150000J0D01*
G01*
X-35615000Y18115000D01*
G75*
G02*
X-35765000Y18265000I0J150000D01*
G01*
G37*
G36*
G01*
X-35765000Y16995000D02*
X-35765000Y17295000D01*
G75*
G02*
X-35615000Y17445000I150000J0D01*
G01*
X-34165000Y17445000D01*
G75*
G02*
X-34015000Y17295000I0J-150000D01*
G01*
X-34015000Y16995000D01*
G75*
G02*
X-34165000Y16845000I-150000J0D01*
G01*
X-35615000Y16845000D01*
G75*
G02*
X-35765000Y16995000I0J150000D01*
G01*
G37*
G36*
G01*
X-35765000Y15725000D02*
X-35765000Y16025000D01*
G75*
G02*
X-35615000Y16175000I150000J0D01*
G01*
X-34165000Y16175000D01*
G75*
G02*
X-34015000Y16025000I0J-150000D01*
G01*
X-34015000Y15725000D01*
G75*
G02*
X-34165000Y15575000I-150000J0D01*
G01*
X-35615000Y15575000D01*
G75*
G02*
X-35765000Y15725000I0J150000D01*
G01*
G37*
G36*
G01*
X-35765000Y14455000D02*
X-35765000Y14755000D01*
G75*
G02*
X-35615000Y14905000I150000J0D01*
G01*
X-34165000Y14905000D01*
G75*
G02*
X-34015000Y14755000I0J-150000D01*
G01*
X-34015000Y14455000D01*
G75*
G02*
X-34165000Y14305000I-150000J0D01*
G01*
X-35615000Y14305000D01*
G75*
G02*
X-35765000Y14455000I0J150000D01*
G01*
G37*
G36*
G01*
X-40915000Y14455000D02*
X-40915000Y14755000D01*
G75*
G02*
X-40765000Y14905000I150000J0D01*
G01*
X-39315000Y14905000D01*
G75*
G02*
X-39165000Y14755000I0J-150000D01*
G01*
X-39165000Y14455000D01*
G75*
G02*
X-39315000Y14305000I-150000J0D01*
G01*
X-40765000Y14305000D01*
G75*
G02*
X-40915000Y14455000I0J150000D01*
G01*
G37*
G36*
G01*
X-40915000Y15725000D02*
X-40915000Y16025000D01*
G75*
G02*
X-40765000Y16175000I150000J0D01*
G01*
X-39315000Y16175000D01*
G75*
G02*
X-39165000Y16025000I0J-150000D01*
G01*
X-39165000Y15725000D01*
G75*
G02*
X-39315000Y15575000I-150000J0D01*
G01*
X-40765000Y15575000D01*
G75*
G02*
X-40915000Y15725000I0J150000D01*
G01*
G37*
G36*
G01*
X-40915000Y16995000D02*
X-40915000Y17295000D01*
G75*
G02*
X-40765000Y17445000I150000J0D01*
G01*
X-39315000Y17445000D01*
G75*
G02*
X-39165000Y17295000I0J-150000D01*
G01*
X-39165000Y16995000D01*
G75*
G02*
X-39315000Y16845000I-150000J0D01*
G01*
X-40765000Y16845000D01*
G75*
G02*
X-40915000Y16995000I0J150000D01*
G01*
G37*
G36*
G01*
X-40915000Y18265000D02*
X-40915000Y18565000D01*
G75*
G02*
X-40765000Y18715000I150000J0D01*
G01*
X-39315000Y18715000D01*
G75*
G02*
X-39165000Y18565000I0J-150000D01*
G01*
X-39165000Y18265000D01*
G75*
G02*
X-39315000Y18115000I-150000J0D01*
G01*
X-40765000Y18115000D01*
G75*
G02*
X-40915000Y18265000I0J150000D01*
G01*
G37*
D13*
X23030000Y17300000D03*
X23030000Y20800000D03*
X10160000Y11430000D03*
X10160000Y13970000D03*
X10160000Y16510000D03*
X10160000Y19050000D03*
X10160000Y21590000D03*
X10160000Y24130000D03*
X10160000Y26670000D03*
X6350000Y-1230000D03*
X8890000Y-1230000D03*
X3810000Y-1230000D03*
D14*
X-8890000Y-1230000D03*
D13*
X1270000Y-1230000D03*
X-1270000Y-1230000D03*
X-6350000Y-1230000D03*
X-3810000Y-1230000D03*
X8890000Y39410000D03*
X6350000Y39410000D03*
X3810000Y39410000D03*
X1270000Y39410000D03*
X-1270000Y39410000D03*
X-3810000Y39410000D03*
X-6350000Y39410000D03*
D14*
X-8890000Y39410000D03*
D15*
X-3140000Y16510000D03*
D16*
X-8890000Y17460000D03*
X-8890000Y15560000D03*
D17*
X34290000Y5515000D03*
D18*
X30890000Y14665000D03*
X32590000Y14665000D03*
X34290000Y14665000D03*
X35990000Y14665000D03*
X37690000Y14665000D03*
G36*
G01*
X-25630000Y-24615000D02*
X-25630000Y-24915000D01*
G75*
G02*
X-25780000Y-25065000I-150000J0D01*
G01*
X-27430000Y-25065000D01*
G75*
G02*
X-27580000Y-24915000I0J150000D01*
G01*
X-27580000Y-24615000D01*
G75*
G02*
X-27430000Y-24465000I150000J0D01*
G01*
X-25780000Y-24465000D01*
G75*
G02*
X-25630000Y-24615000I0J-150000D01*
G01*
G37*
G36*
G01*
X-25630000Y-23345000D02*
X-25630000Y-23645000D01*
G75*
G02*
X-25780000Y-23795000I-150000J0D01*
G01*
X-27430000Y-23795000D01*
G75*
G02*
X-27580000Y-23645000I0J150000D01*
G01*
X-27580000Y-23345000D01*
G75*
G02*
X-27430000Y-23195000I150000J0D01*
G01*
X-25780000Y-23195000D01*
G75*
G02*
X-25630000Y-23345000I0J-150000D01*
G01*
G37*
G36*
G01*
X-25630000Y-22075000D02*
X-25630000Y-22375000D01*
G75*
G02*
X-25780000Y-22525000I-150000J0D01*
G01*
X-27430000Y-22525000D01*
G75*
G02*
X-27580000Y-22375000I0J150000D01*
G01*
X-27580000Y-22075000D01*
G75*
G02*
X-27430000Y-21925000I150000J0D01*
G01*
X-25780000Y-21925000D01*
G75*
G02*
X-25630000Y-22075000I0J-150000D01*
G01*
G37*
G36*
G01*
X-25630000Y-20805000D02*
X-25630000Y-21105000D01*
G75*
G02*
X-25780000Y-21255000I-150000J0D01*
G01*
X-27430000Y-21255000D01*
G75*
G02*
X-27580000Y-21105000I0J150000D01*
G01*
X-27580000Y-20805000D01*
G75*
G02*
X-27430000Y-20655000I150000J0D01*
G01*
X-25780000Y-20655000D01*
G75*
G02*
X-25630000Y-20805000I0J-150000D01*
G01*
G37*
G36*
G01*
X-20680000Y-20805000D02*
X-20680000Y-21105000D01*
G75*
G02*
X-20830000Y-21255000I-150000J0D01*
G01*
X-22480000Y-21255000D01*
G75*
G02*
X-22630000Y-21105000I0J150000D01*
G01*
X-22630000Y-20805000D01*
G75*
G02*
X-22480000Y-20655000I150000J0D01*
G01*
X-20830000Y-20655000D01*
G75*
G02*
X-20680000Y-20805000I0J-150000D01*
G01*
G37*
G36*
G01*
X-20680000Y-22075000D02*
X-20680000Y-22375000D01*
G75*
G02*
X-20830000Y-22525000I-150000J0D01*
G01*
X-22480000Y-22525000D01*
G75*
G02*
X-22630000Y-22375000I0J150000D01*
G01*
X-22630000Y-22075000D01*
G75*
G02*
X-22480000Y-21925000I150000J0D01*
G01*
X-20830000Y-21925000D01*
G75*
G02*
X-20680000Y-22075000I0J-150000D01*
G01*
G37*
G36*
G01*
X-20680000Y-23345000D02*
X-20680000Y-23645000D01*
G75*
G02*
X-20830000Y-23795000I-150000J0D01*
G01*
X-22480000Y-23795000D01*
G75*
G02*
X-22630000Y-23645000I0J150000D01*
G01*
X-22630000Y-23345000D01*
G75*
G02*
X-22480000Y-23195000I150000J0D01*
G01*
X-20830000Y-23195000D01*
G75*
G02*
X-20680000Y-23345000I0J-150000D01*
G01*
G37*
G36*
G01*
X-20680000Y-24615000D02*
X-20680000Y-24915000D01*
G75*
G02*
X-20830000Y-25065000I-150000J0D01*
G01*
X-22480000Y-25065000D01*
G75*
G02*
X-22630000Y-24915000I0J150000D01*
G01*
X-22630000Y-24615000D01*
G75*
G02*
X-22480000Y-24465000I150000J0D01*
G01*
X-20830000Y-24465000D01*
G75*
G02*
X-20680000Y-24615000I0J-150000D01*
G01*
G37*
G36*
G01*
X-25630000Y-13185000D02*
X-25630000Y-13485000D01*
G75*
G02*
X-25780000Y-13635000I-150000J0D01*
G01*
X-27430000Y-13635000D01*
G75*
G02*
X-27580000Y-13485000I0J150000D01*
G01*
X-27580000Y-13185000D01*
G75*
G02*
X-27430000Y-13035000I150000J0D01*
G01*
X-25780000Y-13035000D01*
G75*
G02*
X-25630000Y-13185000I0J-150000D01*
G01*
G37*
G36*
G01*
X-25630000Y-11915000D02*
X-25630000Y-12215000D01*
G75*
G02*
X-25780000Y-12365000I-150000J0D01*
G01*
X-27430000Y-12365000D01*
G75*
G02*
X-27580000Y-12215000I0J150000D01*
G01*
X-27580000Y-11915000D01*
G75*
G02*
X-27430000Y-11765000I150000J0D01*
G01*
X-25780000Y-11765000D01*
G75*
G02*
X-25630000Y-11915000I0J-150000D01*
G01*
G37*
G36*
G01*
X-25630000Y-10645000D02*
X-25630000Y-10945000D01*
G75*
G02*
X-25780000Y-11095000I-150000J0D01*
G01*
X-27430000Y-11095000D01*
G75*
G02*
X-27580000Y-10945000I0J150000D01*
G01*
X-27580000Y-10645000D01*
G75*
G02*
X-27430000Y-10495000I150000J0D01*
G01*
X-25780000Y-10495000D01*
G75*
G02*
X-25630000Y-10645000I0J-150000D01*
G01*
G37*
G36*
G01*
X-25630000Y-9375000D02*
X-25630000Y-9675000D01*
G75*
G02*
X-25780000Y-9825000I-150000J0D01*
G01*
X-27430000Y-9825000D01*
G75*
G02*
X-27580000Y-9675000I0J150000D01*
G01*
X-27580000Y-9375000D01*
G75*
G02*
X-27430000Y-9225000I150000J0D01*
G01*
X-25780000Y-9225000D01*
G75*
G02*
X-25630000Y-9375000I0J-150000D01*
G01*
G37*
G36*
G01*
X-20680000Y-9375000D02*
X-20680000Y-9675000D01*
G75*
G02*
X-20830000Y-9825000I-150000J0D01*
G01*
X-22480000Y-9825000D01*
G75*
G02*
X-22630000Y-9675000I0J150000D01*
G01*
X-22630000Y-9375000D01*
G75*
G02*
X-22480000Y-9225000I150000J0D01*
G01*
X-20830000Y-9225000D01*
G75*
G02*
X-20680000Y-9375000I0J-150000D01*
G01*
G37*
G36*
G01*
X-20680000Y-10645000D02*
X-20680000Y-10945000D01*
G75*
G02*
X-20830000Y-11095000I-150000J0D01*
G01*
X-22480000Y-11095000D01*
G75*
G02*
X-22630000Y-10945000I0J150000D01*
G01*
X-22630000Y-10645000D01*
G75*
G02*
X-22480000Y-10495000I150000J0D01*
G01*
X-20830000Y-10495000D01*
G75*
G02*
X-20680000Y-10645000I0J-150000D01*
G01*
G37*
G36*
G01*
X-20680000Y-11915000D02*
X-20680000Y-12215000D01*
G75*
G02*
X-20830000Y-12365000I-150000J0D01*
G01*
X-22480000Y-12365000D01*
G75*
G02*
X-22630000Y-12215000I0J150000D01*
G01*
X-22630000Y-11915000D01*
G75*
G02*
X-22480000Y-11765000I150000J0D01*
G01*
X-20830000Y-11765000D01*
G75*
G02*
X-20680000Y-11915000I0J-150000D01*
G01*
G37*
G36*
G01*
X-20680000Y-13185000D02*
X-20680000Y-13485000D01*
G75*
G02*
X-20830000Y-13635000I-150000J0D01*
G01*
X-22480000Y-13635000D01*
G75*
G02*
X-22630000Y-13485000I0J150000D01*
G01*
X-22630000Y-13185000D01*
G75*
G02*
X-22480000Y-13035000I150000J0D01*
G01*
X-20830000Y-13035000D01*
G75*
G02*
X-20680000Y-13185000I0J-150000D01*
G01*
G37*
D19*
X-40370000Y-6740000D03*
X-39870000Y-6740000D03*
X-39370000Y-6740000D03*
X-38870000Y-6740000D03*
X-38370000Y-6740000D03*
X-38370000Y-11040000D03*
X-38870000Y-11040000D03*
X-39370000Y-11040000D03*
X-39870000Y-11040000D03*
X-40370000Y-11040000D03*
D20*
G36*
X-14577550Y15749860D02*
G01*
X-14400773Y15926637D01*
X-13481534Y15007398D01*
X-13658311Y14830621D01*
X-14577550Y15749860D01*
G37*
G36*
X-14931103Y15396307D02*
G01*
X-14754326Y15573084D01*
X-13835087Y14653845D01*
X-14011864Y14477068D01*
X-14931103Y15396307D01*
G37*
G36*
X-15284657Y15042753D02*
G01*
X-15107880Y15219530D01*
X-14188641Y14300291D01*
X-14365418Y14123514D01*
X-15284657Y15042753D01*
G37*
G36*
X-15638210Y14689200D02*
G01*
X-15461433Y14865977D01*
X-14542194Y13946738D01*
X-14718971Y13769961D01*
X-15638210Y14689200D01*
G37*
G36*
X-15991763Y14335647D02*
G01*
X-15814986Y14512424D01*
X-14895747Y13593185D01*
X-15072524Y13416408D01*
X-15991763Y14335647D01*
G37*
G36*
X-16345317Y13982093D02*
G01*
X-16168540Y14158870D01*
X-15249301Y13239631D01*
X-15426078Y13062854D01*
X-16345317Y13982093D01*
G37*
G36*
X-16698870Y13628540D02*
G01*
X-16522093Y13805317D01*
X-15602854Y12886078D01*
X-15779631Y12709301D01*
X-16698870Y13628540D01*
G37*
G36*
X-17052424Y13274986D02*
G01*
X-16875647Y13451763D01*
X-15956408Y12532524D01*
X-16133185Y12355747D01*
X-17052424Y13274986D01*
G37*
G36*
X-17405977Y12921433D02*
G01*
X-17229200Y13098210D01*
X-16309961Y12178971D01*
X-16486738Y12002194D01*
X-17405977Y12921433D01*
G37*
G36*
X-17759530Y12567880D02*
G01*
X-17582753Y12744657D01*
X-16663514Y11825418D01*
X-16840291Y11648641D01*
X-17759530Y12567880D01*
G37*
G36*
X-18113084Y12214326D02*
G01*
X-17936307Y12391103D01*
X-17017068Y11471864D01*
X-17193845Y11295087D01*
X-18113084Y12214326D01*
G37*
G36*
X-18466637Y11860773D02*
G01*
X-18289860Y12037550D01*
X-17370621Y11118311D01*
X-17547398Y10941534D01*
X-18466637Y11860773D01*
G37*
G36*
X-19810140Y12037550D02*
G01*
X-19633363Y11860773D01*
X-20552602Y10941534D01*
X-20729379Y11118311D01*
X-19810140Y12037550D01*
G37*
G36*
X-20163693Y12391103D02*
G01*
X-19986916Y12214326D01*
X-20906155Y11295087D01*
X-21082932Y11471864D01*
X-20163693Y12391103D01*
G37*
G36*
X-20517247Y12744657D02*
G01*
X-20340470Y12567880D01*
X-21259709Y11648641D01*
X-21436486Y11825418D01*
X-20517247Y12744657D01*
G37*
G36*
X-20870800Y13098210D02*
G01*
X-20694023Y12921433D01*
X-21613262Y12002194D01*
X-21790039Y12178971D01*
X-20870800Y13098210D01*
G37*
G36*
X-21224353Y13451763D02*
G01*
X-21047576Y13274986D01*
X-21966815Y12355747D01*
X-22143592Y12532524D01*
X-21224353Y13451763D01*
G37*
G36*
X-21577907Y13805317D02*
G01*
X-21401130Y13628540D01*
X-22320369Y12709301D01*
X-22497146Y12886078D01*
X-21577907Y13805317D01*
G37*
G36*
X-21931460Y14158870D02*
G01*
X-21754683Y13982093D01*
X-22673922Y13062854D01*
X-22850699Y13239631D01*
X-21931460Y14158870D01*
G37*
G36*
X-22285014Y14512424D02*
G01*
X-22108237Y14335647D01*
X-23027476Y13416408D01*
X-23204253Y13593185D01*
X-22285014Y14512424D01*
G37*
G36*
X-22638567Y14865977D02*
G01*
X-22461790Y14689200D01*
X-23381029Y13769961D01*
X-23557806Y13946738D01*
X-22638567Y14865977D01*
G37*
G36*
X-22992120Y15219530D02*
G01*
X-22815343Y15042753D01*
X-23734582Y14123514D01*
X-23911359Y14300291D01*
X-22992120Y15219530D01*
G37*
G36*
X-23345674Y15573084D02*
G01*
X-23168897Y15396307D01*
X-24088136Y14477068D01*
X-24264913Y14653845D01*
X-23345674Y15573084D01*
G37*
G36*
X-23699227Y15926637D02*
G01*
X-23522450Y15749860D01*
X-24441689Y14830621D01*
X-24618466Y15007398D01*
X-23699227Y15926637D01*
G37*
G36*
X-24618466Y18012602D02*
G01*
X-24441689Y18189379D01*
X-23522450Y17270140D01*
X-23699227Y17093363D01*
X-24618466Y18012602D01*
G37*
G36*
X-24264913Y18366155D02*
G01*
X-24088136Y18542932D01*
X-23168897Y17623693D01*
X-23345674Y17446916D01*
X-24264913Y18366155D01*
G37*
G36*
X-23911359Y18719709D02*
G01*
X-23734582Y18896486D01*
X-22815343Y17977247D01*
X-22992120Y17800470D01*
X-23911359Y18719709D01*
G37*
G36*
X-23557806Y19073262D02*
G01*
X-23381029Y19250039D01*
X-22461790Y18330800D01*
X-22638567Y18154023D01*
X-23557806Y19073262D01*
G37*
G36*
X-23204253Y19426815D02*
G01*
X-23027476Y19603592D01*
X-22108237Y18684353D01*
X-22285014Y18507576D01*
X-23204253Y19426815D01*
G37*
G36*
X-22850699Y19780369D02*
G01*
X-22673922Y19957146D01*
X-21754683Y19037907D01*
X-21931460Y18861130D01*
X-22850699Y19780369D01*
G37*
G36*
X-22497146Y20133922D02*
G01*
X-22320369Y20310699D01*
X-21401130Y19391460D01*
X-21577907Y19214683D01*
X-22497146Y20133922D01*
G37*
G36*
X-22143592Y20487476D02*
G01*
X-21966815Y20664253D01*
X-21047576Y19745014D01*
X-21224353Y19568237D01*
X-22143592Y20487476D01*
G37*
G36*
X-21790039Y20841029D02*
G01*
X-21613262Y21017806D01*
X-20694023Y20098567D01*
X-20870800Y19921790D01*
X-21790039Y20841029D01*
G37*
G36*
X-21436486Y21194582D02*
G01*
X-21259709Y21371359D01*
X-20340470Y20452120D01*
X-20517247Y20275343D01*
X-21436486Y21194582D01*
G37*
G36*
X-21082932Y21548136D02*
G01*
X-20906155Y21724913D01*
X-19986916Y20805674D01*
X-20163693Y20628897D01*
X-21082932Y21548136D01*
G37*
G36*
X-20729379Y21901689D02*
G01*
X-20552602Y22078466D01*
X-19633363Y21159227D01*
X-19810140Y20982450D01*
X-20729379Y21901689D01*
G37*
G36*
X-17547398Y22078466D02*
G01*
X-17370621Y21901689D01*
X-18289860Y20982450D01*
X-18466637Y21159227D01*
X-17547398Y22078466D01*
G37*
G36*
X-17193845Y21724913D02*
G01*
X-17017068Y21548136D01*
X-17936307Y20628897D01*
X-18113084Y20805674D01*
X-17193845Y21724913D01*
G37*
G36*
X-16840291Y21371359D02*
G01*
X-16663514Y21194582D01*
X-17582753Y20275343D01*
X-17759530Y20452120D01*
X-16840291Y21371359D01*
G37*
G36*
X-16486738Y21017806D02*
G01*
X-16309961Y20841029D01*
X-17229200Y19921790D01*
X-17405977Y20098567D01*
X-16486738Y21017806D01*
G37*
G36*
X-16133185Y20664253D02*
G01*
X-15956408Y20487476D01*
X-16875647Y19568237D01*
X-17052424Y19745014D01*
X-16133185Y20664253D01*
G37*
G36*
X-15779631Y20310699D02*
G01*
X-15602854Y20133922D01*
X-16522093Y19214683D01*
X-16698870Y19391460D01*
X-15779631Y20310699D01*
G37*
G36*
X-15426078Y19957146D02*
G01*
X-15249301Y19780369D01*
X-16168540Y18861130D01*
X-16345317Y19037907D01*
X-15426078Y19957146D01*
G37*
G36*
X-15072524Y19603592D02*
G01*
X-14895747Y19426815D01*
X-15814986Y18507576D01*
X-15991763Y18684353D01*
X-15072524Y19603592D01*
G37*
G36*
X-14718971Y19250039D02*
G01*
X-14542194Y19073262D01*
X-15461433Y18154023D01*
X-15638210Y18330800D01*
X-14718971Y19250039D01*
G37*
G36*
X-14365418Y18896486D02*
G01*
X-14188641Y18719709D01*
X-15107880Y17800470D01*
X-15284657Y17977247D01*
X-14365418Y18896486D01*
G37*
G36*
X-14011864Y18542932D02*
G01*
X-13835087Y18366155D01*
X-14754326Y17446916D01*
X-14931103Y17623693D01*
X-14011864Y18542932D01*
G37*
G36*
X-13658311Y18189379D02*
G01*
X-13481534Y18012602D01*
X-14400773Y17093363D01*
X-14577550Y17270140D01*
X-13658311Y18189379D01*
G37*
D21*
X-2500000Y-22740000D03*
D22*
X0Y-22740000D03*
X2500000Y-22740000D03*
D23*
X-5600000Y-15240000D03*
X5600000Y-15240000D03*
D22*
X-2500000Y-8240000D03*
X2500000Y-8240000D03*
G36*
G01*
X29610000Y-18230001D02*
X29610000Y-17329999D01*
G75*
G02*
X29859999Y-17080000I249999J0D01*
G01*
X30560001Y-17080000D01*
G75*
G02*
X30810000Y-17329999I0J-249999D01*
G01*
X30810000Y-18230001D01*
G75*
G02*
X30560001Y-18480000I-249999J0D01*
G01*
X29859999Y-18480000D01*
G75*
G02*
X29610000Y-18230001I0J249999D01*
G01*
G37*
G36*
G01*
X27610000Y-18230001D02*
X27610000Y-17329999D01*
G75*
G02*
X27859999Y-17080000I249999J0D01*
G01*
X28560001Y-17080000D01*
G75*
G02*
X28810000Y-17329999I0J-249999D01*
G01*
X28810000Y-18230001D01*
G75*
G02*
X28560001Y-18480000I-249999J0D01*
G01*
X27859999Y-18480000D01*
G75*
G02*
X27610000Y-18230001I0J249999D01*
G01*
G37*
G36*
G01*
X28810000Y-19869999D02*
X28810000Y-20770001D01*
G75*
G02*
X28560001Y-21020000I-249999J0D01*
G01*
X27859999Y-21020000D01*
G75*
G02*
X27610000Y-20770001I0J249999D01*
G01*
X27610000Y-19869999D01*
G75*
G02*
X27859999Y-19620000I249999J0D01*
G01*
X28560001Y-19620000D01*
G75*
G02*
X28810000Y-19869999I0J-249999D01*
G01*
G37*
G36*
G01*
X30810000Y-19869999D02*
X30810000Y-20770001D01*
G75*
G02*
X30560001Y-21020000I-249999J0D01*
G01*
X29859999Y-21020000D01*
G75*
G02*
X29610000Y-20770001I0J249999D01*
G01*
X29610000Y-19869999D01*
G75*
G02*
X29859999Y-19620000I249999J0D01*
G01*
X30560001Y-19620000D01*
G75*
G02*
X30810000Y-19869999I0J-249999D01*
G01*
G37*
G36*
G01*
X-23679999Y-4680000D02*
X-24580001Y-4680000D01*
G75*
G02*
X-24830000Y-4430001I0J249999D01*
G01*
X-24830000Y-3729999D01*
G75*
G02*
X-24580001Y-3480000I249999J0D01*
G01*
X-23679999Y-3480000D01*
G75*
G02*
X-23430000Y-3729999I0J-249999D01*
G01*
X-23430000Y-4430001D01*
G75*
G02*
X-23679999Y-4680000I-249999J0D01*
G01*
G37*
G36*
G01*
X-23679999Y-6680000D02*
X-24580001Y-6680000D01*
G75*
G02*
X-24830000Y-6430001I0J249999D01*
G01*
X-24830000Y-5729999D01*
G75*
G02*
X-24580001Y-5480000I249999J0D01*
G01*
X-23679999Y-5480000D01*
G75*
G02*
X-23430000Y-5729999I0J-249999D01*
G01*
X-23430000Y-6430001D01*
G75*
G02*
X-23679999Y-6680000I-249999J0D01*
G01*
G37*
G36*
G01*
X-31299999Y-4680000D02*
X-32200001Y-4680000D01*
G75*
G02*
X-32450000Y-4430001I0J249999D01*
G01*
X-32450000Y-3729999D01*
G75*
G02*
X-32200001Y-3480000I249999J0D01*
G01*
X-31299999Y-3480000D01*
G75*
G02*
X-31050000Y-3729999I0J-249999D01*
G01*
X-31050000Y-4430001D01*
G75*
G02*
X-31299999Y-4680000I-249999J0D01*
G01*
G37*
G36*
G01*
X-31299999Y-6680000D02*
X-32200001Y-6680000D01*
G75*
G02*
X-32450000Y-6430001I0J249999D01*
G01*
X-32450000Y-5729999D01*
G75*
G02*
X-32200001Y-5480000I249999J0D01*
G01*
X-31299999Y-5480000D01*
G75*
G02*
X-31050000Y-5729999I0J-249999D01*
G01*
X-31050000Y-6430001D01*
G75*
G02*
X-31299999Y-6680000I-249999J0D01*
G01*
G37*
G36*
G01*
X18230001Y19450000D02*
X17329999Y19450000D01*
G75*
G02*
X17080000Y19699999I0J249999D01*
G01*
X17080000Y20400001D01*
G75*
G02*
X17329999Y20650000I249999J0D01*
G01*
X18230001Y20650000D01*
G75*
G02*
X18480000Y20400001I0J-249999D01*
G01*
X18480000Y19699999D01*
G75*
G02*
X18230001Y19450000I-249999J0D01*
G01*
G37*
G36*
G01*
X18230001Y17450000D02*
X17329999Y17450000D01*
G75*
G02*
X17080000Y17699999I0J249999D01*
G01*
X17080000Y18400001D01*
G75*
G02*
X17329999Y18650000I249999J0D01*
G01*
X18230001Y18650000D01*
G75*
G02*
X18480000Y18400001I0J-249999D01*
G01*
X18480000Y17699999D01*
G75*
G02*
X18230001Y17450000I-249999J0D01*
G01*
G37*
G36*
G01*
X14370000Y819999D02*
X14370000Y1720001D01*
G75*
G02*
X14619999Y1970000I249999J0D01*
G01*
X15320001Y1970000D01*
G75*
G02*
X15570000Y1720001I0J-249999D01*
G01*
X15570000Y819999D01*
G75*
G02*
X15320001Y570000I-249999J0D01*
G01*
X14619999Y570000D01*
G75*
G02*
X14370000Y819999I0J249999D01*
G01*
G37*
G36*
G01*
X12370000Y819999D02*
X12370000Y1720001D01*
G75*
G02*
X12619999Y1970000I249999J0D01*
G01*
X13320001Y1970000D01*
G75*
G02*
X13570000Y1720001I0J-249999D01*
G01*
X13570000Y819999D01*
G75*
G02*
X13320001Y570000I-249999J0D01*
G01*
X12619999Y570000D01*
G75*
G02*
X12370000Y819999I0J249999D01*
G01*
G37*
G36*
G01*
X36379999Y-2940000D02*
X37280001Y-2940000D01*
G75*
G02*
X37530000Y-3189999I0J-249999D01*
G01*
X37530000Y-3890001D01*
G75*
G02*
X37280001Y-4140000I-249999J0D01*
G01*
X36379999Y-4140000D01*
G75*
G02*
X36130000Y-3890001I0J249999D01*
G01*
X36130000Y-3189999D01*
G75*
G02*
X36379999Y-2940000I249999J0D01*
G01*
G37*
G36*
G01*
X36379999Y-940000D02*
X37280001Y-940000D01*
G75*
G02*
X37530000Y-1189999I0J-249999D01*
G01*
X37530000Y-1890001D01*
G75*
G02*
X37280001Y-2140000I-249999J0D01*
G01*
X36379999Y-2140000D01*
G75*
G02*
X36130000Y-1890001I0J249999D01*
G01*
X36130000Y-1189999D01*
G75*
G02*
X36379999Y-940000I249999J0D01*
G01*
G37*
G36*
G01*
X-30080000Y-1720001D02*
X-30080000Y-819999D01*
G75*
G02*
X-29830001Y-570000I249999J0D01*
G01*
X-29129999Y-570000D01*
G75*
G02*
X-28880000Y-819999I0J-249999D01*
G01*
X-28880000Y-1720001D01*
G75*
G02*
X-29129999Y-1970000I-249999J0D01*
G01*
X-29830001Y-1970000D01*
G75*
G02*
X-30080000Y-1720001I0J249999D01*
G01*
G37*
G36*
G01*
X-32080000Y-1720001D02*
X-32080000Y-819999D01*
G75*
G02*
X-31830001Y-570000I249999J0D01*
G01*
X-31129999Y-570000D01*
G75*
G02*
X-30880000Y-819999I0J-249999D01*
G01*
X-30880000Y-1720001D01*
G75*
G02*
X-31129999Y-1970000I-249999J0D01*
G01*
X-31830001Y-1970000D01*
G75*
G02*
X-32080000Y-1720001I0J249999D01*
G01*
G37*
G36*
G01*
X-11030000Y-24580001D02*
X-11030000Y-23679999D01*
G75*
G02*
X-10780001Y-23430000I249999J0D01*
G01*
X-10079999Y-23430000D01*
G75*
G02*
X-9830000Y-23679999I0J-249999D01*
G01*
X-9830000Y-24580001D01*
G75*
G02*
X-10079999Y-24830000I-249999J0D01*
G01*
X-10780001Y-24830000D01*
G75*
G02*
X-11030000Y-24580001I0J249999D01*
G01*
G37*
G36*
G01*
X-13030000Y-24580001D02*
X-13030000Y-23679999D01*
G75*
G02*
X-12780001Y-23430000I249999J0D01*
G01*
X-12079999Y-23430000D01*
G75*
G02*
X-11830000Y-23679999I0J-249999D01*
G01*
X-11830000Y-24580001D01*
G75*
G02*
X-12079999Y-24830000I-249999J0D01*
G01*
X-12780001Y-24830000D01*
G75*
G02*
X-13030000Y-24580001I0J249999D01*
G01*
G37*
G36*
G01*
X-11030000Y-22040001D02*
X-11030000Y-21139999D01*
G75*
G02*
X-10780001Y-20890000I249999J0D01*
G01*
X-10079999Y-20890000D01*
G75*
G02*
X-9830000Y-21139999I0J-249999D01*
G01*
X-9830000Y-22040001D01*
G75*
G02*
X-10079999Y-22290000I-249999J0D01*
G01*
X-10780001Y-22290000D01*
G75*
G02*
X-11030000Y-22040001I0J249999D01*
G01*
G37*
G36*
G01*
X-13030000Y-22040001D02*
X-13030000Y-21139999D01*
G75*
G02*
X-12780001Y-20890000I249999J0D01*
G01*
X-12079999Y-20890000D01*
G75*
G02*
X-11830000Y-21139999I0J-249999D01*
G01*
X-11830000Y-22040001D01*
G75*
G02*
X-12079999Y-22290000I-249999J0D01*
G01*
X-12780001Y-22290000D01*
G75*
G02*
X-13030000Y-22040001I0J249999D01*
G01*
G37*
G36*
G01*
X-11030000Y-13150001D02*
X-11030000Y-12249999D01*
G75*
G02*
X-10780001Y-12000000I249999J0D01*
G01*
X-10079999Y-12000000D01*
G75*
G02*
X-9830000Y-12249999I0J-249999D01*
G01*
X-9830000Y-13150001D01*
G75*
G02*
X-10079999Y-13400000I-249999J0D01*
G01*
X-10780001Y-13400000D01*
G75*
G02*
X-11030000Y-13150001I0J249999D01*
G01*
G37*
G36*
G01*
X-13030000Y-13150001D02*
X-13030000Y-12249999D01*
G75*
G02*
X-12780001Y-12000000I249999J0D01*
G01*
X-12079999Y-12000000D01*
G75*
G02*
X-11830000Y-12249999I0J-249999D01*
G01*
X-11830000Y-13150001D01*
G75*
G02*
X-12079999Y-13400000I-249999J0D01*
G01*
X-12780001Y-13400000D01*
G75*
G02*
X-13030000Y-13150001I0J249999D01*
G01*
G37*
G36*
G01*
X-11030000Y-10610001D02*
X-11030000Y-9709999D01*
G75*
G02*
X-10780001Y-9460000I249999J0D01*
G01*
X-10079999Y-9460000D01*
G75*
G02*
X-9830000Y-9709999I0J-249999D01*
G01*
X-9830000Y-10610001D01*
G75*
G02*
X-10079999Y-10860000I-249999J0D01*
G01*
X-10780001Y-10860000D01*
G75*
G02*
X-11030000Y-10610001I0J249999D01*
G01*
G37*
G36*
G01*
X-13030000Y-10610001D02*
X-13030000Y-9709999D01*
G75*
G02*
X-12780001Y-9460000I249999J0D01*
G01*
X-12079999Y-9460000D01*
G75*
G02*
X-11830000Y-9709999I0J-249999D01*
G01*
X-11830000Y-10610001D01*
G75*
G02*
X-12079999Y-10860000I-249999J0D01*
G01*
X-12780001Y-10860000D01*
G75*
G02*
X-13030000Y-10610001I0J249999D01*
G01*
G37*
G36*
G01*
X14370000Y-1720001D02*
X14370000Y-819999D01*
G75*
G02*
X14619999Y-570000I249999J0D01*
G01*
X15320001Y-570000D01*
G75*
G02*
X15570000Y-819999I0J-249999D01*
G01*
X15570000Y-1720001D01*
G75*
G02*
X15320001Y-1970000I-249999J0D01*
G01*
X14619999Y-1970000D01*
G75*
G02*
X14370000Y-1720001I0J249999D01*
G01*
G37*
G36*
G01*
X12370000Y-1720001D02*
X12370000Y-819999D01*
G75*
G02*
X12619999Y-570000I249999J0D01*
G01*
X13320001Y-570000D01*
G75*
G02*
X13570000Y-819999I0J-249999D01*
G01*
X13570000Y-1720001D01*
G75*
G02*
X13320001Y-1970000I-249999J0D01*
G01*
X12619999Y-1970000D01*
G75*
G02*
X12370000Y-1720001I0J249999D01*
G01*
G37*
G36*
G01*
X23730000Y4260001D02*
X23730000Y3359999D01*
G75*
G02*
X23480001Y3110000I-249999J0D01*
G01*
X22779999Y3110000D01*
G75*
G02*
X22530000Y3359999I0J249999D01*
G01*
X22530000Y4260001D01*
G75*
G02*
X22779999Y4510000I249999J0D01*
G01*
X23480001Y4510000D01*
G75*
G02*
X23730000Y4260001I0J-249999D01*
G01*
G37*
G36*
G01*
X25730000Y4260001D02*
X25730000Y3359999D01*
G75*
G02*
X25480001Y3110000I-249999J0D01*
G01*
X24779999Y3110000D01*
G75*
G02*
X24530000Y3359999I0J249999D01*
G01*
X24530000Y4260001D01*
G75*
G02*
X24779999Y4510000I249999J0D01*
G01*
X25480001Y4510000D01*
G75*
G02*
X25730000Y4260001I0J-249999D01*
G01*
G37*
G36*
G01*
X-4845000Y-4629999D02*
X-4845000Y-5530001D01*
G75*
G02*
X-5094999Y-5780000I-249999J0D01*
G01*
X-5795001Y-5780000D01*
G75*
G02*
X-6045000Y-5530001I0J249999D01*
G01*
X-6045000Y-4629999D01*
G75*
G02*
X-5795001Y-4380000I249999J0D01*
G01*
X-5094999Y-4380000D01*
G75*
G02*
X-4845000Y-4629999I0J-249999D01*
G01*
G37*
G36*
G01*
X-2845000Y-4629999D02*
X-2845000Y-5530001D01*
G75*
G02*
X-3094999Y-5780000I-249999J0D01*
G01*
X-3795001Y-5780000D01*
G75*
G02*
X-4045000Y-5530001I0J249999D01*
G01*
X-4045000Y-4629999D01*
G75*
G02*
X-3795001Y-4380000I249999J0D01*
G01*
X-3094999Y-4380000D01*
G75*
G02*
X-2845000Y-4629999I0J-249999D01*
G01*
G37*
G36*
G01*
X-29660001Y8490000D02*
X-28759999Y8490000D01*
G75*
G02*
X-28510000Y8240001I0J-249999D01*
G01*
X-28510000Y7539999D01*
G75*
G02*
X-28759999Y7290000I-249999J0D01*
G01*
X-29660001Y7290000D01*
G75*
G02*
X-29910000Y7539999I0J249999D01*
G01*
X-29910000Y8240001D01*
G75*
G02*
X-29660001Y8490000I249999J0D01*
G01*
G37*
G36*
G01*
X-29660001Y10490000D02*
X-28759999Y10490000D01*
G75*
G02*
X-28510000Y10240001I0J-249999D01*
G01*
X-28510000Y9539999D01*
G75*
G02*
X-28759999Y9290000I-249999J0D01*
G01*
X-29660001Y9290000D01*
G75*
G02*
X-29910000Y9539999I0J249999D01*
G01*
X-29910000Y10240001D01*
G75*
G02*
X-29660001Y10490000I249999J0D01*
G01*
G37*
G36*
G01*
X-32200001Y8490000D02*
X-31299999Y8490000D01*
G75*
G02*
X-31050000Y8240001I0J-249999D01*
G01*
X-31050000Y7539999D01*
G75*
G02*
X-31299999Y7290000I-249999J0D01*
G01*
X-32200001Y7290000D01*
G75*
G02*
X-32450000Y7539999I0J249999D01*
G01*
X-32450000Y8240001D01*
G75*
G02*
X-32200001Y8490000I249999J0D01*
G01*
G37*
G36*
G01*
X-32200001Y10490000D02*
X-31299999Y10490000D01*
G75*
G02*
X-31050000Y10240001I0J-249999D01*
G01*
X-31050000Y9539999D01*
G75*
G02*
X-31299999Y9290000I-249999J0D01*
G01*
X-32200001Y9290000D01*
G75*
G02*
X-32450000Y9539999I0J249999D01*
G01*
X-32450000Y10240001D01*
G75*
G02*
X-32200001Y10490000I249999J0D01*
G01*
G37*
G36*
G01*
X-27120001Y8490000D02*
X-26219999Y8490000D01*
G75*
G02*
X-25970000Y8240001I0J-249999D01*
G01*
X-25970000Y7539999D01*
G75*
G02*
X-26219999Y7290000I-249999J0D01*
G01*
X-27120001Y7290000D01*
G75*
G02*
X-27370000Y7539999I0J249999D01*
G01*
X-27370000Y8240001D01*
G75*
G02*
X-27120001Y8490000I249999J0D01*
G01*
G37*
G36*
G01*
X-27120001Y10490000D02*
X-26219999Y10490000D01*
G75*
G02*
X-25970000Y10240001I0J-249999D01*
G01*
X-25970000Y9539999D01*
G75*
G02*
X-26219999Y9290000I-249999J0D01*
G01*
X-27120001Y9290000D01*
G75*
G02*
X-27370000Y9539999I0J249999D01*
G01*
X-27370000Y10240001D01*
G75*
G02*
X-27120001Y10490000I249999J0D01*
G01*
G37*
G36*
G01*
X-24580001Y8490000D02*
X-23679999Y8490000D01*
G75*
G02*
X-23430000Y8240001I0J-249999D01*
G01*
X-23430000Y7539999D01*
G75*
G02*
X-23679999Y7290000I-249999J0D01*
G01*
X-24580001Y7290000D01*
G75*
G02*
X-24830000Y7539999I0J249999D01*
G01*
X-24830000Y8240001D01*
G75*
G02*
X-24580001Y8490000I249999J0D01*
G01*
G37*
G36*
G01*
X-24580001Y10490000D02*
X-23679999Y10490000D01*
G75*
G02*
X-23430000Y10240001I0J-249999D01*
G01*
X-23430000Y9539999D01*
G75*
G02*
X-23679999Y9290000I-249999J0D01*
G01*
X-24580001Y9290000D01*
G75*
G02*
X-24830000Y9539999I0J249999D01*
G01*
X-24830000Y10240001D01*
G75*
G02*
X-24580001Y10490000I249999J0D01*
G01*
G37*
G36*
G01*
X33470001Y-2140000D02*
X32569999Y-2140000D01*
G75*
G02*
X32320000Y-1890001I0J249999D01*
G01*
X32320000Y-1189999D01*
G75*
G02*
X32569999Y-940000I249999J0D01*
G01*
X33470001Y-940000D01*
G75*
G02*
X33720000Y-1189999I0J-249999D01*
G01*
X33720000Y-1890001D01*
G75*
G02*
X33470001Y-2140000I-249999J0D01*
G01*
G37*
G36*
G01*
X33470001Y-4140000D02*
X32569999Y-4140000D01*
G75*
G02*
X32320000Y-3890001I0J249999D01*
G01*
X32320000Y-3189999D01*
G75*
G02*
X32569999Y-2940000I249999J0D01*
G01*
X33470001Y-2940000D01*
G75*
G02*
X33720000Y-3189999I0J-249999D01*
G01*
X33720000Y-3890001D01*
G75*
G02*
X33470001Y-4140000I-249999J0D01*
G01*
G37*
G36*
G01*
X-25000000Y-1720001D02*
X-25000000Y-819999D01*
G75*
G02*
X-24750001Y-570000I249999J0D01*
G01*
X-24049999Y-570000D01*
G75*
G02*
X-23800000Y-819999I0J-249999D01*
G01*
X-23800000Y-1720001D01*
G75*
G02*
X-24049999Y-1970000I-249999J0D01*
G01*
X-24750001Y-1970000D01*
G75*
G02*
X-25000000Y-1720001I0J249999D01*
G01*
G37*
G36*
G01*
X-27000000Y-1720001D02*
X-27000000Y-819999D01*
G75*
G02*
X-26750001Y-570000I249999J0D01*
G01*
X-26049999Y-570000D01*
G75*
G02*
X-25800000Y-819999I0J-249999D01*
G01*
X-25800000Y-1720001D01*
G75*
G02*
X-26049999Y-1970000I-249999J0D01*
G01*
X-26750001Y-1970000D01*
G75*
G02*
X-27000000Y-1720001I0J249999D01*
G01*
G37*
G36*
G01*
X-39770000Y-14789999D02*
X-39770000Y-15690001D01*
G75*
G02*
X-40019999Y-15940000I-249999J0D01*
G01*
X-40720001Y-15940000D01*
G75*
G02*
X-40970000Y-15690001I0J249999D01*
G01*
X-40970000Y-14789999D01*
G75*
G02*
X-40720001Y-14540000I249999J0D01*
G01*
X-40019999Y-14540000D01*
G75*
G02*
X-39770000Y-14789999I0J-249999D01*
G01*
G37*
G36*
G01*
X-37770000Y-14789999D02*
X-37770000Y-15690001D01*
G75*
G02*
X-38019999Y-15940000I-249999J0D01*
G01*
X-38720001Y-15940000D01*
G75*
G02*
X-38970000Y-15690001I0J249999D01*
G01*
X-38970000Y-14789999D01*
G75*
G02*
X-38720001Y-14540000I249999J0D01*
G01*
X-38019999Y-14540000D01*
G75*
G02*
X-37770000Y-14789999I0J-249999D01*
G01*
G37*
G36*
G01*
X28124999Y27540000D02*
X29025001Y27540000D01*
G75*
G02*
X29275000Y27290001I0J-249999D01*
G01*
X29275000Y26589999D01*
G75*
G02*
X29025001Y26340000I-249999J0D01*
G01*
X28124999Y26340000D01*
G75*
G02*
X27875000Y26589999I0J249999D01*
G01*
X27875000Y27290001D01*
G75*
G02*
X28124999Y27540000I249999J0D01*
G01*
G37*
G36*
G01*
X28124999Y29540000D02*
X29025001Y29540000D01*
G75*
G02*
X29275000Y29290001I0J-249999D01*
G01*
X29275000Y28589999D01*
G75*
G02*
X29025001Y28340000I-249999J0D01*
G01*
X28124999Y28340000D01*
G75*
G02*
X27875000Y28589999I0J249999D01*
G01*
X27875000Y29290001D01*
G75*
G02*
X28124999Y29540000I249999J0D01*
G01*
G37*
G36*
G01*
X12249999Y4680000D02*
X13150001Y4680000D01*
G75*
G02*
X13400000Y4430001I0J-249999D01*
G01*
X13400000Y3729999D01*
G75*
G02*
X13150001Y3480000I-249999J0D01*
G01*
X12249999Y3480000D01*
G75*
G02*
X12000000Y3729999I0J249999D01*
G01*
X12000000Y4430001D01*
G75*
G02*
X12249999Y4680000I249999J0D01*
G01*
G37*
G36*
G01*
X12249999Y6680000D02*
X13150001Y6680000D01*
G75*
G02*
X13400000Y6430001I0J-249999D01*
G01*
X13400000Y5729999D01*
G75*
G02*
X13150001Y5480000I-249999J0D01*
G01*
X12249999Y5480000D01*
G75*
G02*
X12000000Y5729999I0J249999D01*
G01*
X12000000Y6430001D01*
G75*
G02*
X12249999Y6680000I249999J0D01*
G01*
G37*
G36*
G01*
X23730000Y6800001D02*
X23730000Y5899999D01*
G75*
G02*
X23480001Y5650000I-249999J0D01*
G01*
X22779999Y5650000D01*
G75*
G02*
X22530000Y5899999I0J249999D01*
G01*
X22530000Y6800001D01*
G75*
G02*
X22779999Y7050000I249999J0D01*
G01*
X23480001Y7050000D01*
G75*
G02*
X23730000Y6800001I0J-249999D01*
G01*
G37*
G36*
G01*
X25730000Y6800001D02*
X25730000Y5899999D01*
G75*
G02*
X25480001Y5650000I-249999J0D01*
G01*
X24779999Y5650000D01*
G75*
G02*
X24530000Y5899999I0J249999D01*
G01*
X24530000Y6800001D01*
G75*
G02*
X24779999Y7050000I249999J0D01*
G01*
X25480001Y7050000D01*
G75*
G02*
X25730000Y6800001I0J-249999D01*
G01*
G37*
G36*
G01*
X-2940000Y34740001D02*
X-2940000Y33839999D01*
G75*
G02*
X-3189999Y33590000I-249999J0D01*
G01*
X-3890001Y33590000D01*
G75*
G02*
X-4140000Y33839999I0J249999D01*
G01*
X-4140000Y34740001D01*
G75*
G02*
X-3890001Y34990000I249999J0D01*
G01*
X-3189999Y34990000D01*
G75*
G02*
X-2940000Y34740001I0J-249999D01*
G01*
G37*
G36*
G01*
X-940000Y34740001D02*
X-940000Y33839999D01*
G75*
G02*
X-1189999Y33590000I-249999J0D01*
G01*
X-1890001Y33590000D01*
G75*
G02*
X-2140000Y33839999I0J249999D01*
G01*
X-2140000Y34740001D01*
G75*
G02*
X-1890001Y34990000I249999J0D01*
G01*
X-1189999Y34990000D01*
G75*
G02*
X-940000Y34740001I0J-249999D01*
G01*
G37*
G36*
G01*
X29025001Y23260000D02*
X28124999Y23260000D01*
G75*
G02*
X27875000Y23509999I0J249999D01*
G01*
X27875000Y24210001D01*
G75*
G02*
X28124999Y24460000I249999J0D01*
G01*
X29025001Y24460000D01*
G75*
G02*
X29275000Y24210001I0J-249999D01*
G01*
X29275000Y23509999D01*
G75*
G02*
X29025001Y23260000I-249999J0D01*
G01*
G37*
G36*
G01*
X29025001Y21260000D02*
X28124999Y21260000D01*
G75*
G02*
X27875000Y21509999I0J249999D01*
G01*
X27875000Y22210001D01*
G75*
G02*
X28124999Y22460000I249999J0D01*
G01*
X29025001Y22460000D01*
G75*
G02*
X29275000Y22210001I0J-249999D01*
G01*
X29275000Y21509999D01*
G75*
G02*
X29025001Y21260000I-249999J0D01*
G01*
G37*
G36*
G01*
X-18230001Y-23260000D02*
X-17329999Y-23260000D01*
G75*
G02*
X-17080000Y-23509999I0J-249999D01*
G01*
X-17080000Y-24210001D01*
G75*
G02*
X-17329999Y-24460000I-249999J0D01*
G01*
X-18230001Y-24460000D01*
G75*
G02*
X-18480000Y-24210001I0J249999D01*
G01*
X-18480000Y-23509999D01*
G75*
G02*
X-18230001Y-23260000I249999J0D01*
G01*
G37*
G36*
G01*
X-18230001Y-21260000D02*
X-17329999Y-21260000D01*
G75*
G02*
X-17080000Y-21509999I0J-249999D01*
G01*
X-17080000Y-22210001D01*
G75*
G02*
X-17329999Y-22460000I-249999J0D01*
G01*
X-18230001Y-22460000D01*
G75*
G02*
X-18480000Y-22210001I0J249999D01*
G01*
X-18480000Y-21509999D01*
G75*
G02*
X-18230001Y-21260000I249999J0D01*
G01*
G37*
G36*
G01*
X-18230001Y-11830000D02*
X-17329999Y-11830000D01*
G75*
G02*
X-17080000Y-12079999I0J-249999D01*
G01*
X-17080000Y-12780001D01*
G75*
G02*
X-17329999Y-13030000I-249999J0D01*
G01*
X-18230001Y-13030000D01*
G75*
G02*
X-18480000Y-12780001I0J249999D01*
G01*
X-18480000Y-12079999D01*
G75*
G02*
X-18230001Y-11830000I249999J0D01*
G01*
G37*
G36*
G01*
X-18230001Y-9830000D02*
X-17329999Y-9830000D01*
G75*
G02*
X-17080000Y-10079999I0J-249999D01*
G01*
X-17080000Y-10780001D01*
G75*
G02*
X-17329999Y-11030000I-249999J0D01*
G01*
X-18230001Y-11030000D01*
G75*
G02*
X-18480000Y-10780001I0J249999D01*
G01*
X-18480000Y-10079999D01*
G75*
G02*
X-18230001Y-9830000I249999J0D01*
G01*
G37*
G36*
G01*
X-34740001Y23730000D02*
X-33839999Y23730000D01*
G75*
G02*
X-33590000Y23480001I0J-249999D01*
G01*
X-33590000Y22779999D01*
G75*
G02*
X-33839999Y22530000I-249999J0D01*
G01*
X-34740001Y22530000D01*
G75*
G02*
X-34990000Y22779999I0J249999D01*
G01*
X-34990000Y23480001D01*
G75*
G02*
X-34740001Y23730000I249999J0D01*
G01*
G37*
G36*
G01*
X-34740001Y25730000D02*
X-33839999Y25730000D01*
G75*
G02*
X-33590000Y25480001I0J-249999D01*
G01*
X-33590000Y24779999D01*
G75*
G02*
X-33839999Y24530000I-249999J0D01*
G01*
X-34740001Y24530000D01*
G75*
G02*
X-34990000Y24779999I0J249999D01*
G01*
X-34990000Y25480001D01*
G75*
G02*
X-34740001Y25730000I249999J0D01*
G01*
G37*
G36*
G01*
X-32150000Y-23679999D02*
X-32150000Y-24580001D01*
G75*
G02*
X-32399999Y-24830000I-249999J0D01*
G01*
X-33100001Y-24830000D01*
G75*
G02*
X-33350000Y-24580001I0J249999D01*
G01*
X-33350000Y-23679999D01*
G75*
G02*
X-33100001Y-23430000I249999J0D01*
G01*
X-32399999Y-23430000D01*
G75*
G02*
X-32150000Y-23679999I0J-249999D01*
G01*
G37*
G36*
G01*
X-30150000Y-23679999D02*
X-30150000Y-24580001D01*
G75*
G02*
X-30399999Y-24830000I-249999J0D01*
G01*
X-31100001Y-24830000D01*
G75*
G02*
X-31350000Y-24580001I0J249999D01*
G01*
X-31350000Y-23679999D01*
G75*
G02*
X-31100001Y-23430000I249999J0D01*
G01*
X-30399999Y-23430000D01*
G75*
G02*
X-30150000Y-23679999I0J-249999D01*
G01*
G37*
G36*
G01*
X-32150000Y-12249999D02*
X-32150000Y-13150001D01*
G75*
G02*
X-32399999Y-13400000I-249999J0D01*
G01*
X-33100001Y-13400000D01*
G75*
G02*
X-33350000Y-13150001I0J249999D01*
G01*
X-33350000Y-12249999D01*
G75*
G02*
X-33100001Y-12000000I249999J0D01*
G01*
X-32399999Y-12000000D01*
G75*
G02*
X-32150000Y-12249999I0J-249999D01*
G01*
G37*
G36*
G01*
X-30150000Y-12249999D02*
X-30150000Y-13150001D01*
G75*
G02*
X-30399999Y-13400000I-249999J0D01*
G01*
X-31100001Y-13400000D01*
G75*
G02*
X-31350000Y-13150001I0J249999D01*
G01*
X-31350000Y-12249999D01*
G75*
G02*
X-31100001Y-12000000I249999J0D01*
G01*
X-30399999Y-12000000D01*
G75*
G02*
X-30150000Y-12249999I0J-249999D01*
G01*
G37*
G36*
G01*
X23815000Y-25554901D02*
X23815000Y-22705099D01*
G75*
G02*
X24065099Y-22455000I250099J0D01*
G01*
X25089901Y-22455000D01*
G75*
G02*
X25340000Y-22705099I0J-250099D01*
G01*
X25340000Y-25554901D01*
G75*
G02*
X25089901Y-25805000I-250099J0D01*
G01*
X24065099Y-25805000D01*
G75*
G02*
X23815000Y-25554901I0J250099D01*
G01*
G37*
G36*
G01*
X17840000Y-25555001D02*
X17840000Y-22704999D01*
G75*
G02*
X18089999Y-22455000I249999J0D01*
G01*
X19115001Y-22455000D01*
G75*
G02*
X19365000Y-22704999I0J-249999D01*
G01*
X19365000Y-25555001D01*
G75*
G02*
X19115001Y-25805000I-249999J0D01*
G01*
X18089999Y-25805000D01*
G75*
G02*
X17840000Y-25555001I0J249999D01*
G01*
G37*
D24*
X15680000Y-12700000D03*
D25*
X21980000Y-10420000D03*
X21980000Y-14980000D03*
D26*
X17510000Y5080000D03*
X15510000Y4130000D03*
X15510000Y6030000D03*
D27*
X2540000Y35290000D03*
X3490000Y33290000D03*
X1590000Y33290000D03*
G36*
G01*
X-19500000Y25850001D02*
X-19500000Y24949999D01*
G75*
G02*
X-19749999Y24700000I-249999J0D01*
G01*
X-20400001Y24700000D01*
G75*
G02*
X-20650000Y24949999I0J249999D01*
G01*
X-20650000Y25850001D01*
G75*
G02*
X-20400001Y26100000I249999J0D01*
G01*
X-19749999Y26100000D01*
G75*
G02*
X-19500000Y25850001I0J-249999D01*
G01*
G37*
G36*
G01*
X-17450000Y25850001D02*
X-17450000Y24949999D01*
G75*
G02*
X-17699999Y24700000I-249999J0D01*
G01*
X-18350001Y24700000D01*
G75*
G02*
X-18600000Y24949999I0J249999D01*
G01*
X-18600000Y25850001D01*
G75*
G02*
X-18350001Y26100000I249999J0D01*
G01*
X-17699999Y26100000D01*
G75*
G02*
X-17450000Y25850001I0J-249999D01*
G01*
G37*
D28*
X36830000Y30350000D03*
X36830000Y20450000D03*
D10*
X-15240000Y36830000D03*
X-15240000Y39370000D03*
X-17780000Y36830000D03*
X-17780000Y39370000D03*
X-20320000Y36830000D03*
X-20320000Y39370000D03*
X-22860000Y36830000D03*
X-22860000Y39370000D03*
X-25400000Y36830000D03*
D11*
X-25400000Y39370000D03*
D29*
X-48163000Y-5390000D03*
X-48163000Y-12390000D03*
D30*
X-45463000Y-6390000D03*
X-45463000Y-11390000D03*
D22*
X35560000Y-22860000D03*
X35560000Y-15240000D03*
X35560000Y-7620000D03*
X10160000Y-17780000D03*
X24130000Y-18415000D03*
X10160000Y-25330000D03*
X-19050000Y-1270000D03*
X-19050000Y-5080000D03*
D31*
X-42752944Y38527056D03*
X-44450000Y39230000D03*
X-46147056Y38527056D03*
X-46850000Y36830000D03*
X-46147056Y35132944D03*
X-44450000Y34430000D03*
X-42752944Y35132944D03*
X-42050000Y36830000D03*
D32*
X-44450000Y36830000D03*
D31*
X-42752944Y-21162944D03*
X-44450000Y-20460000D03*
X-46147056Y-21162944D03*
X-46850000Y-22860000D03*
X-46147056Y-24557056D03*
X-44450000Y-25260000D03*
X-42752944Y-24557056D03*
X-42050000Y-22860000D03*
D32*
X-44450000Y-22860000D03*
D31*
X46147056Y38527056D03*
X44450000Y39230000D03*
X42752944Y38527056D03*
X42050000Y36830000D03*
X42752944Y35132944D03*
X44450000Y34430000D03*
X46147056Y35132944D03*
X46850000Y36830000D03*
D32*
X44450000Y36830000D03*
D31*
X46147056Y-21162944D03*
X44450000Y-20460000D03*
X42752944Y-21162944D03*
X42050000Y-22860000D03*
X42752944Y-24557056D03*
X44450000Y-25260000D03*
X46147056Y-24557056D03*
X46850000Y-22860000D03*
D32*
X44450000Y-22860000D03*
D33*
X46920000Y-10180000D03*
X45720000Y-5080000D03*
X40710000Y-7600000D03*
X41910000Y-12700000D03*
G36*
G01*
X10610001Y-12250000D02*
X9709999Y-12250000D01*
G75*
G02*
X9460000Y-12000001I0J249999D01*
G01*
X9460000Y-11349999D01*
G75*
G02*
X9709999Y-11100000I249999J0D01*
G01*
X10610001Y-11100000D01*
G75*
G02*
X10860000Y-11349999I0J-249999D01*
G01*
X10860000Y-12000001D01*
G75*
G02*
X10610001Y-12250000I-249999J0D01*
G01*
G37*
G36*
G01*
X10610001Y-14300000D02*
X9709999Y-14300000D01*
G75*
G02*
X9460000Y-14050001I0J249999D01*
G01*
X9460000Y-13399999D01*
G75*
G02*
X9709999Y-13150000I249999J0D01*
G01*
X10610001Y-13150000D01*
G75*
G02*
X10860000Y-13399999I0J-249999D01*
G01*
X10860000Y-14050001D01*
G75*
G02*
X10610001Y-14300000I-249999J0D01*
G01*
G37*
G36*
G01*
X-450000Y-4629999D02*
X-450000Y-5530001D01*
G75*
G02*
X-699999Y-5780000I-249999J0D01*
G01*
X-1350001Y-5780000D01*
G75*
G02*
X-1600000Y-5530001I0J249999D01*
G01*
X-1600000Y-4629999D01*
G75*
G02*
X-1350001Y-4380000I249999J0D01*
G01*
X-699999Y-4380000D01*
G75*
G02*
X-450000Y-4629999I0J-249999D01*
G01*
G37*
G36*
G01*
X1600000Y-4629999D02*
X1600000Y-5530001D01*
G75*
G02*
X1350001Y-5780000I-249999J0D01*
G01*
X699999Y-5780000D01*
G75*
G02*
X450000Y-5530001I0J249999D01*
G01*
X450000Y-4629999D01*
G75*
G02*
X699999Y-4380000I249999J0D01*
G01*
X1350001Y-4380000D01*
G75*
G02*
X1600000Y-4629999I0J-249999D01*
G01*
G37*
D26*
X25130000Y0D03*
X23130000Y-950000D03*
X23130000Y950000D03*
D34*
X10700000Y-5080000D03*
X14700000Y-5080000D03*
D35*
X46990000Y24860000D03*
X46990000Y20860000D03*
D34*
X42450000Y2540000D03*
X46450000Y2540000D03*
X19590000Y-5080000D03*
X23590000Y-5080000D03*
D26*
X-36560000Y8890000D03*
X-34560000Y9840000D03*
X-34560000Y7940000D03*
X-38370000Y8890000D03*
X-40370000Y7940000D03*
X-40370000Y9840000D03*
X-16240000Y-16510000D03*
X-14240000Y-15560000D03*
X-14240000Y-17460000D03*
X-22590000Y-16510000D03*
X-20590000Y-15560000D03*
X-20590000Y-17460000D03*
G36*
G01*
X-33340000Y36280000D02*
X-33340000Y37380000D01*
G75*
G02*
X-33090000Y37630000I250000J0D01*
G01*
X-30090000Y37630000D01*
G75*
G02*
X-29840000Y37380000I0J-250000D01*
G01*
X-29840000Y36280000D01*
G75*
G02*
X-30090000Y36030000I-250000J0D01*
G01*
X-33090000Y36030000D01*
G75*
G02*
X-33340000Y36280000I0J250000D01*
G01*
G37*
G36*
G01*
X-38740000Y36280000D02*
X-38740000Y37380000D01*
G75*
G02*
X-38490000Y37630000I250000J0D01*
G01*
X-35490000Y37630000D01*
G75*
G02*
X-35240000Y37380000I0J-250000D01*
G01*
X-35240000Y36280000D01*
G75*
G02*
X-35490000Y36030000I-250000J0D01*
G01*
X-38490000Y36030000D01*
G75*
G02*
X-38740000Y36280000I0J250000D01*
G01*
G37*
G36*
G01*
X35240000Y36280000D02*
X35240000Y37380000D01*
G75*
G02*
X35490000Y37630000I250000J0D01*
G01*
X38490000Y37630000D01*
G75*
G02*
X38740000Y37380000I0J-250000D01*
G01*
X38740000Y36280000D01*
G75*
G02*
X38490000Y36030000I-250000J0D01*
G01*
X35490000Y36030000D01*
G75*
G02*
X35240000Y36280000I0J250000D01*
G01*
G37*
G36*
G01*
X29840000Y36280000D02*
X29840000Y37380000D01*
G75*
G02*
X30090000Y37630000I250000J0D01*
G01*
X33090000Y37630000D01*
G75*
G02*
X33340000Y37380000I0J-250000D01*
G01*
X33340000Y36280000D01*
G75*
G02*
X33090000Y36030000I-250000J0D01*
G01*
X30090000Y36030000D01*
G75*
G02*
X29840000Y36280000I0J250000D01*
G01*
G37*
G36*
G01*
X43900000Y9210000D02*
X45000000Y9210000D01*
G75*
G02*
X45250000Y8960000I0J-250000D01*
G01*
X45250000Y5960000D01*
G75*
G02*
X45000000Y5710000I-250000J0D01*
G01*
X43900000Y5710000D01*
G75*
G02*
X43650000Y5960000I0J250000D01*
G01*
X43650000Y8960000D01*
G75*
G02*
X43900000Y9210000I250000J0D01*
G01*
G37*
G36*
G01*
X43900000Y14610000D02*
X45000000Y14610000D01*
G75*
G02*
X45250000Y14360000I0J-250000D01*
G01*
X45250000Y11360000D01*
G75*
G02*
X45000000Y11110000I-250000J0D01*
G01*
X43900000Y11110000D01*
G75*
G02*
X43650000Y11360000I0J250000D01*
G01*
X43650000Y14360000D01*
G75*
G02*
X43900000Y14610000I250000J0D01*
G01*
G37*
G36*
G01*
X-10955000Y24580000D02*
X-11905000Y24580000D01*
G75*
G02*
X-12155000Y24830000I0J250000D01*
G01*
X-12155000Y25505000D01*
G75*
G02*
X-11905000Y25755000I250000J0D01*
G01*
X-10955000Y25755000D01*
G75*
G02*
X-10705000Y25505000I0J-250000D01*
G01*
X-10705000Y24830000D01*
G75*
G02*
X-10955000Y24580000I-250000J0D01*
G01*
G37*
G36*
G01*
X-10955000Y22505000D02*
X-11905000Y22505000D01*
G75*
G02*
X-12155000Y22755000I0J250000D01*
G01*
X-12155000Y23430000D01*
G75*
G02*
X-11905000Y23680000I250000J0D01*
G01*
X-10955000Y23680000D01*
G75*
G02*
X-10705000Y23430000I0J-250000D01*
G01*
X-10705000Y22755000D01*
G75*
G02*
X-10955000Y22505000I-250000J0D01*
G01*
G37*
G36*
G01*
X-28735000Y24580000D02*
X-29685000Y24580000D01*
G75*
G02*
X-29935000Y24830000I0J250000D01*
G01*
X-29935000Y25505000D01*
G75*
G02*
X-29685000Y25755000I250000J0D01*
G01*
X-28735000Y25755000D01*
G75*
G02*
X-28485000Y25505000I0J-250000D01*
G01*
X-28485000Y24830000D01*
G75*
G02*
X-28735000Y24580000I-250000J0D01*
G01*
G37*
G36*
G01*
X-28735000Y22505000D02*
X-29685000Y22505000D01*
G75*
G02*
X-29935000Y22755000I0J250000D01*
G01*
X-29935000Y23430000D01*
G75*
G02*
X-29685000Y23680000I250000J0D01*
G01*
X-28735000Y23680000D01*
G75*
G02*
X-28485000Y23430000I0J-250000D01*
G01*
X-28485000Y22755000D01*
G75*
G02*
X-28735000Y22505000I-250000J0D01*
G01*
G37*
G36*
G01*
X-5875000Y24580000D02*
X-6825000Y24580000D01*
G75*
G02*
X-7075000Y24830000I0J250000D01*
G01*
X-7075000Y25505000D01*
G75*
G02*
X-6825000Y25755000I250000J0D01*
G01*
X-5875000Y25755000D01*
G75*
G02*
X-5625000Y25505000I0J-250000D01*
G01*
X-5625000Y24830000D01*
G75*
G02*
X-5875000Y24580000I-250000J0D01*
G01*
G37*
G36*
G01*
X-5875000Y22505000D02*
X-6825000Y22505000D01*
G75*
G02*
X-7075000Y22755000I0J250000D01*
G01*
X-7075000Y23430000D01*
G75*
G02*
X-6825000Y23680000I250000J0D01*
G01*
X-5875000Y23680000D01*
G75*
G02*
X-5625000Y23430000I0J-250000D01*
G01*
X-5625000Y22755000D01*
G75*
G02*
X-5875000Y22505000I-250000J0D01*
G01*
G37*
G36*
G01*
X-14445000Y8440000D02*
X-13495000Y8440000D01*
G75*
G02*
X-13245000Y8190000I0J-250000D01*
G01*
X-13245000Y7515000D01*
G75*
G02*
X-13495000Y7265000I-250000J0D01*
G01*
X-14445000Y7265000D01*
G75*
G02*
X-14695000Y7515000I0J250000D01*
G01*
X-14695000Y8190000D01*
G75*
G02*
X-14445000Y8440000I250000J0D01*
G01*
G37*
G36*
G01*
X-14445000Y10515000D02*
X-13495000Y10515000D01*
G75*
G02*
X-13245000Y10265000I0J-250000D01*
G01*
X-13245000Y9590000D01*
G75*
G02*
X-13495000Y9340000I-250000J0D01*
G01*
X-14445000Y9340000D01*
G75*
G02*
X-14695000Y9590000I0J250000D01*
G01*
X-14695000Y10265000D01*
G75*
G02*
X-14445000Y10515000I250000J0D01*
G01*
G37*
G36*
G01*
X-26195000Y24580000D02*
X-27145000Y24580000D01*
G75*
G02*
X-27395000Y24830000I0J250000D01*
G01*
X-27395000Y25505000D01*
G75*
G02*
X-27145000Y25755000I250000J0D01*
G01*
X-26195000Y25755000D01*
G75*
G02*
X-25945000Y25505000I0J-250000D01*
G01*
X-25945000Y24830000D01*
G75*
G02*
X-26195000Y24580000I-250000J0D01*
G01*
G37*
G36*
G01*
X-26195000Y22505000D02*
X-27145000Y22505000D01*
G75*
G02*
X-27395000Y22755000I0J250000D01*
G01*
X-27395000Y23430000D01*
G75*
G02*
X-27145000Y23680000I250000J0D01*
G01*
X-26195000Y23680000D01*
G75*
G02*
X-25945000Y23430000I0J-250000D01*
G01*
X-25945000Y22755000D01*
G75*
G02*
X-26195000Y22505000I-250000J0D01*
G01*
G37*
G36*
G01*
X-31275000Y24580000D02*
X-32225000Y24580000D01*
G75*
G02*
X-32475000Y24830000I0J250000D01*
G01*
X-32475000Y25505000D01*
G75*
G02*
X-32225000Y25755000I250000J0D01*
G01*
X-31275000Y25755000D01*
G75*
G02*
X-31025000Y25505000I0J-250000D01*
G01*
X-31025000Y24830000D01*
G75*
G02*
X-31275000Y24580000I-250000J0D01*
G01*
G37*
G36*
G01*
X-31275000Y22505000D02*
X-32225000Y22505000D01*
G75*
G02*
X-32475000Y22755000I0J250000D01*
G01*
X-32475000Y23430000D01*
G75*
G02*
X-32225000Y23680000I250000J0D01*
G01*
X-31275000Y23680000D01*
G75*
G02*
X-31025000Y23430000I0J-250000D01*
G01*
X-31025000Y22755000D01*
G75*
G02*
X-31275000Y22505000I-250000J0D01*
G01*
G37*
G36*
G01*
X-8415000Y24580000D02*
X-9365000Y24580000D01*
G75*
G02*
X-9615000Y24830000I0J250000D01*
G01*
X-9615000Y25505000D01*
G75*
G02*
X-9365000Y25755000I250000J0D01*
G01*
X-8415000Y25755000D01*
G75*
G02*
X-8165000Y25505000I0J-250000D01*
G01*
X-8165000Y24830000D01*
G75*
G02*
X-8415000Y24580000I-250000J0D01*
G01*
G37*
G36*
G01*
X-8415000Y22505000D02*
X-9365000Y22505000D01*
G75*
G02*
X-9615000Y22755000I0J250000D01*
G01*
X-9615000Y23430000D01*
G75*
G02*
X-9365000Y23680000I250000J0D01*
G01*
X-8415000Y23680000D01*
G75*
G02*
X-8165000Y23430000I0J-250000D01*
G01*
X-8165000Y22755000D01*
G75*
G02*
X-8415000Y22505000I-250000J0D01*
G01*
G37*
G36*
G01*
X-23655000Y24580000D02*
X-24605000Y24580000D01*
G75*
G02*
X-24855000Y24830000I0J250000D01*
G01*
X-24855000Y25505000D01*
G75*
G02*
X-24605000Y25755000I250000J0D01*
G01*
X-23655000Y25755000D01*
G75*
G02*
X-23405000Y25505000I0J-250000D01*
G01*
X-23405000Y24830000D01*
G75*
G02*
X-23655000Y24580000I-250000J0D01*
G01*
G37*
G36*
G01*
X-23655000Y22505000D02*
X-24605000Y22505000D01*
G75*
G02*
X-24855000Y22755000I0J250000D01*
G01*
X-24855000Y23430000D01*
G75*
G02*
X-24605000Y23680000I250000J0D01*
G01*
X-23655000Y23680000D01*
G75*
G02*
X-23405000Y23430000I0J-250000D01*
G01*
X-23405000Y22755000D01*
G75*
G02*
X-23655000Y22505000I-250000J0D01*
G01*
G37*
G36*
G01*
X-13495000Y24580000D02*
X-14445000Y24580000D01*
G75*
G02*
X-14695000Y24830000I0J250000D01*
G01*
X-14695000Y25505000D01*
G75*
G02*
X-14445000Y25755000I250000J0D01*
G01*
X-13495000Y25755000D01*
G75*
G02*
X-13245000Y25505000I0J-250000D01*
G01*
X-13245000Y24830000D01*
G75*
G02*
X-13495000Y24580000I-250000J0D01*
G01*
G37*
G36*
G01*
X-13495000Y22505000D02*
X-14445000Y22505000D01*
G75*
G02*
X-14695000Y22755000I0J250000D01*
G01*
X-14695000Y23430000D01*
G75*
G02*
X-14445000Y23680000I250000J0D01*
G01*
X-13495000Y23680000D01*
G75*
G02*
X-13245000Y23430000I0J-250000D01*
G01*
X-13245000Y22755000D01*
G75*
G02*
X-13495000Y22505000I-250000J0D01*
G01*
G37*
G36*
G01*
X46515000Y28760000D02*
X47465000Y28760000D01*
G75*
G02*
X47715000Y28510000I0J-250000D01*
G01*
X47715000Y27835000D01*
G75*
G02*
X47465000Y27585000I-250000J0D01*
G01*
X46515000Y27585000D01*
G75*
G02*
X46265000Y27835000I0J250000D01*
G01*
X46265000Y28510000D01*
G75*
G02*
X46515000Y28760000I250000J0D01*
G01*
G37*
G36*
G01*
X46515000Y30835000D02*
X47465000Y30835000D01*
G75*
G02*
X47715000Y30585000I0J-250000D01*
G01*
X47715000Y29910000D01*
G75*
G02*
X47465000Y29660000I-250000J0D01*
G01*
X46515000Y29660000D01*
G75*
G02*
X46265000Y29910000I0J250000D01*
G01*
X46265000Y30585000D01*
G75*
G02*
X46515000Y30835000I250000J0D01*
G01*
G37*
G36*
G01*
X44900000Y16035000D02*
X44900000Y16985000D01*
G75*
G02*
X45150000Y17235000I250000J0D01*
G01*
X45825000Y17235000D01*
G75*
G02*
X46075000Y16985000I0J-250000D01*
G01*
X46075000Y16035000D01*
G75*
G02*
X45825000Y15785000I-250000J0D01*
G01*
X45150000Y15785000D01*
G75*
G02*
X44900000Y16035000I0J250000D01*
G01*
G37*
G36*
G01*
X42825000Y16035000D02*
X42825000Y16985000D01*
G75*
G02*
X43075000Y17235000I250000J0D01*
G01*
X43750000Y17235000D01*
G75*
G02*
X44000000Y16985000I0J-250000D01*
G01*
X44000000Y16035000D01*
G75*
G02*
X43750000Y15785000I-250000J0D01*
G01*
X43075000Y15785000D01*
G75*
G02*
X42825000Y16035000I0J250000D01*
G01*
G37*
G36*
G01*
X-39820000Y-2065000D02*
X-39820000Y-3015000D01*
G75*
G02*
X-40070000Y-3265000I-250000J0D01*
G01*
X-40745000Y-3265000D01*
G75*
G02*
X-40995000Y-3015000I0J250000D01*
G01*
X-40995000Y-2065000D01*
G75*
G02*
X-40745000Y-1815000I250000J0D01*
G01*
X-40070000Y-1815000D01*
G75*
G02*
X-39820000Y-2065000I0J-250000D01*
G01*
G37*
G36*
G01*
X-37745000Y-2065000D02*
X-37745000Y-3015000D01*
G75*
G02*
X-37995000Y-3265000I-250000J0D01*
G01*
X-38670000Y-3265000D01*
G75*
G02*
X-38920000Y-3015000I0J250000D01*
G01*
X-38920000Y-2065000D01*
G75*
G02*
X-38670000Y-1815000I250000J0D01*
G01*
X-37995000Y-1815000D01*
G75*
G02*
X-37745000Y-2065000I0J-250000D01*
G01*
G37*
G36*
G01*
X-32200000Y-21115000D02*
X-32200000Y-22065000D01*
G75*
G02*
X-32450000Y-22315000I-250000J0D01*
G01*
X-33125000Y-22315000D01*
G75*
G02*
X-33375000Y-22065000I0J250000D01*
G01*
X-33375000Y-21115000D01*
G75*
G02*
X-33125000Y-20865000I250000J0D01*
G01*
X-32450000Y-20865000D01*
G75*
G02*
X-32200000Y-21115000I0J-250000D01*
G01*
G37*
G36*
G01*
X-30125000Y-21115000D02*
X-30125000Y-22065000D01*
G75*
G02*
X-30375000Y-22315000I-250000J0D01*
G01*
X-31050000Y-22315000D01*
G75*
G02*
X-31300000Y-22065000I0J250000D01*
G01*
X-31300000Y-21115000D01*
G75*
G02*
X-31050000Y-20865000I250000J0D01*
G01*
X-30375000Y-20865000D01*
G75*
G02*
X-30125000Y-21115000I0J-250000D01*
G01*
G37*
G36*
G01*
X-32200000Y-9685000D02*
X-32200000Y-10635000D01*
G75*
G02*
X-32450000Y-10885000I-250000J0D01*
G01*
X-33125000Y-10885000D01*
G75*
G02*
X-33375000Y-10635000I0J250000D01*
G01*
X-33375000Y-9685000D01*
G75*
G02*
X-33125000Y-9435000I250000J0D01*
G01*
X-32450000Y-9435000D01*
G75*
G02*
X-32200000Y-9685000I0J-250000D01*
G01*
G37*
G36*
G01*
X-30125000Y-9685000D02*
X-30125000Y-10635000D01*
G75*
G02*
X-30375000Y-10885000I-250000J0D01*
G01*
X-31050000Y-10885000D01*
G75*
G02*
X-31300000Y-10635000I0J250000D01*
G01*
X-31300000Y-9685000D01*
G75*
G02*
X-31050000Y-9435000I250000J0D01*
G01*
X-30375000Y-9435000D01*
G75*
G02*
X-30125000Y-9685000I0J-250000D01*
G01*
G37*
G36*
G01*
X-15715000Y-23310000D02*
X-14765000Y-23310000D01*
G75*
G02*
X-14515000Y-23560000I0J-250000D01*
G01*
X-14515000Y-24235000D01*
G75*
G02*
X-14765000Y-24485000I-250000J0D01*
G01*
X-15715000Y-24485000D01*
G75*
G02*
X-15965000Y-24235000I0J250000D01*
G01*
X-15965000Y-23560000D01*
G75*
G02*
X-15715000Y-23310000I250000J0D01*
G01*
G37*
G36*
G01*
X-15715000Y-21235000D02*
X-14765000Y-21235000D01*
G75*
G02*
X-14515000Y-21485000I0J-250000D01*
G01*
X-14515000Y-22160000D01*
G75*
G02*
X-14765000Y-22410000I-250000J0D01*
G01*
X-15715000Y-22410000D01*
G75*
G02*
X-15965000Y-22160000I0J250000D01*
G01*
X-15965000Y-21485000D01*
G75*
G02*
X-15715000Y-21235000I250000J0D01*
G01*
G37*
G36*
G01*
X-15715000Y-11880000D02*
X-14765000Y-11880000D01*
G75*
G02*
X-14515000Y-12130000I0J-250000D01*
G01*
X-14515000Y-12805000D01*
G75*
G02*
X-14765000Y-13055000I-250000J0D01*
G01*
X-15715000Y-13055000D01*
G75*
G02*
X-15965000Y-12805000I0J250000D01*
G01*
X-15965000Y-12130000D01*
G75*
G02*
X-15715000Y-11880000I250000J0D01*
G01*
G37*
G36*
G01*
X-15715000Y-9805000D02*
X-14765000Y-9805000D01*
G75*
G02*
X-14515000Y-10055000I0J-250000D01*
G01*
X-14515000Y-10730000D01*
G75*
G02*
X-14765000Y-10980000I-250000J0D01*
G01*
X-15715000Y-10980000D01*
G75*
G02*
X-15965000Y-10730000I0J250000D01*
G01*
X-15965000Y-10055000D01*
G75*
G02*
X-15715000Y-9805000I250000J0D01*
G01*
G37*
G36*
G01*
X-28415000Y-5530000D02*
X-27465000Y-5530000D01*
G75*
G02*
X-27215000Y-5780000I0J-250000D01*
G01*
X-27215000Y-6455000D01*
G75*
G02*
X-27465000Y-6705000I-250000J0D01*
G01*
X-28415000Y-6705000D01*
G75*
G02*
X-28665000Y-6455000I0J250000D01*
G01*
X-28665000Y-5780000D01*
G75*
G02*
X-28415000Y-5530000I250000J0D01*
G01*
G37*
G36*
G01*
X-28415000Y-3455000D02*
X-27465000Y-3455000D01*
G75*
G02*
X-27215000Y-3705000I0J-250000D01*
G01*
X-27215000Y-4380000D01*
G75*
G02*
X-27465000Y-4630000I-250000J0D01*
G01*
X-28415000Y-4630000D01*
G75*
G02*
X-28665000Y-4380000I0J250000D01*
G01*
X-28665000Y-3705000D01*
G75*
G02*
X-28415000Y-3455000I250000J0D01*
G01*
G37*
G36*
G01*
X-7402500Y19210000D02*
X-7402500Y20160000D01*
G75*
G02*
X-7152500Y20410000I250000J0D01*
G01*
X-6477500Y20410000D01*
G75*
G02*
X-6227500Y20160000I0J-250000D01*
G01*
X-6227500Y19210000D01*
G75*
G02*
X-6477500Y18960000I-250000J0D01*
G01*
X-7152500Y18960000D01*
G75*
G02*
X-7402500Y19210000I0J250000D01*
G01*
G37*
G36*
G01*
X-9477500Y19210000D02*
X-9477500Y20160000D01*
G75*
G02*
X-9227500Y20410000I250000J0D01*
G01*
X-8552500Y20410000D01*
G75*
G02*
X-8302500Y20160000I0J-250000D01*
G01*
X-8302500Y19210000D01*
G75*
G02*
X-8552500Y18960000I-250000J0D01*
G01*
X-9227500Y18960000D01*
G75*
G02*
X-9477500Y19210000I0J250000D01*
G01*
G37*
G36*
G01*
X-7402500Y12860000D02*
X-7402500Y13810000D01*
G75*
G02*
X-7152500Y14060000I250000J0D01*
G01*
X-6477500Y14060000D01*
G75*
G02*
X-6227500Y13810000I0J-250000D01*
G01*
X-6227500Y12860000D01*
G75*
G02*
X-6477500Y12610000I-250000J0D01*
G01*
X-7152500Y12610000D01*
G75*
G02*
X-7402500Y12860000I0J250000D01*
G01*
G37*
G36*
G01*
X-9477500Y12860000D02*
X-9477500Y13810000D01*
G75*
G02*
X-9227500Y14060000I250000J0D01*
G01*
X-8552500Y14060000D01*
G75*
G02*
X-8302500Y13810000I0J-250000D01*
G01*
X-8302500Y12860000D01*
G75*
G02*
X-8552500Y12610000I-250000J0D01*
G01*
X-9227500Y12610000D01*
G75*
G02*
X-9477500Y12860000I0J250000D01*
G01*
G37*
D36*
X-41910000Y3810000D03*
X-39370000Y3810000D03*
D37*
X-41910000Y29210000D03*
D36*
X3810000Y3810000D03*
X-39370000Y29210000D03*
X3810000Y29210000D03*
X-36830000Y29210000D03*
X1270000Y29210000D03*
X-34290000Y29210000D03*
X-1270000Y29210000D03*
X-31750000Y29210000D03*
X-3810000Y29210000D03*
X-29210000Y29210000D03*
X-6350000Y29210000D03*
X-26670000Y29210000D03*
X-8890000Y29210000D03*
X-24130000Y29210000D03*
X-11430000Y29210000D03*
X-21590000Y29210000D03*
X-13970000Y29210000D03*
X-19050000Y29210000D03*
X-16510000Y29210000D03*
X1270000Y3810000D03*
X-1270000Y3810000D03*
X-3810000Y3810000D03*
X-6350000Y3810000D03*
X-8890000Y3810000D03*
X-11430000Y3810000D03*
X-13970000Y3810000D03*
X-16510000Y3810000D03*
X-19050000Y3810000D03*
X-21590000Y3810000D03*
X-24130000Y3810000D03*
X-26670000Y3810000D03*
X-29210000Y3810000D03*
X-31750000Y3810000D03*
X-34290000Y3810000D03*
X-36830000Y3810000D03*
M02*
