M48
; DRILL file {KiCad (5.1.9)-1} date 02/22/21 19:57:25
; FORMAT={-:-/ absolute / inch / decimal}
; #@! TF.CreationDate,2021-02-22T19:57:25+01:00
; #@! TF.GenerationSoftware,Kicad,Pcbnew,(5.1.9)-1
; #@! TF.FileFunction,Plated,1,2,PTH
FMAT,2
INCH
T1C0.0157
T2C0.0197
T3C0.0217
T4C0.0300
T5C0.0394
T6C0.0398
T7C0.1024
T8C0.1260
%
G90
G05
T1
X-1.7033Y-0.2944
X-1.68Y1.035
X-1.6635Y-0.295
X-1.6535Y0.8585
X-1.6535Y0.4035
X-1.6402Y-0.0398
X-1.635Y1.3
X-1.61Y0.445
X-1.605Y0.505
X-1.6048Y0.0648
X-1.6Y-0.215
X-1.59Y0.945
X-1.59Y-0.655
X-1.585Y0.805
X-1.5697Y-0.4915
X-1.565Y-0.005
X-1.5535Y0.0358
X-1.545Y1.245
X-1.5418Y0.2203
X-1.5392Y-0.3636
X-1.525Y-0.215
X-1.5235Y0.0613
X-1.5106Y-0.3304
X-1.5Y-0.49
X-1.495Y-0.76
X-1.4949Y-0.0392
X-1.4935Y0.7461
X-1.4857Y1.2265
X-1.4835Y0.4834
X-1.48Y-0.165
X-1.4785Y0.8292
X-1.475Y0.53
X-1.475Y-0.54
X-1.46Y0.685
X-1.46Y-0.2985
X-1.45Y0.22
X-1.44Y0.62
X-1.44Y0.58
X-1.4335Y0.4965
X-1.43Y-0.925
X-1.4215Y0.7478
X-1.4102Y0.7898
X-1.4102Y0.8578
X-1.395Y0.245
X-1.3852Y1.2935
X-1.385Y-0.075
X-1.365Y-0.425
X-1.36Y0.46
X-1.3528Y0.352
X-1.34Y0.25
X-1.335Y-0.2985
X-1.32Y1.065
X-1.301Y0.8435
X-1.295Y1.275
X-1.295Y-0.69
X-1.2852Y0.45
X-1.2802Y0.2334
X-1.2502Y-0.1152
X-1.25Y1.055
X-1.25Y0.26
X-1.25Y-0.655
X-1.2037Y1.2837
X-1.1998Y0.875
X-1.1713Y0.7387
X-1.16Y-0.0987
X-1.15Y1.06
X-1.15Y0.26
X-1.1405Y1.2179
X-1.14Y-0.935
X-1.135Y-0.665
X-1.135Y-1.05
X-1.13Y-0.405
X-1.12Y-0.475
X-1.12Y-0.89
X-1.1138Y0.8663
X-1.11Y1.47
X-1.1016Y0.5842
X-1.1Y1.39
X-1.1Y-0.115
X-1.095Y0.405
X-1.0808Y0.7387
X-1.07Y0.635
X-1.0669Y0.5639
X-1.05Y1.06
X-1.05Y0.26
X-1.045Y-0.2985
X-1.0372Y0.5915
X-1.035Y1.28
X-1.03Y-0.115
X-1.0232Y0.7124
X-1.01Y-0.32
X-1.005Y0.005
X-0.9961Y0.7411
X-0.995Y0.6732
X-0.995Y0.529
X-0.995Y0.3715
X-0.9808Y0.5687
X-0.98Y-0.37
X-0.955Y-0.105
X-0.95Y1.06
X-0.95Y0.26
X-0.945Y-0.61
X-0.9078Y0.9121
X-0.905Y0.06
X-0.9034Y-0.302
X-0.895Y-0.1735
X-0.875Y1.0
X-0.871Y0.8663
X-0.87Y0.655
X-0.8534Y0.4166
X-0.85Y0.24
X-0.85Y0.0635
X-0.845Y1.215
X-0.845Y0.33
X-0.84Y-0.255
X-0.8395Y0.291
X-0.8298Y0.8827
X-0.8229Y0.3915
X-0.803Y0.561
X-0.79Y0.915
X-0.79Y-1.04
X-0.7873Y0.5244
X-0.786Y0.7421
X-0.7851Y0.685
X-0.7633Y0.8085
X-0.7607Y1.2327
X-0.755Y-0.65
X-0.75Y0.94
X-0.75Y0.23
X-0.7471Y0.555
X-0.745Y0.415
X-0.7294Y0.4982
X-0.725Y0.78
X-0.685Y1.065
X-0.685Y0.365
X-0.685Y-0.09
X-0.6716Y0.6794
X-0.6686Y0.8963
X-0.66Y0.23
X-0.65Y1.22
X-0.65Y-0.45
X-0.65Y-0.9
X-0.6459Y-0.2983
X-0.6374Y0.8725
X-0.6262Y0.4437
X-0.615Y0.35
X-0.61Y0.955
X-0.6091Y0.6548
X-0.6069Y-0.3036
X-0.595Y0.86
X-0.585Y1.36
X-0.5788Y0.8241
X-0.55Y0.235
X-0.545Y-0.33
X-0.5191Y0.7309
X-0.515Y1.405
X-0.51Y0.47
X-0.505Y0.69
X-0.504Y0.5116
X-0.5Y1.06
X-0.485Y0.81
X-0.485Y-0.1485
X-0.48Y-0.65
X-0.475Y1.55
X-0.475Y1.445
X-0.46Y0.605
X-0.45Y0.485
X-0.445Y1.385
X-0.4415Y0.2291
X-0.43Y-0.11
X-0.405Y0.805
X-0.4Y0.365
X-0.395Y1.07
X-0.36Y-0.65
X-0.3596Y1.2327
X-0.35Y-0.145
X-0.35Y-0.4
X-0.345Y-1.0
X-0.31Y0.65
X-0.305Y-0.475
X-0.3Y1.09
X-0.265Y-1.035
X-0.25Y1.3785
X-0.25Y0.305
X-0.245Y1.45
X-0.205Y0.435
X-0.205Y-0.33
X-0.185Y0.84
X-0.1574Y1.3215
X-0.15Y1.45
X-0.145Y0.93
X-0.1385Y0.995
X-0.11Y0.8335
X-0.1039Y1.231
X-0.0805Y1.0841
X-0.075Y0.465
X-0.07Y0.855
X-0.025Y1.45
X-0.01Y-0.66
X-0.005Y-0.3
X0.0Y0.9785
X0.04Y0.355
X0.05Y1.065
X0.06Y0.725
X0.06Y-0.12
X0.065Y0.525
X0.1187Y0.2911
X0.12Y0.8335
X0.1207Y0.3334
X0.1265Y1.0335
X0.13Y0.88
X0.1305Y0.2535
X0.145Y-0.13
X0.15Y1.49
X0.155Y0.975
X0.2065Y0.1
X0.215Y1.22
X0.2544Y1.2205
X0.265Y0.585
X0.27Y0.035
X0.275Y0.97
X0.2898Y1.2375
X0.32Y0.86
X0.325Y1.465
X0.33Y0.165
X0.335Y0.695
X0.34Y0.44
X0.34Y-0.4
X0.345Y0.31
X0.43Y1.24
X0.43Y0.295
X0.44Y-0.3
X0.455Y0.105
X0.495Y-0.35
X0.51Y-0.11
X0.5106Y0.1106
X0.54Y-1.055
X0.56Y0.11
X0.585Y-1.045
X0.605Y-0.11
X0.61Y1.215
X0.615Y-0.94
X0.635Y0.71
X0.66Y-1.04
X0.68Y1.095
X0.695Y1.285
X0.695Y-0.275
X0.755Y1.265
X0.765Y0.385
X0.79Y-1.04
X0.81Y1.285
X0.815Y-0.525
X0.83Y0.205
X0.89Y-0.1
X0.91Y-0.98
X0.95Y0.09
X0.97Y1.215
X1.085Y0.76
X1.085Y-0.025
X1.085Y-0.21
X1.105Y-0.635
X1.12Y1.51
X1.12Y1.385
X1.15Y-0.2
X1.195Y1.305
X1.225Y0.855
X1.235Y-0.025
X1.28Y0.93
X1.3Y-0.345
X1.315Y-0.63
X1.35Y1.385
X1.35Y0.44
X1.37Y-0.015
X1.445Y1.52
X1.565Y-0.02
X1.575Y1.405
X1.605Y0.705
X1.615Y1.13
X1.625Y1.225
X1.64Y0.885
X1.66Y0.465
X1.66Y0.305
X1.725Y-0.375
X1.76Y-0.1
X1.77Y1.01
X1.835Y0.305
X1.845Y-0.28
X1.87Y0.61
X1.91Y1.06
T2
X-1.8445Y1.45
X-1.8445Y-0.9
X-1.8168Y1.5168
X-1.8168Y1.3832
X-1.8168Y-0.8332
X-1.8168Y-0.9668
X-1.75Y1.5445
X-1.75Y1.3555
X-1.75Y-0.8055
X-1.75Y-0.9945
X-1.6832Y1.5168
X-1.6832Y1.3832
X-1.6832Y-0.8332
X-1.6832Y-0.9668
X-1.6555Y1.45
X-1.6555Y-0.9
X-0.35Y0.6874
X-0.35Y0.6126
X1.6555Y1.45
X1.6555Y-0.9
X1.6832Y1.5168
X1.6832Y1.3832
X1.6832Y-0.8332
X1.6832Y-0.9668
X1.75Y1.5445
X1.75Y1.3555
X1.75Y-0.8055
X1.75Y-0.9945
X1.8168Y1.5168
X1.8168Y1.3832
X1.8168Y-0.8332
X1.8168Y-0.9668
X1.8445Y1.45
X1.8445Y-0.9
T4
X-0.35Y1.5516
X-0.35Y-0.0484
X-0.25Y1.5516
X-0.25Y-0.0484
X-0.15Y1.5516
X-0.15Y-0.0484
X-0.05Y1.5516
X-0.05Y-0.0484
X0.05Y1.5516
X0.05Y-0.0484
X0.15Y1.5516
X0.15Y-0.0484
X0.25Y1.5516
X0.25Y-0.0484
X0.35Y1.5516
X0.35Y-0.0484
X0.4Y1.05
X0.4Y0.95
X0.4Y0.85
X0.4Y0.75
X0.4Y0.65
X0.4Y0.55
X0.4Y0.45
X0.9067Y0.8189
X0.9067Y0.6811
T5
X-1.65Y1.15
X-1.65Y0.15
X-1.55Y1.15
X-1.55Y0.15
X-1.45Y1.15
X-1.45Y0.15
X-1.35Y1.15
X-1.35Y0.15
X-1.25Y1.15
X-1.25Y0.15
X-1.15Y1.15
X-1.15Y0.15
X-1.05Y1.15
X-1.05Y0.15
X-1.0Y1.55
X-1.0Y1.45
X-0.95Y1.15
X-0.95Y0.15
X-0.9Y1.55
X-0.9Y1.45
X-0.85Y1.15
X-0.85Y0.15
X-0.8Y1.55
X-0.8Y1.45
X-0.75Y1.15
X-0.75Y0.15
X-0.75Y-0.05
X-0.75Y-0.2
X-0.7Y1.55
X-0.7Y1.45
X-0.65Y1.15
X-0.65Y0.15
X-0.6Y1.55
X-0.6Y1.45
X-0.55Y1.15
X-0.55Y0.15
X-0.45Y1.15
X-0.45Y0.15
X-0.35Y1.15
X-0.35Y0.15
X-0.25Y1.15
X-0.25Y0.15
X-0.15Y1.15
X-0.15Y0.15
X-0.0984Y-0.3244
X-0.0984Y-0.8953
X-0.05Y1.15
X-0.05Y0.15
X0.0Y-0.8953
X0.05Y1.15
X0.05Y0.15
X0.0984Y-0.3244
X0.0984Y-0.8953
X0.15Y1.15
X0.15Y0.15
X0.4Y-0.7
X0.4Y-0.9972
X0.55Y1.55
X0.55Y1.45
X0.65Y1.55
X0.65Y1.45
X0.75Y1.55
X0.75Y1.45
X0.85Y1.55
X0.85Y1.45
X0.95Y1.55
X0.95Y1.45
X0.95Y-0.725
X1.4Y-0.3
X1.4Y-0.6
X1.4Y-0.9
T6
X1.6028Y-0.2992
X1.65Y-0.5
X1.8Y-0.2
X1.8472Y-0.4008
T7
X-0.2205Y-0.6
X0.2205Y-0.6
T8
X-1.75Y1.45
X-1.75Y-0.9
X1.75Y1.45
X1.75Y-0.9
T2
G00X-1.909Y-0.2122
M15
G01X-1.8834Y-0.2122
M16
G05
G00X-1.909Y-0.4878
M15
G01X-1.8834Y-0.4878
M16
G05
T3
G00X-1.7899Y-0.2575
M15
G01X-1.7899Y-0.2457
M16
G05
G00X-1.7899Y-0.4543
M15
G01X-1.7899Y-0.4425
M16
G05
T0
M30
