G04 #@! TF.GenerationSoftware,KiCad,Pcbnew,(5.1.9)-1*
G04 #@! TF.CreationDate,2021-02-09T20:08:19+01:00*
G04 #@! TF.ProjectId,IoT12,496f5431-322e-46b6-9963-61645f706362,rev?*
G04 #@! TF.SameCoordinates,Original*
G04 #@! TF.FileFunction,Soldermask,Bot*
G04 #@! TF.FilePolarity,Negative*
%FSLAX46Y46*%
G04 Gerber Fmt 4.6, Leading zero omitted, Abs format (unit mm)*
G04 Created by KiCad (PCBNEW (5.1.9)-1) date 2021-02-09 20:08:19*
%MOMM*%
%LPD*%
G01*
G04 APERTURE LIST*
%ADD10C,2.000000*%
%ADD11C,0.800000*%
%ADD12C,6.400000*%
%ADD13R,2.000000X2.000000*%
%ADD14C,3.200000*%
%ADD15O,1.700000X1.700000*%
%ADD16R,1.700000X1.700000*%
%ADD17C,2.010000*%
%ADD18C,2.300000*%
%ADD19C,1.524000*%
%ADD20R,1.524000X1.524000*%
%ADD21R,2.900000X5.400000*%
%ADD22O,1.700000X2.100000*%
%ADD23R,1.700000X2.100000*%
G04 APERTURE END LIST*
D10*
X8890000Y-28505000D03*
X13970000Y-28505000D03*
X19050000Y-28505000D03*
X-21590000Y-38100000D03*
X-6350000Y-28575000D03*
X-21590000Y-25400000D03*
X-21590000Y-31750000D03*
X-6350000Y-34925000D03*
D11*
X-42752944Y-14812944D03*
X-44450000Y-14110000D03*
X-46147056Y-14812944D03*
X-46850000Y-16510000D03*
X-46147056Y-18207056D03*
X-44450000Y-18910000D03*
X-42752944Y-18207056D03*
X-42050000Y-16510000D03*
D12*
X-44450000Y-16510000D03*
D11*
X-42752944Y23287056D03*
X-44450000Y23990000D03*
X-46147056Y23287056D03*
X-46850000Y21590000D03*
X-46147056Y19892944D03*
X-44450000Y19190000D03*
X-42752944Y19892944D03*
X-42050000Y21590000D03*
D12*
X-44450000Y21590000D03*
D11*
X46147056Y-14812944D03*
X44450000Y-14110000D03*
X42752944Y-14812944D03*
X42050000Y-16510000D03*
X42752944Y-18207056D03*
X44450000Y-18910000D03*
X46147056Y-18207056D03*
X46850000Y-16510000D03*
D12*
X44450000Y-16510000D03*
D11*
X46147056Y23287056D03*
X44450000Y23990000D03*
X42752944Y23287056D03*
X42050000Y21590000D03*
X42752944Y19892944D03*
X44450000Y19190000D03*
X46147056Y19892944D03*
X46850000Y21590000D03*
D12*
X44450000Y21590000D03*
D13*
X33500000Y-7500000D03*
D10*
X36000000Y-7500000D03*
X38500000Y-7500000D03*
D14*
X30400000Y0D03*
X41600000Y0D03*
D10*
X33500000Y7000000D03*
X38500000Y7000000D03*
D15*
X-19050000Y19050000D03*
D16*
X-21590000Y19050000D03*
D15*
X-25400000Y19050000D03*
X-27940000Y19050000D03*
X-30480000Y19050000D03*
X-33020000Y19050000D03*
X-35560000Y19050000D03*
D16*
X-38100000Y19050000D03*
D17*
X16784000Y-32836000D03*
X11684000Y-34036000D03*
X16530000Y-36900000D03*
X11430000Y-38100000D03*
D18*
X-20450000Y-16600000D03*
X20450000Y-16600000D03*
X20450000Y24300000D03*
X-20450000Y24300000D03*
D19*
X6350000Y-16470000D03*
X8890000Y-16470000D03*
X3810000Y-16470000D03*
D20*
X-8890000Y-16470000D03*
D19*
X1270000Y-16470000D03*
X-1270000Y-16470000D03*
X-6350000Y-16470000D03*
X-3810000Y-16470000D03*
X8890000Y24170000D03*
X6350000Y24170000D03*
X3810000Y24170000D03*
X1270000Y24170000D03*
X-1270000Y24170000D03*
X-3810000Y24170000D03*
X-6350000Y24170000D03*
D20*
X-8890000Y24170000D03*
D21*
X34160000Y16510000D03*
X24260000Y16510000D03*
G36*
G01*
X20480000Y10980000D02*
X21430000Y10980000D01*
G75*
G02*
X21680000Y10730000I0J-250000D01*
G01*
X21680000Y10055000D01*
G75*
G02*
X21430000Y9805000I-250000J0D01*
G01*
X20480000Y9805000D01*
G75*
G02*
X20230000Y10055000I0J250000D01*
G01*
X20230000Y10730000D01*
G75*
G02*
X20480000Y10980000I250000J0D01*
G01*
G37*
G36*
G01*
X20480000Y13055000D02*
X21430000Y13055000D01*
G75*
G02*
X21680000Y12805000I0J-250000D01*
G01*
X21680000Y12130000D01*
G75*
G02*
X21430000Y11880000I-250000J0D01*
G01*
X20480000Y11880000D01*
G75*
G02*
X20230000Y12130000I0J250000D01*
G01*
X20230000Y12805000D01*
G75*
G02*
X20480000Y13055000I250000J0D01*
G01*
G37*
D22*
X-41910000Y-10160000D03*
X-39370000Y-10160000D03*
D23*
X-41910000Y15240000D03*
D22*
X3810000Y-10160000D03*
X-39370000Y15240000D03*
X3810000Y15240000D03*
X-36830000Y15240000D03*
X1270000Y15240000D03*
X-34290000Y15240000D03*
X-1270000Y15240000D03*
X-31750000Y15240000D03*
X-3810000Y15240000D03*
X-29210000Y15240000D03*
X-6350000Y15240000D03*
X-26670000Y15240000D03*
X-8890000Y15240000D03*
X-24130000Y15240000D03*
X-11430000Y15240000D03*
X-21590000Y15240000D03*
X-13970000Y15240000D03*
X-19050000Y15240000D03*
X-16510000Y15240000D03*
X1270000Y-10160000D03*
X-1270000Y-10160000D03*
X-3810000Y-10160000D03*
X-6350000Y-10160000D03*
X-8890000Y-10160000D03*
X-11430000Y-10160000D03*
X-13970000Y-10160000D03*
X-16510000Y-10160000D03*
X-19050000Y-10160000D03*
X-21590000Y-10160000D03*
X-24130000Y-10160000D03*
X-26670000Y-10160000D03*
X-29210000Y-10160000D03*
X-31750000Y-10160000D03*
X-34290000Y-10160000D03*
X-36830000Y-10160000D03*
M02*
