%TF.GenerationSoftware,KiCad,Pcbnew,(5.1.9)-1*%
%TF.CreationDate,2021-01-17T18:49:44+01:00*%
%TF.ProjectId,IoT12,496f5431-322e-46b6-9963-61645f706362,rev?*%
%TF.SameCoordinates,Original*%
%TF.FileFunction,Legend,Bot*%
%TF.FilePolarity,Positive*%
%FSLAX46Y46*%
G04 Gerber Fmt 4.6, Leading zero omitted, Abs format (unit mm)*
G04 Created by KiCad (PCBNEW (5.1.9)-1) date 2021-01-17 18:49:44*
%MOMM*%
%LPD*%
G01*
G04 APERTURE LIST*
%ADD10C,0.150000*%
%ADD11C,0.120000*%
%ADD12C,0.010000*%
G04 APERTURE END LIST*
D10*
X-38504761Y23147976D02*
X-38552380Y23290833D01*
X-38552380Y23528928D01*
X-38504761Y23624166D01*
X-38457142Y23671785D01*
X-38361904Y23719404D01*
X-38266666Y23719404D01*
X-38171428Y23671785D01*
X-38123809Y23624166D01*
X-38076190Y23528928D01*
X-38028571Y23338452D01*
X-37980952Y23243214D01*
X-37933333Y23195595D01*
X-37838095Y23147976D01*
X-37742857Y23147976D01*
X-37647619Y23195595D01*
X-37600000Y23243214D01*
X-37552380Y23338452D01*
X-37552380Y23576547D01*
X-37600000Y23719404D01*
X-38457142Y24719404D02*
X-38504761Y24671785D01*
X-38552380Y24528928D01*
X-38552380Y24433690D01*
X-38504761Y24290833D01*
X-38409523Y24195595D01*
X-38314285Y24147976D01*
X-38123809Y24100357D01*
X-37980952Y24100357D01*
X-37790476Y24147976D01*
X-37695238Y24195595D01*
X-37600000Y24290833D01*
X-37552380Y24433690D01*
X-37552380Y24528928D01*
X-37600000Y24671785D01*
X-37647619Y24719404D01*
X-38552380Y25624166D02*
X-38552380Y25147976D01*
X-37552380Y25147976D01*
X-35964761Y23147976D02*
X-36012380Y23290833D01*
X-36012380Y23528928D01*
X-35964761Y23624166D01*
X-35917142Y23671785D01*
X-35821904Y23719404D01*
X-35726666Y23719404D01*
X-35631428Y23671785D01*
X-35583809Y23624166D01*
X-35536190Y23528928D01*
X-35488571Y23338452D01*
X-35440952Y23243214D01*
X-35393333Y23195595D01*
X-35298095Y23147976D01*
X-35202857Y23147976D01*
X-35107619Y23195595D01*
X-35060000Y23243214D01*
X-35012380Y23338452D01*
X-35012380Y23576547D01*
X-35060000Y23719404D01*
X-36012380Y24147976D02*
X-35012380Y24147976D01*
X-35012380Y24386071D01*
X-35060000Y24528928D01*
X-35155238Y24624166D01*
X-35250476Y24671785D01*
X-35440952Y24719404D01*
X-35583809Y24719404D01*
X-35774285Y24671785D01*
X-35869523Y24624166D01*
X-35964761Y24528928D01*
X-36012380Y24386071D01*
X-36012380Y24147976D01*
X-35726666Y25100357D02*
X-35726666Y25576547D01*
X-36012380Y25005119D02*
X-35012380Y25338452D01*
X-36012380Y25671785D01*
X-33472380Y23195595D02*
X-32472380Y23195595D01*
X-32472380Y23862261D02*
X-32472380Y24052738D01*
X-32520000Y24147976D01*
X-32615238Y24243214D01*
X-32805714Y24290833D01*
X-33139047Y24290833D01*
X-33329523Y24243214D01*
X-33424761Y24147976D01*
X-33472380Y24052738D01*
X-33472380Y23862261D01*
X-33424761Y23767023D01*
X-33329523Y23671785D01*
X-33139047Y23624166D01*
X-32805714Y23624166D01*
X-32615238Y23671785D01*
X-32520000Y23767023D01*
X-32472380Y23862261D01*
X-33472380Y25243214D02*
X-33472380Y24671785D01*
X-33472380Y24957500D02*
X-32472380Y24957500D01*
X-32615238Y24862261D01*
X-32710476Y24767023D01*
X-32758095Y24671785D01*
X-32805714Y26100357D02*
X-33472380Y26100357D01*
X-32424761Y25862261D02*
X-33139047Y25624166D01*
X-33139047Y26243214D01*
X-30932380Y23195595D02*
X-29932380Y23195595D01*
X-29932380Y23862261D02*
X-29932380Y24052738D01*
X-29980000Y24147976D01*
X-30075238Y24243214D01*
X-30265714Y24290833D01*
X-30599047Y24290833D01*
X-30789523Y24243214D01*
X-30884761Y24147976D01*
X-30932380Y24052738D01*
X-30932380Y23862261D01*
X-30884761Y23767023D01*
X-30789523Y23671785D01*
X-30599047Y23624166D01*
X-30265714Y23624166D01*
X-30075238Y23671785D01*
X-29980000Y23767023D01*
X-29932380Y23862261D01*
X-30932380Y25243214D02*
X-30932380Y24671785D01*
X-30932380Y24957499D02*
X-29932380Y24957499D01*
X-30075238Y24862261D01*
X-30170476Y24767023D01*
X-30218095Y24671785D01*
X-29932380Y25576547D02*
X-29932380Y26195595D01*
X-30313333Y25862261D01*
X-30313333Y26005119D01*
X-30360952Y26100357D01*
X-30408571Y26147976D01*
X-30503809Y26195595D01*
X-30741904Y26195595D01*
X-30837142Y26147976D01*
X-30884761Y26100357D01*
X-30932380Y26005119D01*
X-30932380Y25719404D01*
X-30884761Y25624166D01*
X-30837142Y25576547D01*
X-27392380Y23671785D02*
X-27392380Y23195595D01*
X-27868571Y23147976D01*
X-27820952Y23195595D01*
X-27773333Y23290833D01*
X-27773333Y23528928D01*
X-27820952Y23624166D01*
X-27868571Y23671785D01*
X-27963809Y23719404D01*
X-28201904Y23719404D01*
X-28297142Y23671785D01*
X-28344761Y23624166D01*
X-28392380Y23528928D01*
X-28392380Y23290833D01*
X-28344761Y23195595D01*
X-28297142Y23147976D01*
X-27392380Y24005119D02*
X-28392380Y24338452D01*
X-27392380Y24671785D01*
X-24900000Y23719404D02*
X-24852380Y23624166D01*
X-24852380Y23481309D01*
X-24900000Y23338452D01*
X-24995238Y23243214D01*
X-25090476Y23195595D01*
X-25280952Y23147976D01*
X-25423809Y23147976D01*
X-25614285Y23195595D01*
X-25709523Y23243214D01*
X-25804761Y23338452D01*
X-25852380Y23481309D01*
X-25852380Y23576547D01*
X-25804761Y23719404D01*
X-25757142Y23767023D01*
X-25423809Y23767023D01*
X-25423809Y23576547D01*
X-25852380Y24195595D02*
X-24852380Y24195595D01*
X-25852380Y24767023D01*
X-24852380Y24767023D01*
X-25852380Y25243214D02*
X-24852380Y25243214D01*
X-24852380Y25481309D01*
X-24900000Y25624166D01*
X-24995238Y25719404D01*
X-25090476Y25767023D01*
X-25280952Y25814642D01*
X-25423809Y25814642D01*
X-25614285Y25767023D01*
X-25709523Y25719404D01*
X-25804761Y25624166D01*
X-25852380Y25481309D01*
X-25852380Y25243214D01*
X-18661285Y21010619D02*
X-18661285Y22010619D01*
X-19042238Y22010619D01*
X-19137476Y21963000D01*
X-19185095Y21915380D01*
X-19232714Y21820142D01*
X-19232714Y21677285D01*
X-19185095Y21582047D01*
X-19137476Y21534428D01*
X-19042238Y21486809D01*
X-18661285Y21486809D01*
X-19661285Y21010619D02*
X-19661285Y21677285D01*
X-19661285Y22010619D02*
X-19613666Y21963000D01*
X-19661285Y21915380D01*
X-19708904Y21963000D01*
X-19661285Y22010619D01*
X-19661285Y21915380D01*
X-20518428Y21058238D02*
X-20423190Y21010619D01*
X-20232714Y21010619D01*
X-20137476Y21058238D01*
X-20089857Y21153476D01*
X-20089857Y21534428D01*
X-20137476Y21629666D01*
X-20232714Y21677285D01*
X-20423190Y21677285D01*
X-20518428Y21629666D01*
X-20566047Y21534428D01*
X-20566047Y21439190D01*
X-20089857Y21343952D01*
X-20899380Y21677285D02*
X-21423190Y21677285D01*
X-20899380Y21010619D01*
X-21423190Y21010619D01*
X-21947000Y21010619D02*
X-21851761Y21058238D01*
X-21804142Y21105857D01*
X-21756523Y21201095D01*
X-21756523Y21486809D01*
X-21804142Y21582047D01*
X-21851761Y21629666D01*
X-21947000Y21677285D01*
X-22089857Y21677285D01*
X-22185095Y21629666D01*
X-22232714Y21582047D01*
X-22280333Y21486809D01*
X-22280333Y21201095D01*
X-22232714Y21105857D01*
X-22185095Y21058238D01*
X-22089857Y21010619D01*
X-21947000Y21010619D01*
D11*
X3810000Y-31115000D02*
X3810000Y-21590000D01*
X24130000Y-31115000D02*
X3810000Y-31115000D01*
X24130000Y-21590000D02*
X24130000Y-31115000D01*
X3810000Y-21590000D02*
X24130000Y-21590000D01*
X-3810000Y-40640000D02*
X-24130000Y-40640000D01*
X-3810000Y-21590000D02*
X-3810000Y-40640000D01*
X-24130000Y-21590000D02*
X-3810000Y-21590000D01*
X-24130000Y-40640000D02*
X-24130000Y-21590000D01*
D10*
X-8860404Y-38806380D02*
X-8288976Y-38806380D01*
X-8574690Y-38806380D02*
X-8574690Y-37806380D01*
X-8479452Y-37949238D01*
X-8384214Y-38044476D01*
X-8288976Y-38092095D01*
X-9336595Y-38758761D02*
X-9336595Y-38806380D01*
X-9288976Y-38901619D01*
X-9241357Y-38949238D01*
X-10527071Y-38806380D02*
X-10527071Y-37806380D01*
X-10527071Y-38187333D02*
X-10622309Y-38139714D01*
X-10812785Y-38139714D01*
X-10908023Y-38187333D01*
X-10955642Y-38234952D01*
X-11003261Y-38330190D01*
X-11003261Y-38615904D01*
X-10955642Y-38711142D01*
X-10908023Y-38758761D01*
X-10812785Y-38806380D01*
X-10622309Y-38806380D01*
X-10527071Y-38758761D01*
X-11574690Y-38806380D02*
X-11479452Y-38758761D01*
X-11431833Y-38663523D01*
X-11431833Y-37806380D01*
X-12384214Y-38139714D02*
X-12384214Y-38806380D01*
X-11955642Y-38139714D02*
X-11955642Y-38663523D01*
X-12003261Y-38758761D01*
X-12098499Y-38806380D01*
X-12241357Y-38806380D01*
X-12336595Y-38758761D01*
X-12384214Y-38711142D01*
X-13241357Y-38758761D02*
X-13146119Y-38806380D01*
X-12955642Y-38806380D01*
X-12860404Y-38758761D01*
X-12812785Y-38663523D01*
X-12812785Y-38282571D01*
X-12860404Y-38187333D01*
X-12955642Y-38139714D01*
X-13146119Y-38139714D01*
X-13241357Y-38187333D01*
X-13288976Y-38282571D01*
X-13288976Y-38377809D01*
X-12812785Y-38473047D01*
X-13765166Y-38758761D02*
X-13765166Y-38806380D01*
X-13717547Y-38901619D01*
X-13669928Y-38949238D01*
X-14908023Y-38758761D02*
X-15003261Y-38806380D01*
X-15193738Y-38806380D01*
X-15288976Y-38758761D01*
X-15336595Y-38663523D01*
X-15336595Y-38615904D01*
X-15288976Y-38520666D01*
X-15193738Y-38473047D01*
X-15050880Y-38473047D01*
X-14955642Y-38425428D01*
X-14908023Y-38330190D01*
X-14908023Y-38282571D01*
X-14955642Y-38187333D01*
X-15050880Y-38139714D01*
X-15193738Y-38139714D01*
X-15288976Y-38187333D01*
X-15765166Y-38806380D02*
X-15765166Y-37806380D01*
X-16193738Y-38806380D02*
X-16193738Y-38282571D01*
X-16146119Y-38187333D01*
X-16050880Y-38139714D01*
X-15908023Y-38139714D01*
X-15812785Y-38187333D01*
X-15765166Y-38234952D01*
X-17098499Y-38806380D02*
X-17098499Y-38282571D01*
X-17050880Y-38187333D01*
X-16955642Y-38139714D01*
X-16765166Y-38139714D01*
X-16669928Y-38187333D01*
X-17098499Y-38758761D02*
X-17003261Y-38806380D01*
X-16765166Y-38806380D01*
X-16669928Y-38758761D01*
X-16622309Y-38663523D01*
X-16622309Y-38568285D01*
X-16669928Y-38473047D01*
X-16765166Y-38425428D01*
X-17003261Y-38425428D01*
X-17098499Y-38377809D01*
X-17574690Y-38806380D02*
X-17574690Y-37806380D01*
X-17669928Y-38425428D02*
X-17955642Y-38806380D01*
X-17955642Y-38139714D02*
X-17574690Y-38520666D01*
X-18765166Y-38758761D02*
X-18669928Y-38806380D01*
X-18479452Y-38806380D01*
X-18384214Y-38758761D01*
X-18336595Y-38663523D01*
X-18336595Y-38282571D01*
X-18384214Y-38187333D01*
X-18479452Y-38139714D01*
X-18669928Y-38139714D01*
X-18765166Y-38187333D01*
X-18812785Y-38282571D01*
X-18812785Y-38377809D01*
X-18336595Y-38473047D01*
X-19241357Y-38711142D02*
X-19288976Y-38758761D01*
X-19241357Y-38806380D01*
X-19193738Y-38758761D01*
X-19241357Y-38711142D01*
X-19241357Y-38806380D01*
X-8288976Y-31551619D02*
X-8336595Y-31504000D01*
X-8431833Y-31456380D01*
X-8669928Y-31456380D01*
X-8765166Y-31504000D01*
X-8812785Y-31551619D01*
X-8860404Y-31646857D01*
X-8860404Y-31742095D01*
X-8812785Y-31884952D01*
X-8241357Y-32456380D01*
X-8860404Y-32456380D01*
X-9336595Y-32408761D02*
X-9336595Y-32456380D01*
X-9288976Y-32551619D01*
X-9241357Y-32599238D01*
X-10431833Y-31789714D02*
X-10622309Y-32456380D01*
X-10812785Y-31980190D01*
X-11003261Y-32456380D01*
X-11193738Y-31789714D01*
X-11574690Y-32456380D02*
X-11574690Y-31456380D01*
X-12003261Y-32456380D02*
X-12003261Y-31932571D01*
X-11955642Y-31837333D01*
X-11860404Y-31789714D01*
X-11717547Y-31789714D01*
X-11622309Y-31837333D01*
X-11574690Y-31884952D01*
X-12479452Y-32456380D02*
X-12479452Y-31789714D01*
X-12479452Y-31456380D02*
X-12431833Y-31504000D01*
X-12479452Y-31551619D01*
X-12527071Y-31504000D01*
X-12479452Y-31456380D01*
X-12479452Y-31551619D01*
X-12812785Y-31789714D02*
X-13193738Y-31789714D01*
X-12955642Y-31456380D02*
X-12955642Y-32313523D01*
X-13003261Y-32408761D01*
X-13098499Y-32456380D01*
X-13193738Y-32456380D01*
X-13908023Y-32408761D02*
X-13812785Y-32456380D01*
X-13622309Y-32456380D01*
X-13527071Y-32408761D01*
X-13479452Y-32313523D01*
X-13479452Y-31932571D01*
X-13527071Y-31837333D01*
X-13622309Y-31789714D01*
X-13812785Y-31789714D01*
X-13908023Y-31837333D01*
X-13955642Y-31932571D01*
X-13955642Y-32027809D01*
X-13479452Y-32123047D01*
X-14431833Y-32408761D02*
X-14431833Y-32456380D01*
X-14384214Y-32551619D01*
X-14336595Y-32599238D01*
X-15622309Y-32456380D02*
X-15622309Y-31456380D01*
X-16193738Y-32456380D01*
X-16193738Y-31456380D01*
X-16527071Y-31456380D02*
X-17098499Y-31456380D01*
X-16812785Y-32456380D02*
X-16812785Y-31456380D01*
X-18003261Y-32361142D02*
X-17955642Y-32408761D01*
X-17812785Y-32456380D01*
X-17717547Y-32456380D01*
X-17574690Y-32408761D01*
X-17479452Y-32313523D01*
X-17431833Y-32218285D01*
X-17384214Y-32027809D01*
X-17384214Y-31884952D01*
X-17431833Y-31694476D01*
X-17479452Y-31599238D01*
X-17574690Y-31504000D01*
X-17717547Y-31456380D01*
X-17812785Y-31456380D01*
X-17955642Y-31504000D01*
X-18003261Y-31551619D01*
X-18431833Y-32361142D02*
X-18479452Y-32408761D01*
X-18431833Y-32456380D01*
X-18384214Y-32408761D01*
X-18431833Y-32361142D01*
X-18431833Y-32456380D01*
X22803333Y-23312380D02*
X22803333Y-22312380D01*
X22422380Y-22312380D01*
X22327142Y-22360000D01*
X22279523Y-22407619D01*
X22231904Y-22502857D01*
X22231904Y-22645714D01*
X22279523Y-22740952D01*
X22327142Y-22788571D01*
X22422380Y-22836190D01*
X22803333Y-22836190D01*
X21660476Y-23312380D02*
X21755714Y-23264761D01*
X21803333Y-23217142D01*
X21850952Y-23121904D01*
X21850952Y-22836190D01*
X21803333Y-22740952D01*
X21755714Y-22693333D01*
X21660476Y-22645714D01*
X21517619Y-22645714D01*
X21422380Y-22693333D01*
X21374761Y-22740952D01*
X21327142Y-22836190D01*
X21327142Y-23121904D01*
X21374761Y-23217142D01*
X21422380Y-23264761D01*
X21517619Y-23312380D01*
X21660476Y-23312380D01*
X20993809Y-22645714D02*
X20803333Y-23312380D01*
X20612857Y-22836190D01*
X20422380Y-23312380D01*
X20231904Y-22645714D01*
X19470000Y-23264761D02*
X19565238Y-23312380D01*
X19755714Y-23312380D01*
X19850952Y-23264761D01*
X19898571Y-23169523D01*
X19898571Y-22788571D01*
X19850952Y-22693333D01*
X19755714Y-22645714D01*
X19565238Y-22645714D01*
X19470000Y-22693333D01*
X19422380Y-22788571D01*
X19422380Y-22883809D01*
X19898571Y-22979047D01*
X18993809Y-23312380D02*
X18993809Y-22645714D01*
X18993809Y-22836190D02*
X18946190Y-22740952D01*
X18898571Y-22693333D01*
X18803333Y-22645714D01*
X18708095Y-22645714D01*
X17660476Y-23264761D02*
X17565238Y-23312380D01*
X17374761Y-23312380D01*
X17279523Y-23264761D01*
X17231904Y-23169523D01*
X17231904Y-23121904D01*
X17279523Y-23026666D01*
X17374761Y-22979047D01*
X17517619Y-22979047D01*
X17612857Y-22931428D01*
X17660476Y-22836190D01*
X17660476Y-22788571D01*
X17612857Y-22693333D01*
X17517619Y-22645714D01*
X17374761Y-22645714D01*
X17279523Y-22693333D01*
X16374761Y-22645714D02*
X16374761Y-23312380D01*
X16803333Y-22645714D02*
X16803333Y-23169523D01*
X16755714Y-23264761D01*
X16660476Y-23312380D01*
X16517619Y-23312380D01*
X16422380Y-23264761D01*
X16374761Y-23217142D01*
X15898571Y-22645714D02*
X15898571Y-23645714D01*
X15898571Y-22693333D02*
X15803333Y-22645714D01*
X15612857Y-22645714D01*
X15517619Y-22693333D01*
X15470000Y-22740952D01*
X15422380Y-22836190D01*
X15422380Y-23121904D01*
X15470000Y-23217142D01*
X15517619Y-23264761D01*
X15612857Y-23312380D01*
X15803333Y-23312380D01*
X15898571Y-23264761D01*
X14993809Y-22645714D02*
X14993809Y-23645714D01*
X14993809Y-22693333D02*
X14898571Y-22645714D01*
X14708095Y-22645714D01*
X14612857Y-22693333D01*
X14565238Y-22740952D01*
X14517619Y-22836190D01*
X14517619Y-23121904D01*
X14565238Y-23217142D01*
X14612857Y-23264761D01*
X14708095Y-23312380D01*
X14898571Y-23312380D01*
X14993809Y-23264761D01*
X13946190Y-23312380D02*
X14041428Y-23264761D01*
X14089047Y-23169523D01*
X14089047Y-22312380D01*
X13660476Y-22645714D02*
X13422380Y-23312380D01*
X13184285Y-22645714D02*
X13422380Y-23312380D01*
X13517619Y-23550476D01*
X13565238Y-23598095D01*
X13660476Y-23645714D01*
X11612857Y-23264761D02*
X11708095Y-23312380D01*
X11898571Y-23312380D01*
X11993809Y-23264761D01*
X12041428Y-23217142D01*
X12089047Y-23121904D01*
X12089047Y-22836190D01*
X12041428Y-22740952D01*
X11993809Y-22693333D01*
X11898571Y-22645714D01*
X11708095Y-22645714D01*
X11612857Y-22693333D01*
X11041428Y-23312380D02*
X11136666Y-23264761D01*
X11184285Y-23217142D01*
X11231904Y-23121904D01*
X11231904Y-22836190D01*
X11184285Y-22740952D01*
X11136666Y-22693333D01*
X11041428Y-22645714D01*
X10898571Y-22645714D01*
X10803333Y-22693333D01*
X10755714Y-22740952D01*
X10708095Y-22836190D01*
X10708095Y-23121904D01*
X10755714Y-23217142D01*
X10803333Y-23264761D01*
X10898571Y-23312380D01*
X11041428Y-23312380D01*
X10279523Y-22645714D02*
X10279523Y-23312380D01*
X10279523Y-22740952D02*
X10231904Y-22693333D01*
X10136666Y-22645714D01*
X9993809Y-22645714D01*
X9898571Y-22693333D01*
X9850952Y-22788571D01*
X9850952Y-23312380D01*
X9374761Y-22645714D02*
X9374761Y-23312380D01*
X9374761Y-22740952D02*
X9327142Y-22693333D01*
X9231904Y-22645714D01*
X9089047Y-22645714D01*
X8993809Y-22693333D01*
X8946190Y-22788571D01*
X8946190Y-23312380D01*
X8089047Y-23264761D02*
X8184285Y-23312380D01*
X8374761Y-23312380D01*
X8470000Y-23264761D01*
X8517619Y-23169523D01*
X8517619Y-22788571D01*
X8470000Y-22693333D01*
X8374761Y-22645714D01*
X8184285Y-22645714D01*
X8089047Y-22693333D01*
X8041428Y-22788571D01*
X8041428Y-22883809D01*
X8517619Y-22979047D01*
X7184285Y-23264761D02*
X7279523Y-23312380D01*
X7470000Y-23312380D01*
X7565238Y-23264761D01*
X7612857Y-23217142D01*
X7660476Y-23121904D01*
X7660476Y-22836190D01*
X7612857Y-22740952D01*
X7565238Y-22693333D01*
X7470000Y-22645714D01*
X7279523Y-22645714D01*
X7184285Y-22693333D01*
X6898571Y-22645714D02*
X6517619Y-22645714D01*
X6755714Y-22312380D02*
X6755714Y-23169523D01*
X6708095Y-23264761D01*
X6612857Y-23312380D01*
X6517619Y-23312380D01*
X6041428Y-23312380D02*
X6136666Y-23264761D01*
X6184285Y-23217142D01*
X6231904Y-23121904D01*
X6231904Y-22836190D01*
X6184285Y-22740952D01*
X6136666Y-22693333D01*
X6041428Y-22645714D01*
X5898571Y-22645714D01*
X5803333Y-22693333D01*
X5755714Y-22740952D01*
X5708095Y-22836190D01*
X5708095Y-23121904D01*
X5755714Y-23217142D01*
X5803333Y-23264761D01*
X5898571Y-23312380D01*
X6041428Y-23312380D01*
X5279523Y-23312380D02*
X5279523Y-22645714D01*
X5279523Y-22836190D02*
X5231904Y-22740952D01*
X5184285Y-22693333D01*
X5089047Y-22645714D01*
X4993809Y-22645714D01*
X-5874761Y-23264761D02*
X-6017619Y-23312380D01*
X-6255714Y-23312380D01*
X-6350952Y-23264761D01*
X-6398571Y-23217142D01*
X-6446190Y-23121904D01*
X-6446190Y-23026666D01*
X-6398571Y-22931428D01*
X-6350952Y-22883809D01*
X-6255714Y-22836190D01*
X-6065238Y-22788571D01*
X-5970000Y-22740952D01*
X-5922380Y-22693333D01*
X-5874761Y-22598095D01*
X-5874761Y-22502857D01*
X-5922380Y-22407619D01*
X-5970000Y-22360000D01*
X-6065238Y-22312380D01*
X-6303333Y-22312380D01*
X-6446190Y-22360000D01*
X-7017619Y-23312380D02*
X-6922380Y-23264761D01*
X-6874761Y-23217142D01*
X-6827142Y-23121904D01*
X-6827142Y-22836190D01*
X-6874761Y-22740952D01*
X-6922380Y-22693333D01*
X-7017619Y-22645714D01*
X-7160476Y-22645714D01*
X-7255714Y-22693333D01*
X-7303333Y-22740952D01*
X-7350952Y-22836190D01*
X-7350952Y-23121904D01*
X-7303333Y-23217142D01*
X-7255714Y-23264761D01*
X-7160476Y-23312380D01*
X-7017619Y-23312380D01*
X-7922380Y-23312380D02*
X-7827142Y-23264761D01*
X-7779523Y-23169523D01*
X-7779523Y-22312380D01*
X-8731904Y-23312380D02*
X-8731904Y-22312380D01*
X-8731904Y-23264761D02*
X-8636666Y-23312380D01*
X-8446190Y-23312380D01*
X-8350952Y-23264761D01*
X-8303333Y-23217142D01*
X-8255714Y-23121904D01*
X-8255714Y-22836190D01*
X-8303333Y-22740952D01*
X-8350952Y-22693333D01*
X-8446190Y-22645714D01*
X-8636666Y-22645714D01*
X-8731904Y-22693333D01*
X-9589047Y-23264761D02*
X-9493809Y-23312380D01*
X-9303333Y-23312380D01*
X-9208095Y-23264761D01*
X-9160476Y-23169523D01*
X-9160476Y-22788571D01*
X-9208095Y-22693333D01*
X-9303333Y-22645714D01*
X-9493809Y-22645714D01*
X-9589047Y-22693333D01*
X-9636666Y-22788571D01*
X-9636666Y-22883809D01*
X-9160476Y-22979047D01*
X-10065238Y-23312380D02*
X-10065238Y-22645714D01*
X-10065238Y-22836190D02*
X-10112857Y-22740952D01*
X-10160476Y-22693333D01*
X-10255714Y-22645714D01*
X-10350952Y-22645714D01*
X-11446190Y-23312380D02*
X-11446190Y-22645714D01*
X-11446190Y-22312380D02*
X-11398571Y-22360000D01*
X-11446190Y-22407619D01*
X-11493809Y-22360000D01*
X-11446190Y-22312380D01*
X-11446190Y-22407619D01*
X-11922380Y-23312380D02*
X-11922380Y-22645714D01*
X-11922380Y-22836190D02*
X-11969999Y-22740952D01*
X-12017619Y-22693333D01*
X-12112857Y-22645714D01*
X-12208095Y-22645714D01*
X-12684285Y-23312380D02*
X-12589047Y-23264761D01*
X-12541428Y-23217142D01*
X-12493809Y-23121904D01*
X-12493809Y-22836190D01*
X-12541428Y-22740952D01*
X-12589047Y-22693333D01*
X-12684285Y-22645714D01*
X-12827142Y-22645714D01*
X-12922380Y-22693333D01*
X-12969999Y-22740952D01*
X-13017619Y-22836190D01*
X-13017619Y-23121904D01*
X-12969999Y-23217142D01*
X-12922380Y-23264761D01*
X-12827142Y-23312380D01*
X-12684285Y-23312380D01*
X-13446190Y-22645714D02*
X-13446190Y-23312380D01*
X-13446190Y-22740952D02*
X-13493809Y-22693333D01*
X-13589047Y-22645714D01*
X-13731904Y-22645714D01*
X-13827142Y-22693333D01*
X-13874761Y-22788571D01*
X-13874761Y-23312380D01*
X-15541428Y-23264761D02*
X-15446190Y-23312380D01*
X-15255714Y-23312380D01*
X-15160476Y-23264761D01*
X-15112857Y-23217142D01*
X-15065238Y-23121904D01*
X-15065238Y-22836190D01*
X-15112857Y-22740952D01*
X-15160476Y-22693333D01*
X-15255714Y-22645714D01*
X-15446190Y-22645714D01*
X-15541428Y-22693333D01*
X-16112857Y-23312380D02*
X-16017619Y-23264761D01*
X-15970000Y-23217142D01*
X-15922380Y-23121904D01*
X-15922380Y-22836190D01*
X-15970000Y-22740952D01*
X-16017619Y-22693333D01*
X-16112857Y-22645714D01*
X-16255714Y-22645714D01*
X-16350952Y-22693333D01*
X-16398571Y-22740952D01*
X-16446190Y-22836190D01*
X-16446190Y-23121904D01*
X-16398571Y-23217142D01*
X-16350952Y-23264761D01*
X-16255714Y-23312380D01*
X-16112857Y-23312380D01*
X-16874761Y-22645714D02*
X-16874761Y-23312380D01*
X-16874761Y-22740952D02*
X-16922380Y-22693333D01*
X-17017619Y-22645714D01*
X-17160476Y-22645714D01*
X-17255714Y-22693333D01*
X-17303333Y-22788571D01*
X-17303333Y-23312380D01*
X-17779523Y-22645714D02*
X-17779523Y-23312380D01*
X-17779523Y-22740952D02*
X-17827142Y-22693333D01*
X-17922380Y-22645714D01*
X-18065238Y-22645714D01*
X-18160476Y-22693333D01*
X-18208095Y-22788571D01*
X-18208095Y-23312380D01*
X-19065238Y-23264761D02*
X-18970000Y-23312380D01*
X-18779523Y-23312380D01*
X-18684285Y-23264761D01*
X-18636666Y-23169523D01*
X-18636666Y-22788571D01*
X-18684285Y-22693333D01*
X-18779523Y-22645714D01*
X-18970000Y-22645714D01*
X-19065238Y-22693333D01*
X-19112857Y-22788571D01*
X-19112857Y-22883809D01*
X-18636666Y-22979047D01*
X-19970000Y-23264761D02*
X-19874761Y-23312380D01*
X-19684285Y-23312380D01*
X-19589047Y-23264761D01*
X-19541428Y-23217142D01*
X-19493809Y-23121904D01*
X-19493809Y-22836190D01*
X-19541428Y-22740952D01*
X-19589047Y-22693333D01*
X-19684285Y-22645714D01*
X-19874761Y-22645714D01*
X-19970000Y-22693333D01*
X-20255714Y-22645714D02*
X-20636666Y-22645714D01*
X-20398571Y-22312380D02*
X-20398571Y-23169523D01*
X-20446190Y-23264761D01*
X-20541428Y-23312380D01*
X-20636666Y-23312380D01*
X-21112857Y-23312380D02*
X-21017619Y-23264761D01*
X-20970000Y-23217142D01*
X-20922380Y-23121904D01*
X-20922380Y-22836190D01*
X-20970000Y-22740952D01*
X-21017619Y-22693333D01*
X-21112857Y-22645714D01*
X-21255714Y-22645714D01*
X-21350952Y-22693333D01*
X-21398571Y-22740952D01*
X-21446190Y-22836190D01*
X-21446190Y-23121904D01*
X-21398571Y-23217142D01*
X-21350952Y-23264761D01*
X-21255714Y-23312380D01*
X-21112857Y-23312380D01*
X-21874761Y-23312380D02*
X-21874761Y-22645714D01*
X-21874761Y-22836190D02*
X-21922380Y-22740952D01*
X-21970000Y-22693333D01*
X-22065238Y-22645714D01*
X-22160476Y-22645714D01*
X-8241357Y-25106380D02*
X-8860404Y-25106380D01*
X-8527071Y-25487333D01*
X-8669928Y-25487333D01*
X-8765166Y-25534952D01*
X-8812785Y-25582571D01*
X-8860404Y-25677809D01*
X-8860404Y-25915904D01*
X-8812785Y-26011142D01*
X-8765166Y-26058761D01*
X-8669928Y-26106380D01*
X-8384214Y-26106380D01*
X-8288976Y-26058761D01*
X-8241357Y-26011142D01*
X-9336595Y-26058761D02*
X-9336595Y-26106380D01*
X-9288976Y-26201619D01*
X-9241357Y-26249238D01*
X-10955642Y-25439714D02*
X-10955642Y-26249238D01*
X-10908023Y-26344476D01*
X-10860404Y-26392095D01*
X-10765166Y-26439714D01*
X-10622309Y-26439714D01*
X-10527071Y-26392095D01*
X-10955642Y-26058761D02*
X-10860404Y-26106380D01*
X-10669928Y-26106380D01*
X-10574690Y-26058761D01*
X-10527071Y-26011142D01*
X-10479452Y-25915904D01*
X-10479452Y-25630190D01*
X-10527071Y-25534952D01*
X-10574690Y-25487333D01*
X-10669928Y-25439714D01*
X-10860404Y-25439714D01*
X-10955642Y-25487333D01*
X-11431833Y-26106380D02*
X-11431833Y-25439714D01*
X-11431833Y-25630190D02*
X-11479452Y-25534952D01*
X-11527071Y-25487333D01*
X-11622309Y-25439714D01*
X-11717547Y-25439714D01*
X-12431833Y-26058761D02*
X-12336595Y-26106380D01*
X-12146119Y-26106380D01*
X-12050880Y-26058761D01*
X-12003261Y-25963523D01*
X-12003261Y-25582571D01*
X-12050880Y-25487333D01*
X-12146119Y-25439714D01*
X-12336595Y-25439714D01*
X-12431833Y-25487333D01*
X-12479452Y-25582571D01*
X-12479452Y-25677809D01*
X-12003261Y-25773047D01*
X-13288976Y-26058761D02*
X-13193738Y-26106380D01*
X-13003261Y-26106380D01*
X-12908023Y-26058761D01*
X-12860404Y-25963523D01*
X-12860404Y-25582571D01*
X-12908023Y-25487333D01*
X-13003261Y-25439714D01*
X-13193738Y-25439714D01*
X-13288976Y-25487333D01*
X-13336595Y-25582571D01*
X-13336595Y-25677809D01*
X-12860404Y-25773047D01*
X-13765166Y-25439714D02*
X-13765166Y-26106380D01*
X-13765166Y-25534952D02*
X-13812785Y-25487333D01*
X-13908023Y-25439714D01*
X-14050880Y-25439714D01*
X-14146119Y-25487333D01*
X-14193738Y-25582571D01*
X-14193738Y-26106380D01*
X-14717547Y-26058761D02*
X-14717547Y-26106380D01*
X-14669928Y-26201619D01*
X-14622309Y-26249238D01*
X-16288976Y-26058761D02*
X-16193738Y-26106380D01*
X-16003261Y-26106380D01*
X-15908023Y-26058761D01*
X-15860404Y-25963523D01*
X-15860404Y-25582571D01*
X-15908023Y-25487333D01*
X-16003261Y-25439714D01*
X-16193738Y-25439714D01*
X-16288976Y-25487333D01*
X-16336595Y-25582571D01*
X-16336595Y-25677809D01*
X-15860404Y-25773047D01*
X-17193738Y-26106380D02*
X-17193738Y-25582571D01*
X-17146119Y-25487333D01*
X-17050880Y-25439714D01*
X-16860404Y-25439714D01*
X-16765166Y-25487333D01*
X-17193738Y-26058761D02*
X-17098500Y-26106380D01*
X-16860404Y-26106380D01*
X-16765166Y-26058761D01*
X-16717547Y-25963523D01*
X-16717547Y-25868285D01*
X-16765166Y-25773047D01*
X-16860404Y-25725428D01*
X-17098500Y-25725428D01*
X-17193738Y-25677809D01*
X-17669928Y-26106380D02*
X-17669928Y-25439714D01*
X-17669928Y-25630190D02*
X-17717547Y-25534952D01*
X-17765166Y-25487333D01*
X-17860404Y-25439714D01*
X-17955642Y-25439714D01*
X-18146119Y-25439714D02*
X-18527071Y-25439714D01*
X-18288976Y-25106380D02*
X-18288976Y-25963523D01*
X-18336595Y-26058761D01*
X-18431833Y-26106380D01*
X-18527071Y-26106380D01*
X-18860404Y-26106380D02*
X-18860404Y-25106380D01*
X-19288976Y-26106380D02*
X-19288976Y-25582571D01*
X-19241357Y-25487333D01*
X-19146119Y-25439714D01*
X-19003261Y-25439714D01*
X-18908023Y-25487333D01*
X-18860404Y-25534952D01*
X-19765166Y-26011142D02*
X-19812785Y-26058761D01*
X-19765166Y-26106380D01*
X-19717547Y-26058761D01*
X-19765166Y-26011142D01*
X-19765166Y-26106380D01*
X-8812785Y-28281380D02*
X-8336595Y-28281380D01*
X-8288976Y-28757571D01*
X-8336595Y-28709952D01*
X-8431833Y-28662333D01*
X-8669928Y-28662333D01*
X-8765166Y-28709952D01*
X-8812785Y-28757571D01*
X-8860404Y-28852809D01*
X-8860404Y-29090904D01*
X-8812785Y-29186142D01*
X-8765166Y-29233761D01*
X-8669928Y-29281380D01*
X-8431833Y-29281380D01*
X-8336595Y-29233761D01*
X-8288976Y-29186142D01*
X-9336595Y-29233761D02*
X-9336595Y-29281380D01*
X-9288976Y-29376619D01*
X-9241357Y-29424238D01*
X-10527071Y-29281380D02*
X-10527071Y-28614714D01*
X-10527071Y-28805190D02*
X-10574690Y-28709952D01*
X-10622309Y-28662333D01*
X-10717547Y-28614714D01*
X-10812785Y-28614714D01*
X-11527071Y-29233761D02*
X-11431833Y-29281380D01*
X-11241357Y-29281380D01*
X-11146119Y-29233761D01*
X-11098500Y-29138523D01*
X-11098500Y-28757571D01*
X-11146119Y-28662333D01*
X-11241357Y-28614714D01*
X-11431833Y-28614714D01*
X-11527071Y-28662333D01*
X-11574690Y-28757571D01*
X-11574690Y-28852809D01*
X-11098500Y-28948047D01*
X-12431833Y-29281380D02*
X-12431833Y-28281380D01*
X-12431833Y-29233761D02*
X-12336595Y-29281380D01*
X-12146119Y-29281380D01*
X-12050880Y-29233761D01*
X-12003261Y-29186142D01*
X-11955642Y-29090904D01*
X-11955642Y-28805190D01*
X-12003261Y-28709952D01*
X-12050880Y-28662333D01*
X-12146119Y-28614714D01*
X-12336595Y-28614714D01*
X-12431833Y-28662333D01*
X-12955642Y-29233761D02*
X-12955642Y-29281380D01*
X-12908023Y-29376619D01*
X-12860404Y-29424238D01*
X-14146119Y-28900428D02*
X-14908023Y-28900428D01*
X-14527071Y-29281380D02*
X-14527071Y-28519476D01*
X-15384214Y-29186142D02*
X-15431833Y-29233761D01*
X-15384214Y-29281380D01*
X-15336595Y-29233761D01*
X-15384214Y-29186142D01*
X-15384214Y-29281380D01*
X-8765166Y-34964714D02*
X-8765166Y-35631380D01*
X-8527071Y-34583761D02*
X-8288976Y-35298047D01*
X-8908023Y-35298047D01*
X-9336595Y-35583761D02*
X-9336595Y-35631380D01*
X-9288976Y-35726619D01*
X-9241357Y-35774238D01*
X-10527071Y-35631380D02*
X-10527071Y-34631380D01*
X-10527071Y-35012333D02*
X-10622309Y-34964714D01*
X-10812785Y-34964714D01*
X-10908023Y-35012333D01*
X-10955642Y-35059952D01*
X-11003261Y-35155190D01*
X-11003261Y-35440904D01*
X-10955642Y-35536142D01*
X-10908023Y-35583761D01*
X-10812785Y-35631380D01*
X-10622309Y-35631380D01*
X-10527071Y-35583761D01*
X-11574690Y-35631380D02*
X-11479452Y-35583761D01*
X-11431833Y-35488523D01*
X-11431833Y-34631380D01*
X-12384214Y-35631380D02*
X-12384214Y-35107571D01*
X-12336595Y-35012333D01*
X-12241357Y-34964714D01*
X-12050880Y-34964714D01*
X-11955642Y-35012333D01*
X-12384214Y-35583761D02*
X-12288976Y-35631380D01*
X-12050880Y-35631380D01*
X-11955642Y-35583761D01*
X-11908023Y-35488523D01*
X-11908023Y-35393285D01*
X-11955642Y-35298047D01*
X-12050880Y-35250428D01*
X-12288976Y-35250428D01*
X-12384214Y-35202809D01*
X-13288976Y-35583761D02*
X-13193738Y-35631380D01*
X-13003261Y-35631380D01*
X-12908023Y-35583761D01*
X-12860404Y-35536142D01*
X-12812785Y-35440904D01*
X-12812785Y-35155190D01*
X-12860404Y-35059952D01*
X-12908023Y-35012333D01*
X-13003261Y-34964714D01*
X-13193738Y-34964714D01*
X-13288976Y-35012333D01*
X-13717547Y-35631380D02*
X-13717547Y-34631380D01*
X-13812785Y-35250428D02*
X-14098499Y-35631380D01*
X-14098499Y-34964714D02*
X-13717547Y-35345666D01*
X-14574690Y-35583761D02*
X-14574690Y-35631380D01*
X-14527071Y-35726619D01*
X-14479452Y-35774238D01*
X-16193738Y-34964714D02*
X-16193738Y-35774238D01*
X-16146119Y-35869476D01*
X-16098499Y-35917095D01*
X-16003261Y-35964714D01*
X-15860404Y-35964714D01*
X-15765166Y-35917095D01*
X-16193738Y-35583761D02*
X-16098499Y-35631380D01*
X-15908023Y-35631380D01*
X-15812785Y-35583761D01*
X-15765166Y-35536142D01*
X-15717547Y-35440904D01*
X-15717547Y-35155190D01*
X-15765166Y-35059952D01*
X-15812785Y-35012333D01*
X-15908023Y-34964714D01*
X-16098499Y-34964714D01*
X-16193738Y-35012333D01*
X-16669928Y-35631380D02*
X-16669928Y-34964714D01*
X-16669928Y-35155190D02*
X-16717547Y-35059952D01*
X-16765166Y-35012333D01*
X-16860404Y-34964714D01*
X-16955642Y-34964714D01*
X-17431833Y-35631380D02*
X-17336595Y-35583761D01*
X-17288976Y-35536142D01*
X-17241357Y-35440904D01*
X-17241357Y-35155190D01*
X-17288976Y-35059952D01*
X-17336595Y-35012333D01*
X-17431833Y-34964714D01*
X-17574690Y-34964714D01*
X-17669928Y-35012333D01*
X-17717547Y-35059952D01*
X-17765166Y-35155190D01*
X-17765166Y-35440904D01*
X-17717547Y-35536142D01*
X-17669928Y-35583761D01*
X-17574690Y-35631380D01*
X-17431833Y-35631380D01*
X-18622309Y-34964714D02*
X-18622309Y-35631380D01*
X-18193738Y-34964714D02*
X-18193738Y-35488523D01*
X-18241357Y-35583761D01*
X-18336595Y-35631380D01*
X-18479452Y-35631380D01*
X-18574690Y-35583761D01*
X-18622309Y-35536142D01*
X-19098499Y-34964714D02*
X-19098499Y-35631380D01*
X-19098499Y-35059952D02*
X-19146119Y-35012333D01*
X-19241357Y-34964714D01*
X-19384214Y-34964714D01*
X-19479452Y-35012333D01*
X-19527071Y-35107571D01*
X-19527071Y-35631380D01*
X-20431833Y-35631380D02*
X-20431833Y-34631380D01*
X-20431833Y-35583761D02*
X-20336595Y-35631380D01*
X-20146119Y-35631380D01*
X-20050880Y-35583761D01*
X-20003261Y-35536142D01*
X-19955642Y-35440904D01*
X-19955642Y-35155190D01*
X-20003261Y-35059952D01*
X-20050880Y-35012333D01*
X-20146119Y-34964714D01*
X-20336595Y-34964714D01*
X-20431833Y-35012333D01*
X-20908023Y-35536142D02*
X-20955642Y-35583761D01*
X-20908023Y-35631380D01*
X-20860404Y-35583761D01*
X-20908023Y-35536142D01*
X-20908023Y-35631380D01*
X16017619Y-25893571D02*
X15684285Y-25893571D01*
X15541428Y-26417380D02*
X16017619Y-26417380D01*
X16017619Y-25417380D01*
X15541428Y-25417380D01*
X15160476Y-26131666D02*
X14684285Y-26131666D01*
X15255714Y-26417380D02*
X14922380Y-25417380D01*
X14589047Y-26417380D01*
X13684285Y-26417380D02*
X14017619Y-25941190D01*
X14255714Y-26417380D02*
X14255714Y-25417380D01*
X13874761Y-25417380D01*
X13779523Y-25465000D01*
X13731904Y-25512619D01*
X13684285Y-25607857D01*
X13684285Y-25750714D01*
X13731904Y-25845952D01*
X13779523Y-25893571D01*
X13874761Y-25941190D01*
X14255714Y-25941190D01*
X13398571Y-25417380D02*
X12827142Y-25417380D01*
X13112857Y-26417380D02*
X13112857Y-25417380D01*
X12493809Y-26417380D02*
X12493809Y-25417380D01*
X12493809Y-25893571D02*
X11922380Y-25893571D01*
X11922380Y-26417380D02*
X11922380Y-25417380D01*
X9651904Y-25465000D02*
X9747142Y-25417380D01*
X9890000Y-25417380D01*
X10032857Y-25465000D01*
X10128095Y-25560238D01*
X10175714Y-25655476D01*
X10223333Y-25845952D01*
X10223333Y-25988809D01*
X10175714Y-26179285D01*
X10128095Y-26274523D01*
X10032857Y-26369761D01*
X9890000Y-26417380D01*
X9794761Y-26417380D01*
X9651904Y-26369761D01*
X9604285Y-26322142D01*
X9604285Y-25988809D01*
X9794761Y-25988809D01*
X9175714Y-26417380D02*
X9175714Y-25417380D01*
X8604285Y-26417380D01*
X8604285Y-25417380D01*
X8128095Y-26417380D02*
X8128095Y-25417380D01*
X7890000Y-25417380D01*
X7747142Y-25465000D01*
X7651904Y-25560238D01*
X7604285Y-25655476D01*
X7556666Y-25845952D01*
X7556666Y-25988809D01*
X7604285Y-26179285D01*
X7651904Y-26274523D01*
X7747142Y-26369761D01*
X7890000Y-26417380D01*
X8128095Y-26417380D01*
X20240476Y-25512619D02*
X20192857Y-25465000D01*
X20097619Y-25417380D01*
X19859523Y-25417380D01*
X19764285Y-25465000D01*
X19716666Y-25512619D01*
X19669047Y-25607857D01*
X19669047Y-25703095D01*
X19716666Y-25845952D01*
X20288095Y-26417380D01*
X19669047Y-26417380D01*
X18811904Y-25750714D02*
X18811904Y-26417380D01*
X19050000Y-25369761D02*
X19288095Y-26084047D01*
X18669047Y-26084047D01*
X18430952Y-25417380D02*
X18097619Y-26417380D01*
X17764285Y-25417380D01*
D12*
%TO.C,G\u002A\u002A\u002A*%
G36*
X-28042566Y8217927D02*
G01*
X-28409073Y8002357D01*
X-28839405Y7632169D01*
X-28921470Y7551457D01*
X-29547972Y6815480D01*
X-30105173Y5933226D01*
X-30587535Y4915284D01*
X-30989521Y3772246D01*
X-31098966Y3386666D01*
X-31184750Y3061415D01*
X-31249406Y2788756D01*
X-31295939Y2536279D01*
X-31327351Y2271570D01*
X-31346647Y1962216D01*
X-31356829Y1575803D01*
X-31360903Y1079919D01*
X-31361804Y550333D01*
X-31360215Y-95790D01*
X-31352912Y-606158D01*
X-31337555Y-1014317D01*
X-31311804Y-1353810D01*
X-31273321Y-1658184D01*
X-31219765Y-1960983D01*
X-31170039Y-2199241D01*
X-30864323Y-3300323D01*
X-30454863Y-4268577D01*
X-29940530Y-5105876D01*
X-29320193Y-5814092D01*
X-28668838Y-6343690D01*
X-28309311Y-6544505D01*
X-27962285Y-6658075D01*
X-27900259Y-6667453D01*
X-27657107Y-6678486D01*
X-27501925Y-6622415D01*
X-27357921Y-6471228D01*
X-27356148Y-6468976D01*
X-27220421Y-6191375D01*
X-27253040Y-5915656D01*
X-27454439Y-5639331D01*
X-27510170Y-5588000D01*
X-27701700Y-5421071D01*
X-27961833Y-5195557D01*
X-28205648Y-4984961D01*
X-28709381Y-4445278D01*
X-29136088Y-3771319D01*
X-29482566Y-2981203D01*
X-29745608Y-2093052D01*
X-29922010Y-1124983D01*
X-30008566Y-95118D01*
X-30002071Y978425D01*
X-29899320Y2077525D01*
X-29697106Y3184062D01*
X-29670686Y3296960D01*
X-29379300Y4279695D01*
X-28998787Y5139557D01*
X-28514197Y5905897D01*
X-28068273Y6442558D01*
X-27790091Y6754808D01*
X-27545560Y7049206D01*
X-27364565Y7288596D01*
X-27285413Y7415911D01*
X-27208601Y7615311D01*
X-27221677Y7776852D01*
X-27297338Y7943851D01*
X-27489564Y8187982D01*
X-27737018Y8279572D01*
X-28042566Y8217927D01*
G37*
X-28042566Y8217927D02*
X-28409073Y8002357D01*
X-28839405Y7632169D01*
X-28921470Y7551457D01*
X-29547972Y6815480D01*
X-30105173Y5933226D01*
X-30587535Y4915284D01*
X-30989521Y3772246D01*
X-31098966Y3386666D01*
X-31184750Y3061415D01*
X-31249406Y2788756D01*
X-31295939Y2536279D01*
X-31327351Y2271570D01*
X-31346647Y1962216D01*
X-31356829Y1575803D01*
X-31360903Y1079919D01*
X-31361804Y550333D01*
X-31360215Y-95790D01*
X-31352912Y-606158D01*
X-31337555Y-1014317D01*
X-31311804Y-1353810D01*
X-31273321Y-1658184D01*
X-31219765Y-1960983D01*
X-31170039Y-2199241D01*
X-30864323Y-3300323D01*
X-30454863Y-4268577D01*
X-29940530Y-5105876D01*
X-29320193Y-5814092D01*
X-28668838Y-6343690D01*
X-28309311Y-6544505D01*
X-27962285Y-6658075D01*
X-27900259Y-6667453D01*
X-27657107Y-6678486D01*
X-27501925Y-6622415D01*
X-27357921Y-6471228D01*
X-27356148Y-6468976D01*
X-27220421Y-6191375D01*
X-27253040Y-5915656D01*
X-27454439Y-5639331D01*
X-27510170Y-5588000D01*
X-27701700Y-5421071D01*
X-27961833Y-5195557D01*
X-28205648Y-4984961D01*
X-28709381Y-4445278D01*
X-29136088Y-3771319D01*
X-29482566Y-2981203D01*
X-29745608Y-2093052D01*
X-29922010Y-1124983D01*
X-30008566Y-95118D01*
X-30002071Y978425D01*
X-29899320Y2077525D01*
X-29697106Y3184062D01*
X-29670686Y3296960D01*
X-29379300Y4279695D01*
X-28998787Y5139557D01*
X-28514197Y5905897D01*
X-28068273Y6442558D01*
X-27790091Y6754808D01*
X-27545560Y7049206D01*
X-27364565Y7288596D01*
X-27285413Y7415911D01*
X-27208601Y7615311D01*
X-27221677Y7776852D01*
X-27297338Y7943851D01*
X-27489564Y8187982D01*
X-27737018Y8279572D01*
X-28042566Y8217927D01*
G36*
X18504666Y4013730D02*
G01*
X18230016Y3935522D01*
X17690471Y3640907D01*
X17232639Y3206935D01*
X16862733Y2645824D01*
X16586968Y1969787D01*
X16411558Y1191040D01*
X16342715Y321798D01*
X16341919Y223888D01*
X16404545Y-707725D01*
X16597680Y-1537326D01*
X16924769Y-2274835D01*
X17389259Y-2930174D01*
X17468594Y-3019375D01*
X17913394Y-3440414D01*
X18368226Y-3720988D01*
X18881047Y-3883333D01*
X19472632Y-3948603D01*
X19997271Y-3947517D01*
X20411031Y-3898378D01*
X20546554Y-3862927D01*
X21180222Y-3569450D01*
X21721896Y-3142342D01*
X22163144Y-2595252D01*
X22495537Y-1941826D01*
X22710642Y-1195714D01*
X22800029Y-370563D01*
X22800447Y-338667D01*
X21375367Y-338667D01*
X21370907Y-732351D01*
X21349513Y-1010040D01*
X21300796Y-1224948D01*
X21214366Y-1430286D01*
X21131805Y-1586069D01*
X20802051Y-2034483D01*
X20394364Y-2347073D01*
X19931085Y-2515280D01*
X19434551Y-2530547D01*
X18983781Y-2408992D01*
X18743564Y-2273437D01*
X18467235Y-2067170D01*
X18306236Y-1922820D01*
X17977154Y-1487072D01*
X17750520Y-938271D01*
X17630891Y-301538D01*
X17622823Y398008D01*
X17730874Y1135248D01*
X17742367Y1185333D01*
X17925555Y1755786D01*
X18176467Y2174929D01*
X18503907Y2450206D01*
X18916682Y2589063D01*
X19415532Y2599685D01*
X19932613Y2484518D01*
X20369203Y2233233D01*
X20742971Y1833948D01*
X20893849Y1605370D01*
X21112976Y1201594D01*
X21256441Y824514D01*
X21338155Y417973D01*
X21372027Y-74188D01*
X21375367Y-338667D01*
X22800447Y-338667D01*
X22802114Y-211667D01*
X22734680Y647457D01*
X22541307Y1451025D01*
X22232243Y2179826D01*
X21817736Y2814646D01*
X21308036Y3336273D01*
X20713391Y3725494D01*
X20697763Y3733244D01*
X20185968Y3923739D01*
X19612442Y4037051D01*
X19033303Y4068581D01*
X18504666Y4013730D01*
G37*
X18504666Y4013730D02*
X18230016Y3935522D01*
X17690471Y3640907D01*
X17232639Y3206935D01*
X16862733Y2645824D01*
X16586968Y1969787D01*
X16411558Y1191040D01*
X16342715Y321798D01*
X16341919Y223888D01*
X16404545Y-707725D01*
X16597680Y-1537326D01*
X16924769Y-2274835D01*
X17389259Y-2930174D01*
X17468594Y-3019375D01*
X17913394Y-3440414D01*
X18368226Y-3720988D01*
X18881047Y-3883333D01*
X19472632Y-3948603D01*
X19997271Y-3947517D01*
X20411031Y-3898378D01*
X20546554Y-3862927D01*
X21180222Y-3569450D01*
X21721896Y-3142342D01*
X22163144Y-2595252D01*
X22495537Y-1941826D01*
X22710642Y-1195714D01*
X22800029Y-370563D01*
X22800447Y-338667D01*
X21375367Y-338667D01*
X21370907Y-732351D01*
X21349513Y-1010040D01*
X21300796Y-1224948D01*
X21214366Y-1430286D01*
X21131805Y-1586069D01*
X20802051Y-2034483D01*
X20394364Y-2347073D01*
X19931085Y-2515280D01*
X19434551Y-2530547D01*
X18983781Y-2408992D01*
X18743564Y-2273437D01*
X18467235Y-2067170D01*
X18306236Y-1922820D01*
X17977154Y-1487072D01*
X17750520Y-938271D01*
X17630891Y-301538D01*
X17622823Y398008D01*
X17730874Y1135248D01*
X17742367Y1185333D01*
X17925555Y1755786D01*
X18176467Y2174929D01*
X18503907Y2450206D01*
X18916682Y2589063D01*
X19415532Y2599685D01*
X19932613Y2484518D01*
X20369203Y2233233D01*
X20742971Y1833948D01*
X20893849Y1605370D01*
X21112976Y1201594D01*
X21256441Y824514D01*
X21338155Y417973D01*
X21372027Y-74188D01*
X21375367Y-338667D01*
X22800447Y-338667D01*
X22802114Y-211667D01*
X22734680Y647457D01*
X22541307Y1451025D01*
X22232243Y2179826D01*
X21817736Y2814646D01*
X21308036Y3336273D01*
X20713391Y3725494D01*
X20697763Y3733244D01*
X20185968Y3923739D01*
X19612442Y4037051D01*
X19033303Y4068581D01*
X18504666Y4013730D01*
G36*
X28232997Y7438352D02*
G01*
X27593601Y7420480D01*
X26971675Y7392759D01*
X26398283Y7355512D01*
X26011426Y7320756D01*
X25370676Y7250075D01*
X24879165Y7182483D01*
X24517234Y7108923D01*
X24265224Y7020340D01*
X24103476Y6907678D01*
X24012333Y6761882D01*
X23972134Y6573894D01*
X23963360Y6377312D01*
X23987485Y6113225D01*
X24086286Y5936108D01*
X24183752Y5848145D01*
X24360539Y5748874D01*
X24599847Y5692081D01*
X24925513Y5677128D01*
X25361377Y5703374D01*
X25931277Y5770183D01*
X26119667Y5796292D01*
X26481755Y5840984D01*
X26780149Y5865146D01*
X26976047Y5866351D01*
X27030542Y5853204D01*
X27065186Y5737439D01*
X27097547Y5474487D01*
X27127336Y5085106D01*
X27154264Y4590056D01*
X27178041Y4010099D01*
X27198378Y3365992D01*
X27214986Y2678496D01*
X27227574Y1968371D01*
X27235854Y1256377D01*
X27239536Y563273D01*
X27238331Y-90181D01*
X27231949Y-683225D01*
X27220101Y-1195100D01*
X27202498Y-1605044D01*
X27178850Y-1892300D01*
X27148867Y-2036107D01*
X27140680Y-2046981D01*
X27031366Y-2064299D01*
X26785667Y-2072627D01*
X26436304Y-2071745D01*
X26015998Y-2061435D01*
X25858251Y-2055561D01*
X24655476Y-2006828D01*
X24435072Y-2227232D01*
X24257477Y-2509701D01*
X24206326Y-2838009D01*
X24282856Y-3154716D01*
X24411153Y-3336850D01*
X24473947Y-3395085D01*
X24545776Y-3441074D01*
X24646918Y-3476839D01*
X24797648Y-3504407D01*
X25018243Y-3525801D01*
X25328977Y-3543047D01*
X25750127Y-3558169D01*
X26301969Y-3573191D01*
X26929987Y-3588367D01*
X27580367Y-3605062D01*
X28210729Y-3623614D01*
X28790567Y-3642944D01*
X29289371Y-3661975D01*
X29676635Y-3679631D01*
X29903355Y-3693360D01*
X30237215Y-3715092D01*
X30450337Y-3711207D01*
X30590519Y-3672515D01*
X30705556Y-3589828D01*
X30771188Y-3526510D01*
X30951005Y-3245940D01*
X30985822Y-2939056D01*
X30875003Y-2651784D01*
X30784774Y-2547929D01*
X30660529Y-2455219D01*
X30494616Y-2388837D01*
X30249112Y-2339335D01*
X29886094Y-2297262D01*
X29717282Y-2281937D01*
X29341269Y-2240669D01*
X29021542Y-2189704D01*
X28800534Y-2136669D01*
X28729558Y-2104404D01*
X28694976Y-2053912D01*
X28667948Y-1955120D01*
X28647890Y-1791064D01*
X28634221Y-1544784D01*
X28626359Y-1199317D01*
X28623723Y-737701D01*
X28625729Y-142975D01*
X28631797Y601825D01*
X28632883Y713529D01*
X28637341Y1451931D01*
X28636771Y2203622D01*
X28631564Y2933634D01*
X28622114Y3607003D01*
X28608812Y4188761D01*
X28592051Y4643943D01*
X28587899Y4724334D01*
X28516130Y6019669D01*
X29631553Y5994334D01*
X30746975Y5969000D01*
X30952155Y6206554D01*
X31109950Y6489784D01*
X31155664Y6806078D01*
X31082536Y7090254D01*
X31049233Y7142805D01*
X30899708Y7256648D01*
X30665272Y7352703D01*
X30604733Y7368634D01*
X30343970Y7404867D01*
X29945349Y7429632D01*
X29439936Y7443252D01*
X28858797Y7446050D01*
X28232997Y7438352D01*
G37*
X28232997Y7438352D02*
X27593601Y7420480D01*
X26971675Y7392759D01*
X26398283Y7355512D01*
X26011426Y7320756D01*
X25370676Y7250075D01*
X24879165Y7182483D01*
X24517234Y7108923D01*
X24265224Y7020340D01*
X24103476Y6907678D01*
X24012333Y6761882D01*
X23972134Y6573894D01*
X23963360Y6377312D01*
X23987485Y6113225D01*
X24086286Y5936108D01*
X24183752Y5848145D01*
X24360539Y5748874D01*
X24599847Y5692081D01*
X24925513Y5677128D01*
X25361377Y5703374D01*
X25931277Y5770183D01*
X26119667Y5796292D01*
X26481755Y5840984D01*
X26780149Y5865146D01*
X26976047Y5866351D01*
X27030542Y5853204D01*
X27065186Y5737439D01*
X27097547Y5474487D01*
X27127336Y5085106D01*
X27154264Y4590056D01*
X27178041Y4010099D01*
X27198378Y3365992D01*
X27214986Y2678496D01*
X27227574Y1968371D01*
X27235854Y1256377D01*
X27239536Y563273D01*
X27238331Y-90181D01*
X27231949Y-683225D01*
X27220101Y-1195100D01*
X27202498Y-1605044D01*
X27178850Y-1892300D01*
X27148867Y-2036107D01*
X27140680Y-2046981D01*
X27031366Y-2064299D01*
X26785667Y-2072627D01*
X26436304Y-2071745D01*
X26015998Y-2061435D01*
X25858251Y-2055561D01*
X24655476Y-2006828D01*
X24435072Y-2227232D01*
X24257477Y-2509701D01*
X24206326Y-2838009D01*
X24282856Y-3154716D01*
X24411153Y-3336850D01*
X24473947Y-3395085D01*
X24545776Y-3441074D01*
X24646918Y-3476839D01*
X24797648Y-3504407D01*
X25018243Y-3525801D01*
X25328977Y-3543047D01*
X25750127Y-3558169D01*
X26301969Y-3573191D01*
X26929987Y-3588367D01*
X27580367Y-3605062D01*
X28210729Y-3623614D01*
X28790567Y-3642944D01*
X29289371Y-3661975D01*
X29676635Y-3679631D01*
X29903355Y-3693360D01*
X30237215Y-3715092D01*
X30450337Y-3711207D01*
X30590519Y-3672515D01*
X30705556Y-3589828D01*
X30771188Y-3526510D01*
X30951005Y-3245940D01*
X30985822Y-2939056D01*
X30875003Y-2651784D01*
X30784774Y-2547929D01*
X30660529Y-2455219D01*
X30494616Y-2388837D01*
X30249112Y-2339335D01*
X29886094Y-2297262D01*
X29717282Y-2281937D01*
X29341269Y-2240669D01*
X29021542Y-2189704D01*
X28800534Y-2136669D01*
X28729558Y-2104404D01*
X28694976Y-2053912D01*
X28667948Y-1955120D01*
X28647890Y-1791064D01*
X28634221Y-1544784D01*
X28626359Y-1199317D01*
X28623723Y-737701D01*
X28625729Y-142975D01*
X28631797Y601825D01*
X28632883Y713529D01*
X28637341Y1451931D01*
X28636771Y2203622D01*
X28631564Y2933634D01*
X28622114Y3607003D01*
X28608812Y4188761D01*
X28592051Y4643943D01*
X28587899Y4724334D01*
X28516130Y6019669D01*
X29631553Y5994334D01*
X30746975Y5969000D01*
X30952155Y6206554D01*
X31109950Y6489784D01*
X31155664Y6806078D01*
X31082536Y7090254D01*
X31049233Y7142805D01*
X30899708Y7256648D01*
X30665272Y7352703D01*
X30604733Y7368634D01*
X30343970Y7404867D01*
X29945349Y7429632D01*
X29439936Y7443252D01*
X28858797Y7446050D01*
X28232997Y7438352D01*
G36*
X13616031Y7588006D02*
G01*
X13411195Y7575283D01*
X13059342Y7559662D01*
X12582748Y7541878D01*
X12003691Y7522664D01*
X11344448Y7502755D01*
X10627295Y7482886D01*
X9874510Y7463792D01*
X9779000Y7461496D01*
X8770351Y7436640D01*
X7917072Y7413426D01*
X7205227Y7390696D01*
X6620876Y7367290D01*
X6150080Y7342049D01*
X5778902Y7313813D01*
X5493402Y7281423D01*
X5279641Y7243721D01*
X5123682Y7199545D01*
X5011585Y7147738D01*
X4929412Y7087140D01*
X4897339Y7055479D01*
X4729471Y6766900D01*
X4711005Y6450821D01*
X4839326Y6154333D01*
X4954246Y6031119D01*
X5077672Y5933068D01*
X5197501Y5874142D01*
X5355549Y5848069D01*
X5593630Y5848581D01*
X5953561Y5869408D01*
X6008346Y5873069D01*
X6405189Y5897599D01*
X6909981Y5925702D01*
X7461474Y5954116D01*
X7998421Y5979583D01*
X8064500Y5982531D01*
X9313334Y6037771D01*
X9312774Y5453052D01*
X9305836Y5174281D01*
X9286957Y4767771D01*
X9258465Y4274515D01*
X9222689Y3735507D01*
X9190627Y3302000D01*
X9150797Y2746804D01*
X9107586Y2072360D01*
X9063884Y1328641D01*
X9022580Y565616D01*
X8986563Y-166745D01*
X8974386Y-437556D01*
X8943842Y-1196833D01*
X8926746Y-1806557D01*
X8925085Y-2286121D01*
X8940843Y-2654918D01*
X8976005Y-2932338D01*
X9032557Y-3137775D01*
X9112483Y-3290620D01*
X9217769Y-3410267D01*
X9284460Y-3466794D01*
X9528431Y-3608413D01*
X9771951Y-3616604D01*
X9964565Y-3555188D01*
X10223969Y-3367004D01*
X10363754Y-3072204D01*
X10372856Y-2694131D01*
X10372810Y-2693817D01*
X10359135Y-2477643D01*
X10356815Y-2114835D01*
X10364699Y-1627632D01*
X10381636Y-1038270D01*
X10406473Y-368989D01*
X10438059Y357975D01*
X10475240Y1120385D01*
X10516867Y1896002D01*
X10561786Y2662589D01*
X10608845Y3397908D01*
X10656894Y4079722D01*
X10704779Y4685792D01*
X10751349Y5193883D01*
X10795452Y5581755D01*
X10805107Y5651500D01*
X10845007Y5926666D01*
X11836004Y5929620D01*
X12401869Y5945854D01*
X12959394Y5987969D01*
X13471726Y6051068D01*
X13902016Y6130257D01*
X14213413Y6220642D01*
X14290605Y6255667D01*
X14461642Y6429067D01*
X14574456Y6694390D01*
X14604739Y6977653D01*
X14574925Y7120971D01*
X14430844Y7388112D01*
X14227354Y7541784D01*
X13929647Y7598943D01*
X13616031Y7588006D01*
G37*
X13616031Y7588006D02*
X13411195Y7575283D01*
X13059342Y7559662D01*
X12582748Y7541878D01*
X12003691Y7522664D01*
X11344448Y7502755D01*
X10627295Y7482886D01*
X9874510Y7463792D01*
X9779000Y7461496D01*
X8770351Y7436640D01*
X7917072Y7413426D01*
X7205227Y7390696D01*
X6620876Y7367290D01*
X6150080Y7342049D01*
X5778902Y7313813D01*
X5493402Y7281423D01*
X5279641Y7243721D01*
X5123682Y7199545D01*
X5011585Y7147738D01*
X4929412Y7087140D01*
X4897339Y7055479D01*
X4729471Y6766900D01*
X4711005Y6450821D01*
X4839326Y6154333D01*
X4954246Y6031119D01*
X5077672Y5933068D01*
X5197501Y5874142D01*
X5355549Y5848069D01*
X5593630Y5848581D01*
X5953561Y5869408D01*
X6008346Y5873069D01*
X6405189Y5897599D01*
X6909981Y5925702D01*
X7461474Y5954116D01*
X7998421Y5979583D01*
X8064500Y5982531D01*
X9313334Y6037771D01*
X9312774Y5453052D01*
X9305836Y5174281D01*
X9286957Y4767771D01*
X9258465Y4274515D01*
X9222689Y3735507D01*
X9190627Y3302000D01*
X9150797Y2746804D01*
X9107586Y2072360D01*
X9063884Y1328641D01*
X9022580Y565616D01*
X8986563Y-166745D01*
X8974386Y-437556D01*
X8943842Y-1196833D01*
X8926746Y-1806557D01*
X8925085Y-2286121D01*
X8940843Y-2654918D01*
X8976005Y-2932338D01*
X9032557Y-3137775D01*
X9112483Y-3290620D01*
X9217769Y-3410267D01*
X9284460Y-3466794D01*
X9528431Y-3608413D01*
X9771951Y-3616604D01*
X9964565Y-3555188D01*
X10223969Y-3367004D01*
X10363754Y-3072204D01*
X10372856Y-2694131D01*
X10372810Y-2693817D01*
X10359135Y-2477643D01*
X10356815Y-2114835D01*
X10364699Y-1627632D01*
X10381636Y-1038270D01*
X10406473Y-368989D01*
X10438059Y357975D01*
X10475240Y1120385D01*
X10516867Y1896002D01*
X10561786Y2662589D01*
X10608845Y3397908D01*
X10656894Y4079722D01*
X10704779Y4685792D01*
X10751349Y5193883D01*
X10795452Y5581755D01*
X10805107Y5651500D01*
X10845007Y5926666D01*
X11836004Y5929620D01*
X12401869Y5945854D01*
X12959394Y5987969D01*
X13471726Y6051068D01*
X13902016Y6130257D01*
X14213413Y6220642D01*
X14290605Y6255667D01*
X14461642Y6429067D01*
X14574456Y6694390D01*
X14604739Y6977653D01*
X14574925Y7120971D01*
X14430844Y7388112D01*
X14227354Y7541784D01*
X13929647Y7598943D01*
X13616031Y7588006D01*
G36*
X741673Y7882806D02*
G01*
X658012Y7810500D01*
X616467Y7741730D01*
X585371Y7628854D01*
X563727Y7451249D01*
X550531Y7188293D01*
X544785Y6819363D01*
X545488Y6323837D01*
X551639Y5681093D01*
X552244Y5630333D01*
X566595Y4940202D01*
X592226Y4214635D01*
X626703Y3502819D01*
X667589Y2853940D01*
X712447Y2317184D01*
X719971Y2243666D01*
X792764Y1405286D01*
X836938Y561009D01*
X851809Y-247327D01*
X836696Y-977882D01*
X790917Y-1588816D01*
X783469Y-1651000D01*
X719667Y-2159000D01*
X182863Y-2168990D01*
X-148360Y-2188477D01*
X-363458Y-2240963D01*
X-514539Y-2340185D01*
X-532570Y-2357608D01*
X-689016Y-2622125D01*
X-710110Y-2927815D01*
X-598938Y-3218345D01*
X-477878Y-3355306D01*
X-396039Y-3421759D01*
X-310198Y-3471475D01*
X-196309Y-3506697D01*
X-30325Y-3529669D01*
X211800Y-3542635D01*
X554112Y-3547836D01*
X1020659Y-3547516D01*
X1549888Y-3544470D01*
X2095234Y-3539341D01*
X2592167Y-3531607D01*
X3012474Y-3521953D01*
X3327940Y-3511063D01*
X3510352Y-3499621D01*
X3534089Y-3496346D01*
X3767470Y-3373704D01*
X3921854Y-3141130D01*
X3975995Y-2847871D01*
X3926740Y-2586127D01*
X3772119Y-2405909D01*
X3477524Y-2266992D01*
X3069340Y-2179085D01*
X2751667Y-2153763D01*
X2159000Y-2133774D01*
X2170315Y-1892387D01*
X2179234Y-1717320D01*
X2195376Y-1414403D01*
X2216521Y-1024855D01*
X2240447Y-589898D01*
X2242639Y-550334D01*
X2263816Y217416D01*
X2241767Y1033225D01*
X2174916Y1953457D01*
X2171615Y1989666D01*
X2111978Y2672351D01*
X2060126Y3329750D01*
X2017189Y3941230D01*
X1984299Y4486161D01*
X1962586Y4943911D01*
X1953180Y5293849D01*
X1957213Y5515343D01*
X1974439Y5588000D01*
X2065835Y5545186D01*
X2259051Y5432215D01*
X2514637Y5272287D01*
X2550270Y5249333D01*
X2945705Y5025124D01*
X3254059Y4927545D01*
X3497380Y4953751D01*
X3697715Y5100896D01*
X3697959Y5101166D01*
X3877325Y5359555D01*
X3925754Y5607564D01*
X3836730Y5863216D01*
X3603737Y6144535D01*
X3220260Y6469543D01*
X3196806Y6487425D01*
X2851484Y6756269D01*
X2477368Y7057623D01*
X2189213Y7297739D01*
X1724907Y7651736D01*
X1324237Y7868802D01*
X994171Y7946602D01*
X741673Y7882806D01*
G37*
X741673Y7882806D02*
X658012Y7810500D01*
X616467Y7741730D01*
X585371Y7628854D01*
X563727Y7451249D01*
X550531Y7188293D01*
X544785Y6819363D01*
X545488Y6323837D01*
X551639Y5681093D01*
X552244Y5630333D01*
X566595Y4940202D01*
X592226Y4214635D01*
X626703Y3502819D01*
X667589Y2853940D01*
X712447Y2317184D01*
X719971Y2243666D01*
X792764Y1405286D01*
X836938Y561009D01*
X851809Y-247327D01*
X836696Y-977882D01*
X790917Y-1588816D01*
X783469Y-1651000D01*
X719667Y-2159000D01*
X182863Y-2168990D01*
X-148360Y-2188477D01*
X-363458Y-2240963D01*
X-514539Y-2340185D01*
X-532570Y-2357608D01*
X-689016Y-2622125D01*
X-710110Y-2927815D01*
X-598938Y-3218345D01*
X-477878Y-3355306D01*
X-396039Y-3421759D01*
X-310198Y-3471475D01*
X-196309Y-3506697D01*
X-30325Y-3529669D01*
X211800Y-3542635D01*
X554112Y-3547836D01*
X1020659Y-3547516D01*
X1549888Y-3544470D01*
X2095234Y-3539341D01*
X2592167Y-3531607D01*
X3012474Y-3521953D01*
X3327940Y-3511063D01*
X3510352Y-3499621D01*
X3534089Y-3496346D01*
X3767470Y-3373704D01*
X3921854Y-3141130D01*
X3975995Y-2847871D01*
X3926740Y-2586127D01*
X3772119Y-2405909D01*
X3477524Y-2266992D01*
X3069340Y-2179085D01*
X2751667Y-2153763D01*
X2159000Y-2133774D01*
X2170315Y-1892387D01*
X2179234Y-1717320D01*
X2195376Y-1414403D01*
X2216521Y-1024855D01*
X2240447Y-589898D01*
X2242639Y-550334D01*
X2263816Y217416D01*
X2241767Y1033225D01*
X2174916Y1953457D01*
X2171615Y1989666D01*
X2111978Y2672351D01*
X2060126Y3329750D01*
X2017189Y3941230D01*
X1984299Y4486161D01*
X1962586Y4943911D01*
X1953180Y5293849D01*
X1957213Y5515343D01*
X1974439Y5588000D01*
X2065835Y5545186D01*
X2259051Y5432215D01*
X2514637Y5272287D01*
X2550270Y5249333D01*
X2945705Y5025124D01*
X3254059Y4927545D01*
X3497380Y4953751D01*
X3697715Y5100896D01*
X3697959Y5101166D01*
X3877325Y5359555D01*
X3925754Y5607564D01*
X3836730Y5863216D01*
X3603737Y6144535D01*
X3220260Y6469543D01*
X3196806Y6487425D01*
X2851484Y6756269D01*
X2477368Y7057623D01*
X2189213Y7297739D01*
X1724907Y7651736D01*
X1324237Y7868802D01*
X994171Y7946602D01*
X741673Y7882806D01*
G36*
X-7010534Y7798592D02*
G01*
X-7746199Y7606664D01*
X-8394766Y7286900D01*
X-8933932Y6850456D01*
X-8959672Y6823602D01*
X-9236601Y6498363D01*
X-9419082Y6187546D01*
X-9521982Y5844549D01*
X-9560170Y5422772D01*
X-9552732Y4964714D01*
X-9488469Y4365171D01*
X-9342670Y3820973D01*
X-9102425Y3314503D01*
X-8754822Y2828143D01*
X-8286953Y2344277D01*
X-7685908Y1845286D01*
X-6938775Y1313553D01*
X-6818231Y1233141D01*
X-6168659Y792466D01*
X-5651833Y416629D01*
X-5250953Y91029D01*
X-4949222Y-198930D01*
X-4729838Y-467848D01*
X-4588720Y-704345D01*
X-4458773Y-1010396D01*
X-4351856Y-1345697D01*
X-4277681Y-1666271D01*
X-4245961Y-1928139D01*
X-4266408Y-2087327D01*
X-4279449Y-2104736D01*
X-4398128Y-2131626D01*
X-4640362Y-2135386D01*
X-4961932Y-2115798D01*
X-5037666Y-2108464D01*
X-5357187Y-2083313D01*
X-5799673Y-2059257D01*
X-6318760Y-2038280D01*
X-6868083Y-2022370D01*
X-7196666Y-2016023D01*
X-7753829Y-2009843D01*
X-8170864Y-2012037D01*
X-8476860Y-2024648D01*
X-8700903Y-2049719D01*
X-8872082Y-2089293D01*
X-9015844Y-2143786D01*
X-9419014Y-2369414D01*
X-9655159Y-2612138D01*
X-9723766Y-2870656D01*
X-9624322Y-3143668D01*
X-9478952Y-3318740D01*
X-9299403Y-3479522D01*
X-9146245Y-3537139D01*
X-8935424Y-3516785D01*
X-8865119Y-3502727D01*
X-8642601Y-3476055D01*
X-8282862Y-3455428D01*
X-7817908Y-3440964D01*
X-7279747Y-3432785D01*
X-6700386Y-3431010D01*
X-6111834Y-3435760D01*
X-5546098Y-3447153D01*
X-5035185Y-3465311D01*
X-4656666Y-3486957D01*
X-4286774Y-3508283D01*
X-3966516Y-3517083D01*
X-3743459Y-3512482D01*
X-3683000Y-3504827D01*
X-3457059Y-3453256D01*
X-3317587Y-3422690D01*
X-3132026Y-3301275D01*
X-2995884Y-3045860D01*
X-2909197Y-2684417D01*
X-2872003Y-2244920D01*
X-2884338Y-1755341D01*
X-2946239Y-1243653D01*
X-3057743Y-737828D01*
X-3218886Y-265840D01*
X-3313166Y-60918D01*
X-3469948Y215232D01*
X-3659938Y478471D01*
X-3901435Y745659D01*
X-4212737Y1033655D01*
X-4612142Y1359321D01*
X-5117946Y1739516D01*
X-5748448Y2191100D01*
X-5785808Y2217428D01*
X-6449970Y2699939D01*
X-6978541Y3121218D01*
X-7385976Y3498525D01*
X-7686727Y3849116D01*
X-7895247Y4190250D01*
X-8025992Y4539186D01*
X-8093412Y4913181D01*
X-8099594Y4980217D01*
X-8088962Y5403518D01*
X-7965672Y5732550D01*
X-7710081Y5999915D01*
X-7357769Y6211244D01*
X-6968211Y6367214D01*
X-6574910Y6428805D01*
X-6396876Y6432807D01*
X-6051985Y6411669D01*
X-5737734Y6340130D01*
X-5418817Y6201955D01*
X-5059929Y5980909D01*
X-4625763Y5660758D01*
X-4494708Y5558108D01*
X-4126532Y5279266D01*
X-3852957Y5103078D01*
X-3647217Y5014111D01*
X-3518714Y4995333D01*
X-3185266Y5056434D01*
X-2969011Y5233523D01*
X-2880326Y5517284D01*
X-2878666Y5570053D01*
X-2893298Y5735818D01*
X-2953397Y5886419D01*
X-3083267Y6058833D01*
X-3307209Y6290037D01*
X-3429512Y6408163D01*
X-4137881Y6998147D01*
X-4865708Y7435096D01*
X-5603036Y7715145D01*
X-6339911Y7834429D01*
X-7010534Y7798592D01*
G37*
X-7010534Y7798592D02*
X-7746199Y7606664D01*
X-8394766Y7286900D01*
X-8933932Y6850456D01*
X-8959672Y6823602D01*
X-9236601Y6498363D01*
X-9419082Y6187546D01*
X-9521982Y5844549D01*
X-9560170Y5422772D01*
X-9552732Y4964714D01*
X-9488469Y4365171D01*
X-9342670Y3820973D01*
X-9102425Y3314503D01*
X-8754822Y2828143D01*
X-8286953Y2344277D01*
X-7685908Y1845286D01*
X-6938775Y1313553D01*
X-6818231Y1233141D01*
X-6168659Y792466D01*
X-5651833Y416629D01*
X-5250953Y91029D01*
X-4949222Y-198930D01*
X-4729838Y-467848D01*
X-4588720Y-704345D01*
X-4458773Y-1010396D01*
X-4351856Y-1345697D01*
X-4277681Y-1666271D01*
X-4245961Y-1928139D01*
X-4266408Y-2087327D01*
X-4279449Y-2104736D01*
X-4398128Y-2131626D01*
X-4640362Y-2135386D01*
X-4961932Y-2115798D01*
X-5037666Y-2108464D01*
X-5357187Y-2083313D01*
X-5799673Y-2059257D01*
X-6318760Y-2038280D01*
X-6868083Y-2022370D01*
X-7196666Y-2016023D01*
X-7753829Y-2009843D01*
X-8170864Y-2012037D01*
X-8476860Y-2024648D01*
X-8700903Y-2049719D01*
X-8872082Y-2089293D01*
X-9015844Y-2143786D01*
X-9419014Y-2369414D01*
X-9655159Y-2612138D01*
X-9723766Y-2870656D01*
X-9624322Y-3143668D01*
X-9478952Y-3318740D01*
X-9299403Y-3479522D01*
X-9146245Y-3537139D01*
X-8935424Y-3516785D01*
X-8865119Y-3502727D01*
X-8642601Y-3476055D01*
X-8282862Y-3455428D01*
X-7817908Y-3440964D01*
X-7279747Y-3432785D01*
X-6700386Y-3431010D01*
X-6111834Y-3435760D01*
X-5546098Y-3447153D01*
X-5035185Y-3465311D01*
X-4656666Y-3486957D01*
X-4286774Y-3508283D01*
X-3966516Y-3517083D01*
X-3743459Y-3512482D01*
X-3683000Y-3504827D01*
X-3457059Y-3453256D01*
X-3317587Y-3422690D01*
X-3132026Y-3301275D01*
X-2995884Y-3045860D01*
X-2909197Y-2684417D01*
X-2872003Y-2244920D01*
X-2884338Y-1755341D01*
X-2946239Y-1243653D01*
X-3057743Y-737828D01*
X-3218886Y-265840D01*
X-3313166Y-60918D01*
X-3469948Y215232D01*
X-3659938Y478471D01*
X-3901435Y745659D01*
X-4212737Y1033655D01*
X-4612142Y1359321D01*
X-5117946Y1739516D01*
X-5748448Y2191100D01*
X-5785808Y2217428D01*
X-6449970Y2699939D01*
X-6978541Y3121218D01*
X-7385976Y3498525D01*
X-7686727Y3849116D01*
X-7895247Y4190250D01*
X-8025992Y4539186D01*
X-8093412Y4913181D01*
X-8099594Y4980217D01*
X-8088962Y5403518D01*
X-7965672Y5732550D01*
X-7710081Y5999915D01*
X-7357769Y6211244D01*
X-6968211Y6367214D01*
X-6574910Y6428805D01*
X-6396876Y6432807D01*
X-6051985Y6411669D01*
X-5737734Y6340130D01*
X-5418817Y6201955D01*
X-5059929Y5980909D01*
X-4625763Y5660758D01*
X-4494708Y5558108D01*
X-4126532Y5279266D01*
X-3852957Y5103078D01*
X-3647217Y5014111D01*
X-3518714Y4995333D01*
X-3185266Y5056434D01*
X-2969011Y5233523D01*
X-2880326Y5517284D01*
X-2878666Y5570053D01*
X-2893298Y5735818D01*
X-2953397Y5886419D01*
X-3083267Y6058833D01*
X-3307209Y6290037D01*
X-3429512Y6408163D01*
X-4137881Y6998147D01*
X-4865708Y7435096D01*
X-5603036Y7715145D01*
X-6339911Y7834429D01*
X-7010534Y7798592D01*
G36*
X-17984122Y-421341D02*
G01*
X-18111909Y-520252D01*
X-18243381Y-743188D01*
X-18351122Y-1072401D01*
X-18421212Y-1445117D01*
X-18439733Y-1798565D01*
X-18426709Y-1939888D01*
X-18318924Y-2226512D01*
X-18120556Y-2463636D01*
X-17877976Y-2604134D01*
X-17754112Y-2623419D01*
X-17535322Y-2583981D01*
X-17356666Y-2515378D01*
X-17145967Y-2314400D01*
X-17008233Y-1960829D01*
X-16943426Y-1454555D01*
X-16938112Y-1263592D01*
X-16944282Y-944705D01*
X-16978666Y-741611D01*
X-17054920Y-601395D01*
X-17129290Y-522759D01*
X-17393112Y-373001D01*
X-17699541Y-339140D01*
X-17984122Y-421341D01*
G37*
X-17984122Y-421341D02*
X-18111909Y-520252D01*
X-18243381Y-743188D01*
X-18351122Y-1072401D01*
X-18421212Y-1445117D01*
X-18439733Y-1798565D01*
X-18426709Y-1939888D01*
X-18318924Y-2226512D01*
X-18120556Y-2463636D01*
X-17877976Y-2604134D01*
X-17754112Y-2623419D01*
X-17535322Y-2583981D01*
X-17356666Y-2515378D01*
X-17145967Y-2314400D01*
X-17008233Y-1960829D01*
X-16943426Y-1454555D01*
X-16938112Y-1263592D01*
X-16944282Y-944705D01*
X-16978666Y-741611D01*
X-17054920Y-601395D01*
X-17129290Y-522759D01*
X-17393112Y-373001D01*
X-17699541Y-339140D01*
X-17984122Y-421341D01*
G36*
X-24862378Y987734D02*
G01*
X-25144386Y970399D01*
X-25296088Y940682D01*
X-25308741Y934861D01*
X-25478358Y758349D01*
X-25556169Y499317D01*
X-25533017Y272959D01*
X-25479015Y163927D01*
X-25381444Y77538D01*
X-25221332Y10542D01*
X-24979704Y-40312D01*
X-24637587Y-78274D01*
X-24176008Y-106594D01*
X-23575992Y-128524D01*
X-23119736Y-140489D01*
X-22492884Y-154150D01*
X-22012844Y-160833D01*
X-21657203Y-159528D01*
X-21403547Y-149225D01*
X-21229459Y-128913D01*
X-21112525Y-97584D01*
X-21030331Y-54227D01*
X-21018500Y-45807D01*
X-20866008Y159915D01*
X-20833488Y422178D01*
X-20923745Y675271D01*
X-20984567Y749234D01*
X-21049817Y799805D01*
X-21146772Y839851D01*
X-21296911Y871542D01*
X-21521713Y897048D01*
X-21842658Y918542D01*
X-22281225Y938193D01*
X-22858893Y958172D01*
X-23137975Y966872D01*
X-23868826Y985829D01*
X-24440409Y992830D01*
X-24862378Y987734D01*
G37*
X-24862378Y987734D02*
X-25144386Y970399D01*
X-25296088Y940682D01*
X-25308741Y934861D01*
X-25478358Y758349D01*
X-25556169Y499317D01*
X-25533017Y272959D01*
X-25479015Y163927D01*
X-25381444Y77538D01*
X-25221332Y10542D01*
X-24979704Y-40312D01*
X-24637587Y-78274D01*
X-24176008Y-106594D01*
X-23575992Y-128524D01*
X-23119736Y-140489D01*
X-22492884Y-154150D01*
X-22012844Y-160833D01*
X-21657203Y-159528D01*
X-21403547Y-149225D01*
X-21229459Y-128913D01*
X-21112525Y-97584D01*
X-21030331Y-54227D01*
X-21018500Y-45807D01*
X-20866008Y159915D01*
X-20833488Y422178D01*
X-20923745Y675271D01*
X-20984567Y749234D01*
X-21049817Y799805D01*
X-21146772Y839851D01*
X-21296911Y871542D01*
X-21521713Y897048D01*
X-21842658Y918542D01*
X-22281225Y938193D01*
X-22858893Y958172D01*
X-23137975Y966872D01*
X-23868826Y985829D01*
X-24440409Y992830D01*
X-24862378Y987734D01*
G36*
X-17914576Y4607257D02*
G01*
X-18004767Y4539874D01*
X-18133302Y4409088D01*
X-18209345Y4258159D01*
X-18250844Y4034382D01*
X-18271924Y3755338D01*
X-18266271Y3327010D01*
X-18183459Y3032048D01*
X-18009958Y2846890D01*
X-17732234Y2747977D01*
X-17688973Y2740416D01*
X-17432133Y2734603D01*
X-17223577Y2837022D01*
X-17157570Y2891158D01*
X-16998632Y3114846D01*
X-16878261Y3440015D01*
X-16811347Y3800475D01*
X-16812781Y4130037D01*
X-16847059Y4271438D01*
X-17029381Y4543260D01*
X-17297663Y4696698D01*
X-17607523Y4721461D01*
X-17914576Y4607257D01*
G37*
X-17914576Y4607257D02*
X-18004767Y4539874D01*
X-18133302Y4409088D01*
X-18209345Y4258159D01*
X-18250844Y4034382D01*
X-18271924Y3755338D01*
X-18266271Y3327010D01*
X-18183459Y3032048D01*
X-18009958Y2846890D01*
X-17732234Y2747977D01*
X-17688973Y2740416D01*
X-17432133Y2734603D01*
X-17223577Y2837022D01*
X-17157570Y2891158D01*
X-16998632Y3114846D01*
X-16878261Y3440015D01*
X-16811347Y3800475D01*
X-16812781Y4130037D01*
X-16847059Y4271438D01*
X-17029381Y4543260D01*
X-17297663Y4696698D01*
X-17607523Y4721461D01*
X-17914576Y4607257D01*
D11*
%TO.C,J103*%
X10090000Y-28505000D02*
G75*
G03*
X10090000Y-28505000I-1200000J0D01*
G01*
%TO.C,J102*%
X15170000Y-28505000D02*
G75*
G03*
X15170000Y-28505000I-1200000J0D01*
G01*
%TO.C,J101*%
X20250000Y-28505000D02*
G75*
G03*
X20250000Y-28505000I-1200000J0D01*
G01*
%TO.C,J106*%
X-20390000Y-38100000D02*
G75*
G03*
X-20390000Y-38100000I-1200000J0D01*
G01*
%TO.C,J109*%
X-5150000Y-28575000D02*
G75*
G03*
X-5150000Y-28575000I-1200000J0D01*
G01*
%TO.C,J108*%
X-20390000Y-25400000D02*
G75*
G03*
X-20390000Y-25400000I-1200000J0D01*
G01*
%TO.C,J105*%
X-20390000Y-31750000D02*
G75*
G03*
X-20390000Y-31750000I-1200000J0D01*
G01*
%TO.C,J107*%
X-5150000Y-34925000D02*
G75*
G03*
X-5150000Y-34925000I-1200000J0D01*
G01*
%TO.C,LS1*%
X-17720000Y20380000D02*
X-17720000Y17720000D01*
X-20320000Y20380000D02*
X-17720000Y20380000D01*
X-20320000Y17720000D02*
X-17720000Y17720000D01*
X-20320000Y20380000D02*
X-20320000Y17720000D01*
X-21590000Y20380000D02*
X-22920000Y20380000D01*
X-22920000Y20380000D02*
X-22920000Y19050000D01*
%TO.C,J1*%
X-24070000Y20380000D02*
X-24070000Y17720000D01*
X-36830000Y20380000D02*
X-24070000Y20380000D01*
X-36830000Y17720000D02*
X-24070000Y17720000D01*
X-36830000Y20380000D02*
X-36830000Y17720000D01*
X-38100000Y20380000D02*
X-39430000Y20380000D01*
X-39430000Y20380000D02*
X-39430000Y19050000D01*
%TO.C,F1*%
X9183000Y-35036000D02*
X10805000Y-35036000D01*
X12563000Y-35036000D02*
X19284000Y-35036000D01*
X9183000Y-31836000D02*
X15906000Y-31836000D01*
X17663000Y-31836000D02*
X19284000Y-31836000D01*
X9183000Y-35036000D02*
X9183000Y-31836000D01*
X19284000Y-35036000D02*
X19284000Y-31836000D01*
%TO.C,F2*%
X5630000Y-39100000D02*
X10551000Y-39100000D01*
X12309000Y-39100000D02*
X22330000Y-39100000D01*
X5630000Y-35900000D02*
X15652000Y-35900000D01*
X17409000Y-35900000D02*
X22330000Y-35900000D01*
X5630000Y-39100000D02*
X5630000Y-35900000D01*
X22330000Y-39100000D02*
X22330000Y-35900000D01*
%TO.C,L1*%
X22910000Y22810000D02*
X22910000Y19810000D01*
X35510000Y22810000D02*
X22910000Y22810000D01*
X35510000Y19810000D02*
X35510000Y22810000D01*
X35510000Y10210000D02*
X35510000Y13210000D01*
X22910000Y10210000D02*
X35510000Y10210000D01*
X22910000Y13210000D02*
X22910000Y10210000D01*
%TO.C,C7*%
X20220000Y11691252D02*
X20220000Y11168748D01*
X21690000Y11691252D02*
X21690000Y11168748D01*
%TO.C,A1*%
X-43180000Y-11430000D02*
X-43180000Y-8890000D01*
X5080000Y-8890000D02*
X-43180000Y-8890000D01*
X5080000Y-8890000D02*
X5080000Y-11430000D01*
X-43180000Y-11430000D02*
X5080000Y-11430000D01*
X-43180000Y13970000D02*
X-43180000Y16510000D01*
X5080000Y13970000D02*
X-43180000Y13970000D01*
X5080000Y16510000D02*
X5080000Y13970000D01*
X-43180000Y16510000D02*
X5080000Y16510000D01*
X-43434000Y15494000D02*
X-43434000Y13716000D01*
X-41656000Y13716000D02*
X-43434000Y13716000D01*
X-49149000Y-11684000D02*
X5334000Y-11684000D01*
X-49149000Y16764000D02*
X5334000Y16771000D01*
X5334000Y16764000D02*
X5334000Y-11684000D01*
X-49149000Y16764000D02*
X-49149000Y-11684000D01*
%TD*%
%TO.C,LS1*%
D10*
X-15486142Y19867619D02*
X-15009952Y19867619D01*
X-15009952Y20867619D01*
X-15771857Y19915238D02*
X-15914714Y19867619D01*
X-16152809Y19867619D01*
X-16248047Y19915238D01*
X-16295666Y19962857D01*
X-16343285Y20058095D01*
X-16343285Y20153333D01*
X-16295666Y20248571D01*
X-16248047Y20296190D01*
X-16152809Y20343809D01*
X-15962333Y20391428D01*
X-15867095Y20439047D01*
X-15819476Y20486666D01*
X-15771857Y20581904D01*
X-15771857Y20677142D01*
X-15819476Y20772380D01*
X-15867095Y20820000D01*
X-15962333Y20867619D01*
X-16200428Y20867619D01*
X-16343285Y20820000D01*
X-17295666Y19867619D02*
X-16724238Y19867619D01*
X-17009952Y19867619D02*
X-17009952Y20867619D01*
X-16914714Y20724761D01*
X-16819476Y20629523D01*
X-16724238Y20581904D01*
%TO.C,J1*%
X-40560666Y18581619D02*
X-40560666Y17867333D01*
X-40513047Y17724476D01*
X-40417809Y17629238D01*
X-40274952Y17581619D01*
X-40179714Y17581619D01*
X-41560666Y17581619D02*
X-40989238Y17581619D01*
X-41274952Y17581619D02*
X-41274952Y18581619D01*
X-41179714Y18438761D01*
X-41084476Y18343523D01*
X-40989238Y18295904D01*
%TO.C,F1*%
X20653333Y-33456571D02*
X20986666Y-33456571D01*
X20986666Y-33980380D02*
X20986666Y-32980380D01*
X20510476Y-32980380D01*
X19605714Y-33980380D02*
X20177142Y-33980380D01*
X19891428Y-33980380D02*
X19891428Y-32980380D01*
X19986666Y-33123238D01*
X20081904Y-33218476D01*
X20177142Y-33266095D01*
%TO.C,F2*%
X23701333Y-37520571D02*
X24034666Y-37520571D01*
X24034666Y-38044380D02*
X24034666Y-37044380D01*
X23558476Y-37044380D01*
X23225142Y-37139619D02*
X23177523Y-37092000D01*
X23082285Y-37044380D01*
X22844190Y-37044380D01*
X22748952Y-37092000D01*
X22701333Y-37139619D01*
X22653714Y-37234857D01*
X22653714Y-37330095D01*
X22701333Y-37472952D01*
X23272761Y-38044380D01*
X22653714Y-38044380D01*
%TO.C,L1*%
X22042380Y17311666D02*
X22042380Y17787857D01*
X21042380Y17787857D01*
X22042380Y16454523D02*
X22042380Y17025952D01*
X22042380Y16740238D02*
X21042380Y16740238D01*
X21185238Y16835476D01*
X21280476Y16930714D01*
X21328095Y17025952D01*
%TO.C,C7*%
X19632142Y11596666D02*
X19679761Y11644285D01*
X19727380Y11787142D01*
X19727380Y11882380D01*
X19679761Y12025238D01*
X19584523Y12120476D01*
X19489285Y12168095D01*
X19298809Y12215714D01*
X19155952Y12215714D01*
X18965476Y12168095D01*
X18870238Y12120476D01*
X18775000Y12025238D01*
X18727380Y11882380D01*
X18727380Y11787142D01*
X18775000Y11644285D01*
X18822619Y11596666D01*
X18727380Y11263333D02*
X18727380Y10596666D01*
X19727380Y11025238D01*
%TO.C,A1*%
X-48093333Y16208285D02*
X-48093333Y15732095D01*
X-47807619Y16303523D02*
X-48807619Y15970190D01*
X-47807619Y15636857D01*
X-47807619Y14779714D02*
X-47807619Y15351142D01*
X-47807619Y15065428D02*
X-48807619Y15065428D01*
X-48664761Y15160666D01*
X-48569523Y15255904D01*
X-48521904Y15351142D01*
%TD*%
M02*
