%TF.GenerationSoftware,KiCad,Pcbnew,(5.1.9)-1*%
%TF.CreationDate,2021-01-17T18:49:44+01:00*%
%TF.ProjectId,IoT12,496f5431-322e-46b6-9963-61645f706362,rev?*%
%TF.SameCoordinates,Original*%
%TF.FileFunction,Legend,Top*%
%TF.FilePolarity,Positive*%
%FSLAX46Y46*%
G04 Gerber Fmt 4.6, Leading zero omitted, Abs format (unit mm)*
G04 Created by KiCad (PCBNEW (5.1.9)-1) date 2021-01-17 18:49:44*
%MOMM*%
%LPD*%
G01*
G04 APERTURE LIST*
%ADD10C,0.150000*%
%ADD11C,0.120000*%
G04 APERTURE END LIST*
D10*
X27964285Y-11502380D02*
X27964285Y-10502380D01*
X28583333Y-11502380D02*
X28488095Y-11454761D01*
X28440476Y-11407142D01*
X28392857Y-11311904D01*
X28392857Y-11026190D01*
X28440476Y-10930952D01*
X28488095Y-10883333D01*
X28583333Y-10835714D01*
X28726190Y-10835714D01*
X28821428Y-10883333D01*
X28869047Y-10930952D01*
X28916666Y-11026190D01*
X28916666Y-11311904D01*
X28869047Y-11407142D01*
X28821428Y-11454761D01*
X28726190Y-11502380D01*
X28583333Y-11502380D01*
X29202380Y-10502380D02*
X29773809Y-10502380D01*
X29488095Y-11502380D02*
X29488095Y-10502380D01*
X30630952Y-11502380D02*
X30059523Y-11502380D01*
X30345238Y-11502380D02*
X30345238Y-10502380D01*
X30250000Y-10645238D01*
X30154761Y-10740476D01*
X30059523Y-10788095D01*
X31011904Y-10597619D02*
X31059523Y-10550000D01*
X31154761Y-10502380D01*
X31392857Y-10502380D01*
X31488095Y-10550000D01*
X31535714Y-10597619D01*
X31583333Y-10692857D01*
X31583333Y-10788095D01*
X31535714Y-10930952D01*
X30964285Y-11502380D01*
X31583333Y-11502380D01*
X32630952Y-10502380D02*
X32964285Y-11502380D01*
X33297619Y-10502380D01*
X34154761Y-11502380D02*
X33583333Y-11502380D01*
X33869047Y-11502380D02*
X33869047Y-10502380D01*
X33773809Y-10645238D01*
X33678571Y-10740476D01*
X33583333Y-10788095D01*
X34583333Y-11407142D02*
X34630952Y-11454761D01*
X34583333Y-11502380D01*
X34535714Y-11454761D01*
X34583333Y-11407142D01*
X34583333Y-11502380D01*
X35250000Y-10502380D02*
X35345238Y-10502380D01*
X35440476Y-10550000D01*
X35488095Y-10597619D01*
X35535714Y-10692857D01*
X35583333Y-10883333D01*
X35583333Y-11121428D01*
X35535714Y-11311904D01*
X35488095Y-11407142D01*
X35440476Y-11454761D01*
X35345238Y-11502380D01*
X35250000Y-11502380D01*
X35154761Y-11454761D01*
X35107142Y-11407142D01*
X35059523Y-11311904D01*
X35011904Y-11121428D01*
X35011904Y-10883333D01*
X35059523Y-10692857D01*
X35107142Y-10597619D01*
X35154761Y-10550000D01*
X35250000Y-10502380D01*
X23416666Y-13152380D02*
X23416666Y-12152380D01*
X23845238Y-13152380D02*
X23845238Y-12628571D01*
X23797619Y-12533333D01*
X23702380Y-12485714D01*
X23559523Y-12485714D01*
X23464285Y-12533333D01*
X23416666Y-12580952D01*
X24178571Y-12485714D02*
X24559523Y-12485714D01*
X24321428Y-12152380D02*
X24321428Y-13009523D01*
X24369047Y-13104761D01*
X24464285Y-13152380D01*
X24559523Y-13152380D01*
X24749999Y-12485714D02*
X25130952Y-12485714D01*
X24892857Y-12152380D02*
X24892857Y-13009523D01*
X24940476Y-13104761D01*
X25035714Y-13152380D01*
X25130952Y-13152380D01*
X25464285Y-12485714D02*
X25464285Y-13485714D01*
X25464285Y-12533333D02*
X25559523Y-12485714D01*
X25749999Y-12485714D01*
X25845238Y-12533333D01*
X25892857Y-12580952D01*
X25940476Y-12676190D01*
X25940476Y-12961904D01*
X25892857Y-13057142D01*
X25845238Y-13104761D01*
X25749999Y-13152380D01*
X25559523Y-13152380D01*
X25464285Y-13104761D01*
X26321428Y-13104761D02*
X26416666Y-13152380D01*
X26607142Y-13152380D01*
X26702380Y-13104761D01*
X26749999Y-13009523D01*
X26749999Y-12961904D01*
X26702380Y-12866666D01*
X26607142Y-12819047D01*
X26464285Y-12819047D01*
X26369047Y-12771428D01*
X26321428Y-12676190D01*
X26321428Y-12628571D01*
X26369047Y-12533333D01*
X26464285Y-12485714D01*
X26607142Y-12485714D01*
X26702380Y-12533333D01*
X27178571Y-13057142D02*
X27226190Y-13104761D01*
X27178571Y-13152380D01*
X27130952Y-13104761D01*
X27178571Y-13057142D01*
X27178571Y-13152380D01*
X27178571Y-12533333D02*
X27226190Y-12580952D01*
X27178571Y-12628571D01*
X27130952Y-12580952D01*
X27178571Y-12533333D01*
X27178571Y-12628571D01*
X28369047Y-12104761D02*
X27511904Y-13390476D01*
X29416666Y-12104761D02*
X28559523Y-13390476D01*
X30178571Y-13152380D02*
X30178571Y-12628571D01*
X30130952Y-12533333D01*
X30035714Y-12485714D01*
X29845238Y-12485714D01*
X29749999Y-12533333D01*
X30178571Y-13104761D02*
X30083333Y-13152380D01*
X29845238Y-13152380D01*
X29749999Y-13104761D01*
X29702380Y-13009523D01*
X29702380Y-12914285D01*
X29749999Y-12819047D01*
X29845238Y-12771428D01*
X30083333Y-12771428D01*
X30178571Y-12723809D01*
X30511904Y-12485714D02*
X30892857Y-12485714D01*
X30654761Y-12152380D02*
X30654761Y-13009523D01*
X30702380Y-13104761D01*
X30797619Y-13152380D01*
X30892857Y-13152380D01*
X31369047Y-13152380D02*
X31273809Y-13104761D01*
X31226190Y-13057142D01*
X31178571Y-12961904D01*
X31178571Y-12676190D01*
X31226190Y-12580952D01*
X31273809Y-12533333D01*
X31369047Y-12485714D01*
X31511904Y-12485714D01*
X31607142Y-12533333D01*
X31654761Y-12580952D01*
X31702380Y-12676190D01*
X31702380Y-12961904D01*
X31654761Y-13057142D01*
X31607142Y-13104761D01*
X31511904Y-13152380D01*
X31369047Y-13152380D01*
X32273809Y-13152380D02*
X32178571Y-13104761D01*
X32130952Y-13057142D01*
X32083333Y-12961904D01*
X32083333Y-12676190D01*
X32130952Y-12580952D01*
X32178571Y-12533333D01*
X32273809Y-12485714D01*
X32416666Y-12485714D01*
X32511904Y-12533333D01*
X32559523Y-12580952D01*
X32607142Y-12676190D01*
X32607142Y-12961904D01*
X32559523Y-13057142D01*
X32511904Y-13104761D01*
X32416666Y-13152380D01*
X32273809Y-13152380D01*
X33035714Y-13152380D02*
X33035714Y-12485714D01*
X33035714Y-12580952D02*
X33083333Y-12533333D01*
X33178571Y-12485714D01*
X33321428Y-12485714D01*
X33416666Y-12533333D01*
X33464285Y-12628571D01*
X33464285Y-13152380D01*
X33464285Y-12628571D02*
X33511904Y-12533333D01*
X33607142Y-12485714D01*
X33750000Y-12485714D01*
X33845238Y-12533333D01*
X33892857Y-12628571D01*
X33892857Y-13152380D01*
X34369047Y-12485714D02*
X34369047Y-13152380D01*
X34369047Y-12580952D02*
X34416666Y-12533333D01*
X34511904Y-12485714D01*
X34654761Y-12485714D01*
X34750000Y-12533333D01*
X34797619Y-12628571D01*
X34797619Y-13152380D01*
X35654761Y-13104761D02*
X35559523Y-13152380D01*
X35369047Y-13152380D01*
X35273809Y-13104761D01*
X35226190Y-13009523D01*
X35226190Y-12628571D01*
X35273809Y-12533333D01*
X35369047Y-12485714D01*
X35559523Y-12485714D01*
X35654761Y-12533333D01*
X35702380Y-12628571D01*
X35702380Y-12723809D01*
X35226190Y-12819047D01*
X35988095Y-12485714D02*
X36369047Y-12485714D01*
X36130952Y-12152380D02*
X36130952Y-13009523D01*
X36178571Y-13104761D01*
X36273809Y-13152380D01*
X36369047Y-13152380D01*
X36702380Y-13057142D02*
X36750000Y-13104761D01*
X36702380Y-13152380D01*
X36654761Y-13104761D01*
X36702380Y-13057142D01*
X36702380Y-13152380D01*
X37178571Y-12485714D02*
X37178571Y-13152380D01*
X37178571Y-12580952D02*
X37226190Y-12533333D01*
X37321428Y-12485714D01*
X37464285Y-12485714D01*
X37559523Y-12533333D01*
X37607142Y-12628571D01*
X37607142Y-13152380D01*
X38464285Y-13104761D02*
X38369047Y-13152380D01*
X38178571Y-13152380D01*
X38083333Y-13104761D01*
X38035714Y-13009523D01*
X38035714Y-12628571D01*
X38083333Y-12533333D01*
X38178571Y-12485714D01*
X38369047Y-12485714D01*
X38464285Y-12533333D01*
X38511904Y-12628571D01*
X38511904Y-12723809D01*
X38035714Y-12819047D01*
X38797619Y-12485714D02*
X39178571Y-12485714D01*
X38940476Y-12152380D02*
X38940476Y-13009523D01*
X38988095Y-13104761D01*
X39083333Y-13152380D01*
X39178571Y-13152380D01*
X40226190Y-12104761D02*
X39369047Y-13390476D01*
X26892857Y-13897619D02*
X26940476Y-13850000D01*
X27035714Y-13802380D01*
X27273809Y-13802380D01*
X27369047Y-13850000D01*
X27416666Y-13897619D01*
X27464285Y-13992857D01*
X27464285Y-14088095D01*
X27416666Y-14230952D01*
X26845238Y-14802380D01*
X27464285Y-14802380D01*
X28083333Y-13802380D02*
X28178571Y-13802380D01*
X28273809Y-13850000D01*
X28321428Y-13897619D01*
X28369047Y-13992857D01*
X28416666Y-14183333D01*
X28416666Y-14421428D01*
X28369047Y-14611904D01*
X28321428Y-14707142D01*
X28273809Y-14754761D01*
X28178571Y-14802380D01*
X28083333Y-14802380D01*
X27988095Y-14754761D01*
X27940476Y-14707142D01*
X27892857Y-14611904D01*
X27845238Y-14421428D01*
X27845238Y-14183333D01*
X27892857Y-13992857D01*
X27940476Y-13897619D01*
X27988095Y-13850000D01*
X28083333Y-13802380D01*
X28797619Y-13897619D02*
X28845238Y-13850000D01*
X28940476Y-13802380D01*
X29178571Y-13802380D01*
X29273809Y-13850000D01*
X29321428Y-13897619D01*
X29369047Y-13992857D01*
X29369047Y-14088095D01*
X29321428Y-14230952D01*
X28750000Y-14802380D01*
X29369047Y-14802380D01*
X30321428Y-14802380D02*
X29750000Y-14802380D01*
X30035714Y-14802380D02*
X30035714Y-13802380D01*
X29940476Y-13945238D01*
X29845238Y-14040476D01*
X29750000Y-14088095D01*
X30750000Y-14421428D02*
X31511904Y-14421428D01*
X32178571Y-13802380D02*
X32273809Y-13802380D01*
X32369047Y-13850000D01*
X32416666Y-13897619D01*
X32464285Y-13992857D01*
X32511904Y-14183333D01*
X32511904Y-14421428D01*
X32464285Y-14611904D01*
X32416666Y-14707142D01*
X32369047Y-14754761D01*
X32273809Y-14802380D01*
X32178571Y-14802380D01*
X32083333Y-14754761D01*
X32035714Y-14707142D01*
X31988095Y-14611904D01*
X31940476Y-14421428D01*
X31940476Y-14183333D01*
X31988095Y-13992857D01*
X32035714Y-13897619D01*
X32083333Y-13850000D01*
X32178571Y-13802380D01*
X33464285Y-14802380D02*
X32892857Y-14802380D01*
X33178571Y-14802380D02*
X33178571Y-13802380D01*
X33083333Y-13945238D01*
X32988095Y-14040476D01*
X32892857Y-14088095D01*
X33892857Y-14421428D02*
X34654761Y-14421428D01*
X35654761Y-14802380D02*
X35083333Y-14802380D01*
X35369047Y-14802380D02*
X35369047Y-13802380D01*
X35273809Y-13945238D01*
X35178571Y-14040476D01*
X35083333Y-14088095D01*
X35988095Y-13802380D02*
X36654761Y-13802380D01*
X36226190Y-14802380D01*
X7358238Y9437619D02*
X7453476Y9437619D01*
X7548714Y9390000D01*
X7596333Y9342380D01*
X7643952Y9247142D01*
X7691571Y9056666D01*
X7691571Y8818571D01*
X7643952Y8628095D01*
X7596333Y8532857D01*
X7548714Y8485238D01*
X7453476Y8437619D01*
X7358238Y8437619D01*
X7262999Y8485238D01*
X7215380Y8532857D01*
X7167761Y8628095D01*
X7120142Y8818571D01*
X7120142Y9056666D01*
X7167761Y9247142D01*
X7215380Y9342380D01*
X7262999Y9390000D01*
X7358238Y9437619D01*
X8024904Y8437619D02*
X8548714Y9104285D01*
X8024904Y9104285D02*
X8548714Y8437619D01*
X9358238Y9104285D02*
X9358238Y8437619D01*
X9120142Y9485238D02*
X8882047Y8770952D01*
X9501095Y8770952D01*
X10024904Y9009047D02*
X9929666Y9056666D01*
X9882047Y9104285D01*
X9834428Y9199523D01*
X9834428Y9247142D01*
X9882047Y9342380D01*
X9929666Y9390000D01*
X10024904Y9437619D01*
X10215380Y9437619D01*
X10310619Y9390000D01*
X10358238Y9342380D01*
X10405857Y9247142D01*
X10405857Y9199523D01*
X10358238Y9104285D01*
X10310619Y9056666D01*
X10215380Y9009047D01*
X10024904Y9009047D01*
X9929666Y8961428D01*
X9882047Y8913809D01*
X9834428Y8818571D01*
X9834428Y8628095D01*
X9882047Y8532857D01*
X9929666Y8485238D01*
X10024904Y8437619D01*
X10215380Y8437619D01*
X10310619Y8485238D01*
X10358238Y8532857D01*
X10405857Y8628095D01*
X10405857Y8818571D01*
X10358238Y8913809D01*
X10310619Y8961428D01*
X10215380Y9009047D01*
X-38187142Y-468380D02*
X-38091904Y-468380D01*
X-37996666Y-516000D01*
X-37949047Y-563619D01*
X-37901428Y-658857D01*
X-37853809Y-849333D01*
X-37853809Y-1087428D01*
X-37901428Y-1277904D01*
X-37949047Y-1373142D01*
X-37996666Y-1420761D01*
X-38091904Y-1468380D01*
X-38187142Y-1468380D01*
X-38282380Y-1420761D01*
X-38330000Y-1373142D01*
X-38377619Y-1277904D01*
X-38425238Y-1087428D01*
X-38425238Y-849333D01*
X-38377619Y-658857D01*
X-38330000Y-563619D01*
X-38282380Y-516000D01*
X-38187142Y-468380D01*
X-37520476Y-1468380D02*
X-36996666Y-801714D01*
X-37520476Y-801714D02*
X-36996666Y-1468380D01*
X-36663333Y-1182666D02*
X-36187142Y-1182666D01*
X-36758571Y-1468380D02*
X-36425238Y-468380D01*
X-36091904Y-1468380D01*
X-35568095Y-468380D02*
X-35472857Y-468380D01*
X-35377619Y-516000D01*
X-35330000Y-563619D01*
X-35282380Y-658857D01*
X-35234761Y-849333D01*
X-35234761Y-1087428D01*
X-35282380Y-1277904D01*
X-35330000Y-1373142D01*
X-35377619Y-1420761D01*
X-35472857Y-1468380D01*
X-35568095Y-1468380D01*
X-35663333Y-1420761D01*
X-35710952Y-1373142D01*
X-35758571Y-1277904D01*
X-35806190Y-1087428D01*
X-35806190Y-849333D01*
X-35758571Y-658857D01*
X-35710952Y-563619D01*
X-35663333Y-516000D01*
X-35568095Y-468380D01*
D11*
%TO.C,R41*%
X-24230000Y-34697936D02*
X-24230000Y-35152064D01*
X-22760000Y-34697936D02*
X-22760000Y-35152064D01*
%TO.C,U2*%
X-36830000Y-20000D02*
X-34880000Y-20000D01*
X-36830000Y-20000D02*
X-38780000Y-20000D01*
X-36830000Y5100000D02*
X-34880000Y5100000D01*
X-36830000Y5100000D02*
X-40280000Y5100000D01*
%TO.C,C8*%
X-35025000Y7358748D02*
X-35025000Y7881252D01*
X-33555000Y7358748D02*
X-33555000Y7881252D01*
D10*
%TO.C,U5*%
X6705000Y9980000D02*
X7780000Y9980000D01*
X6705000Y13055000D02*
X3455000Y13055000D01*
X6705000Y9805000D02*
X3455000Y9805000D01*
X6705000Y13055000D02*
X6705000Y12780000D01*
X3455000Y13055000D02*
X3455000Y12780000D01*
X3455000Y9805000D02*
X3455000Y10080000D01*
X6705000Y9805000D02*
X6705000Y9980000D01*
D11*
%TO.C,R18*%
X-31015000Y11657064D02*
X-31015000Y11202936D01*
X-32485000Y11657064D02*
X-32485000Y11202936D01*
%TO.C,R17*%
X-36295000Y22632936D02*
X-36295000Y23087064D01*
X-34825000Y22632936D02*
X-34825000Y23087064D01*
%TO.C,R16*%
X-38835000Y22632936D02*
X-38835000Y23087064D01*
X-37365000Y22632936D02*
X-37365000Y23087064D01*
%TO.C,C11*%
X4818748Y8355000D02*
X5341252Y8355000D01*
X4818748Y6885000D02*
X5341252Y6885000D01*
%TO.C,U6*%
X-36830000Y-17800000D02*
X-33380000Y-17800000D01*
X-36830000Y-17800000D02*
X-38780000Y-17800000D01*
X-36830000Y-12680000D02*
X-34880000Y-12680000D01*
X-36830000Y-12680000D02*
X-38780000Y-12680000D01*
%TO.C,U4*%
X13950000Y-1270000D02*
X13950000Y-4720000D01*
X13950000Y-1270000D02*
X13950000Y680000D01*
X19070000Y-1270000D02*
X19070000Y-3220000D01*
X19070000Y-1270000D02*
X19070000Y680000D01*
%TO.C,U3*%
X6330000Y-1270000D02*
X6330000Y-4720000D01*
X6330000Y-1270000D02*
X6330000Y680000D01*
X11450000Y-1270000D02*
X11450000Y-3220000D01*
X11450000Y-1270000D02*
X11450000Y680000D01*
%TO.C,R28*%
X14505000Y-11837936D02*
X14505000Y-12292064D01*
X15975000Y-11837936D02*
X15975000Y-12292064D01*
%TO.C,R5*%
X13742936Y9425000D02*
X14197064Y9425000D01*
X13742936Y10895000D02*
X14197064Y10895000D01*
%TO.C,R10*%
X16737064Y-5615000D02*
X16282936Y-5615000D01*
X16737064Y-7085000D02*
X16282936Y-7085000D01*
%TO.C,R6*%
X14705000Y4852936D02*
X14705000Y5307064D01*
X13235000Y4852936D02*
X13235000Y5307064D01*
%TO.C,R26*%
X6885000Y-11837936D02*
X6885000Y-12292064D01*
X8355000Y-11837936D02*
X8355000Y-12292064D01*
%TO.C,R3*%
X6122936Y3075000D02*
X6577064Y3075000D01*
X6122936Y4545000D02*
X6577064Y4545000D01*
%TO.C,R11*%
X9117064Y-5615000D02*
X8662936Y-5615000D01*
X9117064Y-7085000D02*
X8662936Y-7085000D01*
%TO.C,R25*%
X9425000Y-11837936D02*
X9425000Y-12292064D01*
X10895000Y-11837936D02*
X10895000Y-12292064D01*
%TO.C,R4*%
X4037064Y2005000D02*
X3582936Y2005000D01*
X4037064Y535000D02*
X3582936Y535000D01*
%TO.C,C5*%
X13708748Y11965000D02*
X14231252Y11965000D01*
X13708748Y13435000D02*
X14231252Y13435000D01*
%TO.C,C4*%
X16771252Y-8155000D02*
X16248748Y-8155000D01*
X16771252Y-9625000D02*
X16248748Y-9625000D01*
%TO.C,C10*%
X17245000Y4818748D02*
X17245000Y5341252D01*
X15775000Y4818748D02*
X15775000Y5341252D01*
%TO.C,C3*%
X261252Y4545000D02*
X-261252Y4545000D01*
X261252Y3075000D02*
X-261252Y3075000D01*
%TO.C,C2*%
X9151252Y-8155000D02*
X8628748Y-8155000D01*
X9151252Y-9625000D02*
X8628748Y-9625000D01*
%TO.C,C9*%
X4071252Y-535000D02*
X3548748Y-535000D01*
X4071252Y-2005000D02*
X3548748Y-2005000D01*
%TO.C,R8*%
X-29945000Y11657064D02*
X-29945000Y11202936D01*
X-28475000Y11657064D02*
X-28475000Y11202936D01*
%TO.C,R30*%
X-34062936Y-5361000D02*
X-34517064Y-5361000D01*
X-34062936Y-6831000D02*
X-34517064Y-6831000D01*
%TO.C,R23*%
X-25627064Y-8355000D02*
X-25172936Y-8355000D01*
X-25627064Y-6885000D02*
X-25172936Y-6885000D01*
%TO.C,R37*%
X-32342064Y-20420000D02*
X-31887936Y-20420000D01*
X-32342064Y-18950000D02*
X-31887936Y-18950000D01*
%TO.C,R29*%
X-34517064Y-4545000D02*
X-34062936Y-4545000D01*
X-34517064Y-3075000D02*
X-34062936Y-3075000D01*
%TO.C,C1*%
X-22760000Y-28836252D02*
X-22760000Y-28313748D01*
X-24230000Y-28836252D02*
X-24230000Y-28313748D01*
%TO.C,C13*%
X-37091252Y-20420000D02*
X-36568748Y-20420000D01*
X-37091252Y-18950000D02*
X-36568748Y-18950000D01*
%TO.C,R38*%
X-32485000Y-15012936D02*
X-32485000Y-15467064D01*
X-31015000Y-15012936D02*
X-31015000Y-15467064D01*
%TO.C,R20*%
X-26135000Y-15012936D02*
X-26135000Y-15467064D01*
X-24665000Y-15012936D02*
X-24665000Y-15467064D01*
%TO.C,R24*%
X-28675000Y-15012936D02*
X-28675000Y-15467064D01*
X-27205000Y-15012936D02*
X-27205000Y-15467064D01*
%TO.C,R39*%
X-24865000Y-20092936D02*
X-24865000Y-20547064D01*
X-23395000Y-20092936D02*
X-23395000Y-20547064D01*
%TO.C,R15*%
X23595000Y-29437064D02*
X23595000Y-28982936D01*
X22125000Y-29437064D02*
X22125000Y-28982936D01*
%TO.C,R31*%
X23595000Y-24357064D02*
X23595000Y-23902936D01*
X22125000Y-24357064D02*
X22125000Y-23902936D01*
%TO.C,D2*%
X-17020000Y960000D02*
X-17020000Y1890000D01*
X-17020000Y4120000D02*
X-17020000Y3190000D01*
X-17020000Y4120000D02*
X-19180000Y4120000D01*
X-17020000Y960000D02*
X-18480000Y960000D01*
%TO.C,U7*%
X-25400000Y6975000D02*
X-27350000Y6975000D01*
X-25400000Y6975000D02*
X-23450000Y6975000D01*
X-25400000Y-1895000D02*
X-27350000Y-1895000D01*
X-25400000Y-1895000D02*
X-21950000Y-1895000D01*
%TO.C,D7*%
X-9300000Y-28320000D02*
X-9300000Y-25020000D01*
X-9300000Y-25020000D02*
X-14700000Y-25020000D01*
X-9300000Y-28320000D02*
X-14700000Y-28320000D01*
%TO.C,D4*%
X-16100000Y-21210000D02*
X-16100000Y-24510000D01*
X-16100000Y-24510000D02*
X-10700000Y-24510000D01*
X-16100000Y-21210000D02*
X-10700000Y-21210000D01*
%TO.C,D6*%
X37466000Y12856000D02*
X40766000Y12856000D01*
X40766000Y12856000D02*
X40766000Y18256000D01*
X37466000Y12856000D02*
X37466000Y18256000D01*
%TO.C,D5*%
X18160000Y-19460000D02*
X14860000Y-19460000D01*
X14860000Y-19460000D02*
X14860000Y-24860000D01*
X18160000Y-19460000D02*
X18160000Y-24860000D01*
%TO.C,SW1*%
X39000000Y0D02*
G75*
G03*
X39000000Y0I-3000000J0D01*
G01*
X30100000Y2000000D02*
X30100000Y6100000D01*
X41900000Y6100000D02*
X41900000Y2000000D01*
X41900000Y-2000000D02*
X41900000Y-6100000D01*
X30100000Y-2000000D02*
X30100000Y-6100000D01*
X30100000Y-6100000D02*
X41900000Y-6100000D01*
X32200000Y-7500000D02*
X31900000Y-7800000D01*
X31900000Y-7800000D02*
X31900000Y-7200000D01*
X31900000Y-7200000D02*
X32200000Y-7500000D01*
X30100000Y6100000D02*
X32500000Y6100000D01*
X34700000Y6100000D02*
X37300000Y6100000D01*
X39500000Y6100000D02*
X41900000Y6100000D01*
X35500000Y0D02*
X36500000Y0D01*
X36000000Y-500000D02*
X36000000Y500000D01*
%TO.C,Q2*%
X-18090000Y-40130000D02*
X-18090000Y-38670000D01*
X-14930000Y-40130000D02*
X-14930000Y-37970000D01*
X-14930000Y-40130000D02*
X-15860000Y-40130000D01*
X-18090000Y-40130000D02*
X-17160000Y-40130000D01*
%TO.C,Q1*%
X7930000Y21080000D02*
X7930000Y19620000D01*
X4770000Y21080000D02*
X4770000Y18920000D01*
X4770000Y21080000D02*
X5700000Y21080000D01*
X7930000Y21080000D02*
X7000000Y21080000D01*
%TO.C,Q3*%
X3180000Y-36725000D02*
X3180000Y-37825000D01*
X3450000Y-36725000D02*
X3180000Y-36725000D01*
X3450000Y-35225000D02*
X3450000Y-36725000D01*
X-3180000Y-36725000D02*
X-3180000Y-39555000D01*
X-3450000Y-36725000D02*
X-3180000Y-36725000D01*
X-3450000Y-35225000D02*
X-3450000Y-36725000D01*
%TO.C,R1*%
X-2052064Y-23690000D02*
X2052064Y-23690000D01*
X-2052064Y-27110000D02*
X2052064Y-27110000D01*
%TO.C,R27*%
X18515000Y-11837936D02*
X18515000Y-12292064D01*
X17045000Y-11837936D02*
X17045000Y-12292064D01*
%TO.C,D3*%
X-7930000Y-40130000D02*
X-7000000Y-40130000D01*
X-4770000Y-40130000D02*
X-5700000Y-40130000D01*
X-4770000Y-40130000D02*
X-4770000Y-37970000D01*
X-7930000Y-40130000D02*
X-7930000Y-38670000D01*
%TO.C,R40*%
X-20547064Y-20855000D02*
X-20092936Y-20855000D01*
X-20547064Y-22325000D02*
X-20092936Y-22325000D01*
%TO.C,R13*%
X-11965000Y-39142936D02*
X-11965000Y-39597064D01*
X-13435000Y-39142936D02*
X-13435000Y-39597064D01*
%TO.C,R21*%
X-10895000Y-39597064D02*
X-10895000Y-39142936D01*
X-9425000Y-39597064D02*
X-9425000Y-39142936D01*
%TO.C,R19*%
X-16737064Y-29745000D02*
X-16282936Y-29745000D01*
X-16737064Y-31215000D02*
X-16282936Y-31215000D01*
%TO.C,R33*%
X7392936Y17245000D02*
X7847064Y17245000D01*
X7392936Y15775000D02*
X7847064Y15775000D01*
%TO.C,R32*%
X-24357064Y12165000D02*
X-23902936Y12165000D01*
X-24357064Y10695000D02*
X-23902936Y10695000D01*
%TO.C,D1*%
X-12390000Y-30750000D02*
X-12390000Y-33610000D01*
X-12390000Y-33610000D02*
X-10470000Y-33610000D01*
X-10470000Y-33610000D02*
X-10470000Y-30750000D01*
%TO.C,A2*%
X-22500000Y26350000D02*
X22500000Y26350000D01*
X22500000Y26350000D02*
X22500000Y-18650000D01*
X22500000Y-18650000D02*
X-22500000Y-18650000D01*
X-22500000Y-18650000D02*
X-22500000Y26350000D01*
%TO.C,U8*%
X29136000Y11056000D02*
X30636000Y11056000D01*
X30636000Y11056000D02*
X30636000Y12006000D01*
X30636000Y12006000D02*
X35761000Y12006000D01*
X29136000Y21456000D02*
X30636000Y21456000D01*
X30636000Y21456000D02*
X30636000Y20506000D01*
X30636000Y20506000D02*
X31736000Y20506000D01*
%TO.C,U1*%
X-28250000Y22100000D02*
X-27320000Y22100000D01*
X-25090000Y22100000D02*
X-26020000Y22100000D01*
X-25090000Y22100000D02*
X-25090000Y24260000D01*
X-28250000Y22100000D02*
X-28250000Y23560000D01*
%TO.C,R12*%
X31268936Y24611000D02*
X31723064Y24611000D01*
X31268936Y23141000D02*
X31723064Y23141000D01*
%TO.C,R14*%
X36803064Y23141000D02*
X36348936Y23141000D01*
X36803064Y24611000D02*
X36348936Y24611000D01*
%TO.C,C16*%
X20720000Y1670000D02*
X23070000Y1670000D01*
X27540000Y1670000D02*
X25190000Y1670000D01*
X27540000Y7425563D02*
X27540000Y1670000D01*
X20720000Y7425563D02*
X20720000Y1670000D01*
X21784437Y8490000D02*
X23070000Y8490000D01*
X26475563Y8490000D02*
X25190000Y8490000D01*
X26475563Y8490000D02*
X27540000Y7425563D01*
X21784437Y8490000D02*
X20720000Y7425563D01*
X25977500Y9517500D02*
X25977500Y8730000D01*
X26371250Y9123750D02*
X25583750Y9123750D01*
%TO.C,C6*%
X38593752Y9171000D02*
X38071248Y9171000D01*
X38593752Y10641000D02*
X38071248Y10641000D01*
%TO.C,C15*%
X48495000Y16110000D02*
X46145000Y16110000D01*
X41675000Y16110000D02*
X44025000Y16110000D01*
X41675000Y10354437D02*
X41675000Y16110000D01*
X48495000Y10354437D02*
X48495000Y16110000D01*
X47430563Y9290000D02*
X46145000Y9290000D01*
X42739437Y9290000D02*
X44025000Y9290000D01*
X42739437Y9290000D02*
X41675000Y10354437D01*
X47430563Y9290000D02*
X48495000Y10354437D01*
X43237500Y8262500D02*
X43237500Y9050000D01*
X42843750Y8656250D02*
X43631250Y8656250D01*
%TO.C,R36*%
X-16737064Y-32285000D02*
X-16282936Y-32285000D01*
X-16737064Y-33755000D02*
X-16282936Y-33755000D01*
%TO.C,R34*%
X-18007064Y-2440000D02*
X-17552936Y-2440000D01*
X-18007064Y-3910000D02*
X-17552936Y-3910000D01*
%TO.C,R9*%
X-17552936Y-1370000D02*
X-18007064Y-1370000D01*
X-17552936Y100000D02*
X-18007064Y100000D01*
%TO.C,R7*%
X-16282936Y-36295000D02*
X-16737064Y-36295000D01*
X-16282936Y-34825000D02*
X-16737064Y-34825000D01*
%TO.C,R35*%
X-17552936Y4980000D02*
X-18007064Y4980000D01*
X-17552936Y6450000D02*
X-18007064Y6450000D01*
%TO.C,R2*%
X-30707064Y23595000D02*
X-30252936Y23595000D01*
X-30707064Y22125000D02*
X-30252936Y22125000D01*
%TO.C,C14*%
X-18041252Y8990000D02*
X-17518748Y8990000D01*
X-18041252Y7520000D02*
X-17518748Y7520000D01*
%TO.C,C12*%
X-25661252Y-3075000D02*
X-25138748Y-3075000D01*
X-25661252Y-4545000D02*
X-25138748Y-4545000D01*
%TD*%
%TO.C,R41*%
D10*
X-21392619Y-35567857D02*
X-21868809Y-35901190D01*
X-21392619Y-36139285D02*
X-22392619Y-36139285D01*
X-22392619Y-35758333D01*
X-22345000Y-35663095D01*
X-22297380Y-35615476D01*
X-22202142Y-35567857D01*
X-22059285Y-35567857D01*
X-21964047Y-35615476D01*
X-21916428Y-35663095D01*
X-21868809Y-35758333D01*
X-21868809Y-36139285D01*
X-22059285Y-34710714D02*
X-21392619Y-34710714D01*
X-22440238Y-34948809D02*
X-21725952Y-35186904D01*
X-21725952Y-34567857D01*
X-21392619Y-33663095D02*
X-21392619Y-34234523D01*
X-21392619Y-33948809D02*
X-22392619Y-33948809D01*
X-22249761Y-34044047D01*
X-22154523Y-34139285D01*
X-22106904Y-34234523D01*
%TO.C,U2*%
X-37591904Y6487619D02*
X-37591904Y5678095D01*
X-37544285Y5582857D01*
X-37496666Y5535238D01*
X-37401428Y5487619D01*
X-37210952Y5487619D01*
X-37115714Y5535238D01*
X-37068095Y5582857D01*
X-37020476Y5678095D01*
X-37020476Y6487619D01*
X-36591904Y6392380D02*
X-36544285Y6440000D01*
X-36449047Y6487619D01*
X-36210952Y6487619D01*
X-36115714Y6440000D01*
X-36068095Y6392380D01*
X-36020476Y6297142D01*
X-36020476Y6201904D01*
X-36068095Y6059047D01*
X-36639523Y5487619D01*
X-36020476Y5487619D01*
%TO.C,C8*%
X-35612857Y7453333D02*
X-35565238Y7405714D01*
X-35517619Y7262857D01*
X-35517619Y7167619D01*
X-35565238Y7024761D01*
X-35660476Y6929523D01*
X-35755714Y6881904D01*
X-35946190Y6834285D01*
X-36089047Y6834285D01*
X-36279523Y6881904D01*
X-36374761Y6929523D01*
X-36470000Y7024761D01*
X-36517619Y7167619D01*
X-36517619Y7262857D01*
X-36470000Y7405714D01*
X-36422380Y7453333D01*
X-36089047Y8024761D02*
X-36136666Y7929523D01*
X-36184285Y7881904D01*
X-36279523Y7834285D01*
X-36327142Y7834285D01*
X-36422380Y7881904D01*
X-36470000Y7929523D01*
X-36517619Y8024761D01*
X-36517619Y8215238D01*
X-36470000Y8310476D01*
X-36422380Y8358095D01*
X-36327142Y8405714D01*
X-36279523Y8405714D01*
X-36184285Y8358095D01*
X-36136666Y8310476D01*
X-36089047Y8215238D01*
X-36089047Y8024761D01*
X-36041428Y7929523D01*
X-35993809Y7881904D01*
X-35898571Y7834285D01*
X-35708095Y7834285D01*
X-35612857Y7881904D01*
X-35565238Y7929523D01*
X-35517619Y8024761D01*
X-35517619Y8215238D01*
X-35565238Y8310476D01*
X-35612857Y8358095D01*
X-35708095Y8405714D01*
X-35898571Y8405714D01*
X-35993809Y8358095D01*
X-36041428Y8310476D01*
X-36089047Y8215238D01*
%TO.C,U5*%
X6223095Y14517619D02*
X6223095Y13708095D01*
X6270714Y13612857D01*
X6318333Y13565238D01*
X6413571Y13517619D01*
X6604047Y13517619D01*
X6699285Y13565238D01*
X6746904Y13612857D01*
X6794523Y13708095D01*
X6794523Y14517619D01*
X7746904Y14517619D02*
X7270714Y14517619D01*
X7223095Y14041428D01*
X7270714Y14089047D01*
X7365952Y14136666D01*
X7604047Y14136666D01*
X7699285Y14089047D01*
X7746904Y14041428D01*
X7794523Y13946190D01*
X7794523Y13708095D01*
X7746904Y13612857D01*
X7699285Y13565238D01*
X7604047Y13517619D01*
X7365952Y13517619D01*
X7270714Y13565238D01*
X7223095Y13612857D01*
%TO.C,R18*%
X-31297619Y7358142D02*
X-31773809Y7024809D01*
X-31297619Y6786714D02*
X-32297619Y6786714D01*
X-32297619Y7167666D01*
X-32250000Y7262904D01*
X-32202380Y7310523D01*
X-32107142Y7358142D01*
X-31964285Y7358142D01*
X-31869047Y7310523D01*
X-31821428Y7262904D01*
X-31773809Y7167666D01*
X-31773809Y6786714D01*
X-31297619Y8310523D02*
X-31297619Y7739095D01*
X-31297619Y8024809D02*
X-32297619Y8024809D01*
X-32154761Y7929571D01*
X-32059523Y7834333D01*
X-32011904Y7739095D01*
X-31869047Y8881952D02*
X-31916666Y8786714D01*
X-31964285Y8739095D01*
X-32059523Y8691476D01*
X-32107142Y8691476D01*
X-32202380Y8739095D01*
X-32250000Y8786714D01*
X-32297619Y8881952D01*
X-32297619Y9072428D01*
X-32250000Y9167666D01*
X-32202380Y9215285D01*
X-32107142Y9262904D01*
X-32059523Y9262904D01*
X-31964285Y9215285D01*
X-31916666Y9167666D01*
X-31869047Y9072428D01*
X-31869047Y8881952D01*
X-31821428Y8786714D01*
X-31773809Y8739095D01*
X-31678571Y8691476D01*
X-31488095Y8691476D01*
X-31392857Y8739095D01*
X-31345238Y8786714D01*
X-31297619Y8881952D01*
X-31297619Y9072428D01*
X-31345238Y9167666D01*
X-31392857Y9215285D01*
X-31488095Y9262904D01*
X-31678571Y9262904D01*
X-31773809Y9215285D01*
X-31821428Y9167666D01*
X-31869047Y9072428D01*
%TO.C,R17*%
X-33329619Y22217142D02*
X-33805809Y21883809D01*
X-33329619Y21645714D02*
X-34329619Y21645714D01*
X-34329619Y22026666D01*
X-34282000Y22121904D01*
X-34234380Y22169523D01*
X-34139142Y22217142D01*
X-33996285Y22217142D01*
X-33901047Y22169523D01*
X-33853428Y22121904D01*
X-33805809Y22026666D01*
X-33805809Y21645714D01*
X-33329619Y23169523D02*
X-33329619Y22598095D01*
X-33329619Y22883809D02*
X-34329619Y22883809D01*
X-34186761Y22788571D01*
X-34091523Y22693333D01*
X-34043904Y22598095D01*
X-34329619Y23502857D02*
X-34329619Y24169523D01*
X-33329619Y23740952D01*
%TO.C,R16*%
X-39297619Y22217142D02*
X-39773809Y21883809D01*
X-39297619Y21645714D02*
X-40297619Y21645714D01*
X-40297619Y22026666D01*
X-40250000Y22121904D01*
X-40202380Y22169523D01*
X-40107142Y22217142D01*
X-39964285Y22217142D01*
X-39869047Y22169523D01*
X-39821428Y22121904D01*
X-39773809Y22026666D01*
X-39773809Y21645714D01*
X-39297619Y23169523D02*
X-39297619Y22598095D01*
X-39297619Y22883809D02*
X-40297619Y22883809D01*
X-40154761Y22788571D01*
X-40059523Y22693333D01*
X-40011904Y22598095D01*
X-40297619Y24026666D02*
X-40297619Y23836190D01*
X-40250000Y23740952D01*
X-40202380Y23693333D01*
X-40059523Y23598095D01*
X-39869047Y23550476D01*
X-39488095Y23550476D01*
X-39392857Y23598095D01*
X-39345238Y23645714D01*
X-39297619Y23740952D01*
X-39297619Y23931428D01*
X-39345238Y24026666D01*
X-39392857Y24074285D01*
X-39488095Y24121904D01*
X-39726190Y24121904D01*
X-39821428Y24074285D01*
X-39869047Y24026666D01*
X-39916666Y23931428D01*
X-39916666Y23740952D01*
X-39869047Y23645714D01*
X-39821428Y23598095D01*
X-39726190Y23550476D01*
%TO.C,C11*%
X1135142Y7262857D02*
X1087523Y7215238D01*
X944666Y7167619D01*
X849428Y7167619D01*
X706571Y7215238D01*
X611333Y7310476D01*
X563714Y7405714D01*
X516095Y7596190D01*
X516095Y7739047D01*
X563714Y7929523D01*
X611333Y8024761D01*
X706571Y8120000D01*
X849428Y8167619D01*
X944666Y8167619D01*
X1087523Y8120000D01*
X1135142Y8072380D01*
X2087523Y7167619D02*
X1516095Y7167619D01*
X1801809Y7167619D02*
X1801809Y8167619D01*
X1706571Y8024761D01*
X1611333Y7929523D01*
X1516095Y7881904D01*
X3039904Y7167619D02*
X2468476Y7167619D01*
X2754190Y7167619D02*
X2754190Y8167619D01*
X2658952Y8024761D01*
X2563714Y7929523D01*
X2468476Y7881904D01*
%TO.C,U6*%
X-42290904Y-12025380D02*
X-42290904Y-12834904D01*
X-42243285Y-12930142D01*
X-42195666Y-12977761D01*
X-42100428Y-13025380D01*
X-41909952Y-13025380D01*
X-41814714Y-12977761D01*
X-41767095Y-12930142D01*
X-41719476Y-12834904D01*
X-41719476Y-12025380D01*
X-40814714Y-12025380D02*
X-41005190Y-12025380D01*
X-41100428Y-12073000D01*
X-41148047Y-12120619D01*
X-41243285Y-12263476D01*
X-41290904Y-12453952D01*
X-41290904Y-12834904D01*
X-41243285Y-12930142D01*
X-41195666Y-12977761D01*
X-41100428Y-13025380D01*
X-40909952Y-13025380D01*
X-40814714Y-12977761D01*
X-40767095Y-12930142D01*
X-40719476Y-12834904D01*
X-40719476Y-12596809D01*
X-40767095Y-12501571D01*
X-40814714Y-12453952D01*
X-40909952Y-12406333D01*
X-41100428Y-12406333D01*
X-41195666Y-12453952D01*
X-41243285Y-12501571D01*
X-41290904Y-12596809D01*
%TO.C,U4*%
X12562380Y-2031904D02*
X13371904Y-2031904D01*
X13467142Y-1984285D01*
X13514761Y-1936666D01*
X13562380Y-1841428D01*
X13562380Y-1650952D01*
X13514761Y-1555714D01*
X13467142Y-1508095D01*
X13371904Y-1460476D01*
X12562380Y-1460476D01*
X12895714Y-555714D02*
X13562380Y-555714D01*
X12514761Y-793809D02*
X13229047Y-1031904D01*
X13229047Y-412857D01*
%TO.C,U3*%
X4913380Y-4571904D02*
X5722904Y-4571904D01*
X5818142Y-4524285D01*
X5865761Y-4476666D01*
X5913380Y-4381428D01*
X5913380Y-4190952D01*
X5865761Y-4095714D01*
X5818142Y-4048095D01*
X5722904Y-4000476D01*
X4913380Y-4000476D01*
X4913380Y-3619523D02*
X4913380Y-3000476D01*
X5294333Y-3333809D01*
X5294333Y-3190952D01*
X5341952Y-3095714D01*
X5389571Y-3048095D01*
X5484809Y-3000476D01*
X5722904Y-3000476D01*
X5818142Y-3048095D01*
X5865761Y-3095714D01*
X5913380Y-3190952D01*
X5913380Y-3476666D01*
X5865761Y-3571904D01*
X5818142Y-3619523D01*
%TO.C,R28*%
X14041380Y-12707857D02*
X13565190Y-13041190D01*
X14041380Y-13279285D02*
X13041380Y-13279285D01*
X13041380Y-12898333D01*
X13089000Y-12803095D01*
X13136619Y-12755476D01*
X13231857Y-12707857D01*
X13374714Y-12707857D01*
X13469952Y-12755476D01*
X13517571Y-12803095D01*
X13565190Y-12898333D01*
X13565190Y-13279285D01*
X13136619Y-12326904D02*
X13089000Y-12279285D01*
X13041380Y-12184047D01*
X13041380Y-11945952D01*
X13089000Y-11850714D01*
X13136619Y-11803095D01*
X13231857Y-11755476D01*
X13327095Y-11755476D01*
X13469952Y-11803095D01*
X14041380Y-12374523D01*
X14041380Y-11755476D01*
X13469952Y-11184047D02*
X13422333Y-11279285D01*
X13374714Y-11326904D01*
X13279476Y-11374523D01*
X13231857Y-11374523D01*
X13136619Y-11326904D01*
X13089000Y-11279285D01*
X13041380Y-11184047D01*
X13041380Y-10993571D01*
X13089000Y-10898333D01*
X13136619Y-10850714D01*
X13231857Y-10803095D01*
X13279476Y-10803095D01*
X13374714Y-10850714D01*
X13422333Y-10898333D01*
X13469952Y-10993571D01*
X13469952Y-11184047D01*
X13517571Y-11279285D01*
X13565190Y-11326904D01*
X13660428Y-11374523D01*
X13850904Y-11374523D01*
X13946142Y-11326904D01*
X13993761Y-11279285D01*
X14041380Y-11184047D01*
X14041380Y-10993571D01*
X13993761Y-10898333D01*
X13946142Y-10850714D01*
X13850904Y-10803095D01*
X13660428Y-10803095D01*
X13565190Y-10850714D01*
X13517571Y-10898333D01*
X13469952Y-10993571D01*
%TO.C,R5*%
X16597333Y10088619D02*
X16264000Y10564809D01*
X16025904Y10088619D02*
X16025904Y11088619D01*
X16406857Y11088619D01*
X16502095Y11041000D01*
X16549714Y10993380D01*
X16597333Y10898142D01*
X16597333Y10755285D01*
X16549714Y10660047D01*
X16502095Y10612428D01*
X16406857Y10564809D01*
X16025904Y10564809D01*
X17502095Y11088619D02*
X17025904Y11088619D01*
X16978285Y10612428D01*
X17025904Y10660047D01*
X17121142Y10707666D01*
X17359238Y10707666D01*
X17454476Y10660047D01*
X17502095Y10612428D01*
X17549714Y10517190D01*
X17549714Y10279095D01*
X17502095Y10183857D01*
X17454476Y10136238D01*
X17359238Y10088619D01*
X17121142Y10088619D01*
X17025904Y10136238D01*
X16978285Y10183857D01*
%TO.C,R10*%
X19169142Y-6802380D02*
X18835809Y-6326190D01*
X18597714Y-6802380D02*
X18597714Y-5802380D01*
X18978666Y-5802380D01*
X19073904Y-5850000D01*
X19121523Y-5897619D01*
X19169142Y-5992857D01*
X19169142Y-6135714D01*
X19121523Y-6230952D01*
X19073904Y-6278571D01*
X18978666Y-6326190D01*
X18597714Y-6326190D01*
X20121523Y-6802380D02*
X19550095Y-6802380D01*
X19835809Y-6802380D02*
X19835809Y-5802380D01*
X19740571Y-5945238D01*
X19645333Y-6040476D01*
X19550095Y-6088095D01*
X20740571Y-5802380D02*
X20835809Y-5802380D01*
X20931047Y-5850000D01*
X20978666Y-5897619D01*
X21026285Y-5992857D01*
X21073904Y-6183333D01*
X21073904Y-6421428D01*
X21026285Y-6611904D01*
X20978666Y-6707142D01*
X20931047Y-6754761D01*
X20835809Y-6802380D01*
X20740571Y-6802380D01*
X20645333Y-6754761D01*
X20597714Y-6707142D01*
X20550095Y-6611904D01*
X20502476Y-6421428D01*
X20502476Y-6183333D01*
X20550095Y-5992857D01*
X20597714Y-5897619D01*
X20645333Y-5850000D01*
X20740571Y-5802380D01*
%TO.C,R6*%
X13676333Y7167619D02*
X13343000Y7643809D01*
X13104904Y7167619D02*
X13104904Y8167619D01*
X13485857Y8167619D01*
X13581095Y8120000D01*
X13628714Y8072380D01*
X13676333Y7977142D01*
X13676333Y7834285D01*
X13628714Y7739047D01*
X13581095Y7691428D01*
X13485857Y7643809D01*
X13104904Y7643809D01*
X14533476Y8167619D02*
X14343000Y8167619D01*
X14247761Y8120000D01*
X14200142Y8072380D01*
X14104904Y7929523D01*
X14057285Y7739047D01*
X14057285Y7358095D01*
X14104904Y7262857D01*
X14152523Y7215238D01*
X14247761Y7167619D01*
X14438238Y7167619D01*
X14533476Y7215238D01*
X14581095Y7262857D01*
X14628714Y7358095D01*
X14628714Y7596190D01*
X14581095Y7691428D01*
X14533476Y7739047D01*
X14438238Y7786666D01*
X14247761Y7786666D01*
X14152523Y7739047D01*
X14104904Y7691428D01*
X14057285Y7596190D01*
%TO.C,R26*%
X6421380Y-12707857D02*
X5945190Y-13041190D01*
X6421380Y-13279285D02*
X5421380Y-13279285D01*
X5421380Y-12898333D01*
X5469000Y-12803095D01*
X5516619Y-12755476D01*
X5611857Y-12707857D01*
X5754714Y-12707857D01*
X5849952Y-12755476D01*
X5897571Y-12803095D01*
X5945190Y-12898333D01*
X5945190Y-13279285D01*
X5516619Y-12326904D02*
X5469000Y-12279285D01*
X5421380Y-12184047D01*
X5421380Y-11945952D01*
X5469000Y-11850714D01*
X5516619Y-11803095D01*
X5611857Y-11755476D01*
X5707095Y-11755476D01*
X5849952Y-11803095D01*
X6421380Y-12374523D01*
X6421380Y-11755476D01*
X5421380Y-10898333D02*
X5421380Y-11088809D01*
X5469000Y-11184047D01*
X5516619Y-11231666D01*
X5659476Y-11326904D01*
X5849952Y-11374523D01*
X6230904Y-11374523D01*
X6326142Y-11326904D01*
X6373761Y-11279285D01*
X6421380Y-11184047D01*
X6421380Y-10993571D01*
X6373761Y-10898333D01*
X6326142Y-10850714D01*
X6230904Y-10803095D01*
X5992809Y-10803095D01*
X5897571Y-10850714D01*
X5849952Y-10898333D01*
X5802333Y-10993571D01*
X5802333Y-11184047D01*
X5849952Y-11279285D01*
X5897571Y-11326904D01*
X5992809Y-11374523D01*
%TO.C,R3*%
X7199333Y5008619D02*
X6866000Y5484809D01*
X6627904Y5008619D02*
X6627904Y6008619D01*
X7008857Y6008619D01*
X7104095Y5961000D01*
X7151714Y5913380D01*
X7199333Y5818142D01*
X7199333Y5675285D01*
X7151714Y5580047D01*
X7104095Y5532428D01*
X7008857Y5484809D01*
X6627904Y5484809D01*
X7532666Y6008619D02*
X8151714Y6008619D01*
X7818380Y5627666D01*
X7961238Y5627666D01*
X8056476Y5580047D01*
X8104095Y5532428D01*
X8151714Y5437190D01*
X8151714Y5199095D01*
X8104095Y5103857D01*
X8056476Y5056238D01*
X7961238Y5008619D01*
X7675523Y5008619D01*
X7580285Y5056238D01*
X7532666Y5103857D01*
%TO.C,R11*%
X4818142Y-6802380D02*
X4484809Y-6326190D01*
X4246714Y-6802380D02*
X4246714Y-5802380D01*
X4627666Y-5802380D01*
X4722904Y-5850000D01*
X4770523Y-5897619D01*
X4818142Y-5992857D01*
X4818142Y-6135714D01*
X4770523Y-6230952D01*
X4722904Y-6278571D01*
X4627666Y-6326190D01*
X4246714Y-6326190D01*
X5770523Y-6802380D02*
X5199095Y-6802380D01*
X5484809Y-6802380D02*
X5484809Y-5802380D01*
X5389571Y-5945238D01*
X5294333Y-6040476D01*
X5199095Y-6088095D01*
X6722904Y-6802380D02*
X6151476Y-6802380D01*
X6437190Y-6802380D02*
X6437190Y-5802380D01*
X6341952Y-5945238D01*
X6246714Y-6040476D01*
X6151476Y-6088095D01*
%TO.C,R25*%
X12390380Y-12707857D02*
X11914190Y-13041190D01*
X12390380Y-13279285D02*
X11390380Y-13279285D01*
X11390380Y-12898333D01*
X11438000Y-12803095D01*
X11485619Y-12755476D01*
X11580857Y-12707857D01*
X11723714Y-12707857D01*
X11818952Y-12755476D01*
X11866571Y-12803095D01*
X11914190Y-12898333D01*
X11914190Y-13279285D01*
X11485619Y-12326904D02*
X11438000Y-12279285D01*
X11390380Y-12184047D01*
X11390380Y-11945952D01*
X11438000Y-11850714D01*
X11485619Y-11803095D01*
X11580857Y-11755476D01*
X11676095Y-11755476D01*
X11818952Y-11803095D01*
X12390380Y-12374523D01*
X12390380Y-11755476D01*
X11390380Y-10850714D02*
X11390380Y-11326904D01*
X11866571Y-11374523D01*
X11818952Y-11326904D01*
X11771333Y-11231666D01*
X11771333Y-10993571D01*
X11818952Y-10898333D01*
X11866571Y-10850714D01*
X11961809Y-10803095D01*
X12199904Y-10803095D01*
X12295142Y-10850714D01*
X12342761Y-10898333D01*
X12390380Y-10993571D01*
X12390380Y-11231666D01*
X12342761Y-11326904D01*
X12295142Y-11374523D01*
%TO.C,R4*%
X722333Y817619D02*
X388999Y1293809D01*
X150904Y817619D02*
X150904Y1817619D01*
X531857Y1817619D01*
X627095Y1770000D01*
X674714Y1722380D01*
X722333Y1627142D01*
X722333Y1484285D01*
X674714Y1389047D01*
X627095Y1341428D01*
X531857Y1293809D01*
X150904Y1293809D01*
X1579476Y1484285D02*
X1579476Y817619D01*
X1341380Y1865238D02*
X1103285Y1150952D01*
X1722333Y1150952D01*
%TO.C,C5*%
X16724333Y12469857D02*
X16676714Y12422238D01*
X16533857Y12374619D01*
X16438619Y12374619D01*
X16295761Y12422238D01*
X16200523Y12517476D01*
X16152904Y12612714D01*
X16105285Y12803190D01*
X16105285Y12946047D01*
X16152904Y13136523D01*
X16200523Y13231761D01*
X16295761Y13327000D01*
X16438619Y13374619D01*
X16533857Y13374619D01*
X16676714Y13327000D01*
X16724333Y13279380D01*
X17629095Y13374619D02*
X17152904Y13374619D01*
X17105285Y12898428D01*
X17152904Y12946047D01*
X17248142Y12993666D01*
X17486238Y12993666D01*
X17581476Y12946047D01*
X17629095Y12898428D01*
X17676714Y12803190D01*
X17676714Y12565095D01*
X17629095Y12469857D01*
X17581476Y12422238D01*
X17486238Y12374619D01*
X17248142Y12374619D01*
X17152904Y12422238D01*
X17105285Y12469857D01*
%TO.C,C4*%
X19264333Y-9247142D02*
X19216714Y-9294761D01*
X19073857Y-9342380D01*
X18978619Y-9342380D01*
X18835761Y-9294761D01*
X18740523Y-9199523D01*
X18692904Y-9104285D01*
X18645285Y-8913809D01*
X18645285Y-8770952D01*
X18692904Y-8580476D01*
X18740523Y-8485238D01*
X18835761Y-8390000D01*
X18978619Y-8342380D01*
X19073857Y-8342380D01*
X19216714Y-8390000D01*
X19264333Y-8437619D01*
X20121476Y-8675714D02*
X20121476Y-9342380D01*
X19883380Y-8294761D02*
X19645285Y-9009047D01*
X20264333Y-9009047D01*
%TO.C,C10*%
X15867142Y7262857D02*
X15819523Y7215238D01*
X15676666Y7167619D01*
X15581428Y7167619D01*
X15438571Y7215238D01*
X15343333Y7310476D01*
X15295714Y7405714D01*
X15248095Y7596190D01*
X15248095Y7739047D01*
X15295714Y7929523D01*
X15343333Y8024761D01*
X15438571Y8120000D01*
X15581428Y8167619D01*
X15676666Y8167619D01*
X15819523Y8120000D01*
X15867142Y8072380D01*
X16819523Y7167619D02*
X16248095Y7167619D01*
X16533809Y7167619D02*
X16533809Y8167619D01*
X16438571Y8024761D01*
X16343333Y7929523D01*
X16248095Y7881904D01*
X17438571Y8167619D02*
X17533809Y8167619D01*
X17629047Y8120000D01*
X17676666Y8072380D01*
X17724285Y7977142D01*
X17771904Y7786666D01*
X17771904Y7548571D01*
X17724285Y7358095D01*
X17676666Y7262857D01*
X17629047Y7215238D01*
X17533809Y7167619D01*
X17438571Y7167619D01*
X17343333Y7215238D01*
X17295714Y7262857D01*
X17248095Y7358095D01*
X17200476Y7548571D01*
X17200476Y7786666D01*
X17248095Y7977142D01*
X17295714Y8072380D01*
X17343333Y8120000D01*
X17438571Y8167619D01*
%TO.C,C3*%
X-3214666Y3325857D02*
X-3262285Y3278238D01*
X-3405142Y3230619D01*
X-3500380Y3230619D01*
X-3643238Y3278238D01*
X-3738476Y3373476D01*
X-3786095Y3468714D01*
X-3833714Y3659190D01*
X-3833714Y3802047D01*
X-3786095Y3992523D01*
X-3738476Y4087761D01*
X-3643238Y4183000D01*
X-3500380Y4230619D01*
X-3405142Y4230619D01*
X-3262285Y4183000D01*
X-3214666Y4135380D01*
X-2881333Y4230619D02*
X-2262285Y4230619D01*
X-2595619Y3849666D01*
X-2452761Y3849666D01*
X-2357523Y3802047D01*
X-2309904Y3754428D01*
X-2262285Y3659190D01*
X-2262285Y3421095D01*
X-2309904Y3325857D01*
X-2357523Y3278238D01*
X-2452761Y3230619D01*
X-2738476Y3230619D01*
X-2833714Y3278238D01*
X-2881333Y3325857D01*
%TO.C,C2*%
X5802333Y-8866142D02*
X5754714Y-8913761D01*
X5611857Y-8961380D01*
X5516619Y-8961380D01*
X5373761Y-8913761D01*
X5278523Y-8818523D01*
X5230904Y-8723285D01*
X5183285Y-8532809D01*
X5183285Y-8389952D01*
X5230904Y-8199476D01*
X5278523Y-8104238D01*
X5373761Y-8009000D01*
X5516619Y-7961380D01*
X5611857Y-7961380D01*
X5754714Y-8009000D01*
X5802333Y-8056619D01*
X6183285Y-8056619D02*
X6230904Y-8009000D01*
X6326142Y-7961380D01*
X6564238Y-7961380D01*
X6659476Y-8009000D01*
X6707095Y-8056619D01*
X6754714Y-8151857D01*
X6754714Y-8247095D01*
X6707095Y-8389952D01*
X6135666Y-8961380D01*
X6754714Y-8961380D01*
%TO.C,C9*%
X722333Y-1627142D02*
X674714Y-1674761D01*
X531857Y-1722380D01*
X436619Y-1722380D01*
X293761Y-1674761D01*
X198523Y-1579523D01*
X150904Y-1484285D01*
X103285Y-1293809D01*
X103285Y-1150952D01*
X150904Y-960476D01*
X198523Y-865238D01*
X293761Y-770000D01*
X436619Y-722380D01*
X531857Y-722380D01*
X674714Y-770000D01*
X722333Y-817619D01*
X1198523Y-1722380D02*
X1389000Y-1722380D01*
X1484238Y-1674761D01*
X1531857Y-1627142D01*
X1627095Y-1484285D01*
X1674714Y-1293809D01*
X1674714Y-912857D01*
X1627095Y-817619D01*
X1579476Y-770000D01*
X1484238Y-722380D01*
X1293761Y-722380D01*
X1198523Y-770000D01*
X1150904Y-817619D01*
X1103285Y-912857D01*
X1103285Y-1150952D01*
X1150904Y-1246190D01*
X1198523Y-1293809D01*
X1293761Y-1341428D01*
X1484238Y-1341428D01*
X1579476Y-1293809D01*
X1627095Y-1246190D01*
X1674714Y-1150952D01*
%TO.C,R8*%
X-28757619Y8342333D02*
X-29233809Y8009000D01*
X-28757619Y7770904D02*
X-29757619Y7770904D01*
X-29757619Y8151857D01*
X-29710000Y8247095D01*
X-29662380Y8294714D01*
X-29567142Y8342333D01*
X-29424285Y8342333D01*
X-29329047Y8294714D01*
X-29281428Y8247095D01*
X-29233809Y8151857D01*
X-29233809Y7770904D01*
X-29329047Y8913761D02*
X-29376666Y8818523D01*
X-29424285Y8770904D01*
X-29519523Y8723285D01*
X-29567142Y8723285D01*
X-29662380Y8770904D01*
X-29710000Y8818523D01*
X-29757619Y8913761D01*
X-29757619Y9104238D01*
X-29710000Y9199476D01*
X-29662380Y9247095D01*
X-29567142Y9294714D01*
X-29519523Y9294714D01*
X-29424285Y9247095D01*
X-29376666Y9199476D01*
X-29329047Y9104238D01*
X-29329047Y8913761D01*
X-29281428Y8818523D01*
X-29233809Y8770904D01*
X-29138571Y8723285D01*
X-28948095Y8723285D01*
X-28852857Y8770904D01*
X-28805238Y8818523D01*
X-28757619Y8913761D01*
X-28757619Y9104238D01*
X-28805238Y9199476D01*
X-28852857Y9247095D01*
X-28948095Y9294714D01*
X-29138571Y9294714D01*
X-29233809Y9247095D01*
X-29281428Y9199476D01*
X-29329047Y9104238D01*
%TO.C,R30*%
X-34932857Y-8198380D02*
X-35266190Y-7722190D01*
X-35504285Y-8198380D02*
X-35504285Y-7198380D01*
X-35123333Y-7198380D01*
X-35028095Y-7246000D01*
X-34980476Y-7293619D01*
X-34932857Y-7388857D01*
X-34932857Y-7531714D01*
X-34980476Y-7626952D01*
X-35028095Y-7674571D01*
X-35123333Y-7722190D01*
X-35504285Y-7722190D01*
X-34599523Y-7198380D02*
X-33980476Y-7198380D01*
X-34313809Y-7579333D01*
X-34170952Y-7579333D01*
X-34075714Y-7626952D01*
X-34028095Y-7674571D01*
X-33980476Y-7769809D01*
X-33980476Y-8007904D01*
X-34028095Y-8103142D01*
X-34075714Y-8150761D01*
X-34170952Y-8198380D01*
X-34456666Y-8198380D01*
X-34551904Y-8150761D01*
X-34599523Y-8103142D01*
X-33361428Y-7198380D02*
X-33266190Y-7198380D01*
X-33170952Y-7246000D01*
X-33123333Y-7293619D01*
X-33075714Y-7388857D01*
X-33028095Y-7579333D01*
X-33028095Y-7817428D01*
X-33075714Y-8007904D01*
X-33123333Y-8103142D01*
X-33170952Y-8150761D01*
X-33266190Y-8198380D01*
X-33361428Y-8198380D01*
X-33456666Y-8150761D01*
X-33504285Y-8103142D01*
X-33551904Y-8007904D01*
X-33599523Y-7817428D01*
X-33599523Y-7579333D01*
X-33551904Y-7388857D01*
X-33504285Y-7293619D01*
X-33456666Y-7246000D01*
X-33361428Y-7198380D01*
%TO.C,R23*%
X-26804857Y-6421380D02*
X-27138190Y-5945190D01*
X-27376285Y-6421380D02*
X-27376285Y-5421380D01*
X-26995333Y-5421380D01*
X-26900095Y-5469000D01*
X-26852476Y-5516619D01*
X-26804857Y-5611857D01*
X-26804857Y-5754714D01*
X-26852476Y-5849952D01*
X-26900095Y-5897571D01*
X-26995333Y-5945190D01*
X-27376285Y-5945190D01*
X-26423904Y-5516619D02*
X-26376285Y-5469000D01*
X-26281047Y-5421380D01*
X-26042952Y-5421380D01*
X-25947714Y-5469000D01*
X-25900095Y-5516619D01*
X-25852476Y-5611857D01*
X-25852476Y-5707095D01*
X-25900095Y-5849952D01*
X-26471523Y-6421380D01*
X-25852476Y-6421380D01*
X-25519142Y-5421380D02*
X-24900095Y-5421380D01*
X-25233428Y-5802333D01*
X-25090571Y-5802333D01*
X-24995333Y-5849952D01*
X-24947714Y-5897571D01*
X-24900095Y-5992809D01*
X-24900095Y-6230904D01*
X-24947714Y-6326142D01*
X-24995333Y-6373761D01*
X-25090571Y-6421380D01*
X-25376285Y-6421380D01*
X-25471523Y-6373761D01*
X-25519142Y-6326142D01*
%TO.C,R37*%
X-32265857Y-18486380D02*
X-32599190Y-18010190D01*
X-32837285Y-18486380D02*
X-32837285Y-17486380D01*
X-32456333Y-17486380D01*
X-32361095Y-17534000D01*
X-32313476Y-17581619D01*
X-32265857Y-17676857D01*
X-32265857Y-17819714D01*
X-32313476Y-17914952D01*
X-32361095Y-17962571D01*
X-32456333Y-18010190D01*
X-32837285Y-18010190D01*
X-31932523Y-17486380D02*
X-31313476Y-17486380D01*
X-31646809Y-17867333D01*
X-31503952Y-17867333D01*
X-31408714Y-17914952D01*
X-31361095Y-17962571D01*
X-31313476Y-18057809D01*
X-31313476Y-18295904D01*
X-31361095Y-18391142D01*
X-31408714Y-18438761D01*
X-31503952Y-18486380D01*
X-31789666Y-18486380D01*
X-31884904Y-18438761D01*
X-31932523Y-18391142D01*
X-30980142Y-17486380D02*
X-30313476Y-17486380D01*
X-30742047Y-18486380D01*
%TO.C,R29*%
X-34551857Y-2611380D02*
X-34885190Y-2135190D01*
X-35123285Y-2611380D02*
X-35123285Y-1611380D01*
X-34742333Y-1611380D01*
X-34647095Y-1659000D01*
X-34599476Y-1706619D01*
X-34551857Y-1801857D01*
X-34551857Y-1944714D01*
X-34599476Y-2039952D01*
X-34647095Y-2087571D01*
X-34742333Y-2135190D01*
X-35123285Y-2135190D01*
X-34170904Y-1706619D02*
X-34123285Y-1659000D01*
X-34028047Y-1611380D01*
X-33789952Y-1611380D01*
X-33694714Y-1659000D01*
X-33647095Y-1706619D01*
X-33599476Y-1801857D01*
X-33599476Y-1897095D01*
X-33647095Y-2039952D01*
X-34218523Y-2611380D01*
X-33599476Y-2611380D01*
X-33123285Y-2611380D02*
X-32932809Y-2611380D01*
X-32837571Y-2563761D01*
X-32789952Y-2516142D01*
X-32694714Y-2373285D01*
X-32647095Y-2182809D01*
X-32647095Y-1801857D01*
X-32694714Y-1706619D01*
X-32742333Y-1659000D01*
X-32837571Y-1611380D01*
X-33028047Y-1611380D01*
X-33123285Y-1659000D01*
X-33170904Y-1706619D01*
X-33218523Y-1801857D01*
X-33218523Y-2039952D01*
X-33170904Y-2135190D01*
X-33123285Y-2182809D01*
X-33028047Y-2230428D01*
X-32837571Y-2230428D01*
X-32742333Y-2182809D01*
X-32694714Y-2135190D01*
X-32647095Y-2039952D01*
%TO.C,C1*%
X-21359857Y-28741666D02*
X-21312238Y-28789285D01*
X-21264619Y-28932142D01*
X-21264619Y-29027380D01*
X-21312238Y-29170238D01*
X-21407476Y-29265476D01*
X-21502714Y-29313095D01*
X-21693190Y-29360714D01*
X-21836047Y-29360714D01*
X-22026523Y-29313095D01*
X-22121761Y-29265476D01*
X-22217000Y-29170238D01*
X-22264619Y-29027380D01*
X-22264619Y-28932142D01*
X-22217000Y-28789285D01*
X-22169380Y-28741666D01*
X-21264619Y-27789285D02*
X-21264619Y-28360714D01*
X-21264619Y-28075000D02*
X-22264619Y-28075000D01*
X-22121761Y-28170238D01*
X-22026523Y-28265476D01*
X-21978904Y-28360714D01*
%TO.C,C13*%
X-40901857Y-20042142D02*
X-40949476Y-20089761D01*
X-41092333Y-20137380D01*
X-41187571Y-20137380D01*
X-41330428Y-20089761D01*
X-41425666Y-19994523D01*
X-41473285Y-19899285D01*
X-41520904Y-19708809D01*
X-41520904Y-19565952D01*
X-41473285Y-19375476D01*
X-41425666Y-19280238D01*
X-41330428Y-19185000D01*
X-41187571Y-19137380D01*
X-41092333Y-19137380D01*
X-40949476Y-19185000D01*
X-40901857Y-19232619D01*
X-39949476Y-20137380D02*
X-40520904Y-20137380D01*
X-40235190Y-20137380D02*
X-40235190Y-19137380D01*
X-40330428Y-19280238D01*
X-40425666Y-19375476D01*
X-40520904Y-19423095D01*
X-39616142Y-19137380D02*
X-38997095Y-19137380D01*
X-39330428Y-19518333D01*
X-39187571Y-19518333D01*
X-39092333Y-19565952D01*
X-39044714Y-19613571D01*
X-38997095Y-19708809D01*
X-38997095Y-19946904D01*
X-39044714Y-20042142D01*
X-39092333Y-20089761D01*
X-39187571Y-20137380D01*
X-39473285Y-20137380D01*
X-39568523Y-20089761D01*
X-39616142Y-20042142D01*
%TO.C,R38*%
X-32011857Y-13152380D02*
X-32345190Y-12676190D01*
X-32583285Y-13152380D02*
X-32583285Y-12152380D01*
X-32202333Y-12152380D01*
X-32107095Y-12200000D01*
X-32059476Y-12247619D01*
X-32011857Y-12342857D01*
X-32011857Y-12485714D01*
X-32059476Y-12580952D01*
X-32107095Y-12628571D01*
X-32202333Y-12676190D01*
X-32583285Y-12676190D01*
X-31678523Y-12152380D02*
X-31059476Y-12152380D01*
X-31392809Y-12533333D01*
X-31249952Y-12533333D01*
X-31154714Y-12580952D01*
X-31107095Y-12628571D01*
X-31059476Y-12723809D01*
X-31059476Y-12961904D01*
X-31107095Y-13057142D01*
X-31154714Y-13104761D01*
X-31249952Y-13152380D01*
X-31535666Y-13152380D01*
X-31630904Y-13104761D01*
X-31678523Y-13057142D01*
X-30488047Y-12580952D02*
X-30583285Y-12533333D01*
X-30630904Y-12485714D01*
X-30678523Y-12390476D01*
X-30678523Y-12342857D01*
X-30630904Y-12247619D01*
X-30583285Y-12200000D01*
X-30488047Y-12152380D01*
X-30297571Y-12152380D01*
X-30202333Y-12200000D01*
X-30154714Y-12247619D01*
X-30107095Y-12342857D01*
X-30107095Y-12390476D01*
X-30154714Y-12485714D01*
X-30202333Y-12533333D01*
X-30297571Y-12580952D01*
X-30488047Y-12580952D01*
X-30583285Y-12628571D01*
X-30630904Y-12676190D01*
X-30678523Y-12771428D01*
X-30678523Y-12961904D01*
X-30630904Y-13057142D01*
X-30583285Y-13104761D01*
X-30488047Y-13152380D01*
X-30297571Y-13152380D01*
X-30202333Y-13104761D01*
X-30154714Y-13057142D01*
X-30107095Y-12961904D01*
X-30107095Y-12771428D01*
X-30154714Y-12676190D01*
X-30202333Y-12628571D01*
X-30297571Y-12580952D01*
%TO.C,R20*%
X-23169619Y-15882857D02*
X-23645809Y-16216190D01*
X-23169619Y-16454285D02*
X-24169619Y-16454285D01*
X-24169619Y-16073333D01*
X-24122000Y-15978095D01*
X-24074380Y-15930476D01*
X-23979142Y-15882857D01*
X-23836285Y-15882857D01*
X-23741047Y-15930476D01*
X-23693428Y-15978095D01*
X-23645809Y-16073333D01*
X-23645809Y-16454285D01*
X-24074380Y-15501904D02*
X-24122000Y-15454285D01*
X-24169619Y-15359047D01*
X-24169619Y-15120952D01*
X-24122000Y-15025714D01*
X-24074380Y-14978095D01*
X-23979142Y-14930476D01*
X-23883904Y-14930476D01*
X-23741047Y-14978095D01*
X-23169619Y-15549523D01*
X-23169619Y-14930476D01*
X-24169619Y-14311428D02*
X-24169619Y-14216190D01*
X-24122000Y-14120952D01*
X-24074380Y-14073333D01*
X-23979142Y-14025714D01*
X-23788666Y-13978095D01*
X-23550571Y-13978095D01*
X-23360095Y-14025714D01*
X-23264857Y-14073333D01*
X-23217238Y-14120952D01*
X-23169619Y-14216190D01*
X-23169619Y-14311428D01*
X-23217238Y-14406666D01*
X-23264857Y-14454285D01*
X-23360095Y-14501904D01*
X-23550571Y-14549523D01*
X-23788666Y-14549523D01*
X-23979142Y-14501904D01*
X-24074380Y-14454285D01*
X-24122000Y-14406666D01*
X-24169619Y-14311428D01*
%TO.C,R24*%
X-27487619Y-19311857D02*
X-27963809Y-19645190D01*
X-27487619Y-19883285D02*
X-28487619Y-19883285D01*
X-28487619Y-19502333D01*
X-28440000Y-19407095D01*
X-28392380Y-19359476D01*
X-28297142Y-19311857D01*
X-28154285Y-19311857D01*
X-28059047Y-19359476D01*
X-28011428Y-19407095D01*
X-27963809Y-19502333D01*
X-27963809Y-19883285D01*
X-28392380Y-18930904D02*
X-28440000Y-18883285D01*
X-28487619Y-18788047D01*
X-28487619Y-18549952D01*
X-28440000Y-18454714D01*
X-28392380Y-18407095D01*
X-28297142Y-18359476D01*
X-28201904Y-18359476D01*
X-28059047Y-18407095D01*
X-27487619Y-18978523D01*
X-27487619Y-18359476D01*
X-28154285Y-17502333D02*
X-27487619Y-17502333D01*
X-28535238Y-17740428D02*
X-27820952Y-17978523D01*
X-27820952Y-17359476D01*
%TO.C,R39*%
X-25455619Y-20454857D02*
X-25931809Y-20788190D01*
X-25455619Y-21026285D02*
X-26455619Y-21026285D01*
X-26455619Y-20645333D01*
X-26408000Y-20550095D01*
X-26360380Y-20502476D01*
X-26265142Y-20454857D01*
X-26122285Y-20454857D01*
X-26027047Y-20502476D01*
X-25979428Y-20550095D01*
X-25931809Y-20645333D01*
X-25931809Y-21026285D01*
X-26455619Y-20121523D02*
X-26455619Y-19502476D01*
X-26074666Y-19835809D01*
X-26074666Y-19692952D01*
X-26027047Y-19597714D01*
X-25979428Y-19550095D01*
X-25884190Y-19502476D01*
X-25646095Y-19502476D01*
X-25550857Y-19550095D01*
X-25503238Y-19597714D01*
X-25455619Y-19692952D01*
X-25455619Y-19978666D01*
X-25503238Y-20073904D01*
X-25550857Y-20121523D01*
X-25455619Y-19026285D02*
X-25455619Y-18835809D01*
X-25503238Y-18740571D01*
X-25550857Y-18692952D01*
X-25693714Y-18597714D01*
X-25884190Y-18550095D01*
X-26265142Y-18550095D01*
X-26360380Y-18597714D01*
X-26408000Y-18645333D01*
X-26455619Y-18740571D01*
X-26455619Y-18931047D01*
X-26408000Y-19026285D01*
X-26360380Y-19073904D01*
X-26265142Y-19121523D01*
X-26027047Y-19121523D01*
X-25931809Y-19073904D01*
X-25884190Y-19026285D01*
X-25836571Y-18931047D01*
X-25836571Y-18740571D01*
X-25884190Y-18645333D01*
X-25931809Y-18597714D01*
X-26027047Y-18550095D01*
%TO.C,R15*%
X21662380Y-29852857D02*
X21186190Y-30186190D01*
X21662380Y-30424285D02*
X20662380Y-30424285D01*
X20662380Y-30043333D01*
X20710000Y-29948095D01*
X20757619Y-29900476D01*
X20852857Y-29852857D01*
X20995714Y-29852857D01*
X21090952Y-29900476D01*
X21138571Y-29948095D01*
X21186190Y-30043333D01*
X21186190Y-30424285D01*
X21662380Y-28900476D02*
X21662380Y-29471904D01*
X21662380Y-29186190D02*
X20662380Y-29186190D01*
X20805238Y-29281428D01*
X20900476Y-29376666D01*
X20948095Y-29471904D01*
X20662380Y-27995714D02*
X20662380Y-28471904D01*
X21138571Y-28519523D01*
X21090952Y-28471904D01*
X21043333Y-28376666D01*
X21043333Y-28138571D01*
X21090952Y-28043333D01*
X21138571Y-27995714D01*
X21233809Y-27948095D01*
X21471904Y-27948095D01*
X21567142Y-27995714D01*
X21614761Y-28043333D01*
X21662380Y-28138571D01*
X21662380Y-28376666D01*
X21614761Y-28471904D01*
X21567142Y-28519523D01*
%TO.C,R31*%
X21662380Y-24772857D02*
X21186190Y-25106190D01*
X21662380Y-25344285D02*
X20662380Y-25344285D01*
X20662380Y-24963333D01*
X20710000Y-24868095D01*
X20757619Y-24820476D01*
X20852857Y-24772857D01*
X20995714Y-24772857D01*
X21090952Y-24820476D01*
X21138571Y-24868095D01*
X21186190Y-24963333D01*
X21186190Y-25344285D01*
X20662380Y-24439523D02*
X20662380Y-23820476D01*
X21043333Y-24153809D01*
X21043333Y-24010952D01*
X21090952Y-23915714D01*
X21138571Y-23868095D01*
X21233809Y-23820476D01*
X21471904Y-23820476D01*
X21567142Y-23868095D01*
X21614761Y-23915714D01*
X21662380Y-24010952D01*
X21662380Y-24296666D01*
X21614761Y-24391904D01*
X21567142Y-24439523D01*
X21662380Y-22868095D02*
X21662380Y-23439523D01*
X21662380Y-23153809D02*
X20662380Y-23153809D01*
X20805238Y-23249047D01*
X20900476Y-23344285D01*
X20948095Y-23439523D01*
%TO.C,D2*%
X-15597095Y2087619D02*
X-15597095Y3087619D01*
X-15359000Y3087619D01*
X-15216142Y3040000D01*
X-15120904Y2944761D01*
X-15073285Y2849523D01*
X-15025666Y2659047D01*
X-15025666Y2516190D01*
X-15073285Y2325714D01*
X-15120904Y2230476D01*
X-15216142Y2135238D01*
X-15359000Y2087619D01*
X-15597095Y2087619D01*
X-14644714Y2992380D02*
X-14597095Y3040000D01*
X-14501857Y3087619D01*
X-14263761Y3087619D01*
X-14168523Y3040000D01*
X-14120904Y2992380D01*
X-14073285Y2897142D01*
X-14073285Y2801904D01*
X-14120904Y2659047D01*
X-14692333Y2087619D01*
X-14073285Y2087619D01*
%TO.C,U7*%
X-22224904Y-2246380D02*
X-22224904Y-3055904D01*
X-22177285Y-3151142D01*
X-22129666Y-3198761D01*
X-22034428Y-3246380D01*
X-21843952Y-3246380D01*
X-21748714Y-3198761D01*
X-21701095Y-3151142D01*
X-21653476Y-3055904D01*
X-21653476Y-2246380D01*
X-21272523Y-2246380D02*
X-20605857Y-2246380D01*
X-21034428Y-3246380D01*
%TO.C,D7*%
X-18137095Y-27122380D02*
X-18137095Y-26122380D01*
X-17899000Y-26122380D01*
X-17756142Y-26170000D01*
X-17660904Y-26265238D01*
X-17613285Y-26360476D01*
X-17565666Y-26550952D01*
X-17565666Y-26693809D01*
X-17613285Y-26884285D01*
X-17660904Y-26979523D01*
X-17756142Y-27074761D01*
X-17899000Y-27122380D01*
X-18137095Y-27122380D01*
X-17232333Y-26122380D02*
X-16565666Y-26122380D01*
X-16994238Y-27122380D01*
%TO.C,D4*%
X-18137095Y-23312380D02*
X-18137095Y-22312380D01*
X-17899000Y-22312380D01*
X-17756142Y-22360000D01*
X-17660904Y-22455238D01*
X-17613285Y-22550476D01*
X-17565666Y-22740952D01*
X-17565666Y-22883809D01*
X-17613285Y-23074285D01*
X-17660904Y-23169523D01*
X-17756142Y-23264761D01*
X-17899000Y-23312380D01*
X-18137095Y-23312380D01*
X-16708523Y-22645714D02*
X-16708523Y-23312380D01*
X-16946619Y-22264761D02*
X-17184714Y-22979047D01*
X-16565666Y-22979047D01*
%TO.C,D6*%
X38377904Y19994619D02*
X38377904Y20994619D01*
X38616000Y20994619D01*
X38758857Y20947000D01*
X38854095Y20851761D01*
X38901714Y20756523D01*
X38949333Y20566047D01*
X38949333Y20423190D01*
X38901714Y20232714D01*
X38854095Y20137476D01*
X38758857Y20042238D01*
X38616000Y19994619D01*
X38377904Y19994619D01*
X39806476Y20994619D02*
X39616000Y20994619D01*
X39520761Y20947000D01*
X39473142Y20899380D01*
X39377904Y20756523D01*
X39330285Y20566047D01*
X39330285Y20185095D01*
X39377904Y20089857D01*
X39425523Y20042238D01*
X39520761Y19994619D01*
X39711238Y19994619D01*
X39806476Y20042238D01*
X39854095Y20089857D01*
X39901714Y20185095D01*
X39901714Y20423190D01*
X39854095Y20518428D01*
X39806476Y20566047D01*
X39711238Y20613666D01*
X39520761Y20613666D01*
X39425523Y20566047D01*
X39377904Y20518428D01*
X39330285Y20423190D01*
%TO.C,D5*%
X19462380Y-23598095D02*
X18462380Y-23598095D01*
X18462380Y-23360000D01*
X18510000Y-23217142D01*
X18605238Y-23121904D01*
X18700476Y-23074285D01*
X18890952Y-23026666D01*
X19033809Y-23026666D01*
X19224285Y-23074285D01*
X19319523Y-23121904D01*
X19414761Y-23217142D01*
X19462380Y-23360000D01*
X19462380Y-23598095D01*
X18462380Y-22121904D02*
X18462380Y-22598095D01*
X18938571Y-22645714D01*
X18890952Y-22598095D01*
X18843333Y-22502857D01*
X18843333Y-22264761D01*
X18890952Y-22169523D01*
X18938571Y-22121904D01*
X19033809Y-22074285D01*
X19271904Y-22074285D01*
X19367142Y-22121904D01*
X19414761Y-22169523D01*
X19462380Y-22264761D01*
X19462380Y-22502857D01*
X19414761Y-22598095D01*
X19367142Y-22645714D01*
%TO.C,SW1*%
X29614761Y3365666D02*
X29662380Y3508523D01*
X29662380Y3746619D01*
X29614761Y3841857D01*
X29567142Y3889476D01*
X29471904Y3937095D01*
X29376666Y3937095D01*
X29281428Y3889476D01*
X29233809Y3841857D01*
X29186190Y3746619D01*
X29138571Y3556142D01*
X29090952Y3460904D01*
X29043333Y3413285D01*
X28948095Y3365666D01*
X28852857Y3365666D01*
X28757619Y3413285D01*
X28710000Y3460904D01*
X28662380Y3556142D01*
X28662380Y3794238D01*
X28710000Y3937095D01*
X28662380Y4270428D02*
X29662380Y4508523D01*
X28948095Y4699000D01*
X29662380Y4889476D01*
X28662380Y5127571D01*
X29662380Y6032333D02*
X29662380Y5460904D01*
X29662380Y5746619D02*
X28662380Y5746619D01*
X28805238Y5651380D01*
X28900476Y5556142D01*
X28948095Y5460904D01*
%TO.C,Q2*%
X-19399238Y-41060619D02*
X-19494476Y-41013000D01*
X-19589714Y-40917761D01*
X-19732571Y-40774904D01*
X-19827809Y-40727285D01*
X-19923047Y-40727285D01*
X-19875428Y-40965380D02*
X-19970666Y-40917761D01*
X-20065904Y-40822523D01*
X-20113523Y-40632047D01*
X-20113523Y-40298714D01*
X-20065904Y-40108238D01*
X-19970666Y-40013000D01*
X-19875428Y-39965380D01*
X-19684952Y-39965380D01*
X-19589714Y-40013000D01*
X-19494476Y-40108238D01*
X-19446857Y-40298714D01*
X-19446857Y-40632047D01*
X-19494476Y-40822523D01*
X-19589714Y-40917761D01*
X-19684952Y-40965380D01*
X-19875428Y-40965380D01*
X-19065904Y-40060619D02*
X-19018285Y-40013000D01*
X-18923047Y-39965380D01*
X-18684952Y-39965380D01*
X-18589714Y-40013000D01*
X-18542095Y-40060619D01*
X-18494476Y-40155857D01*
X-18494476Y-40251095D01*
X-18542095Y-40393952D01*
X-19113523Y-40965380D01*
X-18494476Y-40965380D01*
%TO.C,Q1*%
X4397619Y20224761D02*
X4350000Y20129523D01*
X4254761Y20034285D01*
X4111904Y19891428D01*
X4064285Y19796190D01*
X4064285Y19700952D01*
X4302380Y19748571D02*
X4254761Y19653333D01*
X4159523Y19558095D01*
X3969047Y19510476D01*
X3635714Y19510476D01*
X3445238Y19558095D01*
X3350000Y19653333D01*
X3302380Y19748571D01*
X3302380Y19939047D01*
X3350000Y20034285D01*
X3445238Y20129523D01*
X3635714Y20177142D01*
X3969047Y20177142D01*
X4159523Y20129523D01*
X4254761Y20034285D01*
X4302380Y19939047D01*
X4302380Y19748571D01*
X4302380Y21129523D02*
X4302380Y20558095D01*
X4302380Y20843809D02*
X3302380Y20843809D01*
X3445238Y20748571D01*
X3540476Y20653333D01*
X3588095Y20558095D01*
%TO.C,Q3*%
X4865619Y-29686238D02*
X4818000Y-29781476D01*
X4722761Y-29876714D01*
X4579904Y-30019571D01*
X4532285Y-30114809D01*
X4532285Y-30210047D01*
X4770380Y-30162428D02*
X4722761Y-30257666D01*
X4627523Y-30352904D01*
X4437047Y-30400523D01*
X4103714Y-30400523D01*
X3913238Y-30352904D01*
X3818000Y-30257666D01*
X3770380Y-30162428D01*
X3770380Y-29971952D01*
X3818000Y-29876714D01*
X3913238Y-29781476D01*
X4103714Y-29733857D01*
X4437047Y-29733857D01*
X4627523Y-29781476D01*
X4722761Y-29876714D01*
X4770380Y-29971952D01*
X4770380Y-30162428D01*
X3770380Y-29400523D02*
X3770380Y-28781476D01*
X4151333Y-29114809D01*
X4151333Y-28971952D01*
X4198952Y-28876714D01*
X4246571Y-28829095D01*
X4341809Y-28781476D01*
X4579904Y-28781476D01*
X4675142Y-28829095D01*
X4722761Y-28876714D01*
X4770380Y-28971952D01*
X4770380Y-29257666D01*
X4722761Y-29352904D01*
X4675142Y-29400523D01*
%TO.C,R1*%
X-166666Y-23232380D02*
X-500000Y-22756190D01*
X-738095Y-23232380D02*
X-738095Y-22232380D01*
X-357142Y-22232380D01*
X-261904Y-22280000D01*
X-214285Y-22327619D01*
X-166666Y-22422857D01*
X-166666Y-22565714D01*
X-214285Y-22660952D01*
X-261904Y-22708571D01*
X-357142Y-22756190D01*
X-738095Y-22756190D01*
X785714Y-23232380D02*
X214285Y-23232380D01*
X499999Y-23232380D02*
X499999Y-22232380D01*
X404761Y-22375238D01*
X309523Y-22470476D01*
X214285Y-22518095D01*
%TO.C,R27*%
X20010380Y-12707857D02*
X19534190Y-13041190D01*
X20010380Y-13279285D02*
X19010380Y-13279285D01*
X19010380Y-12898333D01*
X19058000Y-12803095D01*
X19105619Y-12755476D01*
X19200857Y-12707857D01*
X19343714Y-12707857D01*
X19438952Y-12755476D01*
X19486571Y-12803095D01*
X19534190Y-12898333D01*
X19534190Y-13279285D01*
X19105619Y-12326904D02*
X19058000Y-12279285D01*
X19010380Y-12184047D01*
X19010380Y-11945952D01*
X19058000Y-11850714D01*
X19105619Y-11803095D01*
X19200857Y-11755476D01*
X19296095Y-11755476D01*
X19438952Y-11803095D01*
X20010380Y-12374523D01*
X20010380Y-11755476D01*
X19010380Y-11422142D02*
X19010380Y-10755476D01*
X20010380Y-11184047D01*
%TO.C,D3*%
X-7088095Y-37409380D02*
X-7088095Y-36409380D01*
X-6850000Y-36409380D01*
X-6707142Y-36457000D01*
X-6611904Y-36552238D01*
X-6564285Y-36647476D01*
X-6516666Y-36837952D01*
X-6516666Y-36980809D01*
X-6564285Y-37171285D01*
X-6611904Y-37266523D01*
X-6707142Y-37361761D01*
X-6850000Y-37409380D01*
X-7088095Y-37409380D01*
X-6183333Y-36409380D02*
X-5564285Y-36409380D01*
X-5897619Y-36790333D01*
X-5754761Y-36790333D01*
X-5659523Y-36837952D01*
X-5611904Y-36885571D01*
X-5564285Y-36980809D01*
X-5564285Y-37218904D01*
X-5611904Y-37314142D01*
X-5659523Y-37361761D01*
X-5754761Y-37409380D01*
X-6040476Y-37409380D01*
X-6135714Y-37361761D01*
X-6183333Y-37314142D01*
%TO.C,R40*%
X-20962857Y-20392380D02*
X-21296190Y-19916190D01*
X-21534285Y-20392380D02*
X-21534285Y-19392380D01*
X-21153333Y-19392380D01*
X-21058095Y-19440000D01*
X-21010476Y-19487619D01*
X-20962857Y-19582857D01*
X-20962857Y-19725714D01*
X-21010476Y-19820952D01*
X-21058095Y-19868571D01*
X-21153333Y-19916190D01*
X-21534285Y-19916190D01*
X-20105714Y-19725714D02*
X-20105714Y-20392380D01*
X-20343809Y-19344761D02*
X-20581904Y-20059047D01*
X-19962857Y-20059047D01*
X-19391428Y-19392380D02*
X-19296190Y-19392380D01*
X-19200952Y-19440000D01*
X-19153333Y-19487619D01*
X-19105714Y-19582857D01*
X-19058095Y-19773333D01*
X-19058095Y-20011428D01*
X-19105714Y-20201904D01*
X-19153333Y-20297142D01*
X-19200952Y-20344761D01*
X-19296190Y-20392380D01*
X-19391428Y-20392380D01*
X-19486666Y-20344761D01*
X-19534285Y-20297142D01*
X-19581904Y-20201904D01*
X-19629523Y-20011428D01*
X-19629523Y-19773333D01*
X-19581904Y-19582857D01*
X-19534285Y-19487619D01*
X-19486666Y-19440000D01*
X-19391428Y-19392380D01*
%TO.C,R13*%
X-12247619Y-36583857D02*
X-12723809Y-36917190D01*
X-12247619Y-37155285D02*
X-13247619Y-37155285D01*
X-13247619Y-36774333D01*
X-13200000Y-36679095D01*
X-13152380Y-36631476D01*
X-13057142Y-36583857D01*
X-12914285Y-36583857D01*
X-12819047Y-36631476D01*
X-12771428Y-36679095D01*
X-12723809Y-36774333D01*
X-12723809Y-37155285D01*
X-12247619Y-35631476D02*
X-12247619Y-36202904D01*
X-12247619Y-35917190D02*
X-13247619Y-35917190D01*
X-13104761Y-36012428D01*
X-13009523Y-36107666D01*
X-12961904Y-36202904D01*
X-13247619Y-35298142D02*
X-13247619Y-34679095D01*
X-12866666Y-35012428D01*
X-12866666Y-34869571D01*
X-12819047Y-34774333D01*
X-12771428Y-34726714D01*
X-12676190Y-34679095D01*
X-12438095Y-34679095D01*
X-12342857Y-34726714D01*
X-12295238Y-34774333D01*
X-12247619Y-34869571D01*
X-12247619Y-35155285D01*
X-12295238Y-35250523D01*
X-12342857Y-35298142D01*
%TO.C,R21*%
X-9707619Y-36583857D02*
X-10183809Y-36917190D01*
X-9707619Y-37155285D02*
X-10707619Y-37155285D01*
X-10707619Y-36774333D01*
X-10660000Y-36679095D01*
X-10612380Y-36631476D01*
X-10517142Y-36583857D01*
X-10374285Y-36583857D01*
X-10279047Y-36631476D01*
X-10231428Y-36679095D01*
X-10183809Y-36774333D01*
X-10183809Y-37155285D01*
X-10612380Y-36202904D02*
X-10660000Y-36155285D01*
X-10707619Y-36060047D01*
X-10707619Y-35821952D01*
X-10660000Y-35726714D01*
X-10612380Y-35679095D01*
X-10517142Y-35631476D01*
X-10421904Y-35631476D01*
X-10279047Y-35679095D01*
X-9707619Y-36250523D01*
X-9707619Y-35631476D01*
X-9707619Y-34679095D02*
X-9707619Y-35250523D01*
X-9707619Y-34964809D02*
X-10707619Y-34964809D01*
X-10564761Y-35060047D01*
X-10469523Y-35155285D01*
X-10421904Y-35250523D01*
%TO.C,R19*%
X-20454857Y-30424380D02*
X-20788190Y-29948190D01*
X-21026285Y-30424380D02*
X-21026285Y-29424380D01*
X-20645333Y-29424380D01*
X-20550095Y-29472000D01*
X-20502476Y-29519619D01*
X-20454857Y-29614857D01*
X-20454857Y-29757714D01*
X-20502476Y-29852952D01*
X-20550095Y-29900571D01*
X-20645333Y-29948190D01*
X-21026285Y-29948190D01*
X-19502476Y-30424380D02*
X-20073904Y-30424380D01*
X-19788190Y-30424380D02*
X-19788190Y-29424380D01*
X-19883428Y-29567238D01*
X-19978666Y-29662476D01*
X-20073904Y-29710095D01*
X-19026285Y-30424380D02*
X-18835809Y-30424380D01*
X-18740571Y-30376761D01*
X-18692952Y-30329142D01*
X-18597714Y-30186285D01*
X-18550095Y-29995809D01*
X-18550095Y-29614857D01*
X-18597714Y-29519619D01*
X-18645333Y-29472000D01*
X-18740571Y-29424380D01*
X-18931047Y-29424380D01*
X-19026285Y-29472000D01*
X-19073904Y-29519619D01*
X-19121523Y-29614857D01*
X-19121523Y-29852952D01*
X-19073904Y-29948190D01*
X-19026285Y-29995809D01*
X-18931047Y-30043428D01*
X-18740571Y-30043428D01*
X-18645333Y-29995809D01*
X-18597714Y-29948190D01*
X-18550095Y-29852952D01*
%TO.C,R33*%
X10279142Y15930619D02*
X9945809Y16406809D01*
X9707714Y15930619D02*
X9707714Y16930619D01*
X10088666Y16930619D01*
X10183904Y16883000D01*
X10231523Y16835380D01*
X10279142Y16740142D01*
X10279142Y16597285D01*
X10231523Y16502047D01*
X10183904Y16454428D01*
X10088666Y16406809D01*
X9707714Y16406809D01*
X10612476Y16930619D02*
X11231523Y16930619D01*
X10898190Y16549666D01*
X11041047Y16549666D01*
X11136285Y16502047D01*
X11183904Y16454428D01*
X11231523Y16359190D01*
X11231523Y16121095D01*
X11183904Y16025857D01*
X11136285Y15978238D01*
X11041047Y15930619D01*
X10755333Y15930619D01*
X10660095Y15978238D01*
X10612476Y16025857D01*
X11564857Y16930619D02*
X12183904Y16930619D01*
X11850571Y16549666D01*
X11993428Y16549666D01*
X12088666Y16502047D01*
X12136285Y16454428D01*
X12183904Y16359190D01*
X12183904Y16121095D01*
X12136285Y16025857D01*
X12088666Y15978238D01*
X11993428Y15930619D01*
X11707714Y15930619D01*
X11612476Y15978238D01*
X11564857Y16025857D01*
%TO.C,R32*%
X-24772857Y12627619D02*
X-25106190Y13103809D01*
X-25344285Y12627619D02*
X-25344285Y13627619D01*
X-24963333Y13627619D01*
X-24868095Y13580000D01*
X-24820476Y13532380D01*
X-24772857Y13437142D01*
X-24772857Y13294285D01*
X-24820476Y13199047D01*
X-24868095Y13151428D01*
X-24963333Y13103809D01*
X-25344285Y13103809D01*
X-24439523Y13627619D02*
X-23820476Y13627619D01*
X-24153809Y13246666D01*
X-24010952Y13246666D01*
X-23915714Y13199047D01*
X-23868095Y13151428D01*
X-23820476Y13056190D01*
X-23820476Y12818095D01*
X-23868095Y12722857D01*
X-23915714Y12675238D01*
X-24010952Y12627619D01*
X-24296666Y12627619D01*
X-24391904Y12675238D01*
X-24439523Y12722857D01*
X-23439523Y13532380D02*
X-23391904Y13580000D01*
X-23296666Y13627619D01*
X-23058571Y13627619D01*
X-22963333Y13580000D01*
X-22915714Y13532380D01*
X-22868095Y13437142D01*
X-22868095Y13341904D01*
X-22915714Y13199047D01*
X-23487142Y12627619D01*
X-22868095Y12627619D01*
%TO.C,D1*%
X-9199619Y-33631095D02*
X-10199619Y-33631095D01*
X-10199619Y-33393000D01*
X-10152000Y-33250142D01*
X-10056761Y-33154904D01*
X-9961523Y-33107285D01*
X-9771047Y-33059666D01*
X-9628190Y-33059666D01*
X-9437714Y-33107285D01*
X-9342476Y-33154904D01*
X-9247238Y-33250142D01*
X-9199619Y-33393000D01*
X-9199619Y-33631095D01*
X-9199619Y-32107285D02*
X-9199619Y-32678714D01*
X-9199619Y-32393000D02*
X-10199619Y-32393000D01*
X-10056761Y-32488238D01*
X-9961523Y-32583476D01*
X-9913904Y-32678714D01*
%TO.C,A2*%
X13435714Y23983333D02*
X13911904Y23983333D01*
X13340476Y23697619D02*
X13673809Y24697619D01*
X14007142Y23697619D01*
X14292857Y24602380D02*
X14340476Y24650000D01*
X14435714Y24697619D01*
X14673809Y24697619D01*
X14769047Y24650000D01*
X14816666Y24602380D01*
X14864285Y24507142D01*
X14864285Y24411904D01*
X14816666Y24269047D01*
X14245238Y23697619D01*
X14864285Y23697619D01*
%TO.C,U8*%
X26924095Y10153619D02*
X26924095Y9344095D01*
X26971714Y9248857D01*
X27019333Y9201238D01*
X27114571Y9153619D01*
X27305047Y9153619D01*
X27400285Y9201238D01*
X27447904Y9248857D01*
X27495523Y9344095D01*
X27495523Y10153619D01*
X28114571Y9725047D02*
X28019333Y9772666D01*
X27971714Y9820285D01*
X27924095Y9915523D01*
X27924095Y9963142D01*
X27971714Y10058380D01*
X28019333Y10106000D01*
X28114571Y10153619D01*
X28305047Y10153619D01*
X28400285Y10106000D01*
X28447904Y10058380D01*
X28495523Y9963142D01*
X28495523Y9915523D01*
X28447904Y9820285D01*
X28400285Y9772666D01*
X28305047Y9725047D01*
X28114571Y9725047D01*
X28019333Y9677428D01*
X27971714Y9629809D01*
X27924095Y9534571D01*
X27924095Y9344095D01*
X27971714Y9248857D01*
X28019333Y9201238D01*
X28114571Y9153619D01*
X28305047Y9153619D01*
X28400285Y9201238D01*
X28447904Y9248857D01*
X28495523Y9344095D01*
X28495523Y9534571D01*
X28447904Y9629809D01*
X28400285Y9677428D01*
X28305047Y9725047D01*
%TO.C,U1*%
X-24717619Y22098095D02*
X-23908095Y22098095D01*
X-23812857Y22145714D01*
X-23765238Y22193333D01*
X-23717619Y22288571D01*
X-23717619Y22479047D01*
X-23765238Y22574285D01*
X-23812857Y22621904D01*
X-23908095Y22669523D01*
X-24717619Y22669523D01*
X-23717619Y23669523D02*
X-23717619Y23098095D01*
X-23717619Y23383809D02*
X-24717619Y23383809D01*
X-24574761Y23288571D01*
X-24479523Y23193333D01*
X-24431904Y23098095D01*
%TO.C,R12*%
X30853142Y25074619D02*
X30519809Y25550809D01*
X30281714Y25074619D02*
X30281714Y26074619D01*
X30662666Y26074619D01*
X30757904Y26027000D01*
X30805523Y25979380D01*
X30853142Y25884142D01*
X30853142Y25741285D01*
X30805523Y25646047D01*
X30757904Y25598428D01*
X30662666Y25550809D01*
X30281714Y25550809D01*
X31805523Y25074619D02*
X31234095Y25074619D01*
X31519809Y25074619D02*
X31519809Y26074619D01*
X31424571Y25931761D01*
X31329333Y25836523D01*
X31234095Y25788904D01*
X32186476Y25979380D02*
X32234095Y26027000D01*
X32329333Y26074619D01*
X32567428Y26074619D01*
X32662666Y26027000D01*
X32710285Y25979380D01*
X32757904Y25884142D01*
X32757904Y25788904D01*
X32710285Y25646047D01*
X32138857Y25074619D01*
X32757904Y25074619D01*
%TO.C,R14*%
X35933142Y25074619D02*
X35599809Y25550809D01*
X35361714Y25074619D02*
X35361714Y26074619D01*
X35742666Y26074619D01*
X35837904Y26027000D01*
X35885523Y25979380D01*
X35933142Y25884142D01*
X35933142Y25741285D01*
X35885523Y25646047D01*
X35837904Y25598428D01*
X35742666Y25550809D01*
X35361714Y25550809D01*
X36885523Y25074619D02*
X36314095Y25074619D01*
X36599809Y25074619D02*
X36599809Y26074619D01*
X36504571Y25931761D01*
X36409333Y25836523D01*
X36314095Y25788904D01*
X37742666Y25741285D02*
X37742666Y25074619D01*
X37504571Y26122238D02*
X37266476Y25407952D01*
X37885523Y25407952D01*
%TO.C,C16*%
X20042142Y4437142D02*
X20089761Y4389523D01*
X20137380Y4246666D01*
X20137380Y4151428D01*
X20089761Y4008571D01*
X19994523Y3913333D01*
X19899285Y3865714D01*
X19708809Y3818095D01*
X19565952Y3818095D01*
X19375476Y3865714D01*
X19280238Y3913333D01*
X19185000Y4008571D01*
X19137380Y4151428D01*
X19137380Y4246666D01*
X19185000Y4389523D01*
X19232619Y4437142D01*
X20137380Y5389523D02*
X20137380Y4818095D01*
X20137380Y5103809D02*
X19137380Y5103809D01*
X19280238Y5008571D01*
X19375476Y4913333D01*
X19423095Y4818095D01*
X19137380Y6246666D02*
X19137380Y6056190D01*
X19185000Y5960952D01*
X19232619Y5913333D01*
X19375476Y5818095D01*
X19565952Y5770476D01*
X19946904Y5770476D01*
X20042142Y5818095D01*
X20089761Y5865714D01*
X20137380Y5960952D01*
X20137380Y6151428D01*
X20089761Y6246666D01*
X20042142Y6294285D01*
X19946904Y6341904D01*
X19708809Y6341904D01*
X19613571Y6294285D01*
X19565952Y6246666D01*
X19518333Y6151428D01*
X19518333Y5960952D01*
X19565952Y5865714D01*
X19613571Y5818095D01*
X19708809Y5770476D01*
%TO.C,C6*%
X35139333Y9294857D02*
X35091714Y9247238D01*
X34948857Y9199619D01*
X34853619Y9199619D01*
X34710761Y9247238D01*
X34615523Y9342476D01*
X34567904Y9437714D01*
X34520285Y9628190D01*
X34520285Y9771047D01*
X34567904Y9961523D01*
X34615523Y10056761D01*
X34710761Y10152000D01*
X34853619Y10199619D01*
X34948857Y10199619D01*
X35091714Y10152000D01*
X35139333Y10104380D01*
X35996476Y10199619D02*
X35806000Y10199619D01*
X35710761Y10152000D01*
X35663142Y10104380D01*
X35567904Y9961523D01*
X35520285Y9771047D01*
X35520285Y9390095D01*
X35567904Y9294857D01*
X35615523Y9247238D01*
X35710761Y9199619D01*
X35901238Y9199619D01*
X35996476Y9247238D01*
X36044095Y9294857D01*
X36091714Y9390095D01*
X36091714Y9628190D01*
X36044095Y9723428D01*
X35996476Y9771047D01*
X35901238Y9818666D01*
X35710761Y9818666D01*
X35615523Y9771047D01*
X35567904Y9723428D01*
X35520285Y9628190D01*
%TO.C,C15*%
X46982142Y8024857D02*
X46934523Y7977238D01*
X46791666Y7929619D01*
X46696428Y7929619D01*
X46553571Y7977238D01*
X46458333Y8072476D01*
X46410714Y8167714D01*
X46363095Y8358190D01*
X46363095Y8501047D01*
X46410714Y8691523D01*
X46458333Y8786761D01*
X46553571Y8882000D01*
X46696428Y8929619D01*
X46791666Y8929619D01*
X46934523Y8882000D01*
X46982142Y8834380D01*
X47934523Y7929619D02*
X47363095Y7929619D01*
X47648809Y7929619D02*
X47648809Y8929619D01*
X47553571Y8786761D01*
X47458333Y8691523D01*
X47363095Y8643904D01*
X48839285Y8929619D02*
X48363095Y8929619D01*
X48315476Y8453428D01*
X48363095Y8501047D01*
X48458333Y8548666D01*
X48696428Y8548666D01*
X48791666Y8501047D01*
X48839285Y8453428D01*
X48886904Y8358190D01*
X48886904Y8120095D01*
X48839285Y8024857D01*
X48791666Y7977238D01*
X48696428Y7929619D01*
X48458333Y7929619D01*
X48363095Y7977238D01*
X48315476Y8024857D01*
%TO.C,R36*%
X-13390619Y-33662857D02*
X-13866809Y-33996190D01*
X-13390619Y-34234285D02*
X-14390619Y-34234285D01*
X-14390619Y-33853333D01*
X-14343000Y-33758095D01*
X-14295380Y-33710476D01*
X-14200142Y-33662857D01*
X-14057285Y-33662857D01*
X-13962047Y-33710476D01*
X-13914428Y-33758095D01*
X-13866809Y-33853333D01*
X-13866809Y-34234285D01*
X-14390619Y-33329523D02*
X-14390619Y-32710476D01*
X-14009666Y-33043809D01*
X-14009666Y-32900952D01*
X-13962047Y-32805714D01*
X-13914428Y-32758095D01*
X-13819190Y-32710476D01*
X-13581095Y-32710476D01*
X-13485857Y-32758095D01*
X-13438238Y-32805714D01*
X-13390619Y-32900952D01*
X-13390619Y-33186666D01*
X-13438238Y-33281904D01*
X-13485857Y-33329523D01*
X-14390619Y-31853333D02*
X-14390619Y-32043809D01*
X-14343000Y-32139047D01*
X-14295380Y-32186666D01*
X-14152523Y-32281904D01*
X-13962047Y-32329523D01*
X-13581095Y-32329523D01*
X-13485857Y-32281904D01*
X-13438238Y-32234285D01*
X-13390619Y-32139047D01*
X-13390619Y-31948571D01*
X-13438238Y-31853333D01*
X-13485857Y-31805714D01*
X-13581095Y-31758095D01*
X-13819190Y-31758095D01*
X-13914428Y-31805714D01*
X-13962047Y-31853333D01*
X-14009666Y-31948571D01*
X-14009666Y-32139047D01*
X-13962047Y-32234285D01*
X-13914428Y-32281904D01*
X-13819190Y-32329523D01*
%TO.C,R34*%
X-14993857Y-3627380D02*
X-15327190Y-3151190D01*
X-15565285Y-3627380D02*
X-15565285Y-2627380D01*
X-15184333Y-2627380D01*
X-15089095Y-2675000D01*
X-15041476Y-2722619D01*
X-14993857Y-2817857D01*
X-14993857Y-2960714D01*
X-15041476Y-3055952D01*
X-15089095Y-3103571D01*
X-15184333Y-3151190D01*
X-15565285Y-3151190D01*
X-14660523Y-2627380D02*
X-14041476Y-2627380D01*
X-14374809Y-3008333D01*
X-14231952Y-3008333D01*
X-14136714Y-3055952D01*
X-14089095Y-3103571D01*
X-14041476Y-3198809D01*
X-14041476Y-3436904D01*
X-14089095Y-3532142D01*
X-14136714Y-3579761D01*
X-14231952Y-3627380D01*
X-14517666Y-3627380D01*
X-14612904Y-3579761D01*
X-14660523Y-3532142D01*
X-13184333Y-2960714D02*
X-13184333Y-3627380D01*
X-13422428Y-2579761D02*
X-13660523Y-3294047D01*
X-13041476Y-3294047D01*
%TO.C,R9*%
X-15025666Y-1087380D02*
X-15359000Y-611190D01*
X-15597095Y-1087380D02*
X-15597095Y-87380D01*
X-15216142Y-87380D01*
X-15120904Y-135000D01*
X-15073285Y-182619D01*
X-15025666Y-277857D01*
X-15025666Y-420714D01*
X-15073285Y-515952D01*
X-15120904Y-563571D01*
X-15216142Y-611190D01*
X-15597095Y-611190D01*
X-14549476Y-1087380D02*
X-14359000Y-1087380D01*
X-14263761Y-1039761D01*
X-14216142Y-992142D01*
X-14120904Y-849285D01*
X-14073285Y-658809D01*
X-14073285Y-277857D01*
X-14120904Y-182619D01*
X-14168523Y-135000D01*
X-14263761Y-87380D01*
X-14454238Y-87380D01*
X-14549476Y-135000D01*
X-14597095Y-182619D01*
X-14644714Y-277857D01*
X-14644714Y-515952D01*
X-14597095Y-611190D01*
X-14549476Y-658809D01*
X-14454238Y-706428D01*
X-14263761Y-706428D01*
X-14168523Y-658809D01*
X-14120904Y-611190D01*
X-14073285Y-515952D01*
%TO.C,R7*%
X-19597666Y-36012380D02*
X-19931000Y-35536190D01*
X-20169095Y-36012380D02*
X-20169095Y-35012380D01*
X-19788142Y-35012380D01*
X-19692904Y-35060000D01*
X-19645285Y-35107619D01*
X-19597666Y-35202857D01*
X-19597666Y-35345714D01*
X-19645285Y-35440952D01*
X-19692904Y-35488571D01*
X-19788142Y-35536190D01*
X-20169095Y-35536190D01*
X-19264333Y-35012380D02*
X-18597666Y-35012380D01*
X-19026238Y-36012380D01*
%TO.C,R35*%
X-14993857Y5262619D02*
X-15327190Y5738809D01*
X-15565285Y5262619D02*
X-15565285Y6262619D01*
X-15184333Y6262619D01*
X-15089095Y6215000D01*
X-15041476Y6167380D01*
X-14993857Y6072142D01*
X-14993857Y5929285D01*
X-15041476Y5834047D01*
X-15089095Y5786428D01*
X-15184333Y5738809D01*
X-15565285Y5738809D01*
X-14660523Y6262619D02*
X-14041476Y6262619D01*
X-14374809Y5881666D01*
X-14231952Y5881666D01*
X-14136714Y5834047D01*
X-14089095Y5786428D01*
X-14041476Y5691190D01*
X-14041476Y5453095D01*
X-14089095Y5357857D01*
X-14136714Y5310238D01*
X-14231952Y5262619D01*
X-14517666Y5262619D01*
X-14612904Y5310238D01*
X-14660523Y5357857D01*
X-13136714Y6262619D02*
X-13612904Y6262619D01*
X-13660523Y5786428D01*
X-13612904Y5834047D01*
X-13517666Y5881666D01*
X-13279571Y5881666D01*
X-13184333Y5834047D01*
X-13136714Y5786428D01*
X-13089095Y5691190D01*
X-13089095Y5453095D01*
X-13136714Y5357857D01*
X-13184333Y5310238D01*
X-13279571Y5262619D01*
X-13517666Y5262619D01*
X-13612904Y5310238D01*
X-13660523Y5357857D01*
%TO.C,R2*%
X-30646666Y24057619D02*
X-30980000Y24533809D01*
X-31218095Y24057619D02*
X-31218095Y25057619D01*
X-30837142Y25057619D01*
X-30741904Y25010000D01*
X-30694285Y24962380D01*
X-30646666Y24867142D01*
X-30646666Y24724285D01*
X-30694285Y24629047D01*
X-30741904Y24581428D01*
X-30837142Y24533809D01*
X-31218095Y24533809D01*
X-30265714Y24962380D02*
X-30218095Y25010000D01*
X-30122857Y25057619D01*
X-29884761Y25057619D01*
X-29789523Y25010000D01*
X-29741904Y24962380D01*
X-29694285Y24867142D01*
X-29694285Y24771904D01*
X-29741904Y24629047D01*
X-30313333Y24057619D01*
X-29694285Y24057619D01*
%TO.C,C14*%
X-14993857Y7897857D02*
X-15041476Y7850238D01*
X-15184333Y7802619D01*
X-15279571Y7802619D01*
X-15422428Y7850238D01*
X-15517666Y7945476D01*
X-15565285Y8040714D01*
X-15612904Y8231190D01*
X-15612904Y8374047D01*
X-15565285Y8564523D01*
X-15517666Y8659761D01*
X-15422428Y8755000D01*
X-15279571Y8802619D01*
X-15184333Y8802619D01*
X-15041476Y8755000D01*
X-14993857Y8707380D01*
X-14041476Y7802619D02*
X-14612904Y7802619D01*
X-14327190Y7802619D02*
X-14327190Y8802619D01*
X-14422428Y8659761D01*
X-14517666Y8564523D01*
X-14612904Y8516904D01*
X-13184333Y8469285D02*
X-13184333Y7802619D01*
X-13422428Y8850238D02*
X-13660523Y8135952D01*
X-13041476Y8135952D01*
%TO.C,C12*%
X-29344857Y-4294142D02*
X-29392476Y-4341761D01*
X-29535333Y-4389380D01*
X-29630571Y-4389380D01*
X-29773428Y-4341761D01*
X-29868666Y-4246523D01*
X-29916285Y-4151285D01*
X-29963904Y-3960809D01*
X-29963904Y-3817952D01*
X-29916285Y-3627476D01*
X-29868666Y-3532238D01*
X-29773428Y-3437000D01*
X-29630571Y-3389380D01*
X-29535333Y-3389380D01*
X-29392476Y-3437000D01*
X-29344857Y-3484619D01*
X-28392476Y-4389380D02*
X-28963904Y-4389380D01*
X-28678190Y-4389380D02*
X-28678190Y-3389380D01*
X-28773428Y-3532238D01*
X-28868666Y-3627476D01*
X-28963904Y-3675095D01*
X-28011523Y-3484619D02*
X-27963904Y-3437000D01*
X-27868666Y-3389380D01*
X-27630571Y-3389380D01*
X-27535333Y-3437000D01*
X-27487714Y-3484619D01*
X-27440095Y-3579857D01*
X-27440095Y-3675095D01*
X-27487714Y-3817952D01*
X-28059142Y-4389380D01*
X-27440095Y-4389380D01*
%TD*%
M02*
