M48
; DRILL file {KiCad (5.1.9)-1} date 02/09/21 20:08:20
; FORMAT={-:-/ absolute / inch / decimal}
; #@! TF.CreationDate,2021-02-09T20:08:20+01:00
; #@! TF.GenerationSoftware,Kicad,Pcbnew,(5.1.9)-1
; #@! TF.FileFunction,Plated,1,2,PTH
FMAT,2
INCH
T1C0.0157
T2C0.0197
T3C0.0300
T4C0.0315
T5C0.0394
T6C0.0398
T7C0.1024
T8C0.1260
%
G90
G05
T1
X-1.65Y0.25
X-1.65Y-0.81
X-1.55Y0.485
X-1.55Y-0.05
X-1.4908Y-0.675
X-1.46Y0.375
X-1.46Y-0.55
X-1.4585Y0.1027
X-1.45Y0.68
X-1.45Y0.515
X-1.45Y0.45
X-1.43Y0.41
X-1.4285Y-0.29
X-1.4Y0.075
X-1.35Y-0.045
X-1.34Y0.45
X-1.305Y0.825
X-1.305Y-0.47
X-1.3Y0.675
X-1.3Y0.25
X-1.285Y0.865
X-1.275Y-0.325
X-1.27Y-0.2
X-1.24Y0.225
X-1.24Y-0.235
X-1.205Y-0.045
X-1.2Y0.8315
X-1.195Y-0.27
X-1.18Y-0.33
X-1.175Y-0.675
X-1.17Y0.225
X-1.155Y-0.495
X-1.15Y1.01
X-1.15Y-0.3
X-1.12Y-0.815
X-1.11Y-0.235
X-1.105Y-0.49
X-1.09Y0.44
X-1.08Y0.345
X-1.05Y0.7961
X-1.03Y0.115
X-1.0Y-0.49
X-0.96Y-0.205
X-0.955Y-1.03
X-0.915Y0.35
X-0.91Y-1.565
X-0.9Y-0.245
X-0.9Y-0.535
X-0.85Y-0.255
X-0.83Y0.155
X-0.825Y0.2
X-0.82Y-1.425
X-0.815Y0.065
X-0.75Y-0.3
X-0.735Y0.455
X-0.7018Y0.3737
X-0.695Y-1.46
X-0.685Y-1.09
X-0.68Y-0.965
X-0.675Y-0.82
X-0.65Y-0.2
X-0.625Y0.75
X-0.6061Y-0.7861
X-0.605Y-0.485
X-0.5912Y0.6988
X-0.565Y0.535
X-0.555Y-1.455
X-0.55Y0.8138
X-0.545Y0.37
X-0.5365Y-0.2629
X-0.5Y-0.535
X-0.4995Y-0.2494
X-0.4978Y0.3383
X-0.49Y0.865
X-0.4732Y0.4687
X-0.465Y0.795
X-0.42Y-0.525
X-0.4Y-0.225
X-0.38Y-1.215
X-0.35Y0.795
X-0.34Y-1.44
X-0.335Y0.135
X-0.335Y-0.795
X-0.3266Y0.3304
X-0.2873Y0.3737
X-0.255Y-0.2
X-0.25Y0.8315
X-0.2304Y0.4687
X-0.205Y0.135
X-0.15Y0.8
X-0.1Y0.4865
X-0.05Y0.8
X-0.045Y-0.79
X-0.0202Y0.3737
X-0.01Y-0.585
X0.0246Y0.4134
X0.0326Y0.3749
X0.05Y0.8
X0.055Y0.48
X0.085Y0.15
X0.095Y-0.56
X0.13Y0.235
X0.16Y0.74
X0.165Y0.15
X0.215Y-1.31
X0.24Y0.49
X0.305Y-0.56
X0.34Y0.4
X0.355Y-0.05
X0.37Y0.545
X0.375Y0.125
X0.4Y-0.575
X0.445Y0.185
X0.475Y-0.24
X0.485Y0.255
X0.505Y0.895
X0.505Y-0.39
X0.535Y-0.25
X0.55Y-0.79
X0.6Y-0.575
X0.64Y-0.045
X0.69Y0.465
X0.7Y-0.565
X0.715Y0.705
X0.7189Y0.1237
X0.78Y-0.405
X0.82Y-0.035
X0.89Y-0.25
X0.93Y-1.05
X0.965Y-0.74
X0.965Y-0.925
X1.0Y-0.86
X1.035Y0.125
X1.035Y0.025
X1.075Y-0.14
X1.08Y-0.24
X1.08Y-0.355
X1.18Y0.61
X1.465Y0.84
X1.515Y-0.2
X1.55Y0.95
X1.68Y0.595
X1.86Y0.595
T2
X-1.8445Y0.85
X-1.8445Y-0.65
X-1.8168Y0.9168
X-1.8168Y0.7832
X-1.8168Y-0.5832
X-1.8168Y-0.7168
X-1.75Y0.9445
X-1.75Y0.7555
X-1.75Y-0.5555
X-1.75Y-0.7445
X-1.6832Y0.9168
X-1.6832Y0.7832
X-1.6832Y-0.5832
X-1.6832Y-0.7168
X-1.6555Y0.85
X-1.6555Y-0.65
X1.6555Y0.85
X1.6555Y-0.65
X1.6832Y0.9168
X1.6832Y0.7832
X1.6832Y-0.5832
X1.6832Y-0.7168
X1.75Y0.9445
X1.75Y0.7555
X1.75Y-0.5555
X1.75Y-0.7445
X1.8168Y0.9168
X1.8168Y0.7832
X1.8168Y-0.5832
X1.8168Y-0.7168
X1.8445Y0.85
X1.8445Y-0.65
T3
X-0.35Y0.9516
X-0.35Y-0.6484
X-0.25Y0.9516
X-0.25Y-0.6484
X-0.15Y0.9516
X-0.15Y-0.6484
X-0.05Y0.9516
X-0.05Y-0.6484
X0.05Y0.9516
X0.05Y-0.6484
X0.15Y0.9516
X0.15Y-0.6484
X0.25Y0.9516
X0.25Y-0.6484
X0.35Y0.9516
X0.35Y-0.6484
T4
X-0.6Y-0.65
X0.5Y-0.7
X0.65Y-0.6
X1.06Y0.325
X1.4613Y0.5613
T5
X-1.65Y0.6
X-1.65Y-0.4
X-1.55Y0.6
X-1.55Y-0.4
X-1.5Y0.75
X-1.45Y0.6
X-1.45Y-0.4
X-1.4Y0.75
X-1.35Y0.6
X-1.35Y-0.4
X-1.3Y0.75
X-1.25Y0.6
X-1.25Y-0.4
X-1.2Y0.75
X-1.15Y0.6
X-1.15Y-0.4
X-1.1Y0.75
X-1.05Y0.6
X-1.05Y-0.4
X-1.0Y0.75
X-0.95Y0.6
X-0.95Y-0.4
X-0.85Y0.75
X-0.85Y0.6
X-0.85Y-0.4
X-0.85Y-1.0
X-0.85Y-1.25
X-0.85Y-1.5
X-0.75Y0.75
X-0.75Y0.6
X-0.75Y-0.4
X-0.65Y0.6
X-0.65Y-0.4
X-0.55Y0.6
X-0.55Y-0.4
X-0.45Y0.6
X-0.45Y-0.4
X-0.35Y0.6
X-0.35Y-0.4
X-0.25Y0.6
X-0.25Y-0.4
X-0.25Y-1.125
X-0.25Y-1.375
X-0.15Y0.6
X-0.15Y-0.4
X-0.05Y0.6
X-0.05Y-0.4
X0.05Y0.6
X0.05Y-0.4
X0.15Y0.6
X0.15Y-0.4
X0.35Y-1.1222
X0.55Y-1.1222
X0.75Y-1.1222
X1.3189Y0.2756
X1.3189Y-0.2953
X1.4173Y-0.2953
X1.5157Y0.2756
X1.5157Y-0.2953
T6
X0.45Y-1.5
X0.46Y-1.34
X0.6508Y-1.4528
X0.6608Y-1.2928
T7
X1.1969Y0.0
X1.6378Y0.0
T8
X-1.75Y0.85
X-1.75Y-0.65
X1.75Y0.85
X1.75Y-0.65
T0
M30
