G04 #@! TF.GenerationSoftware,KiCad,Pcbnew,(5.1.9)-1*
G04 #@! TF.CreationDate,2021-02-21T13:36:44+01:00*
G04 #@! TF.ProjectId,IoT12,496f5431-322e-46b6-9963-61645f706362,rev?*
G04 #@! TF.SameCoordinates,Original*
G04 #@! TF.FileFunction,Legend,Bot*
G04 #@! TF.FilePolarity,Positive*
%FSLAX46Y46*%
G04 Gerber Fmt 4.6, Leading zero omitted, Abs format (unit mm)*
G04 Created by KiCad (PCBNEW (5.1.9)-1) date 2021-02-21 13:36:44*
%MOMM*%
%LPD*%
G01*
G04 APERTURE LIST*
%ADD10C,0.150000*%
%ADD11C,0.120000*%
G04 APERTURE END LIST*
D10*
X-10384404Y-5532380D02*
X-9812976Y-5532380D01*
X-10098690Y-5532380D02*
X-10098690Y-4532380D01*
X-10003452Y-4675238D01*
X-9908214Y-4770476D01*
X-9812976Y-4818095D01*
X-10860595Y-5484761D02*
X-10860595Y-5532380D01*
X-10812976Y-5627619D01*
X-10765357Y-5675238D01*
X-12003452Y-5484761D02*
X-12146309Y-5532380D01*
X-12384404Y-5532380D01*
X-12479642Y-5484761D01*
X-12527261Y-5437142D01*
X-12574880Y-5341904D01*
X-12574880Y-5246666D01*
X-12527261Y-5151428D01*
X-12479642Y-5103809D01*
X-12384404Y-5056190D01*
X-12193928Y-5008571D01*
X-12098690Y-4960952D01*
X-12051071Y-4913333D01*
X-12003452Y-4818095D01*
X-12003452Y-4722857D01*
X-12051071Y-4627619D01*
X-12098690Y-4580000D01*
X-12193928Y-4532380D01*
X-12432023Y-4532380D01*
X-12574880Y-4580000D01*
X-13003452Y-5532380D02*
X-13003452Y-4532380D01*
X-13003452Y-5008571D02*
X-13574880Y-5008571D01*
X-13574880Y-5532380D02*
X-13574880Y-4532380D01*
X-14003452Y-5246666D02*
X-14479642Y-5246666D01*
X-13908214Y-5532380D02*
X-14241547Y-4532380D01*
X-14574880Y-5532380D01*
X-14908214Y-5532380D02*
X-14908214Y-4532380D01*
X-15479642Y-5532380D02*
X-15051071Y-4960952D01*
X-15479642Y-4532380D02*
X-14908214Y-5103809D01*
X-15908214Y-5008571D02*
X-16241547Y-5008571D01*
X-16384404Y-5532380D02*
X-15908214Y-5532380D01*
X-15908214Y-4532380D01*
X-16384404Y-4532380D01*
X-11717976Y-817619D02*
X-11765595Y-770000D01*
X-11860833Y-722380D01*
X-12098928Y-722380D01*
X-12194166Y-770000D01*
X-12241785Y-817619D01*
X-12289404Y-912857D01*
X-12289404Y-1008095D01*
X-12241785Y-1150952D01*
X-11670357Y-1722380D01*
X-12289404Y-1722380D01*
X-12765595Y-1674761D02*
X-12765595Y-1722380D01*
X-12717976Y-1817619D01*
X-12670357Y-1865238D01*
X-13956071Y-1722380D02*
X-13956071Y-722380D01*
X-14527500Y-1722380D01*
X-14527500Y-722380D01*
X-14860833Y-722380D02*
X-15432261Y-722380D01*
X-15146547Y-1722380D02*
X-15146547Y-722380D01*
X-16337023Y-1627142D02*
X-16289404Y-1674761D01*
X-16146547Y-1722380D01*
X-16051309Y-1722380D01*
X-15908452Y-1674761D01*
X-15813214Y-1579523D01*
X-15765595Y-1484285D01*
X-15717976Y-1293809D01*
X-15717976Y-1150952D01*
X-15765595Y-960476D01*
X-15813214Y-865238D01*
X-15908452Y-770000D01*
X-16051309Y-722380D01*
X-16146547Y-722380D01*
X-16289404Y-770000D01*
X-16337023Y-817619D01*
X-43727619Y-4318571D02*
X-42918095Y-4318571D01*
X-42822857Y-4366190D01*
X-42775238Y-4413809D01*
X-42727619Y-4509047D01*
X-42727619Y-4699523D01*
X-42775238Y-4794761D01*
X-42822857Y-4842380D01*
X-42918095Y-4890000D01*
X-43727619Y-4890000D01*
X-42775238Y-5318571D02*
X-42727619Y-5461428D01*
X-42727619Y-5699523D01*
X-42775238Y-5794761D01*
X-42822857Y-5842380D01*
X-42918095Y-5889999D01*
X-43013333Y-5889999D01*
X-43108571Y-5842380D01*
X-43156190Y-5794761D01*
X-43203809Y-5699523D01*
X-43251428Y-5509047D01*
X-43299047Y-5413809D01*
X-43346666Y-5366190D01*
X-43441904Y-5318571D01*
X-43537142Y-5318571D01*
X-43632380Y-5366190D01*
X-43680000Y-5413809D01*
X-43727619Y-5509047D01*
X-43727619Y-5747142D01*
X-43680000Y-5889999D01*
X-43251428Y-6651904D02*
X-43203809Y-6794761D01*
X-43156190Y-6842380D01*
X-43060952Y-6889999D01*
X-42918095Y-6889999D01*
X-42822857Y-6842380D01*
X-42775238Y-6794761D01*
X-42727619Y-6699523D01*
X-42727619Y-6318571D01*
X-43727619Y-6318571D01*
X-43727619Y-6651904D01*
X-43680000Y-6747142D01*
X-43632380Y-6794761D01*
X-43537142Y-6842380D01*
X-43441904Y-6842380D01*
X-43346666Y-6794761D01*
X-43299047Y-6747142D01*
X-43251428Y-6651904D01*
X-43251428Y-6318571D01*
X-42775238Y-8032857D02*
X-42727619Y-8175714D01*
X-42727619Y-8413809D01*
X-42775238Y-8509047D01*
X-42822857Y-8556666D01*
X-42918095Y-8604285D01*
X-43013333Y-8604285D01*
X-43108571Y-8556666D01*
X-43156190Y-8509047D01*
X-43203809Y-8413809D01*
X-43251428Y-8223333D01*
X-43299047Y-8128095D01*
X-43346666Y-8080476D01*
X-43441904Y-8032857D01*
X-43537142Y-8032857D01*
X-43632380Y-8080476D01*
X-43680000Y-8128095D01*
X-43727619Y-8223333D01*
X-43727619Y-8461428D01*
X-43680000Y-8604285D01*
X-43013333Y-8985238D02*
X-43013333Y-9461428D01*
X-42727619Y-8889999D02*
X-43727619Y-9223333D01*
X-42727619Y-9556666D01*
X-42727619Y-9889999D02*
X-43727619Y-9889999D01*
X-43013333Y-10223333D01*
X-43727619Y-10556666D01*
X-42727619Y-10556666D01*
X-42727619Y-11032857D02*
X-43727619Y-11032857D01*
X-43727619Y-11270952D01*
X-43680000Y-11413809D01*
X-43584761Y-11509047D01*
X-43489523Y-11556666D01*
X-43299047Y-11604285D01*
X-43156190Y-11604285D01*
X-42965714Y-11556666D01*
X-42870476Y-11509047D01*
X-42775238Y-11413809D01*
X-42727619Y-11270952D01*
X-42727619Y-11032857D01*
X-43632380Y-11985238D02*
X-43680000Y-12032857D01*
X-43727619Y-12128095D01*
X-43727619Y-12366190D01*
X-43680000Y-12461428D01*
X-43632380Y-12509047D01*
X-43537142Y-12556666D01*
X-43441904Y-12556666D01*
X-43299047Y-12509047D01*
X-42727619Y-11937619D01*
X-42727619Y-12556666D01*
X-42727619Y-13509047D02*
X-42727619Y-12937619D01*
X-42727619Y-13223333D02*
X-43727619Y-13223333D01*
X-43584761Y-13128095D01*
X-43489523Y-13032857D01*
X-43441904Y-12937619D01*
X-29528095Y33837619D02*
X-29194761Y34313809D01*
X-28956666Y33837619D02*
X-28956666Y34837619D01*
X-29337619Y34837619D01*
X-29432857Y34790000D01*
X-29480476Y34742380D01*
X-29528095Y34647142D01*
X-29528095Y34504285D01*
X-29480476Y34409047D01*
X-29432857Y34361428D01*
X-29337619Y34313809D01*
X-28956666Y34313809D01*
X-29956666Y34361428D02*
X-30289999Y34361428D01*
X-30432857Y33837619D02*
X-29956666Y33837619D01*
X-29956666Y34837619D01*
X-30432857Y34837619D01*
X-30813809Y33885238D02*
X-30956666Y33837619D01*
X-31194761Y33837619D01*
X-31289999Y33885238D01*
X-31337619Y33932857D01*
X-31385238Y34028095D01*
X-31385238Y34123333D01*
X-31337619Y34218571D01*
X-31289999Y34266190D01*
X-31194761Y34313809D01*
X-31004285Y34361428D01*
X-30909047Y34409047D01*
X-30861428Y34456666D01*
X-30813809Y34551904D01*
X-30813809Y34647142D01*
X-30861428Y34742380D01*
X-30909047Y34790000D01*
X-31004285Y34837619D01*
X-31242380Y34837619D01*
X-31385238Y34790000D01*
X-31813809Y34361428D02*
X-32147142Y34361428D01*
X-32289999Y33837619D02*
X-31813809Y33837619D01*
X-31813809Y34837619D01*
X-32289999Y34837619D01*
X-32575714Y34837619D02*
X-33147142Y34837619D01*
X-32861428Y33837619D02*
X-32861428Y34837619D01*
X-34194761Y33885238D02*
X-34337619Y33837619D01*
X-34575714Y33837619D01*
X-34670952Y33885238D01*
X-34718571Y33932857D01*
X-34766190Y34028095D01*
X-34766190Y34123333D01*
X-34718571Y34218571D01*
X-34670952Y34266190D01*
X-34575714Y34313809D01*
X-34385238Y34361428D01*
X-34290000Y34409047D01*
X-34242380Y34456666D01*
X-34194761Y34551904D01*
X-34194761Y34647142D01*
X-34242380Y34742380D01*
X-34290000Y34790000D01*
X-34385238Y34837619D01*
X-34623333Y34837619D01*
X-34766190Y34790000D01*
X-35147142Y34123333D02*
X-35623333Y34123333D01*
X-35051904Y33837619D02*
X-35385238Y34837619D01*
X-35718571Y33837619D01*
X-36051904Y33837619D02*
X-36051904Y34837619D01*
X-36385238Y34123333D01*
X-36718571Y34837619D01*
X-36718571Y33837619D01*
X-37194761Y33837619D02*
X-37194761Y34837619D01*
X-37432857Y34837619D01*
X-37575714Y34790000D01*
X-37670952Y34694761D01*
X-37718571Y34599523D01*
X-37766190Y34409047D01*
X-37766190Y34266190D01*
X-37718571Y34075714D01*
X-37670952Y33980476D01*
X-37575714Y33885238D01*
X-37432857Y33837619D01*
X-37194761Y33837619D01*
X-38147142Y34742380D02*
X-38194761Y34790000D01*
X-38290000Y34837619D01*
X-38528095Y34837619D01*
X-38623333Y34790000D01*
X-38670952Y34742380D01*
X-38718571Y34647142D01*
X-38718571Y34551904D01*
X-38670952Y34409047D01*
X-38099523Y33837619D01*
X-38718571Y33837619D01*
X-39670952Y33837619D02*
X-39099523Y33837619D01*
X-39385238Y33837619D02*
X-39385238Y34837619D01*
X-39290000Y34694761D01*
X-39194761Y34599523D01*
X-39099523Y34551904D01*
X-45791428Y25200476D02*
X-45791428Y24867142D01*
X-45267619Y24724285D02*
X-45267619Y25200476D01*
X-46267619Y25200476D01*
X-46267619Y24724285D01*
X-45315238Y24343333D02*
X-45267619Y24200476D01*
X-45267619Y23962380D01*
X-45315238Y23867142D01*
X-45362857Y23819523D01*
X-45458095Y23771904D01*
X-45553333Y23771904D01*
X-45648571Y23819523D01*
X-45696190Y23867142D01*
X-45743809Y23962380D01*
X-45791428Y24152857D01*
X-45839047Y24248095D01*
X-45886666Y24295714D01*
X-45981904Y24343333D01*
X-46077142Y24343333D01*
X-46172380Y24295714D01*
X-46220000Y24248095D01*
X-46267619Y24152857D01*
X-46267619Y23914761D01*
X-46220000Y23771904D01*
X-45267619Y23343333D02*
X-46267619Y23343333D01*
X-46267619Y22962380D01*
X-46220000Y22867142D01*
X-46172380Y22819523D01*
X-46077142Y22771904D01*
X-45934285Y22771904D01*
X-45839047Y22819523D01*
X-45791428Y22867142D01*
X-45743809Y22962380D01*
X-45743809Y23343333D01*
X-46267619Y22438571D02*
X-46267619Y21819523D01*
X-45886666Y22152857D01*
X-45886666Y22010000D01*
X-45839047Y21914761D01*
X-45791428Y21867142D01*
X-45696190Y21819523D01*
X-45458095Y21819523D01*
X-45362857Y21867142D01*
X-45315238Y21914761D01*
X-45267619Y22010000D01*
X-45267619Y22295714D01*
X-45315238Y22390952D01*
X-45362857Y22438571D01*
X-46172380Y21438571D02*
X-46220000Y21390952D01*
X-46267619Y21295714D01*
X-46267619Y21057619D01*
X-46220000Y20962380D01*
X-46172380Y20914761D01*
X-46077142Y20867142D01*
X-45981904Y20867142D01*
X-45839047Y20914761D01*
X-45267619Y21486190D01*
X-45267619Y20867142D01*
X-45648571Y20438571D02*
X-45648571Y19676666D01*
X-45267619Y19200476D02*
X-46267619Y19200476D01*
X-46267619Y18962380D01*
X-46220000Y18819523D01*
X-46124761Y18724285D01*
X-46029523Y18676666D01*
X-45839047Y18629047D01*
X-45696190Y18629047D01*
X-45505714Y18676666D01*
X-45410476Y18724285D01*
X-45315238Y18819523D01*
X-45267619Y18962380D01*
X-45267619Y19200476D01*
X-45315238Y17819523D02*
X-45267619Y17914761D01*
X-45267619Y18105238D01*
X-45315238Y18200476D01*
X-45410476Y18248095D01*
X-45791428Y18248095D01*
X-45886666Y18200476D01*
X-45934285Y18105238D01*
X-45934285Y17914761D01*
X-45886666Y17819523D01*
X-45791428Y17771904D01*
X-45696190Y17771904D01*
X-45600952Y18248095D01*
X-45934285Y17438571D02*
X-45267619Y17200476D01*
X-45934285Y16962380D01*
X-45267619Y16581428D02*
X-46267619Y16581428D01*
X-45267619Y16010000D02*
X-45839047Y16438571D01*
X-46267619Y16010000D02*
X-45696190Y16581428D01*
X-45267619Y15581428D02*
X-45934285Y15581428D01*
X-46267619Y15581428D02*
X-46220000Y15629047D01*
X-46172380Y15581428D01*
X-46220000Y15533809D01*
X-46267619Y15581428D01*
X-46172380Y15581428D01*
X-45934285Y15248095D02*
X-45934285Y14867142D01*
X-46267619Y15105238D02*
X-45410476Y15105238D01*
X-45315238Y15057619D01*
X-45267619Y14962380D01*
X-45267619Y14867142D01*
X-45362857Y13962380D02*
X-45315238Y14010000D01*
X-45267619Y14152857D01*
X-45267619Y14248095D01*
X-45315238Y14390952D01*
X-45410476Y14486190D01*
X-45505714Y14533809D01*
X-45696190Y14581428D01*
X-45839047Y14581428D01*
X-46029523Y14533809D01*
X-46124761Y14486190D01*
X-46220000Y14390952D01*
X-46267619Y14248095D01*
X-46267619Y14152857D01*
X-46220000Y14010000D01*
X-46172380Y13962380D01*
X-45267619Y12771904D02*
X-45934285Y12771904D01*
X-45839047Y12771904D02*
X-45886666Y12724285D01*
X-45934285Y12629047D01*
X-45934285Y12486190D01*
X-45886666Y12390952D01*
X-45791428Y12343333D01*
X-45267619Y12343333D01*
X-45791428Y12343333D02*
X-45886666Y12295714D01*
X-45934285Y12200476D01*
X-45934285Y12057619D01*
X-45886666Y11962380D01*
X-45791428Y11914761D01*
X-45267619Y11914761D01*
X-45267619Y11295714D02*
X-45315238Y11390952D01*
X-45362857Y11438571D01*
X-45458095Y11486190D01*
X-45743809Y11486190D01*
X-45839047Y11438571D01*
X-45886666Y11390952D01*
X-45934285Y11295714D01*
X-45934285Y11152857D01*
X-45886666Y11057619D01*
X-45839047Y11010000D01*
X-45743809Y10962380D01*
X-45458095Y10962380D01*
X-45362857Y11010000D01*
X-45315238Y11057619D01*
X-45267619Y11152857D01*
X-45267619Y11295714D01*
X-45267619Y10105238D02*
X-46267619Y10105238D01*
X-45315238Y10105238D02*
X-45267619Y10200476D01*
X-45267619Y10390952D01*
X-45315238Y10486190D01*
X-45362857Y10533809D01*
X-45458095Y10581428D01*
X-45743809Y10581428D01*
X-45839047Y10533809D01*
X-45886666Y10486190D01*
X-45934285Y10390952D01*
X-45934285Y10200476D01*
X-45886666Y10105238D01*
X-45934285Y9200476D02*
X-45267619Y9200476D01*
X-45934285Y9629047D02*
X-45410476Y9629047D01*
X-45315238Y9581428D01*
X-45267619Y9486190D01*
X-45267619Y9343333D01*
X-45315238Y9248095D01*
X-45362857Y9200476D01*
X-45267619Y8581428D02*
X-45315238Y8676666D01*
X-45410476Y8724285D01*
X-46267619Y8724285D01*
X-45315238Y7819523D02*
X-45267619Y7914761D01*
X-45267619Y8105238D01*
X-45315238Y8200476D01*
X-45410476Y8248095D01*
X-45791428Y8248095D01*
X-45886666Y8200476D01*
X-45934285Y8105238D01*
X-45934285Y7914761D01*
X-45886666Y7819523D01*
X-45791428Y7771904D01*
X-45696190Y7771904D01*
X-45600952Y8248095D01*
X21264571Y15811904D02*
X21264571Y16573809D01*
X20931238Y17764285D02*
X20883619Y17907142D01*
X20883619Y18145238D01*
X20931238Y18240476D01*
X20978857Y18288095D01*
X21074095Y18335714D01*
X21169333Y18335714D01*
X21264571Y18288095D01*
X21312190Y18240476D01*
X21359809Y18145238D01*
X21407428Y17954761D01*
X21455047Y17859523D01*
X21502666Y17811904D01*
X21597904Y17764285D01*
X21693142Y17764285D01*
X21788380Y17811904D01*
X21836000Y17859523D01*
X21883619Y17954761D01*
X21883619Y18192857D01*
X21836000Y18335714D01*
X20883619Y18764285D02*
X21883619Y18764285D01*
X21883619Y19145238D01*
X21836000Y19240476D01*
X21788380Y19288095D01*
X21693142Y19335714D01*
X21550285Y19335714D01*
X21455047Y19288095D01*
X21407428Y19240476D01*
X21359809Y19145238D01*
X21359809Y18764285D01*
X20883619Y19764285D02*
X21883619Y19764285D01*
X20883619Y20335714D02*
X21455047Y19907142D01*
X21883619Y20335714D02*
X21312190Y19764285D01*
X21264571Y21526190D02*
X21264571Y22288095D01*
X20883619Y21907142D02*
X21645523Y21907142D01*
X-15653333Y33885238D02*
X-15796190Y33837619D01*
X-16034285Y33837619D01*
X-16129523Y33885238D01*
X-16177142Y33932857D01*
X-16224761Y34028095D01*
X-16224761Y34123333D01*
X-16177142Y34218571D01*
X-16129523Y34266190D01*
X-16034285Y34313809D01*
X-15843809Y34361428D01*
X-15748571Y34409047D01*
X-15700952Y34456666D01*
X-15653333Y34551904D01*
X-15653333Y34647142D01*
X-15700952Y34742380D01*
X-15748571Y34790000D01*
X-15843809Y34837619D01*
X-16081904Y34837619D01*
X-16224761Y34790000D01*
X-16558095Y34837619D02*
X-16796190Y33837619D01*
X-16986666Y34551904D01*
X-17177142Y33837619D01*
X-17415238Y34837619D01*
X-17796190Y33837619D02*
X-17796190Y34837619D01*
X-18034285Y34837619D01*
X-18177142Y34790000D01*
X-18272380Y34694761D01*
X-18320000Y34599523D01*
X-18367619Y34409047D01*
X-18367619Y34266190D01*
X-18320000Y34075714D01*
X-18272380Y33980476D01*
X-18177142Y33885238D01*
X-18034285Y33837619D01*
X-17796190Y33837619D01*
X-19510476Y33885238D02*
X-19653333Y33837619D01*
X-19891428Y33837619D01*
X-19986666Y33885238D01*
X-20034285Y33932857D01*
X-20081904Y34028095D01*
X-20081904Y34123333D01*
X-20034285Y34218571D01*
X-19986666Y34266190D01*
X-19891428Y34313809D01*
X-19700952Y34361428D01*
X-19605714Y34409047D01*
X-19558095Y34456666D01*
X-19510476Y34551904D01*
X-19510476Y34647142D01*
X-19558095Y34742380D01*
X-19605714Y34790000D01*
X-19700952Y34837619D01*
X-19939047Y34837619D01*
X-20081904Y34790000D01*
X-20462857Y34123333D02*
X-20939047Y34123333D01*
X-20367619Y33837619D02*
X-20700952Y34837619D01*
X-21034285Y33837619D01*
X-21367619Y33837619D02*
X-21367619Y34837619D01*
X-21700952Y34123333D01*
X-22034285Y34837619D01*
X-22034285Y33837619D01*
X-22510476Y33837619D02*
X-22510476Y34837619D01*
X-22748571Y34837619D01*
X-22891428Y34790000D01*
X-22986666Y34694761D01*
X-23034285Y34599523D01*
X-23081904Y34409047D01*
X-23081904Y34266190D01*
X-23034285Y34075714D01*
X-22986666Y33980476D01*
X-22891428Y33885238D01*
X-22748571Y33837619D01*
X-22510476Y33837619D01*
X-23462857Y34742380D02*
X-23510476Y34790000D01*
X-23605714Y34837619D01*
X-23843809Y34837619D01*
X-23939047Y34790000D01*
X-23986666Y34742380D01*
X-24034285Y34647142D01*
X-24034285Y34551904D01*
X-23986666Y34409047D01*
X-23415238Y33837619D01*
X-24034285Y33837619D01*
X-24986666Y33837619D02*
X-24415238Y33837619D01*
X-24700952Y33837619D02*
X-24700952Y34837619D01*
X-24605714Y34694761D01*
X-24510476Y34599523D01*
X-24415238Y34551904D01*
X16564976Y-18375380D02*
X17041166Y-18375380D01*
X17088785Y-18851571D01*
X17041166Y-18803952D01*
X16945928Y-18756333D01*
X16707833Y-18756333D01*
X16612595Y-18803952D01*
X16564976Y-18851571D01*
X16517357Y-18946809D01*
X16517357Y-19184904D01*
X16564976Y-19280142D01*
X16612595Y-19327761D01*
X16707833Y-19375380D01*
X16945928Y-19375380D01*
X17041166Y-19327761D01*
X17088785Y-19280142D01*
X16041166Y-19327761D02*
X16041166Y-19375380D01*
X16088785Y-19470619D01*
X16136404Y-19518238D01*
X14993547Y-18375380D02*
X14422119Y-18375380D01*
X14707833Y-19375380D02*
X14707833Y-18375380D01*
X13564976Y-19375380D02*
X14136404Y-19375380D01*
X13850690Y-19375380D02*
X13850690Y-18375380D01*
X13945928Y-18518238D01*
X14041166Y-18613476D01*
X14136404Y-18661095D01*
X13184023Y-18470619D02*
X13136404Y-18423000D01*
X13041166Y-18375380D01*
X12803071Y-18375380D01*
X12707833Y-18423000D01*
X12660214Y-18470619D01*
X12612595Y-18565857D01*
X12612595Y-18661095D01*
X12660214Y-18803952D01*
X13231642Y-19375380D01*
X12612595Y-19375380D01*
X12184023Y-18994428D02*
X11422119Y-18994428D01*
X11803071Y-19375380D02*
X11803071Y-18613476D01*
X22163071Y-17184714D02*
X22163071Y-17851380D01*
X22401166Y-16803761D02*
X22639261Y-17518047D01*
X22020214Y-17518047D01*
X21591642Y-17803761D02*
X21591642Y-17851380D01*
X21639261Y-17946619D01*
X21686880Y-17994238D01*
X20544023Y-16851380D02*
X19972595Y-16851380D01*
X20258309Y-17851380D02*
X20258309Y-16851380D01*
X19115452Y-17851380D02*
X19686880Y-17851380D01*
X19401166Y-17851380D02*
X19401166Y-16851380D01*
X19496404Y-16994238D01*
X19591642Y-17089476D01*
X19686880Y-17137095D01*
X18734500Y-16946619D02*
X18686880Y-16899000D01*
X18591642Y-16851380D01*
X18353547Y-16851380D01*
X18258309Y-16899000D01*
X18210690Y-16946619D01*
X18163071Y-17041857D01*
X18163071Y-17137095D01*
X18210690Y-17279952D01*
X18782119Y-17851380D01*
X18163071Y-17851380D01*
X17734500Y-17470428D02*
X16972595Y-17470428D01*
X16523642Y-24782380D02*
X15904595Y-24782380D01*
X16237928Y-25163333D01*
X16095071Y-25163333D01*
X15999833Y-25210952D01*
X15952214Y-25258571D01*
X15904595Y-25353809D01*
X15904595Y-25591904D01*
X15952214Y-25687142D01*
X15999833Y-25734761D01*
X16095071Y-25782380D01*
X16380785Y-25782380D01*
X16476023Y-25734761D01*
X16523642Y-25687142D01*
X15428404Y-25734761D02*
X15428404Y-25782380D01*
X15476023Y-25877619D01*
X15523642Y-25925238D01*
X14237928Y-25258571D02*
X13904595Y-25258571D01*
X13761738Y-25782380D02*
X14237928Y-25782380D01*
X14237928Y-24782380D01*
X13761738Y-24782380D01*
X13380785Y-25734761D02*
X13237928Y-25782380D01*
X12999833Y-25782380D01*
X12904595Y-25734761D01*
X12856976Y-25687142D01*
X12809357Y-25591904D01*
X12809357Y-25496666D01*
X12856976Y-25401428D01*
X12904595Y-25353809D01*
X12999833Y-25306190D01*
X13190309Y-25258571D01*
X13285547Y-25210952D01*
X13333166Y-25163333D01*
X13380785Y-25068095D01*
X13380785Y-24972857D01*
X13333166Y-24877619D01*
X13285547Y-24830000D01*
X13190309Y-24782380D01*
X12952214Y-24782380D01*
X12809357Y-24830000D01*
X12380785Y-25782380D02*
X12380785Y-24782380D01*
X12142690Y-24782380D01*
X11999833Y-24830000D01*
X11904595Y-24925238D01*
X11856976Y-25020476D01*
X11809357Y-25210952D01*
X11809357Y-25353809D01*
X11856976Y-25544285D01*
X11904595Y-25639523D01*
X11999833Y-25734761D01*
X12142690Y-25782380D01*
X12380785Y-25782380D01*
X36321904Y-24900000D02*
X36417142Y-24852380D01*
X36560000Y-24852380D01*
X36702857Y-24900000D01*
X36798095Y-24995238D01*
X36845714Y-25090476D01*
X36893333Y-25280952D01*
X36893333Y-25423809D01*
X36845714Y-25614285D01*
X36798095Y-25709523D01*
X36702857Y-25804761D01*
X36560000Y-25852380D01*
X36464761Y-25852380D01*
X36321904Y-25804761D01*
X36274285Y-25757142D01*
X36274285Y-25423809D01*
X36464761Y-25423809D01*
X35845714Y-25852380D02*
X35845714Y-24852380D01*
X35274285Y-25852380D01*
X35274285Y-24852380D01*
X34798095Y-25852380D02*
X34798095Y-24852380D01*
X34560000Y-24852380D01*
X34417142Y-24900000D01*
X34321904Y-24995238D01*
X34274285Y-25090476D01*
X34226666Y-25280952D01*
X34226666Y-25423809D01*
X34274285Y-25614285D01*
X34321904Y-25709523D01*
X34417142Y-25804761D01*
X34560000Y-25852380D01*
X34798095Y-25852380D01*
X32684404Y-15168571D02*
X32351071Y-15168571D01*
X32208214Y-15692380D02*
X32684404Y-15692380D01*
X32684404Y-14692380D01*
X32208214Y-14692380D01*
X31827261Y-15406666D02*
X31351071Y-15406666D01*
X31922500Y-15692380D02*
X31589166Y-14692380D01*
X31255833Y-15692380D01*
X30351071Y-15692380D02*
X30684404Y-15216190D01*
X30922500Y-15692380D02*
X30922500Y-14692380D01*
X30541547Y-14692380D01*
X30446309Y-14740000D01*
X30398690Y-14787619D01*
X30351071Y-14882857D01*
X30351071Y-15025714D01*
X30398690Y-15120952D01*
X30446309Y-15168571D01*
X30541547Y-15216190D01*
X30922500Y-15216190D01*
X30065357Y-14692380D02*
X29493928Y-14692380D01*
X29779642Y-15692380D02*
X29779642Y-14692380D01*
X29160595Y-15692380D02*
X29160595Y-14692380D01*
X29160595Y-15168571D02*
X28589166Y-15168571D01*
X28589166Y-15692380D02*
X28589166Y-14692380D01*
X32940476Y-7167619D02*
X32892857Y-7120000D01*
X32797619Y-7072380D01*
X32559523Y-7072380D01*
X32464285Y-7120000D01*
X32416666Y-7167619D01*
X32369047Y-7262857D01*
X32369047Y-7358095D01*
X32416666Y-7500952D01*
X32988095Y-8072380D01*
X32369047Y-8072380D01*
X31511904Y-7405714D02*
X31511904Y-8072380D01*
X31750000Y-7024761D02*
X31988095Y-7739047D01*
X31369047Y-7739047D01*
X31130952Y-7072380D02*
X30797619Y-8072380D01*
X30464285Y-7072380D01*
D11*
X-31230000Y39950000D02*
X-37350000Y39950000D01*
X-37350000Y39950000D02*
X-37350000Y36250000D01*
X-37350000Y36250000D02*
X-31230000Y36250000D01*
X-31230000Y36250000D02*
X-31230000Y39950000D01*
X-13910000Y40700000D02*
X-13910000Y35500000D01*
X-24130000Y40700000D02*
X-13910000Y40700000D01*
X-26730000Y35500000D02*
X-13910000Y35500000D01*
X-24130000Y40700000D02*
X-24130000Y38100000D01*
X-24130000Y38100000D02*
X-26730000Y38100000D01*
X-26730000Y38100000D02*
X-26730000Y35500000D01*
X-25400000Y40700000D02*
X-26730000Y40700000D01*
X-26730000Y40700000D02*
X-26730000Y39370000D01*
X-44973000Y-10650000D02*
X-44523000Y-10650000D01*
X-44523000Y-10200000D02*
X-44523000Y-10650000D01*
X-45203000Y-12650000D02*
X-45203000Y-12230000D01*
X-47183000Y-12650000D02*
X-45203000Y-12650000D01*
X-49553000Y-12650000D02*
X-49153000Y-12650000D01*
X-49153000Y-5130000D02*
X-49553000Y-5130000D01*
X-45203000Y-5130000D02*
X-45203000Y-5550000D01*
X-47183000Y-5130000D02*
X-45203000Y-5130000D01*
X36760000Y-22860000D02*
G75*
G03*
X36760000Y-22860000I-1200000J0D01*
G01*
X36760000Y-15240000D02*
G75*
G03*
X36760000Y-15240000I-1200000J0D01*
G01*
X36760000Y-7620000D02*
G75*
G03*
X36760000Y-7620000I-1200000J0D01*
G01*
X11360000Y-17780000D02*
G75*
G03*
X11360000Y-17780000I-1200000J0D01*
G01*
X25330000Y-18415000D02*
G75*
G03*
X25330000Y-18415000I-1200000J0D01*
G01*
X11360000Y-25330000D02*
G75*
G03*
X11360000Y-25330000I-1200000J0D01*
G01*
X-17850000Y-1270000D02*
G75*
G03*
X-17850000Y-1270000I-1200000J0D01*
G01*
X-17850000Y-5080000D02*
G75*
G03*
X-17850000Y-5080000I-1200000J0D01*
G01*
X-43180000Y2540000D02*
X-43180000Y5080000D01*
X5080000Y5080000D02*
X-43180000Y5080000D01*
X5080000Y5080000D02*
X5080000Y2540000D01*
X-43180000Y2540000D02*
X5080000Y2540000D01*
X-43180000Y27940000D02*
X-43180000Y30480000D01*
X5080000Y27940000D02*
X-43180000Y27940000D01*
X5080000Y30480000D02*
X5080000Y27940000D01*
X-43180000Y30480000D02*
X5080000Y30480000D01*
X-43434000Y29464000D02*
X-43434000Y27686000D01*
X-41656000Y27686000D02*
X-43434000Y27686000D01*
X-49149000Y2286000D02*
X5334000Y2286000D01*
X-49149000Y30734000D02*
X5334000Y30741000D01*
X5334000Y30734000D02*
X5334000Y2286000D01*
X-49149000Y30734000D02*
X-49149000Y2286000D01*
D10*
X-38036666Y39600238D02*
X-38179523Y39552619D01*
X-38417619Y39552619D01*
X-38512857Y39600238D01*
X-38560476Y39647857D01*
X-38608095Y39743095D01*
X-38608095Y39838333D01*
X-38560476Y39933571D01*
X-38512857Y39981190D01*
X-38417619Y40028809D01*
X-38227142Y40076428D01*
X-38131904Y40124047D01*
X-38084285Y40171666D01*
X-38036666Y40266904D01*
X-38036666Y40362142D01*
X-38084285Y40457380D01*
X-38131904Y40505000D01*
X-38227142Y40552619D01*
X-38465238Y40552619D01*
X-38608095Y40505000D01*
X-38941428Y40552619D02*
X-39179523Y39552619D01*
X-39370000Y40266904D01*
X-39560476Y39552619D01*
X-39798571Y40552619D01*
X-40131904Y40457380D02*
X-40179523Y40505000D01*
X-40274761Y40552619D01*
X-40512857Y40552619D01*
X-40608095Y40505000D01*
X-40655714Y40457380D01*
X-40703333Y40362142D01*
X-40703333Y40266904D01*
X-40655714Y40124047D01*
X-40084285Y39552619D01*
X-40703333Y39552619D01*
X-27638476Y40552619D02*
X-27638476Y39838333D01*
X-27590857Y39695476D01*
X-27495619Y39600238D01*
X-27352761Y39552619D01*
X-27257523Y39552619D01*
X-28638476Y39552619D02*
X-28067047Y39552619D01*
X-28352761Y39552619D02*
X-28352761Y40552619D01*
X-28257523Y40409761D01*
X-28162285Y40314523D01*
X-28067047Y40266904D01*
X-29590857Y39552619D02*
X-29019428Y39552619D01*
X-29305142Y39552619D02*
X-29305142Y40552619D01*
X-29209904Y40409761D01*
X-29114666Y40314523D01*
X-29019428Y40266904D01*
X-46053476Y-3008380D02*
X-46053476Y-3722666D01*
X-46005857Y-3865523D01*
X-45910619Y-3960761D01*
X-45767761Y-4008380D01*
X-45672523Y-4008380D01*
X-47053476Y-4008380D02*
X-46482047Y-4008380D01*
X-46767761Y-4008380D02*
X-46767761Y-3008380D01*
X-46672523Y-3151238D01*
X-46577285Y-3246476D01*
X-46482047Y-3294095D01*
X-47672523Y-3008380D02*
X-47767761Y-3008380D01*
X-47863000Y-3056000D01*
X-47910619Y-3103619D01*
X-47958238Y-3198857D01*
X-48005857Y-3389333D01*
X-48005857Y-3627428D01*
X-47958238Y-3817904D01*
X-47910619Y-3913142D01*
X-47863000Y-3960761D01*
X-47767761Y-4008380D01*
X-47672523Y-4008380D01*
X-47577285Y-3960761D01*
X-47529666Y-3913142D01*
X-47482047Y-3817904D01*
X-47434428Y-3627428D01*
X-47434428Y-3389333D01*
X-47482047Y-3198857D01*
X-47529666Y-3103619D01*
X-47577285Y-3056000D01*
X-47672523Y-3008380D01*
X-48093333Y29924285D02*
X-48093333Y29448095D01*
X-47807619Y30019523D02*
X-48807619Y29686190D01*
X-47807619Y29352857D01*
X-47807619Y28495714D02*
X-47807619Y29067142D01*
X-47807619Y28781428D02*
X-48807619Y28781428D01*
X-48664761Y28876666D01*
X-48569523Y28971904D01*
X-48521904Y29067142D01*
M02*
